<svg width="87" height="88" viewBox="0 0 87 88" fill="none" xmlns="http://www.w3.org/2000/svg">
<path fill-rule="evenodd" clip-rule="evenodd" d="M9.42309 13.006C9.42442 12.234 9.48814 11.7553 9.74547 11.119C10.1819 10.04 10.8359 9.5068 11.7575 8.96753C12.3357 8.62923 13.0358 8.5504 13.7675 8.55032L31.8282 8.55024C35.5824 8.55052 39.3409 8.49761 43.0948 8.56863L43.0922 15.3837C43.0897 16.0381 43.3945 16.4312 44.0727 16.3994C44.73 16.3686 44.9398 15.99 44.9401 15.3331C44.9405 13.0766 44.9057 10.8168 44.9444 8.56046L71.997 8.54953C74.1559 8.54971 76.2006 8.33867 77.5753 10.3176C77.7257 10.5341 77.8382 10.7301 77.9739 11.0276C78.7801 12.7951 77.6452 14.9383 79.332 14.8707C80.0008 14.8439 80.1986 14.4189 80.1989 13.7648C80.1995 12.5722 80.1839 11.2793 79.7293 10.2307C79.5159 9.73851 79.0586 8.92619 78.6536 8.57435C78.561 8.49392 78.5393 8.49296 78.4625 8.41183L78.0447 8.01806C76.8662 7.11052 75.6621 6.66608 74.0712 6.66725L63.5484 6.66838C57.345 6.66958 51.14 6.6146 44.9369 6.672L44.9399 4.25382C44.9403 3.56872 45.0413 1.44631 44.8066 1.09016C44.3897 0.45728 43.0944 0.488395 43.094 1.72431L43.0834 6.66377L15.8923 6.66904C13.3329 6.66822 11.2584 6.46359 9.30471 8.39166C8.33301 9.35065 7.55975 10.7734 7.55979 12.753L7.55934 17.2555C7.56047 25.687 7.61439 34.1217 7.55451 42.5531L2.38469 42.5523C1.65388 42.553 0.836946 42.4941 0.848759 43.5194C0.855824 44.134 1.22039 44.4126 1.82819 44.4125L7.55731 44.4072L7.55844 74.4732C7.55705 75.4775 7.67207 76.593 8.05158 77.407C8.22143 77.7712 8.37591 78.0473 8.5971 78.3793C8.71123 78.5506 8.7923 78.6418 8.93185 78.8042L9.485 79.4116C9.95341 79.8454 10.4745 80.1803 11.0859 80.4435C11.9059 80.7965 12.6474 80.9096 13.6663 80.9097L21.2549 80.9092C28.5335 80.9094 35.8144 80.8529 43.0927 80.9179L43.093 84.996C43.0937 85.8689 42.8887 87.1362 44.0204 87.1351C44.7054 87.1345 44.9371 86.7378 44.9377 86.109C44.9395 84.4141 44.8778 82.5746 44.9449 80.9103L73.0088 80.9081C75.3702 80.9084 76.859 80.8036 78.4482 79.2043C79.4542 78.192 80.1942 76.8709 80.1939 74.8779L80.1956 49.6839C80.1966 47.9334 80.146 46.1784 80.1995 44.429L84.6446 44.4245C85.6403 44.4244 87.0919 44.7062 86.9957 43.409C86.924 42.4423 86.0458 42.5492 85.3528 42.5517L80.1962 42.5533C80.2362 35.3352 80.1859 28.1163 80.1973 20.898C80.1986 20.1279 80.2308 19.1643 79.0807 19.3273C78.3551 19.4301 78.3276 20.049 78.3273 20.6451L78.3237 42.5569L65.7237 42.552C64.6821 42.5514 63.2592 42.297 63.2329 43.4603C63.2182 44.1071 63.5822 44.4311 64.206 44.4273L78.3233 44.4213L78.326 74.7262C78.326 76.1383 77.8405 77.0604 77.1411 77.7959C76.5006 78.4694 75.4637 79.034 74.1217 79.0348L61.1201 79.0342C55.7263 79.0345 50.3297 78.977 44.9363 79.0381C44.9741 73.0986 44.9357 67.1583 44.9376 61.2186C44.9378 60.3798 45.166 58.9927 43.9175 59.0867C43.2431 59.1374 43.0901 59.5718 43.0906 60.2574L43.0902 79.0235L14.6781 79.0343C12.6627 79.0333 11.2895 78.8731 10.1691 77.2618C9.64631 76.5099 9.42325 75.6942 9.42297 74.7262L9.42214 52.1629C9.42049 49.5829 9.47737 46.9959 9.42035 44.4162L12.0474 44.4115C12.8499 44.4111 14.1243 44.6204 14.2593 43.6571C14.3695 42.8709 13.8863 42.5525 13.1604 42.5513L9.41987 42.5557L9.42309 13.006Z" fill="#B1B1B1"/>
<path fill-rule="evenodd" clip-rule="evenodd" d="M20.539 66.0061L34.2802 66.0016L34.277 67.8434L20.5274 67.8441L20.539 66.0061V66.0061ZM20.5297 44.4117L22.5761 44.4078L22.5629 64.1401L20.5318 64.1443L20.5297 44.4117H20.5297ZM24.4458 44.4099L34.3068 44.4261C34.2243 44.6742 34.2781 47.9165 34.2778 48.4698L34.2699 60.6755C33.7709 60.7832 31.6352 60.6945 30.9681 60.6931C29.9074 60.691 28.6155 60.4118 28.6011 61.6231C28.595 62.1322 28.9041 62.4968 29.3567 62.5504C30.0801 62.6361 33.701 62.4803 34.2794 62.5719L34.2709 64.1414L24.4477 64.138L24.4458 44.4099H24.4458ZM18.6568 68.0988C18.7049 68.8568 19.2586 69.4768 19.9027 69.654C20.4168 69.7955 21.9853 69.7222 22.6207 69.722L33.8011 69.7223C35.0051 69.7237 35.7303 69.5376 36.0727 68.4937C36.1328 68.3108 36.145 68.1165 36.1473 67.8458C36.2069 60.9711 36.1485 53.8705 36.1481 46.952C36.148 45.1128 36.5831 43.1079 34.8397 42.6246C34.3121 42.4784 32.7748 42.5534 32.1316 42.5534L20.9512 42.5526C20.1514 42.5533 19.4589 42.5614 18.9532 43.3375C18.5269 43.9918 18.6486 44.9152 18.649 45.7885L18.6473 62.5339C18.649 63.8654 18.587 66.9961 18.6568 68.0988Z" fill="#B1B1B1"/>
<path fill-rule="evenodd" clip-rule="evenodd" d="M47.5989 50.4587C47.7613 50.6118 47.9647 50.7661 48.1289 50.9383C48.2264 51.0405 48.2622 51.1084 48.3663 51.205C48.4662 51.2977 48.5291 51.3547 48.6297 51.448L49.6418 52.4089C49.8209 52.574 50.0119 52.7173 50.1729 52.8911C50.5096 53.2544 50.8519 53.719 51.4064 53.7091C51.7192 53.7035 51.9502 53.5761 52.1035 53.4162C52.8346 52.653 52.0325 51.9893 51.5059 51.5076L48.9789 49.1274C49.0555 48.9581 50.0925 47.9776 50.2426 47.8649C50.578 48.1095 52.1427 49.6869 52.7767 50.2391C52.8265 50.2824 52.8637 50.3128 52.9068 50.3596C53.1021 50.5707 53.2143 50.6973 53.4094 50.8671C54.5038 51.8197 55.757 50.4299 54.7564 49.471C54.5794 49.3014 54.4074 49.1542 54.221 48.9929L53.7133 48.4913C53.5142 48.3118 53.3543 48.1646 53.1563 47.9841L52.6484 47.4817C52.2912 47.1581 51.9293 46.833 51.6081 46.4967L52.8733 45.2362L58.3606 50.4177C58.6476 50.7335 58.7418 50.7704 59.0103 51.1358C60.4155 53.0488 59.022 53.9883 60.2684 55.1899L64.3805 59.0714C64.6107 59.2818 64.8177 59.507 65.0471 59.719L69.1684 63.5933C69.3007 63.7174 69.3673 63.8014 69.4989 63.9166C71.2405 65.4411 70.1658 67.9433 67.9998 67.9465C67.1088 67.9478 66.7377 67.6376 66.2983 67.2205L62.6597 63.7252C62.2369 63.3217 61.951 62.9917 61.4258 62.5303C61.2089 62.3397 61.028 62.1244 60.8143 61.9294C60.6075 61.7406 60.3865 61.587 60.2095 61.3694C60.021 61.1376 59.8102 60.9732 59.5888 60.7759L57.1397 58.4693C56.1868 57.4001 55.2968 58.042 54.3404 58.0107C52.7079 57.9572 51.9546 57.0841 51.1789 56.3861L46.2888 51.7781C46.383 51.5637 46.7693 51.2642 46.9413 51.0872C47.1361 50.8868 47.3978 50.6303 47.5989 50.4587L47.5989 50.4587ZM61.6458 53.7817C61.8506 51.7695 60.8985 50.0544 59.5262 48.8477L57.23 46.6435C56.2063 45.7023 54.9756 44.4667 54.0264 43.6235C53.0908 42.7923 52.5341 42.8774 51.7 43.7041L48.9929 46.3602C48.9082 46.4426 48.8416 46.5006 48.7638 46.5862C47.9407 47.492 47.1951 48.1695 46.3115 49.0411C45.7129 49.6316 45.0972 50.1872 44.5273 50.7975C44.254 51.0902 43.9558 51.5706 44.1695 52.165C44.2913 52.5041 44.5188 52.7053 44.7452 52.9541C44.8108 53.0262 44.8784 53.0856 44.9517 53.1523C45.1223 53.3074 45.2584 53.4356 45.4332 53.5842L49.9935 57.9257C50.837 58.7232 51.4581 59.3169 52.6194 59.7031C53.9419 60.143 54.6605 59.9325 55.8296 59.8409C56.0495 60.1553 56.3888 60.4164 56.6649 60.6655C56.7538 60.7457 56.8232 60.7974 56.907 60.8828L58.3669 62.3007C58.5314 62.4513 58.653 62.5626 58.8188 62.7109C58.9721 62.8479 59.0649 62.973 59.2195 63.1168L61.3779 65.1587C61.6693 65.437 61.9642 65.6634 62.2261 65.9802L64.3649 67.9903C67.3141 71.485 71.6046 69.615 72.2014 66.6783C72.4342 65.5322 72.2214 64.4973 71.7184 63.6216C71.2541 62.8132 70.7056 62.4301 70.1191 61.8808L69.2676 61.0623C69.1039 60.9209 69.0199 60.7982 68.8656 60.6578C68.7129 60.5187 68.5969 60.4088 68.4405 60.271L66.7373 58.6376C65.8662 57.8597 64.9928 56.9519 64.1575 56.2066L61.6458 53.7817H61.6458Z" fill="#B1B1B1"/>
<path fill-rule="evenodd" clip-rule="evenodd" d="M14.066 55.2488C14.0664 54.5159 13.9695 54.0192 13.2571 53.9437C12.5154 53.8652 12.2153 54.3054 12.2153 54.9955L12.2227 75.1321C12.2208 76.4566 13.1422 76.248 14.2733 76.2475L22.7726 76.2478C23.4643 76.2482 23.9243 75.9375 23.8353 75.1816C23.7499 74.4566 23.2604 74.3833 22.5195 74.3875C19.7118 74.4032 16.8666 74.3326 14.0655 74.3947L14.066 55.2488L14.066 55.2488Z" fill="#B1B1B1"/>
<path fill-rule="evenodd" clip-rule="evenodd" d="M51.7197 75.6367C51.926 76.5203 53.0718 76.2938 53.9865 76.2931L71.339 76.2916C71.794 76.2909 72.3075 76.3578 72.6238 76.1141C72.8791 75.9172 73.071 75.524 72.9422 75.0448C72.7034 74.1563 71.6504 74.3904 70.6813 74.3896C69.7201 74.3888 68.7589 74.3913 67.7977 74.3907L53.3288 74.3909C52.8983 74.3911 52.3324 74.3316 52.0379 74.5486C51.7567 74.7559 51.6121 75.1757 51.7197 75.6366L51.7197 75.6367Z" fill="#B1B1B1"/>
<path fill-rule="evenodd" clip-rule="evenodd" d="M60.8123 23.9327C60.0318 23.9724 58.052 23.8195 57.6821 24.0892C57.1972 24.4426 57.2102 25.2931 57.6544 25.6257C58.0574 25.9275 59.8666 25.7264 60.8138 25.7939C60.808 26.3149 60.7209 29.1715 60.9177 29.5478C61.2554 30.1933 62.6816 30.3191 62.682 28.9929C62.6822 28.3473 62.632 26.0712 62.7102 25.7814C63.2731 25.7819 65.4289 25.8896 65.8486 25.6263C66.1893 25.4125 66.747 23.9321 64.9142 23.9372C64.1775 23.9392 63.415 23.919 62.6819 23.9469C62.6891 23.4043 62.7924 20.8342 62.5477 20.4323C62.3952 20.1818 62.1344 20.0165 61.7749 20.0008C60.7273 19.9548 60.8142 20.9666 60.814 21.4544C60.8137 22.2799 60.8207 23.1074 60.8123 23.9327Z" fill="#B1B1B1"/>
<path fill-rule="evenodd" clip-rule="evenodd" d="M25.3487 23.933C24.5251 23.9697 22.672 23.8118 22.2819 24.1C21.833 24.4316 21.8142 25.2052 22.2267 25.593C22.4417 25.7951 22.7741 25.7842 23.1265 25.7831C23.8661 25.7807 24.6117 25.7733 25.3507 25.7841C25.3454 26.5328 25.3507 27.2824 25.35 28.0313C25.3493 28.79 25.4875 29.3253 26.2641 29.337C27.0381 29.3486 27.2066 28.8113 27.2055 28.0819C27.2043 27.3228 27.2271 26.5401 27.1998 25.7842C27.916 25.7879 28.6329 25.779 29.3492 25.7801C29.8184 25.7809 30.59 25.8137 30.6165 24.8946C30.6391 24.1082 30.0227 23.9361 29.3997 23.9365C28.6729 23.9369 27.9232 23.9217 27.1992 23.949C27.2313 23.2062 27.2038 22.4061 27.203 21.6569C27.2026 21.1963 27.2902 20.2723 26.3143 20.2398C25.3102 20.2065 25.3502 21.0588 25.3504 21.6063C25.3506 22.3817 25.3534 23.1576 25.3487 23.9329V23.933Z" fill="#B1B1B1"/>
<path fill-rule="evenodd" clip-rule="evenodd" d="M43.7005 20.4181C43.0452 20.6175 43.0917 21.1061 43.0921 21.8592L43.0934 32.1291C43.0935 32.7987 43.0606 33.5452 43.0926 34.2049C43.1231 34.8321 43.6829 35.1833 44.3564 34.9933C45.0003 34.8116 44.9392 34.2281 44.9395 33.5456L44.9391 23.2758C44.9392 22.6233 44.9784 21.8351 44.9362 21.1991C44.8968 20.6053 44.3475 20.2212 43.7005 20.4181V20.4181Z" fill="#B1B1B1"/>
<path fill-rule="evenodd" clip-rule="evenodd" d="M53.9038 67.5929C54.1284 67.3201 54.4932 67.0664 54.7319 66.8203C54.8301 66.719 54.9834 66.5031 54.9957 66.276C55.0304 65.6377 54.2741 65.149 53.663 65.7501C53.4242 65.985 53.1293 66.349 52.8233 66.544L51.997 65.7401C51.1831 65.0705 50.3433 65.9627 50.8123 66.6705C50.8981 66.8 50.8737 66.7444 50.983 66.8522L51.7615 67.6435L50.9506 68.4514C50.6499 68.7145 50.5841 69.2526 50.8936 69.5732C51.5619 70.2653 52.4148 69.1279 52.8233 68.704C53.1879 68.8264 53.9752 70.3699 54.815 69.5337C55.481 68.8705 54.4793 68.227 54.0951 67.7886C54.0137 67.6958 53.9726 67.6812 53.9039 67.5929L53.9038 67.5929Z" fill="#B1B1B1"/>
<path fill-rule="evenodd" clip-rule="evenodd" d="M69.9681 50.9867C69.2059 50.9863 68.0899 50.7738 68.0611 51.6586C68.0301 52.6142 69.2128 52.376 69.9695 52.3786C70.0712 53.1495 69.7164 54.3024 70.6325 54.3354C71.6243 54.3712 71.2934 53.1823 71.3718 52.3975C72.0808 52.306 72.7466 52.5319 73.0839 52.1876C73.4422 51.8218 73.3137 51.0629 72.6681 50.9897C72.2632 50.9438 71.7779 51.0089 71.3605 50.9781C71.3503 50.2041 71.5693 49.0653 70.6824 49.053C69.703 49.0393 70.057 50.2541 69.9681 50.9867V50.9867Z" fill="#B1B1B1"/>
<path fill-rule="evenodd" clip-rule="evenodd" d="M33.2742 16.8199C32.7515 16.9295 31.6473 18.1615 31.2297 18.6299C30.8027 19.1089 29.8166 19.8418 29.6621 20.3533C29.4467 21.066 30.0291 21.685 30.7514 21.5392C31.1589 21.457 31.8067 20.7091 32.0521 20.464C32.4606 20.056 32.8396 19.6895 33.253 19.287C33.4789 19.067 34.2741 18.3028 34.364 18.0189C34.5831 17.3266 33.9724 16.6736 33.2742 16.8199V16.8199Z" fill="#B1B1B1"/>
<path fill-rule="evenodd" clip-rule="evenodd" d="M22.0691 28.0189C21.6519 28.1608 21.0168 28.9544 20.6835 29.2809C20.2381 29.7172 19.51 30.2735 19.5025 30.7636C19.4948 31.2758 19.9668 31.6505 20.518 31.4911C20.7673 31.419 22.0724 30.0555 22.3512 29.7852C22.5621 29.5807 23.0996 29.1849 23.0945 28.7464C23.0885 28.2321 22.5984 27.8389 22.0691 28.0189Z" fill="#B1B1B1"/>
<path fill-rule="evenodd" clip-rule="evenodd" d="M55.1088 17.4466C54.5264 17.656 54.4757 18.229 54.6915 18.5744C54.8782 18.8734 55.3077 19.2141 55.5797 19.4583L56.472 20.3351C56.7071 20.5655 57.0603 21.0068 57.6174 20.8364C58.004 20.7182 58.344 20.2283 58.0446 19.7253C57.9252 19.5247 57.7722 19.4238 57.6231 19.2846C57.5325 19.1999 57.4992 19.1402 57.4088 19.046L56.2706 17.9579C56.0273 17.7387 55.6538 17.2506 55.1088 17.4466H55.1088Z" fill="#B1B1B1"/>
<path fill-rule="evenodd" clip-rule="evenodd" d="M66.0909 64.5069C66.2 64.9351 66.5145 65.0651 66.7662 65.3352C67.021 65.6085 67.2403 65.8546 67.4987 66.1212C68.1761 66.8202 69.2789 66.2545 69.0518 65.3266C68.9448 64.8898 68.6271 64.7599 68.3736 64.4881C68.1186 64.2145 67.8994 63.9696 67.6413 63.702C66.9633 62.999 65.8532 63.5742 66.0909 64.5069H66.0909Z" fill="#B1B1B1"/>
<path fill-rule="evenodd" clip-rule="evenodd" d="M29.5153 75.4344C29.537 75.7439 29.7022 76.0191 29.9432 76.1625C30.2144 76.3238 32.0316 76.3646 32.4349 76.0917C32.6573 75.9412 32.8159 75.6335 32.7629 75.1988C32.7169 74.8223 32.5283 74.5678 32.2022 74.4492C31.9909 74.3722 30.2307 74.2961 29.8811 74.5481C29.6433 74.7196 29.4855 75.008 29.5153 75.4345V75.4344Z" fill="#B1B1B1"/>
<path fill-rule="evenodd" clip-rule="evenodd" d="M41.6673 40.4716C41.2309 40.635 41.296 40.8732 41.2972 41.4883C41.2981 41.9435 41.2984 42.3989 41.2986 42.8542C41.2989 43.5788 41.0354 45.0859 42.0506 44.7824C42.4995 44.6482 42.4073 44.2233 42.4074 43.7648C42.4075 43.3095 42.4077 42.8542 42.408 42.3989C42.4084 41.7271 42.6525 40.1025 41.6673 40.4716L41.6673 40.4716Z" fill="#B1B1B1"/>
<path fill-rule="evenodd" clip-rule="evenodd" d="M43.7396 40.4712C43.2965 40.6266 43.3641 40.8026 43.365 41.4882L43.3642 44.2224C43.381 44.6725 43.6518 44.9181 44.1212 44.7774C44.5394 44.6521 44.4697 44.2404 44.4704 43.7648C44.4711 43.3095 44.4721 42.8542 44.471 42.3989C44.4693 41.6962 44.7162 40.1288 43.7396 40.4713V40.4712Z" fill="#B1B1B1"/>
<path fill-rule="evenodd" clip-rule="evenodd" d="M45.8015 40.4651C45.3342 40.6167 45.4327 40.9858 45.4315 41.4884C45.4305 41.9436 45.4305 42.399 45.43 42.8543C45.429 43.7313 45.1914 45.1059 46.1958 44.7778C46.6105 44.6424 46.5338 44.2279 46.5337 43.7649L46.5307 41.0332C46.5139 40.6009 46.2521 40.3189 45.8015 40.4651Z" fill="#B1B1B1"/>
<path fill-rule="evenodd" clip-rule="evenodd" d="M47.8729 40.4642C47.4118 40.6127 47.496 40.9815 47.4966 41.4882L47.4991 44.2208C47.5129 44.6707 47.796 44.9319 48.2619 44.7717C48.666 44.6328 48.6035 44.2265 48.6033 43.7647C48.6031 43.3094 48.6025 42.8541 48.6013 42.3988C48.5995 41.7382 48.8525 40.1486 47.8729 40.4642L47.8729 40.4642Z" fill="#B1B1B1"/>
<path fill-rule="evenodd" clip-rule="evenodd" d="M16.9587 14.7106C15.5758 15.0946 16.1865 17.1256 17.5284 16.7162C17.9937 16.5743 18.4218 16.0903 18.2296 15.4274C18.0917 14.9518 17.6062 14.5308 16.9587 14.7106Z" fill="#B1B1B1"/>
<path fill-rule="evenodd" clip-rule="evenodd" d="M17.0489 32.9649C15.6185 33.2322 16.073 35.2962 17.4211 35.0238C17.9105 34.9248 18.367 34.4506 18.2495 33.8168C18.1577 33.3213 17.6419 32.8541 17.0489 32.9649H17.0489Z" fill="#B1B1B1"/>
<path fill-rule="evenodd" clip-rule="evenodd" d="M34.9508 14.701C33.5926 15.0595 34.1131 17.0753 35.4556 16.734C35.9279 16.6139 36.3619 16.0819 36.2034 15.4592C36.0781 14.9672 35.5706 14.5374 34.9508 14.701H34.9508Z" fill="#B1B1B1"/>
<path fill-rule="evenodd" clip-rule="evenodd" d="M35.0254 32.9739C33.6014 33.2427 34.0462 35.2985 35.3835 35.0304C35.8848 34.9299 36.3486 34.4596 36.2175 33.8088C36.1215 33.3321 35.6124 32.8631 35.0254 32.9739H35.0254Z" fill="#B1B1B1"/>
<path fill-rule="evenodd" clip-rule="evenodd" d="M26.0491 14.7021C24.6805 15.0646 25.2238 17.0677 26.5492 16.7313C27.0283 16.6097 27.4525 16.0865 27.3003 15.4595C27.1812 14.969 26.6611 14.54 26.0491 14.7021Z" fill="#B1B1B1"/>
<path fill-rule="evenodd" clip-rule="evenodd" d="M26.1221 32.9743C24.7228 33.2419 25.1456 35.3016 26.4806 35.0322C26.9818 34.931 27.4422 34.4744 27.3152 33.8075C27.225 33.3333 26.7074 32.8624 26.1221 32.9743V32.9743Z" fill="#B1B1B1"/>
<path fill-rule="evenodd" clip-rule="evenodd" d="M35.0094 23.8599C34.4672 23.9678 34.0408 24.4284 34.1576 25.0933C34.2476 25.6052 34.7547 26.047 35.4148 25.9043C35.885 25.8026 36.3621 25.2941 36.2055 24.6652C36.089 24.1972 35.5969 23.7429 35.0094 23.8599L35.0094 23.8599Z" fill="#B1B1B1"/>
<path fill-rule="evenodd" clip-rule="evenodd" d="M17.0571 23.8634C15.6497 24.1339 16.0363 26.1931 17.457 25.9033C17.892 25.8145 18.3875 25.3087 18.2413 24.6759C18.1348 24.2144 17.6513 23.7492 17.0571 23.8634Z" fill="#B1B1B1"/>
<path fill-rule="evenodd" clip-rule="evenodd" d="M26.9237 75.5862C27.2727 74.3081 25.3336 73.8665 25.0104 75.0411C24.6435 76.3749 26.6038 76.7581 26.9237 75.5862Z" fill="#B1B1B1"/>
<path fill-rule="evenodd" clip-rule="evenodd" d="M78.9376 15.4198C78.3565 15.5465 78.2629 16.0493 78.366 16.6998C78.451 17.2359 79.0456 17.3867 79.6271 17.2465C80.1345 17.1242 80.2419 16.5593 80.1276 15.9511C80.0344 15.4547 79.5154 15.2938 78.9376 15.4198V15.4198Z" fill="#B1B1B1"/>
<path fill-rule="evenodd" clip-rule="evenodd" d="M61.5487 33.3372C60.3627 33.6648 60.8578 35.3936 62.0607 35.042C63.1182 34.733 62.7355 33.0093 61.5487 33.3372Z" fill="#B1B1B1"/>
<path fill-rule="evenodd" clip-rule="evenodd" d="M52.3906 33.3359C51.1626 33.6586 51.7168 35.4128 52.9032 35.0417C53.9658 34.7093 53.5292 33.0368 52.3906 33.3359Z" fill="#B1B1B1"/>
<path fill-rule="evenodd" clip-rule="evenodd" d="M61.6296 14.6067C60.4005 14.8655 60.8026 16.5898 61.9507 16.3659C62.4372 16.2711 62.7901 15.8566 62.6697 15.3021C62.5792 14.8852 62.1272 14.5019 61.6296 14.6067H61.6296Z" fill="#B1B1B1"/>
<path fill-rule="evenodd" clip-rule="evenodd" d="M52.4403 14.6162C51.2241 14.8926 51.6189 16.5889 52.7923 16.3604C53.9886 16.1274 53.5551 14.363 52.4403 14.6162Z" fill="#B1B1B1"/>
<path fill-rule="evenodd" clip-rule="evenodd" d="M70.7556 14.6168C69.547 14.8886 69.9416 16.6168 71.1017 16.368C72.3013 16.1106 71.8482 14.3712 70.7556 14.6168Z" fill="#B1B1B1"/>
<path fill-rule="evenodd" clip-rule="evenodd" d="M52.4403 23.9751C51.245 24.2321 51.5917 25.9711 52.7889 25.7232C53.2197 25.634 53.6069 25.2471 53.4792 24.6451C53.3961 24.2538 52.9358 23.8686 52.4403 23.9751Z" fill="#B1B1B1"/>
<path fill-rule="evenodd" clip-rule="evenodd" d="M70.7571 23.9767C69.52 24.2533 70.0095 26.0495 71.1455 25.7194C72.3245 25.3768 71.8143 23.7403 70.7571 23.9767Z" fill="#B1B1B1"/>
<path fill-rule="evenodd" clip-rule="evenodd" d="M70.7227 33.3205C69.5281 33.6144 69.953 35.3223 71.1311 35.0595C71.5517 34.9656 71.9225 34.5215 71.7832 33.9689C71.683 33.5712 71.2529 33.1901 70.7227 33.3205Z" fill="#B1B1B1"/>
</svg>
