<svg width="88" height="88" viewBox="0 0 88 88" fill="none" xmlns="http://www.w3.org/2000/svg">
<path fill-rule="evenodd" clip-rule="evenodd" d="M44.6886 71.7626L80.1139 71.7421L80.1193 81.353L44.6886 81.3524V71.7626ZM0.0908203 44.3296V43.0427H6.76262L6.75952 5.51305H43.4018V0.0910645H44.6887V5.51305H81.3208L81.331 43.0427H87.9997V44.3296H81.331V82.5779L44.6887 82.5774V87.9998H43.4018V82.5774L6.78894 82.577C6.77677 82.5108 6.76713 82.1814 6.75956 81.6557V62.2571C6.76073 56.2883 6.76407 50.3192 6.76233 44.3504H6.75956V44.3295H0.0909173L0.0908203 44.3296ZM9.39327 43.0427H23.7182C23.0876 42.3364 16.8831 36.1197 16.5835 35.8931C16.4111 35.9673 16.0808 36.2834 15.9789 36.4719L19.0852 39.5864C19.2431 39.7458 22.1722 42.5837 22.1789 42.718C22.1231 42.8789 22.1405 42.8561 21.9899 42.9469C21.7374 42.9903 20.2493 41.3236 19.9556 41.0256L16.4358 37.5127C16.2945 37.3643 15.7923 36.852 15.6131 36.7828C15.2762 37.2377 13.9644 38.3993 13.6027 38.8338L16.4952 41.7565C16.8361 42.097 17.35 42.4903 17.3702 42.7915L17.1609 42.9179C16.8938 42.828 13.571 39.2849 13.2767 39.1625L11.3139 41.1222C11.0204 41.4475 9.6936 42.6624 9.39327 43.0427ZM25.2344 43.0427H30.2816L16.5311 29.2521C16.2372 29.4818 16.1636 29.6226 15.9891 29.7878L14.3718 31.3734C13.3606 32.3764 10.9973 34.6164 10.0785 35.635C9.89413 35.8394 8.01025 37.5892 7.97748 37.7841L7.98199 42.9145L10.1396 40.7921C11.9434 38.9767 14.0562 36.9968 15.7793 35.1951C15.9757 34.9898 16.3052 34.5388 16.5835 34.4046L17.7059 35.5077C18.0619 35.8785 18.415 36.2192 18.7835 36.5809L24.2116 42.0181C24.5776 42.3815 24.8667 42.7052 25.2344 43.0427V43.0427ZM31.6414 43.0427H40.179C39.5804 42.3287 35.315 38.0695 34.9933 37.7452C34.7735 37.5235 34.5323 37.338 34.3126 37.1141C34.1162 36.914 33.8752 36.6692 33.6609 36.4533L27.1241 29.8677C25.8703 28.5479 24.4915 27.2028 23.1889 25.9295L19.2604 21.9766L18.1668 21.9839C18.3305 22.2617 20.8539 24.744 21.3775 25.2745L22.3536 26.2404C23.9867 27.7949 25.5604 29.4372 27.1522 31.047C27.8525 31.7553 32.3107 36.3107 32.6461 36.5763L33.5971 37.5138C35.0141 38.9504 36.7206 40.6088 38.0893 42.05C38.2745 42.245 38.6289 42.4587 38.6332 42.7797L38.4665 42.9076C38.1893 42.8181 37.3711 41.8979 37.1239 41.6509L22.7865 27.2243C21.9535 26.379 17.9888 22.572 17.5846 21.9783L16.8445 21.9922C16.7271 22.1312 16.6894 22.1999 16.516 22.2862C16.6496 22.5405 17.549 23.3785 17.7846 23.6184L20.3435 26.1508C22.4113 28.2448 24.6226 30.4197 26.6329 32.5115C27.0639 32.96 27.4719 33.3667 27.9098 33.8063C28.3041 34.2021 28.8088 34.6535 29.1905 35.0445L36.4463 42.3806C36.5894 42.5579 36.9229 42.7095 36.5292 42.9388C36.2792 42.8642 36.0031 42.4917 35.8306 42.3139L25.0487 31.5235C24.1931 30.6684 16.6045 22.8596 16.2162 22.6525C15.9988 22.7637 15.391 23.4418 15.166 23.6642L7.97773 30.7877L7.97501 36.1114L9.58774 34.5674C9.98007 34.1105 16.2254 27.9112 16.4262 27.8202C16.8053 28.1427 17.0753 28.4727 17.3919 28.7877C17.7185 29.1126 18.0074 29.4119 18.3387 29.7298C18.9929 30.3579 19.6204 30.998 20.2546 31.6465L26.9401 38.3455C27.1228 38.5299 27.21 38.6212 27.4286 38.8015C27.5406 38.8939 27.5476 38.9495 27.6463 39.056C27.7347 39.1514 27.8105 39.1798 27.9042 39.2705C29.0186 40.3497 30.6517 41.973 31.6415 43.0426L31.6414 43.0427ZM41.7383 43.0427H43.4018V39.8998C42.2088 38.8009 40.1969 36.6601 38.9661 35.4521C38.1987 34.699 37.4716 33.9534 36.7169 33.1873L35.0422 31.5026C34.8306 31.2858 34.7312 31.1933 34.4754 30.9673C33.9321 30.4871 32.797 29.2927 32.2176 28.7111C31.4651 27.9557 30.744 27.2304 30.0024 26.4649L25.5591 21.979L20.804 22.002C24.4378 25.63 27.7718 29.0188 31.3008 32.5675L32.4793 33.751C32.8457 34.0508 32.6967 33.9993 32.9917 34.2358C33.5853 34.7118 39.7474 41.0556 41.1494 42.4543C41.4791 42.7833 41.5975 42.9557 41.7383 43.0427H41.7383ZM44.6975 43.0427H47.5414L47.5474 30.2064L44.6887 30.23L44.6975 43.0427ZM48.4921 43.0427H51.4494L51.4521 21.9765L48.4942 21.983L48.4921 43.0427ZM52.4019 43.0427H55.2516L55.2302 30.2045L52.4171 30.2099C52.3461 30.4986 52.3218 41.9705 52.4019 43.0427V43.0427ZM56.1946 43.0427H59.1835L59.1779 22.0078C58.7586 21.9016 56.7794 21.9848 56.1942 21.9817L56.1946 43.0427ZM60.135 43.0427H63.0292L63.0326 6.73247L60.1331 6.73577L60.135 43.0427ZM63.9735 43.0427H66.875L66.8782 14.3218C66.8782 12.406 66.9442 8.61548 66.8561 6.73276L63.9816 6.73732L63.9738 42.6656L63.9735 43.0427H63.9735ZM67.8173 43.0427H70.7858C70.7467 33.9842 70.782 24.8057 70.7852 15.7389C70.7862 12.9748 70.8443 9.48547 70.7713 6.73649L67.8219 6.73955L67.8173 43.0427V43.0427ZM71.7315 43.0427H80.1221C80.0797 41.5558 80.1219 40.0112 80.1203 38.5189L80.1198 24.8719C80.1231 21.8451 80.1146 18.8183 80.1195 15.7914C80.1213 14.737 80.1861 7.1012 80.085 6.73296L71.7691 6.73868C71.6568 7.0839 71.7306 10.6118 71.7302 11.2774L71.7315 43.0428V43.0427ZM50.2792 44.3296H45.8534C45.4063 44.3367 45.0087 44.3474 44.6886 44.3633V47.8032L80.1113 47.8044L80.1165 44.3451L52.4856 44.3413C51.9217 44.3416 51.1415 44.3356 50.2792 44.3296ZM44.6886 6.74449V29.2755L47.5409 29.2675L47.5425 16.7887C47.5429 13.9175 47.6092 9.80388 47.5267 6.73674L44.6886 6.74449ZM44.6886 48.201L44.6955 49.8892L80.116 49.87L80.1112 48.1932L44.6886 48.201H44.6886ZM44.6886 50.8241L44.6945 55.1389L70.2874 55.1576L70.2847 50.8074L44.6886 50.8241L44.6886 50.8241ZM44.6886 56.0804L44.6965 60.3279L54.6268 60.318L54.6121 56.0719L44.6886 56.0804ZM44.6886 61.2644V65.5598L64.5822 65.5596L64.5847 61.2387L44.6886 61.2644ZM44.6886 66.5056V70.7937L45.8721 70.8034C57.2636 70.8076 68.7276 70.764 80.1186 70.8051L80.1037 68.5006C69.4571 68.4512 58.7803 68.5175 48.1291 68.4957C47.7709 68.4949 47.0521 68.6086 46.8834 68.3324C46.9245 68.0289 47.1102 68.1044 47.4468 68.1051L72.6413 68.1033C74.2497 68.1033 78.1635 68.1654 80.1134 68.0846L80.1215 66.4951L79.4123 66.4858C70.7467 66.4284 61.6639 66.4818 52.9581 66.4855C51.8122 66.4859 45.681 66.42 44.6887 66.5055L44.6886 66.5056ZM43.4018 81.3458V66.4845L38.0833 66.4859L38.0827 69.5922C38.0809 73.4215 38.1355 77.5477 38.0816 81.3552L40.9765 81.3405L40.9736 68.0701C40.9736 67.7946 41.0121 67.7134 41.293 67.77C41.3643 67.8916 41.3688 68.0393 41.3698 68.2276L41.3689 81.3467L43.4017 81.3459L43.4018 81.3458ZM43.4018 65.5526V56.0771C41.8491 56.0277 39.6257 56.0729 38.0819 56.0731L38.0838 58.727C38.0831 59.3505 38.1735 62.897 38.0106 63.1928C37.6847 63.2126 37.6837 63.0691 37.6831 62.7686C37.6787 60.885 37.7436 57.8015 37.6636 56.0701L35.9548 56.0741L35.945 65.5628C37.0405 65.5577 40.1068 65.6049 40.9764 65.5444L40.9733 58.0971C40.9743 57.6678 40.8736 57.1227 41.3617 57.4119L41.3726 58.8844C41.3713 60.9996 41.4088 63.4594 41.3697 65.5568L43.4018 65.5525L43.4018 65.5526ZM43.4018 55.1317V44.3428L35.9478 44.3484L35.9603 55.1368L43.4018 55.1317H43.4018ZM43.4018 38.3075V21.9769L27.1684 21.9812L43.4018 38.3075ZM43.4018 21.0198V18.1535C42.9609 17.6891 42.4883 17.2499 42.0403 16.7885C41.5565 16.2902 41.1543 15.8564 40.6069 15.3354L35.6447 10.3251C35.4035 10.0863 35.1671 9.80369 34.9022 9.59753C34.5523 9.32521 32.1561 6.76567 32.0571 6.73131L27.3654 6.73775C27.4083 6.88371 28.0935 7.51831 28.2557 7.68825C28.5745 8.02208 28.867 8.31422 29.1902 8.64345C29.9113 9.37786 31.3274 10.8702 32.0325 11.5231C32.9948 12.4142 34.0027 13.4479 34.9014 14.3746C36.1606 15.6733 37.4417 16.8961 38.6847 18.2029C38.8996 18.4288 41.3607 20.9588 41.5355 21.0097C41.6442 21.0415 43.0955 21.0336 43.4017 21.0197L43.4018 21.0198ZM43.4018 16.5889V13.5927L42.6066 12.8107C41.5957 11.8886 39.3919 9.5732 38.3238 8.48562C38.261 8.42174 36.6786 6.77973 36.5716 6.75157L33.6759 6.74178C33.8169 6.99131 40.0094 13.1707 40.9958 14.1594C41.3254 14.4903 43.0687 16.331 43.4018 16.589L43.4018 16.5889ZM43.4018 12.955V10.2883L40.98 7.87613C39.4906 6.30378 40.29 6.79166 37.2329 6.7333C37.3137 6.9298 40.1495 9.69908 40.308 9.86045C41.3286 10.8997 42.3658 11.9284 43.4018 12.955L43.4018 12.955ZM43.4018 9.70214V6.73708L40.4859 6.73649C40.5663 6.93184 43.0397 9.34979 43.4018 9.70214ZM15.2276 42.823C15.235 42.5235 14.87 42.2881 14.6832 42.0991L13.4135 40.8489C12.8519 40.2975 12.8026 40.0709 12.5135 40.4086C12.5612 40.5193 12.481 40.5085 12.6179 40.6487L14.3723 42.4097C14.4312 42.4674 15.059 43.2644 15.2276 42.823ZM41.9668 23.6335C41.7128 23.3712 41.4889 23.1561 41.2326 22.8981C40.8641 22.5271 40.6973 22.2275 40.3773 22.3169C40.228 22.5731 40.3917 22.6519 40.5425 22.8008L42.8911 25.1761C43.1046 25.3921 43.0964 25.3306 43.3511 25.2916C43.3808 24.9504 43.2444 24.9068 43.0649 24.7394L41.9668 23.6335ZM19.4235 42.7705C19.4127 42.4938 19.3262 42.5487 19.1731 42.3846L15.3439 38.5516C15.1463 38.3644 14.9814 38.0373 14.6451 38.2061C14.5733 38.5386 14.9398 38.7539 15.1196 38.9334L16.8591 40.6582C17.1998 40.9944 18.9518 42.8021 19.208 42.9285C19.4007 42.8654 19.3214 42.9087 19.4235 42.7705ZM43.0903 28.4396C43.4453 28.1692 43.06 27.9687 42.5773 27.4844C42.3194 27.2255 42.1046 27.0037 41.8459 26.7463L38.1357 23.0031C38.0398 22.9016 37.8493 22.7525 37.7516 22.6524C37.6553 22.5537 37.4709 22.2288 37.2657 22.4654C37.076 22.6841 37.6934 23.1706 37.8031 23.2831L42.2427 27.7666C42.5949 28.1172 42.7973 28.4343 43.0902 28.4397L43.0903 28.4396ZM40.6059 29.4033C40.9982 29.8042 41.3611 30.1648 41.7584 30.5605C41.9944 30.7955 42.7041 31.6049 42.9853 31.6512C43.4259 31.387 42.9444 31.116 42.2571 30.4289C41.8722 30.044 41.5042 29.6304 41.1072 29.2696C40.9889 29.1621 40.9034 29.1195 40.795 29.0045L36.4653 24.6209C36.1742 24.3326 34.329 22.369 34.1173 22.3539C33.8931 22.338 33.8597 22.5507 33.9591 22.7168C34.0172 22.8139 34.1566 22.927 34.2418 23.0131L35.1128 23.874C35.5755 24.2575 37.8047 26.5714 38.2855 27.0521C39.0753 27.8417 39.8239 28.6043 40.6059 29.4034L40.6059 29.4033ZM46.7712 63.1668C47.1429 63.3555 48.2336 63.2747 48.7065 63.2748L62.9834 63.2749C63.2173 63.2747 63.1961 63.2706 63.3453 63.1859C63.3852 62.7673 63.1715 62.8758 62.3535 62.8772L47.5518 62.8757C47.3966 62.8758 47.1705 62.8628 47.0244 62.8745C46.7984 62.8928 46.7921 62.9502 46.7711 63.1668H46.7712ZM33.9515 25.3502C33.4233 24.8235 32.9438 24.3175 32.4131 23.7918L31.2168 22.6263C31.0681 22.4607 31.014 22.2889 30.7354 22.4739C30.6148 22.7507 31.171 23.1767 31.3355 23.3472L39.8982 31.9481C40.5912 32.6393 42.1177 34.2307 42.8126 34.861C43.1936 35.2067 43.2575 34.7514 43.2558 34.7398C43.2431 34.6531 42.6465 34.0914 42.4877 33.9251C42.3204 33.7499 42.1967 33.6601 42.0817 33.544L33.9515 25.3502H33.9515ZM46.914 52.7806C47.4837 52.8917 48.8777 52.8285 49.5988 52.8278L68.0223 52.8293C68.2389 52.8294 69.2951 52.9381 69.0342 52.5283C68.9031 52.3222 68.0708 52.4281 67.7599 52.4285L47.9192 52.4295C47.4426 52.4296 46.8396 52.263 46.914 52.7806ZM22.1883 29.8174C20.4855 28.1565 18.7182 26.2672 17.0007 24.5598C16.5862 24.1478 16.5462 23.9599 16.2207 24.1343C16.1917 24.4012 16.2977 24.423 16.4302 24.5529L20.7569 28.9396C22.2599 30.4856 23.9233 32.0693 25.4277 33.6114C26.2895 34.4947 34.4392 42.786 34.7446 42.9273C34.9057 42.8508 34.8427 42.8848 34.9421 42.7705C34.9202 42.4833 34.5912 42.2664 34.4233 42.0945L23.3893 30.978C23.03 30.6082 22.6368 30.2549 22.1882 29.8174L22.1883 29.8174ZM45.5563 46.1751L45.5552 46.4322C45.864 46.5951 49.5386 46.4998 50.3862 46.4998L78.9401 46.4912C79.3185 46.1508 78.8964 46.1084 78.52 46.1094L46.3446 46.1077C46.1532 46.1078 45.6508 46.0821 45.5563 46.1751H45.5563ZM35.9472 66.4876L37.6855 66.4804L37.6796 81.3493L35.9497 81.3534L35.9472 66.4876ZM27.4033 61.2563L29.1915 61.236L29.194 81.3532L27.4057 81.3516L27.4033 61.2564V61.2563ZM7.9801 80.9296C7.99193 68.864 7.93056 56.7192 7.97782 44.66L7.9803 44.3496L17.3691 44.3402L17.3739 81.3483C14.2908 81.3909 11.0733 81.3429 7.97928 81.3556L7.9801 80.9296V80.9296ZM67.5947 63.136C67.7745 63.3665 68.4935 63.2761 69.0196 63.2761L80.1225 63.2744L80.1175 65.5594L65.5052 65.5601L65.5088 61.2487L80.1155 61.2404L80.1181 62.8745L68.1798 62.8756C67.8502 62.8756 67.6239 62.7798 67.5947 63.136ZM32.3865 63.0835L32.3844 81.3488L29.5985 81.3533C29.5973 74.6699 29.5498 67.9012 29.6024 61.2437L34.8696 61.2399V81.3508L32.7879 81.3552L32.7865 63.031C32.7869 62.6852 32.8568 62.5133 32.4849 62.5141C32.3449 62.7108 32.3874 62.7783 32.3865 63.0835ZM57.9428 57.7211L57.93 57.9394C58.1797 58.1579 58.8564 58.0397 59.2042 58.0403L68.9671 58.039C72.6799 58.0405 76.4098 58.0737 80.1205 58.0394L80.1142 60.3539C79.863 60.2693 61.0173 60.3242 58.6268 60.3242C57.6925 60.3242 56.4602 60.3951 55.5637 60.3204L55.5527 56.0818L80.1107 56.0688L80.1156 57.6077C79.5673 57.847 58.5084 57.4611 57.9427 57.7211H57.9428ZM74.1635 52.8265C75.2564 52.8293 79.3168 52.7907 80.1243 52.8507L80.1123 55.1189L71.2399 55.1399C71.1675 54.2537 71.2276 51.9188 71.2276 50.811L80.1043 50.8124L80.1165 52.427L73.6385 52.4348C73.2089 52.8207 73.794 52.8256 74.1635 52.8265ZM23.6352 81.3546L18.3293 81.3526L18.328 44.3581L20.615 44.3433C20.691 54.4846 20.6144 64.7742 20.6175 74.9459L20.6177 78.2527C20.6179 78.4826 20.4999 79.1671 20.7874 79.2019C21.1239 79.2426 21.0157 78.6126 21.016 78.3576L21.0189 53.1106C21.0193 50.2048 21.0619 47.266 21.0152 44.3642L26.4409 44.3434L26.4404 81.3397L24.0373 81.3548C23.9624 75.6129 24.0344 69.8249 24.0336 64.0807L24.033 47.8618C24.033 47.51 24.1439 47.0842 23.8271 46.9858C23.5326 47.1017 23.6329 47.472 23.6324 47.8093L23.6311 64.0282C23.631 69.7859 23.5483 75.6044 23.6352 81.3546V81.3546ZM32.3864 60.3239L27.4038 60.3271L27.4039 44.3563L29.1876 44.3406C29.2443 48.5284 29.2034 53.1031 29.195 57.3623C29.1943 57.7097 29.1047 57.9268 29.456 57.9816L29.5741 57.8604L29.5981 44.3476L34.8684 44.3434L34.8691 60.3268L32.7865 60.3296C32.7928 58.8401 32.8691 46.0465 32.7152 45.7038L32.4541 45.7158C32.2968 46.01 32.3839 52.119 32.3846 52.9531C32.3865 55.387 32.3192 57.9008 32.3865 60.3239L32.3864 60.3239ZM52.4154 6.74643L55.2363 6.73392L55.2504 29.2632L52.3875 29.2768C52.3086 23.787 52.3844 17.9357 52.3863 12.3796C52.3865 11.6256 52.3365 7.09044 52.4154 6.74643ZM48.4943 6.7362L51.4238 6.73407L51.4481 21.0263L48.5003 21.0242L48.4943 6.7362ZM25.7166 13.2131C25.9193 13.3018 26.0575 13.5009 26.2169 13.6638L33.453 21.0091C29.5831 21.0851 25.0688 21.0291 21.0976 21.0224L17.8684 21.0263C17.9455 20.9613 18.206 20.6713 18.3137 20.5657L20.7594 18.1304C21.057 17.7519 21.4514 17.4189 21.7484 17.1241C22.4202 16.4573 23.0481 15.8264 23.7277 15.1675L25.7167 13.2131H25.7166ZM56.1919 6.73567L59.1804 6.73043L59.1776 21.0277C58.5615 21.0222 56.6344 20.9532 56.195 21.063L56.1919 6.73567ZM7.97802 29.4299L7.97768 24.4938L9.08382 23.4078C9.45429 23.0285 9.80252 22.6722 10.1884 22.309C12.3193 20.3028 14.8174 17.7024 16.8813 15.669C18.3808 14.1916 19.6956 12.9115 21.3271 11.2437C22.0743 10.4798 22.8169 9.7809 23.5683 9.02391C23.9479 8.64146 24.2988 8.31098 24.6792 7.93008C24.9043 7.70454 25.6244 6.93203 25.8361 6.82064L31.0655 12.1226C31.6195 12.6919 32.2951 13.3149 32.8627 13.8939C32.9998 14.0338 39.7983 20.8607 39.8935 21.0313L35.1646 21.0246L27.6416 13.4465L25.8741 11.7114C25.5695 11.9359 21.9698 15.5365 21.4228 16.1164C20.1682 17.4462 18.3021 19.1619 16.9281 20.5446L15.2618 22.1855C15.0594 22.3826 14.9065 22.5869 14.7058 22.7838L9.10621 28.3121C8.77524 28.6402 8.315 29.176 7.97807 29.4299H7.97802ZM7.98349 18.2093C8.21422 18.0322 8.51155 17.7176 8.73322 17.494L13.8253 12.4561C14.309 11.9611 14.8106 11.5217 15.2809 11.024C15.7989 10.4878 19.5047 6.75962 19.6279 6.73955L24.4856 6.73485C24.3556 6.94367 22.7416 8.46691 22.4276 8.77573C22.2469 8.95348 22.1031 9.14475 21.9204 9.31741C20.0917 11.0453 18.0472 13.1412 16.2344 14.9175L8.99584 22.1131C8.66637 22.4416 8.3103 22.8351 7.97647 23.1266L7.98349 18.2093ZM12.5097 7.20406C12.9643 6.76718 12.8924 6.7427 13.2768 6.74023L17.8657 6.74124C17.755 6.94202 15.7535 8.85004 15.4287 9.17737C15.2079 9.39986 15.0186 9.58367 14.794 9.80296L7.97554 16.5472L7.97855 11.6882L12.5097 7.20406ZM8.00623 6.73887L11.4031 6.74779L8.8465 9.31402C8.70641 9.49366 8.15838 10.0526 7.97593 10.138L8.00623 6.73887Z" fill="#B1B1B1"/>
</svg>
