<svg width="100" height="111" viewBox="0 0 100 111" fill="none" xmlns="http://www.w3.org/2000/svg">
<path fill-rule="evenodd" clip-rule="evenodd" d="M11.6113 98.8184C11.8384 98.3977 11.6631 98.7171 11.9675 98.3034L16.6923 92.2198C16.7056 92.1659 16.7573 92.1701 16.7894 92.1448C17.4872 92.5823 17.4359 92.7734 18.6143 92.768C28.0067 92.7277 37.713 92.8608 47.0346 92.7295L47.0671 100.41L49.4446 100.413L49.4639 92.7619L78.7405 92.7526C79.0331 92.6882 79.5028 92.3334 79.8115 92.1658C80.2087 92.9263 80.5802 93.258 81.057 93.9277L84.692 98.7976C74.3815 98.8003 63.6288 98.6773 53.3897 98.7969L52.069 101.224L56.4384 101.221C65.8899 101.217 77.323 101.003 86.7964 101.312C86.8437 101.718 88.8067 104.09 89.2299 104.676L91.8324 108.151L49.4702 108.162L49.448 103.292L47.037 103.332L47.0294 108.147C32.9226 108.079 18.6267 108.278 4.55992 108.121C5.34107 107.027 6.31896 105.783 7.18907 104.641C7.64071 104.049 8.0432 103.497 8.54293 102.842C8.76979 102.544 8.9473 102.326 9.19997 102.006C9.33513 101.835 9.67145 101.325 9.98769 101.242L43.3031 101.253C43.6502 100.739 44.4239 99.4444 44.656 98.8042L41.5078 98.7954C32.029 98.8013 21.0088 98.6371 11.6113 98.8185L11.6113 98.8184ZM38.4335 82.5646L58.1261 82.5946L58.045 85.1282L38.4508 85.0991L38.4335 82.5646H38.4335ZM46.5503 76.4713L50.0848 76.4814L50.0674 78.7072L46.5324 78.6905L46.5503 76.4713V76.4713ZM54.3567 68.1863C55.5744 67.978 58.1872 68.1179 59.5905 68.1165C63.8478 68.1122 71.5186 67.7171 74.6846 68.9515C83.8009 72.5057 84.8231 83.8217 78.8979 89.4058C77.5292 90.6957 76.7979 90.2796 74.5211 90.2841L26.9091 90.2771C25.1397 90.276 23.3697 90.2732 21.6004 90.2794C18.3156 90.2906 18.95 90.6578 17.4697 89.1717C15.6041 87.2988 14.3704 85.0323 13.9936 82.2069C13.0948 75.4684 17.2135 70.6489 21.9118 68.9282C24.6431 67.9278 28.3432 68.1214 31.72 68.1172C34.9093 68.1132 39.0611 67.8867 42.1343 68.1429C42.1278 69.397 41.9828 70.7807 42.2298 71.9845L47.072 72.0398L47.0422 74.0374L44.082 74.0372L44.0733 80.0012C43.7045 80.1978 44.2998 80.1021 43.5026 80.1927C41.5054 80.4197 29.547 79.814 27.505 80.2855L27.5122 82.584L35.9958 82.6008L36.0188 87.5331L60.5647 87.4979L60.6227 82.6105L69.0873 82.6277L68.9703 80.1361L52.5875 80.165C52.5813 78.705 52.3474 75.3137 52.6807 74.0523L49.5181 74.016L49.5355 71.9852L54.3535 71.9682L54.3567 68.1863V68.1863ZM44.6504 62.5084L51.8994 62.5484L51.8722 69.566L44.6276 69.6079L44.6504 62.5084H44.6504ZM37.9608 55.3368L58.7728 55.3318L58.7698 60.0671L37.9539 60.0923L37.9608 55.3367V55.3368ZM36.4225 52.8C36.1213 50.9457 36.3612 46.6734 36.3591 44.5627C36.3567 42.0948 36.1848 38.7726 36.5127 36.4343C37.168 31.7596 40.1501 28.6682 43.852 27.3297C46.7367 26.2867 63.04 26.7216 68.0511 26.719C77.4868 26.7142 76.158 25.6735 76.1147 29.9772C76.1071 30.738 76.1245 30.73 75.3645 30.7373C74.8719 30.7422 74.3558 30.7189 73.8575 30.7183C67.1538 30.71 67.2956 30.1152 67.5867 32.9517C68.8934 33.6216 74.0869 32.9452 76.1101 33.2175L76.0783 38.656C73.8186 39.0722 70.1332 38.4387 67.6041 38.8176C67.4828 39.4596 67.4473 40.41 67.6438 40.9783C68.8037 41.5607 74.2804 40.9791 76.0942 41.1908L76.0777 45.0431L39.7339 45.0383C39.5506 45.7994 39.6045 46.7175 39.6726 47.51L60.4596 47.4724L60.416 52.8584L36.4225 52.8L36.4225 52.8ZM38.2623 27.9006C35.7831 21.7659 40.0845 14.2012 47.1617 13.2174C54.7172 12.1671 60.8981 18.2037 60.4206 24.293C56.1104 24.2798 51.7901 24.2693 47.4801 24.2834C43.3654 24.2968 40.2727 25.9542 38.2623 27.9006V27.9006ZM33.8813 37.8112C32.9873 37.3712 31.6691 35.3887 30.94 34.2297C27.0917 28.1126 27.2186 20.2926 30.6921 14.0012C31.8951 11.8222 33.3519 10.2511 35.132 8.64868C36.8349 7.11565 38.6955 5.92642 40.9691 5.03995C47.9352 2.32396 56.2846 3.44795 61.4356 7.37961L63.276 8.86048C67.0951 12.1262 70.5081 19.2924 69.9529 24.2804L62.9712 24.2606C62.7528 15.7188 55.3219 8.95726 45.98 10.8776C41.8109 11.7346 38.5142 14.5349 36.9213 17.4125C34.5981 21.6094 34.6278 25.4147 36.375 29.9639C36.3719 30.2643 33.9762 32.8882 33.8812 37.8112H33.8813ZM33.8532 41.4102C33.9027 44.6619 33.7103 49.9687 33.8513 52.8635C33.9329 54.5387 34.4937 54.484 35.4586 55.2527L35.4782 62.5197L42.1069 62.512L42.124 65.5787C40.7923 65.7467 29.8566 65.6332 27.5727 65.6279C23.0116 65.6174 18.9729 66.8278 16.4658 69.2831C13.7611 71.9318 11.8575 74.5515 11.4717 78.896C11.2558 81.3264 11.5033 83.3298 12.2237 85.4594C12.9524 87.6136 13.827 88.7034 14.9662 90.2667C14.5061 90.7338 13.6954 91.9235 13.115 92.6504C12.4085 93.5352 11.8001 94.2931 11.177 95.1851C8.41774 99.1345 4.445 103.81 1.66739 107.747C1.16178 108.463 -0.179525 109.489 1.14121 110.489C1.82147 110.869 43.6242 110.632 48.1437 110.644L83.4794 110.647C85.4149 110.648 87.3503 110.649 89.2858 110.649C91.0559 110.65 93.6301 110.795 95.3022 110.58L95.797 110.098C95.7352 108.454 93.5478 106.159 92.5281 104.86C90.9033 102.791 82.2403 91.1191 81.4488 90.5499C82.281 89.0192 83.0886 88.7648 84.1378 85.8627C84.8441 83.9091 85.2156 81.7644 85.0556 79.4237C84.9024 77.1817 84.3319 75.3929 83.448 73.6309C80.766 68.2838 75.7494 65.6108 69.2124 65.6251C66.7238 65.6306 64.2357 65.6269 61.7472 65.627C59.5523 65.6271 56.413 65.8078 54.3317 65.5841L54.3532 62.5566L61.2249 62.5072L61.2287 55.1668C62.6375 54.7793 62.9248 53.9134 62.9366 52.194C62.947 50.6638 62.9846 49.0473 62.9289 47.5253C65.8467 47.3766 75.5901 47.6434 76.803 47.5027C79.2553 47.2183 78.58 43.7815 78.5769 40.7471C78.5732 37.0424 78.5823 33.3368 78.5858 29.6321C78.5874 27.9225 78.9068 25.4917 77.7481 24.7474C76.6188 24.022 74.0731 24.245 72.5277 24.3269C72.135 16.0399 68.9818 9.33014 62.3034 4.85904C56.0058 0.64283 46.2527 -0.551335 38.7026 3.27408C32.6986 6.31615 27.3164 11.7978 25.8703 20.1428C25.0446 24.9081 25.7412 29.0415 27.3965 32.9627C28.4056 35.3529 30.1872 37.7522 31.8761 39.5991C32.5137 40.2964 33.1698 40.7367 33.8532 41.4102H33.8532Z" fill="#373435"/>
<path fill-rule="evenodd" clip-rule="evenodd" d="M75.188 84.7066C74.7043 85.3773 74.0833 85.7796 73.7807 86.3684C73.5526 87.6934 75.4731 87.8122 77.314 84.177C80.7933 77.3064 73.9228 70.8639 70.1821 71.7665C69.6731 72.8351 70.0205 73.0125 71.1822 73.2799C75.8574 74.3561 78.476 80.1475 75.188 84.7066H75.188Z" fill="#373435"/>
<path fill-rule="evenodd" clip-rule="evenodd" d="M18.5743 85.5289C19.8241 85.6094 20.1046 85.1703 19.4823 84.0047C17.5462 80.3785 18.7519 75.9135 22.1816 74.0048C25.1475 72.3541 25.8526 73.8495 26.2462 72.233L25.7481 71.6313C24.0971 71.3429 22.0192 72.225 20.9419 72.9322C16.6327 75.7607 15.942 81.6845 18.5743 85.5289V85.5289Z" fill="#373435"/>
<path fill-rule="evenodd" clip-rule="evenodd" d="M66.4119 41.2113C67.0751 40.573 67.0832 40.3922 67.0929 39.2586L67.0252 31.2768C66.0119 30.3023 65.7068 30.4776 64.6753 31.2348L64.7143 40.5804C65.346 41.1777 65.0338 41.3677 66.4119 41.2113Z" fill="#373435"/>
<path fill-rule="evenodd" clip-rule="evenodd" d="M91.1293 89.5263C90.4751 90.2415 88.8035 91.6505 88.7188 92.2144C88.6213 92.8633 89.2487 93.5219 89.9139 93.5014C90.2606 93.4907 90.5279 93.2053 90.8199 92.9114C91.4328 92.2947 92.0464 91.6687 92.6697 91.0634C93.2876 91.6902 93.9151 92.3089 94.537 92.932C95.1671 93.5633 95.727 93.8934 96.3822 93.2575C97.0353 92.6237 96.7287 92.037 96.1215 91.4317C95.4895 90.8017 94.8579 90.132 94.2068 89.5264C94.8052 88.9341 95.3937 88.3309 95.9901 87.7364C96.3808 87.347 97.0495 86.7328 96.3075 85.9469C95.6726 85.2743 95.0171 85.6437 94.4996 86.1618C93.8958 86.7663 93.26 87.3769 92.6808 88.0014C92.0901 87.3573 91.402 86.7151 90.7787 86.0929C90.3954 85.7104 89.7002 84.8695 88.862 85.6537C87.9996 86.4607 88.7413 87.136 89.1966 87.5909C89.8414 88.2352 90.4886 88.8779 91.1292 89.5263L91.1293 89.5263Z" fill="#373435"/>
</svg>
