<svg width="80" height="79" viewBox="0 0 80 79" fill="none" xmlns="http://www.w3.org/2000/svg">
<path fill-rule="evenodd" clip-rule="evenodd" d="M33.7147 73.0138L45.4093 72.9968C45.1904 74.0379 44.1055 75.21 43.2968 75.8281C40.302 78.117 35.0297 77.017 33.7146 73.0138H33.7147ZM33.2888 70.5773L45.8357 70.5645L45.7613 71.7591L33.3795 71.7883L33.2888 70.5773ZM33.2996 66.0552L45.8125 66.0522L45.8281 69.3508L33.2946 69.3628L33.2996 66.0551V66.0552ZM33.3031 63.6127L45.8257 63.6086L45.8229 64.853L33.3056 64.8598L33.3031 63.6127ZM33.2894 62.3916C33.3109 61.0933 33.2873 59.7858 33.2939 58.486C33.301 57.0662 33.4608 56.4289 34.107 55.4551C34.5671 54.762 35.3256 54.144 36.2597 53.7688C37.8574 53.127 41.3353 53.1326 42.9217 53.792C43.8703 54.1862 44.5554 54.763 45.0526 55.4953C45.6463 56.3697 45.8243 57.2625 45.8244 58.55C45.8245 59.8276 45.8348 61.1054 45.8248 62.3899L33.2894 62.3917V62.3916ZM31.4378 60.1954L22.9839 60.195L22.9826 56.7392L31.5698 56.7223C31.5746 57.208 31.4571 57.7883 31.4554 58.3581C31.4537 58.9285 31.4945 59.644 31.4378 60.1954V60.1954ZM47.5318 56.7335L56.0497 56.7238L56.0654 60.1931L47.6648 60.1967C47.6517 59.5922 47.6619 58.9711 47.661 58.3581C47.6601 57.761 47.5503 57.2567 47.5318 56.7335ZM57.9064 39.3702L61.4474 39.3624L61.4488 52.9893C61.4509 53.8552 61.301 54.6108 61.9796 54.9435L57.916 54.955L57.9066 39.6949L57.9064 39.3702H57.9064ZM17.6065 39.388L21.1678 39.3622L21.1629 54.9433L17.6183 54.9432L17.6065 39.388V39.388ZM32.2534 54.9392L22.9941 54.9442L22.9822 44.7877L35.5259 44.7597L35.531 52.0917C34.6076 52.6488 34.8552 52.2784 33.6451 53.264C32.8224 53.9341 32.5837 54.5974 32.2533 54.9392H32.2534ZM22.9865 42.3003L35.5367 42.2944L35.5304 43.5399C31.3577 43.5634 27.1299 43.4899 22.9886 43.5526L22.9861 42.9545L22.9865 42.3003ZM22.9799 39.365L35.5354 39.3678L35.5132 41.0816L22.9923 41.093L22.9799 39.365H22.9799ZM43.5895 39.3704C45.2987 39.3602 47.8653 39.3068 49.523 39.3757C49.1489 39.865 45.7649 43.2339 44.9926 44.032C44.8154 44.2152 44.3499 44.5631 44.3638 44.9349C44.3788 45.3327 44.8372 45.6232 45.1852 45.4501C45.5257 45.2807 47.7799 42.8792 48.2356 42.4171C48.7613 41.884 49.2359 41.4083 49.7592 40.8726L51.2548 39.3727L56.0673 39.3598L56.0562 40.1504L53.616 42.5561C52.8581 43.2622 51.4313 44.805 50.6214 45.6345L49.2363 46.9973C48.7792 47.4312 48.32 47.928 47.8832 48.3916C47.6517 48.6373 45.3109 50.9392 45.2314 51.173C45.0901 51.5884 45.4049 51.9493 45.7711 51.9641C46.1385 51.9789 46.4328 51.5586 46.5622 51.4182C46.9391 51.0094 47.4896 50.5062 47.9503 50.0571C49.3624 48.6801 50.6594 47.2383 51.9983 45.9247C52.4145 45.5162 52.9111 44.915 53.3377 44.5791C53.8069 44.2096 54.2943 43.6344 54.7119 43.2054C55.0129 42.8962 55.7707 42.0375 56.065 41.8606L56.0607 43.402L49.3057 50.2614C48.219 51.2388 49.2103 51.77 49.715 51.5022C49.915 51.396 50.4459 50.8249 50.63 50.6292C51.2302 49.9908 51.8219 49.4183 52.4401 48.7949L56.0641 45.1615L56.0594 46.7961C55.7693 47.0105 55.3767 47.4638 55.1009 47.7489L53.6856 49.1454C53.4078 49.4288 52.4474 50.3734 52.3375 50.6109C52.0695 51.1899 52.7973 51.6577 53.2518 51.2678L55.8032 48.7063C55.9616 48.538 55.8684 48.5929 56.0666 48.4986C56.0634 50.1264 56.1249 53.8806 56.0298 54.9389L46.9262 54.9484C46.7924 54.7987 46.717 54.6325 46.5952 54.4633C45.9128 53.5153 44.7597 52.4259 43.586 52.1217L43.59 40.7814L43.5895 39.3704L43.5895 39.3704ZM63.2722 24.9461C63.5732 25.1609 64.6246 26.2719 64.9799 26.6194C66.761 28.3619 76.015 37.8028 76.6535 38.2588C76.5176 38.5699 75.2971 39.6781 74.9679 40.0043L63.2632 51.6651L63.2555 39.369C64.6065 39.3656 65.9574 39.3657 67.3084 39.3643C68.1286 39.3635 69.6848 39.5109 70.0838 39.1458C70.535 38.7329 70.7241 37.5543 69.2258 37.5634C67.2856 37.5752 65.1603 37.5247 63.2631 37.5738L63.2722 24.9461V24.9461ZM30.1748 37.5735C29.906 37.1616 29.6121 36.7641 29.3777 36.211C29.1564 35.689 28.9873 35.1447 28.8686 34.5394C28.6128 33.2355 28.7293 31.8406 29.0941 30.6266C29.2515 30.1026 29.5182 29.5423 29.7598 29.1183C30.4015 27.9921 32.0197 26.4105 33.1582 26.0984C33.1856 27.0181 33.1652 27.9699 33.1655 28.8931C33.1658 29.7882 32.9491 30.8391 34.0056 30.8673C35.8264 30.9157 37.7381 30.863 39.5691 30.8612C41.4038 30.8595 43.3062 30.9112 45.1319 30.8599C46.2088 30.8297 45.9931 29.8046 45.9923 28.8932C45.9914 27.973 46.0065 27.0438 45.9742 26.1251C46.7617 26.2444 47.9355 27.3435 48.516 27.9323C50.0531 29.4913 50.7097 32.3786 50.2525 34.5918C50.0454 35.5943 49.4871 36.9984 48.9459 37.5598C47.1755 37.6004 45.3699 37.5693 43.5957 37.5702C42.6795 37.5706 41.8069 37.3977 41.7692 38.4143C41.7377 39.2654 41.7648 40.1794 41.7642 41.0371C41.7615 44.5742 41.7139 48.1443 41.7645 51.6775C41.0553 51.6183 40.2073 51.5046 39.5052 51.5114C38.788 51.5183 38.0607 51.6462 37.3448 51.6611C37.431 48.1557 37.3431 44.5542 37.3506 41.0371C37.3523 40.195 37.4017 39.1705 37.3494 38.3497C37.2874 37.3753 36.333 37.5646 35.4785 37.5671C33.7107 37.5721 31.9425 37.5701 30.1749 37.5735L30.1748 37.5735ZM40.5041 21.1942L56.0663 21.1794L56.0447 37.568L51.1044 37.556C53.103 33.9915 52.3088 29.538 50.0217 26.88C49.42 26.1808 49.0285 25.784 48.1771 25.2074C47.5151 24.7591 46.6658 24.3226 45.7765 24.0915C43.2405 23.4322 44.4996 25.3806 44.1416 29.0684L40.5057 29.0784L40.5041 21.1942V21.1942ZM22.9954 21.1932L38.6587 21.1894L38.6481 29.0692L34.9876 29.0645C34.9529 27.9206 34.9836 26.7198 34.9841 25.5696C34.9847 24.2807 35.0525 23.6113 33.3152 24.1081C30.7507 24.8415 28.7285 26.8193 27.7452 29.0221C26.8851 30.9488 26.6937 32.9433 27.0998 35.0352C27.1911 35.5051 27.3285 35.9687 27.4838 36.376C27.6192 36.7312 27.933 37.294 28.0032 37.5669L22.9809 37.5498L22.9954 21.1932ZM17.6071 22.5016C17.6075 21.9555 17.6809 21.7215 17.3906 21.4151L17.1992 21.2036L21.1675 21.1842C21.1202 26.6253 21.1915 32.103 21.143 37.5667L17.6127 37.5545L17.6071 22.5016ZM40.4999 15.9026L44.6823 15.9053C48.3579 15.905 52.4753 15.9751 56.0709 15.8987L56.0633 19.381L40.5015 19.3844L40.5072 17.3244L40.4999 15.9026V15.9026ZM22.981 15.9072L31.1961 15.9053C32.3314 15.9052 36.9993 15.837 38.6647 15.9125L38.6591 19.3752L22.9854 19.3854L22.981 15.9072ZM54.8976 14.0775C54.818 13.5965 53.6678 12.6169 53.291 12.2307C53.0487 11.9824 52.698 11.6206 52.4276 11.3684L51.5406 10.5301C50.9423 9.86046 50.3983 9.39011 49.8231 8.79677L44.6723 3.59275C44.1754 3.07777 41.6118 0.35735 41.1552 0.215883C40.2921 -0.0514574 39.7426 0.839199 40.0529 1.49952C40.1875 1.78581 41.0629 2.61647 41.2835 2.82797L41.7271 3.28161C41.8082 3.36228 41.8824 3.38561 41.9699 3.48227L43.0351 4.52716C44.4997 6.06942 51.8832 13.3425 52.4533 14.0902L40.5046 14.1034L40.5066 6.97008C40.5196 5.19442 39.2025 5.39247 38.8064 6.01504C38.6366 6.28192 38.6674 6.67637 38.666 7.03401C38.6629 7.8223 38.6616 8.61059 38.6607 9.39888C38.6596 10.3658 38.5384 13.3341 38.7019 14.0917L22.9866 14.1035L22.9847 3.00733C22.9853 2.36613 23.0357 1.46619 22.9811 0.855654C22.9314 0.299416 22.3833 -0.216116 21.7021 0.0928192C21.0927 0.369161 21.1627 0.957619 21.1637 1.72903C21.1705 7.60962 21.1905 13.4987 21.162 19.3786C15.252 19.4464 9.30717 19.3759 3.39288 19.3819C3.04654 19.3823 2.63466 19.3369 2.35603 19.4843C1.59403 19.8874 1.64468 21.1963 3.0724 21.1937C7.5137 21.1857 11.9764 21.1193 16.4146 21.1957C16.0285 21.7303 14.3699 23.2538 13.8599 23.7646C13.642 23.9827 13.4673 24.2148 13.2498 24.4332L11.3549 26.3088C7.96209 29.6542 4.62785 33.0427 1.20838 36.3603C0.954428 36.6067 0.0935834 37.3874 0.0199401 37.7277C-0.0801907 38.1903 0.219514 38.3867 0.413526 38.5838L7.96791 46.1134C8.15548 46.3469 8.39335 46.5122 8.5836 46.7112C9.15117 47.3045 11.4582 49.7172 11.7905 49.8337C12.5281 50.0922 13.7883 49.3029 12.4277 47.9814C11.5598 47.1383 10.7549 46.3173 9.90228 45.4574L4.84087 40.4203C4.4138 39.9871 4.02245 39.607 3.59166 39.1764C3.23003 38.8149 2.63122 38.2909 2.35245 37.9052C2.48119 37.6618 6.77426 33.4228 7.38241 32.819C7.95309 32.2524 8.48032 31.731 9.05169 31.1646C10.1893 30.0367 11.2936 28.959 12.4194 27.8206C12.589 27.6491 15.5383 24.6442 15.7839 24.5435L15.7645 37.5571C14.5101 37.6346 13.0435 37.5682 11.7658 37.5692C11.1495 37.5697 9.35137 37.4024 8.91951 37.8082C8.33951 38.3532 8.53986 39.3641 9.78406 39.3651C11.7685 39.3665 13.809 39.2849 15.7837 39.369L15.7598 54.9368C12.8891 55.0153 9.91864 54.9399 7.03606 54.9444C6.1362 54.9457 3.30055 54.8588 2.62414 54.9574C1.92959 55.0586 1.75146 55.7824 1.98093 56.2593C2.25386 56.8263 3.01547 56.7272 3.71245 56.725C6.63035 56.7155 9.55069 56.7266 12.4689 56.7269C15.3447 56.7271 18.2765 56.7789 21.1455 56.7183C21.2491 57.3938 21.1672 74.1188 21.1662 74.7205C21.1649 75.5533 21.0681 76.1599 21.7988 76.3861C22.4498 76.5876 22.9737 76.1103 22.9823 75.4864C23.0026 74.0011 22.9822 72.5005 22.9823 71.0134C22.9826 68.0185 23.0451 64.9626 22.9791 61.9769L31.4893 61.9708C31.3539 62.8419 31.4551 67.051 31.4563 68.2651C31.4584 70.3007 31.3422 72.0918 32.0478 73.8691C34.6522 80.4292 44.5171 80.4665 47.078 73.8561C47.8023 71.9864 47.6563 70.3455 47.6571 68.2012C47.6579 66.1395 47.7028 64.0254 47.6488 61.9746L56.0972 61.9686C56.0046 62.5885 56.0657 63.6352 56.0662 64.3024C56.0668 65.048 56.0656 65.7937 56.0649 66.5394C56.0635 68.0308 56.0652 69.5221 56.0655 71.0135C56.0658 72.4279 55.9741 74.1786 56.0716 75.5519C56.1165 76.1839 56.6554 76.5925 57.3346 76.3697C57.9646 76.1629 57.903 75.4287 57.904 74.7206C57.9049 74.0742 57.8166 57.3713 57.9325 56.7241C63.8188 56.8243 69.7848 56.7122 75.6812 56.7229C76.0322 56.7235 76.4633 56.7708 76.7314 56.5956C77.2461 56.2593 77.2361 55.4845 76.8047 55.125C76.5401 54.9045 76.2508 54.9374 75.8729 54.9404C74.4033 54.9521 72.9325 54.9463 71.4628 54.9454C70.3219 54.9448 63.566 55.0252 62.6175 54.9315C62.7597 54.8817 63.7063 53.8735 63.9041 53.6757L72.0823 45.5553C72.1876 45.451 72.28 45.3132 72.3843 45.2184C72.6314 44.994 72.7672 44.8628 73.0227 44.5785C73.8649 43.6414 74.7638 42.8337 75.6441 41.9589C76.5199 41.0885 77.347 40.2293 78.242 39.38C79.1796 38.4902 79.3033 38.3529 78.4065 37.4158L67.0148 26.055C66.1434 25.1723 65.3075 24.3414 64.4309 23.4615C63.9839 23.0127 63.5578 22.6067 63.1247 22.148C62.9536 21.9667 62.6985 21.6264 62.3228 21.6009C61.9191 21.5735 61.6344 21.8118 61.517 22.0828C61.3695 22.4235 61.4433 26.4493 61.4439 27.1675C61.4453 28.9145 61.4422 30.6616 61.444 32.4086C61.4451 33.4083 61.5415 36.8286 61.4166 37.5639L57.9069 37.5745L57.9027 21.1863C59.5388 21.2592 61.3077 21.1835 62.962 21.1934L75.6173 21.1929C76.0083 21.1931 76.4088 21.2724 76.7365 21.0622C76.9561 20.9214 77.1643 20.6354 77.1523 20.265C77.1231 19.3663 76.3315 19.3748 75.4894 19.3803L67.9474 19.3818C64.6027 19.3815 61.2484 19.3577 57.9049 19.3816C57.9177 13.4979 57.9042 7.61295 57.9043 1.72911C57.9043 0.926201 57.9932 0.352878 57.3219 0.0807795C56.6996 -0.171425 56.1444 0.283764 56.0795 0.840719C56.0089 1.44655 56.0653 2.42679 56.0655 3.07132C56.0667 6.74133 56.0208 10.42 56.0675 14.0907L54.8975 14.0775H54.8976Z" fill="#B1B1B1"/>
<path fill-rule="evenodd" clip-rule="evenodd" d="M63.2576 61.979C65.9118 62.0267 68.6112 61.9756 71.2709 61.977C72.5573 61.9777 75.1294 62.0328 76.3122 61.9721C77.1402 61.9295 77.481 60.8563 76.7269 60.3173C76.3718 60.0634 65.0317 60.1915 62.834 60.1906C62.3488 60.1904 61.5877 60.0833 61.461 60.814C61.3874 61.2386 61.4459 62.3372 61.4453 62.8323L61.4498 74.7845C61.4501 75.4878 61.3843 76.0253 61.8896 76.3081C62.4028 76.5954 63.0373 76.3249 63.2096 75.8581C63.3367 75.5139 63.2668 62.5617 63.2576 61.979H63.2576Z" fill="#B1B1B1"/>
<path fill-rule="evenodd" clip-rule="evenodd" d="M17.6062 74.6566L17.608 64.6857C17.6095 60.357 18.0863 60.1812 16.0485 60.1885L10.1044 60.1906C8.76214 60.1919 7.41993 60.1917 6.0777 60.1916C5.28502 60.1915 2.74761 60.0478 2.24595 60.3445C1.83116 60.5899 1.74971 61.3133 2.14683 61.7147C2.52525 62.0972 3.20269 61.9816 3.84068 61.9804C5.16153 61.978 6.48258 61.9757 7.80343 61.9771C10.4175 61.9799 13.1946 61.8855 15.7871 61.9834C15.7492 64.6425 15.786 67.3286 15.786 69.9907C15.786 70.6158 15.7004 75.5598 15.8653 75.9279C16.0582 76.3584 16.6577 76.5934 17.1873 76.3026C17.7048 76.0185 17.6067 75.3585 17.6062 74.6566H17.6062Z" fill="#B1B1B1"/>
<path fill-rule="evenodd" clip-rule="evenodd" d="M63.2633 2.17639C63.2632 1.63265 63.374 0.750448 63.0914 0.384467C62.7973 0.00352299 62.1785 -0.166955 61.7434 0.254352C61.3263 0.658114 61.4475 1.24333 61.4459 1.92074L61.4454 11.8276C61.446 16.1148 61.1039 15.9082 63.2181 15.907C63.8786 15.9067 64.5391 15.907 65.1995 15.9076L73.125 15.9048C73.7855 15.9048 74.446 15.9032 75.1064 15.9044C75.7004 15.9055 76.4535 16.0145 76.8424 15.6744C77.2565 15.3122 77.2528 14.7201 76.8381 14.3161C76.4991 13.9858 75.6866 14.0906 75.1064 14.0928C71.4382 14.1065 66.6559 13.9552 63.2651 14.1022L63.2633 2.17639Z" fill="#B1B1B1"/>
<path fill-rule="evenodd" clip-rule="evenodd" d="M15.7843 14.0753C14.5783 14.1697 13.0682 14.0935 11.8301 14.0929L3.90456 14.094C3.33439 14.0934 2.56393 13.9653 2.18198 14.3238C1.73261 14.7457 1.81282 15.3176 2.2072 15.6971C2.56631 16.0425 3.4158 15.9042 3.96845 15.9051L15.8567 15.9055C17.9959 15.9071 17.6107 15.9491 17.6065 11.7638L17.6063 1.85687C17.6056 1.25542 17.6897 0.521571 17.2993 0.223902C16.8347 -0.130383 16.2099 0.0122888 15.942 0.4092C15.6741 0.806226 15.7857 1.70692 15.7855 2.24036L15.7843 14.0753Z" fill="#B1B1B1"/>
</svg>
