<svg width="87" height="86" viewBox="0 0 87 86" fill="none" xmlns="http://www.w3.org/2000/svg">
<path fill-rule="evenodd" clip-rule="evenodd" d="M27.1945 60.2966C27.1902 61.1684 27.1055 62.858 27.3486 63.3984C27.4666 63.6606 27.7272 63.9514 27.9373 64.0907C28.5186 64.4763 30.0205 64.3434 30.7477 64.3431L57.6463 64.3439C59.0804 64.3434 59.728 63.7675 59.7305 62.3071L59.7289 60.337C63.5035 60.4693 67.0516 61.9725 69.0927 64.2462C69.1985 64.3641 69.3429 64.4958 69.4423 64.6222C69.513 64.712 69.539 64.7287 69.6219 64.8265C69.6937 64.9112 69.7066 64.9526 69.7883 65.0466C70.6362 66.0227 71.4143 67.6364 71.7923 68.9424C71.952 69.494 72.2615 70.7905 72.2206 71.4467C65.2528 71.393 58.0139 71.4427 51.0178 71.4425C38.9327 71.4423 26.8031 71.3952 14.7258 71.446C14.933 67.7906 16.8463 64.9528 18.7754 63.3797L19.3981 62.8898C20.2384 62.2849 21.2419 61.6868 22.2528 61.2955C23.6836 60.7415 25.4145 60.2499 27.1945 60.2966L27.1945 60.2966ZM57.9299 62.5512L28.9727 62.5634C29.0627 60.3358 28.8663 57.4424 28.9983 55.3344C29.2436 51.418 32.4384 48.4335 36.2246 48.1238C37.3414 48.0324 38.6747 48.0935 39.8137 48.0931C41.0254 48.0926 42.237 48.0944 43.4486 48.0936C44.646 48.0928 45.8434 48.0935 47.0408 48.0936C50.4831 48.0939 52.9333 47.7674 55.625 50.3872C56.7045 51.4378 57.7619 53.1492 57.9091 55.338C57.9858 56.4783 57.9338 57.7683 57.9337 58.9288C57.9337 60.1265 57.9604 61.3577 57.9299 62.5513V62.5512ZM27.1926 58.204C23.9228 58.4087 21.9774 58.8615 19.1449 60.5414C18.5875 60.8719 18.1232 61.2464 17.6263 61.6309C17.5327 61.7034 17.4873 61.7584 17.3961 61.827C17.2859 61.9097 17.2535 61.9601 17.1496 62.0495C15.2064 63.7193 13.8774 65.9241 13.1472 68.4388C12.7054 69.9603 12.8491 70.4867 12.6519 71.4474C11.8949 71.4334 7.52341 71.3577 7.16159 71.5221C6.43542 71.8521 6.48238 72.975 7.28245 73.198C7.60249 73.2872 20.2185 73.227 21.2113 73.2274L77.0183 73.2274C77.492 73.2279 79.4661 73.2786 79.758 73.1714C80.464 72.9121 80.542 71.8485 79.8186 71.5241C79.314 71.2979 74.9943 71.5425 74.3084 71.4317C74.22 69.4324 73.6269 67.5058 72.8406 65.9727C72.2341 64.7901 71.2373 63.3979 70.2883 62.4949C70.1216 62.3363 69.969 62.2228 69.8106 62.0724C67.328 59.7142 63.1354 58.2023 59.7306 58.2622C59.7455 55.4932 59.8018 53.1359 58.318 50.902C58.122 50.6069 57.8043 50.1211 57.5852 49.8803C57.4861 49.7713 57.4721 49.7345 57.3931 49.6437C57.3189 49.5587 57.256 49.5257 57.1784 49.4337L55.7564 48.1609C54.3976 47.1906 52.7009 46.4017 50.5486 46.3139C49.4044 46.2672 48.1935 46.3017 47.0408 46.301C45.8577 46.3003 44.6745 46.3012 43.4914 46.3011C41.1864 46.3009 38.7692 46.2314 36.4781 46.3079C34.4568 46.3754 32.4706 47.1403 31.2113 48.102C29.8189 49.1654 28.7479 50.3134 28.0249 51.9726C27.078 54.1453 27.2042 55.6658 27.1925 58.204H27.1926Z" fill="#B1B1B1"/>
<path fill-rule="evenodd" clip-rule="evenodd" d="M32.5635 25.7388L54.349 25.7487L54.3344 32.1365L32.5626 32.1328L32.5635 25.7388ZM51.9525 3.08775e-05H49.7893C49.8845 0.182023 50.0624 0.380935 50.1899 0.572283C50.6375 1.24433 50.89 1.60202 51.2924 2.37587C51.7297 3.21648 52.1183 4.17417 52.4236 5.13718C53.0939 7.25117 53.4425 9.51585 53.4288 11.9312C53.4163 14.1379 53.0501 16.7886 52.3957 18.7008C52.0723 19.6459 51.73 20.6589 51.2959 21.49C51.0605 21.9406 50.8461 22.3537 50.6097 22.7705L49.8807 23.9569L49.2082 23.9564L49.204 0H47.3888L47.3889 23.9599L39.5466 23.9635L39.541 0H37.7228L37.7214 23.9629C36.1165 23.9366 34.4935 23.9628 32.8857 23.9605C32.0574 23.9594 31.358 23.8241 30.946 24.4036C30.6603 24.8055 30.7788 26.0898 30.7785 26.6848L30.7792 32.7145C30.7776 34.3378 32.0564 33.8335 33.1971 33.943C33.2588 34.2936 33.2142 35.1731 33.2146 35.5797L33.2148 43.9615C33.2147 44.5016 33.1904 45.0969 33.2127 45.6299C33.2605 46.7724 34.8823 46.7944 34.9892 45.7166C35.0363 45.2409 34.9897 38.3283 34.9902 37.2903C34.9904 36.7891 34.9586 34.2013 35.0064 33.9381L51.9018 33.9327C51.9835 34.2279 51.9294 42.7887 51.9293 43.8759C51.9292 44.4147 51.9028 45.0133 51.9269 45.5441C51.9765 46.6349 53.597 46.651 53.7093 45.6289L53.7152 33.9417C54.6238 33.8962 55.8136 34.194 56.0956 33.2524C56.1946 32.922 56.138 27.1313 56.1392 26.0433C56.1412 24.0213 56.1342 23.9568 54.0539 23.96C53.3552 23.961 52.6502 23.9488 51.9525 23.962C52.0012 23.8413 52.8724 22.3352 53.2412 21.4671C55.7126 15.6486 55.9476 8.26327 53.2957 2.46986C53.0965 2.03458 52.8999 1.61705 52.6695 1.21432L51.9525 0V3.08775e-05Z" fill="#B1B1B1"/>
<path fill-rule="evenodd" clip-rule="evenodd" d="M25.0835 78.6191C25.3565 78.8713 25.6014 79.2263 25.8482 79.4822C25.9401 79.5775 25.9758 79.5937 26.0593 79.6955L27.4018 81.1763C27.8294 81.698 28.5529 82.397 28.9719 82.8976C29.3728 83.3767 31.0097 85.1885 31.3222 85.4684C31.4782 85.6081 31.6516 85.7097 31.8504 85.754C32.7761 85.9601 33.297 85.1306 33.824 84.5396L35.0001 83.2355C35.5744 82.635 36.4216 81.5761 36.9312 81.1062C37.2179 80.8418 37.4398 80.4867 37.7183 80.2253C38.1698 79.8016 39.2265 78.4697 39.6423 78.0865L40.8159 76.7781C41.4485 75.9975 40.3203 74.9473 39.5129 75.6457L37.9421 77.37C37.529 77.897 37.045 78.3874 36.5816 78.873L35.253 80.3693C35.1703 80.4715 35.1347 80.4872 35.0411 80.5827L32.1617 83.8054C31.8664 83.5577 31.622 83.2693 31.3773 82.9744L30.614 82.1567C30.4769 82.0122 30.3885 81.8531 30.2396 81.7163C29.9352 81.4371 29.7362 81.1575 29.4676 80.8622C29.3996 80.7874 29.3404 80.7501 29.2728 80.675C29.2012 80.5952 29.167 80.5452 29.0995 80.4612C29.0126 80.3531 28.9794 80.3493 28.8828 80.2528C28.8143 80.1843 28.7741 80.1164 28.7106 80.0384C28.5839 79.8831 28.4513 79.7761 28.3195 79.6177L27.1769 78.366C26.8501 78.0696 26.0172 77.0567 25.6633 76.6695C25.5832 76.582 25.5245 76.5564 25.4462 76.462C25.1645 76.1222 24.8236 75.6439 24.3332 75.6106C23.7312 75.5697 23.5393 75.9459 23.3092 76.2099L16.5223 83.7852C16.3344 84.0183 15.9054 84.3658 15.8247 84.7183C15.704 85.2452 16.0435 85.614 16.3927 85.7307C17.1392 85.9804 17.633 85.1496 18.048 84.6715L18.4321 84.2438C18.7905 83.8167 19.3955 83.2245 19.7536 82.789L24.2921 77.7538L25.0834 78.6191L25.0835 78.6191Z" fill="#B1B1B1"/>
<path fill-rule="evenodd" clip-rule="evenodd" d="M44.4443 75.6397C44.5489 75.8326 45.0269 76.371 45.2006 76.5509L48.2575 80.0358C48.7219 80.4814 49.3275 81.3083 49.7739 81.7702L51.5516 83.7993C51.6082 83.863 51.6439 83.8774 51.7008 83.9447L52.0761 84.3839C52.283 84.6615 52.8947 85.3468 53.1457 85.494C54.1937 86.1088 54.9383 84.8876 55.211 84.6316L56.2339 83.4723C56.3393 83.3545 56.4045 83.3042 56.5005 83.1845C56.8222 82.783 57.2047 82.4236 57.5364 82.041L60.6168 78.576C60.8664 78.319 61.1734 78.0465 61.351 77.7403C61.4639 77.7958 61.3967 77.7367 61.4873 77.84L62.5035 79.0046C62.9777 79.5869 63.9188 80.5293 64.3503 81.0902L67.3115 84.459C67.6495 84.7804 68.1079 85.5015 68.4847 85.6816C68.6718 85.771 68.8907 85.8037 69.1143 85.752C69.5739 85.6457 70.0637 85.0488 69.4659 84.2703L67.052 81.5553C66.7478 81.1941 66.4834 80.8422 66.1369 80.5029C66.0562 80.4239 66.0206 80.3499 65.9437 80.2653L64.4551 78.5913C64.0089 78.0147 63.4543 77.4564 62.9708 76.9128L62.6126 76.5007C62.2212 75.9823 61.6067 75.2329 60.8587 75.741C60.6436 75.8871 58.5014 78.3077 58.2368 78.6354C57.8804 79.0769 57.4744 79.4685 57.1078 79.9019L56.3631 80.74C56.2919 80.8201 56.2396 80.8462 56.1704 80.9288L54.6755 82.5989C54.6067 82.6803 54.5763 82.7409 54.5045 82.8158L53.9283 83.4334C53.859 83.5165 53.8344 83.564 53.762 83.6394C53.502 83.4697 52.7585 82.4625 52.4299 82.149C52.3235 82.0475 52.3049 81.993 52.2152 81.8918L51.33 80.8968C51.0696 80.5497 50.7149 80.2426 50.4477 79.8984L47.3607 76.3999C47.2694 76.3127 47.2376 76.2298 47.1499 76.1374C47.0427 76.0242 47.019 76.0208 46.923 75.8964C46.846 75.7965 46.7737 75.7305 46.7274 75.6344L44.4444 75.6399L44.4443 75.6397Z" fill="#B1B1B1"/>
<path fill-rule="evenodd" clip-rule="evenodd" d="M78.002 85.2279C78.1765 85.0279 78.429 84.8056 78.6493 84.5931L82.484 80.8163C83.0684 80.2533 86.776 76.6791 86.9051 76.427C87.2626 75.7295 86.5482 74.9869 85.8368 75.2292C85.4781 75.3513 85.4091 75.5307 85.1252 75.802C84.8959 76.0212 84.6994 76.2104 84.4683 76.4283L81.2765 79.5653C81.0575 79.7797 80.8646 79.9591 80.6427 80.1721C80.4142 80.3915 80.2152 80.5795 79.9875 80.7999L79.3789 81.4306C79.1286 81.6733 75.6552 85.0832 75.5038 85.1593C75.4317 85.0192 75.3722 84.9428 75.25 84.8212C75.1057 84.6778 75.0798 84.6327 74.9652 84.5007L74.1311 83.5853C74.0204 83.4524 73.9863 83.3829 73.856 83.2601L73.3204 82.639C73.2195 82.5208 73.1352 82.4439 73.0374 82.3242L67.7869 76.4152C67.7356 76.347 67.7139 76.3045 67.6575 76.2422C67.3542 75.9076 66.9143 75.3675 66.5569 75.2892C65.8959 75.1443 65.3037 75.8376 65.5927 76.4692C65.6691 76.6359 66.7156 77.8401 66.9515 78.0617L68.3397 79.623C68.5101 79.7959 68.7002 80.0584 68.8736 80.2474L69.7216 81.1921C69.8249 81.3236 69.8648 81.3546 69.9844 81.4839L73.2772 85.2438C74.064 85.261 74.8611 85.2411 75.65 85.2478C76.133 85.2519 77.633 85.3095 78.0021 85.228L78.002 85.2279Z" fill="#B1B1B1"/>
<path fill-rule="evenodd" clip-rule="evenodd" d="M7.76919 85.2455L12.2834 85.2452C12.4317 84.9767 12.6018 84.8723 12.8123 84.6118L16.435 80.5812C16.5394 80.4537 16.6102 80.397 16.7216 80.2711L18.6531 78.0944C18.7524 77.9686 18.8397 77.9047 18.9392 77.7833L19.4778 77.1646C19.6691 76.9693 19.9011 76.7744 20.0219 76.512C20.314 75.8774 19.7389 75.1565 19.0648 75.3004C18.7385 75.37 18.5796 75.5797 18.3847 75.7725L13.9457 80.7441C13.7888 80.8969 13.7839 80.9165 13.663 81.0604C13.5629 81.1796 13.4752 81.2457 13.3754 81.3701L11.7226 83.2249C11.3018 83.6241 10.3274 84.8351 10.0069 85.0886L2.8468 77.0362C2.70393 76.9017 2.68417 76.8379 2.56958 76.7134L1.73184 75.8004C1.53278 75.6141 1.44339 75.3832 1.0472 75.2877C0.381694 75.1273 -0.219397 75.819 0.0782305 76.4673C0.212486 76.7598 0.405902 76.8843 0.595366 77.1073C0.644709 77.1654 0.681545 77.2224 0.727491 77.2771C0.783256 77.3434 0.819691 77.3591 0.877216 77.4218C0.989949 77.5447 1.01907 77.6218 1.15335 77.7463L7.51306 84.9013C7.60279 84.9934 7.71157 85.1374 7.76922 85.2455H7.76919Z" fill="#B1B1B1"/>
<path fill-rule="evenodd" clip-rule="evenodd" d="M42.9002 51.8165C45.0262 51.4723 46.727 53.0237 46.9882 54.7841C47.3033 56.908 45.7644 58.5228 44.0037 58.8019C41.8795 59.1386 40.1751 57.5899 39.9122 55.8402C39.7339 54.6532 40.1104 53.8361 40.6361 53.123C41.1449 52.4328 42.0086 51.9609 42.9002 51.8165V51.8165ZM43.0099 50.351C40.3316 50.601 38.1812 52.8157 38.45 55.8077C38.6808 58.3774 41.0324 60.5598 43.9338 60.2716C48.4674 59.8213 50.0146 54.254 46.7613 51.5514C45.8646 50.8064 44.6195 50.2008 43.0099 50.351Z" fill="#B1B1B1"/>
<path fill-rule="evenodd" clip-rule="evenodd" d="M67.2636 43.9878C67.728 43.9871 71.2917 44.0298 71.5771 43.9532C72.3856 43.7364 72.4557 42.5253 71.572 42.2636C71.2959 42.1819 67.7028 42.2249 67.2526 42.2256C67.2389 39.1349 66.1696 36.5768 64.4219 34.6647C64.2428 34.4688 64.3348 34.4988 64.0115 34.2179C63.8354 34.0648 63.6423 33.7868 63.441 33.6748C63.1647 33.5211 62.836 33.4872 62.5586 33.6502C62.0254 33.9635 61.946 34.59 62.4848 35.1465C63.0008 35.6796 63.0445 35.6939 63.5518 36.3455C65.8025 39.2363 65.4887 42.1519 65.4944 45.6292C65.4958 46.4609 65.4131 47.078 66.1174 47.2963C66.6332 47.4562 67.2679 47.1561 67.2688 46.2707C67.2697 45.5115 67.2786 44.7462 67.2636 43.9877L67.2636 43.9878Z" fill="#B1B1B1"/>
<path fill-rule="evenodd" clip-rule="evenodd" d="M19.6717 42.2082C18.9936 42.2967 15.7638 42.1481 15.3679 42.2652C14.5905 42.495 14.5083 43.6519 15.3341 43.9389C15.6106 44.0351 19.1909 43.9859 19.634 43.9834C19.618 44.7278 19.6293 45.4824 19.6288 46.228C19.6278 47.692 21.0575 47.5088 21.3379 46.7817C21.4618 46.4603 21.4057 43.8991 21.4062 43.4483C21.4101 40.1221 21.8257 38.51 23.3836 36.3409C23.7727 35.7991 24.0247 35.5786 24.4215 35.1554C24.9069 34.6378 24.9752 34.0508 24.3934 33.6799C23.7192 33.2502 23.1932 33.8686 22.9226 34.1686C22.5722 34.557 22.2247 34.9441 21.8861 35.399C20.8629 36.774 20.1551 38.3749 19.8427 40.1547C19.7807 40.508 19.5703 41.9298 19.6717 42.2082H19.6717Z" fill="#B1B1B1"/>
<path fill-rule="evenodd" clip-rule="evenodd" d="M43.0201 39.8396C42.4456 39.9616 40.5446 40.6883 39.8239 40.9352C39.3319 41.1038 37.8683 41.5113 37.6034 41.9222C37.4511 42.1584 37.4018 42.4804 37.5343 42.7756C37.6302 42.9889 37.8486 43.1963 38.1152 43.2641C38.451 43.3496 38.7417 43.2015 39.0045 43.1086L42.9469 41.707C43.4599 41.5324 43.2815 41.52 43.8014 41.6846C44.86 42.0197 45.92 42.4191 46.9703 42.792C47.3039 42.9104 48.3029 43.3139 48.6246 43.2933C49.4749 43.2388 49.9408 41.9857 48.758 41.5601L46.3875 40.724C45.8625 40.5339 45.3469 40.3441 44.8075 40.1652C44.2409 39.9773 43.703 39.6946 43.0202 39.8396L43.0201 39.8396Z" fill="#B1B1B1"/>
<path fill-rule="evenodd" clip-rule="evenodd" d="M43.034 36.1683C42.5284 36.2599 41.9011 36.5161 41.4337 36.6869L38.3157 37.8025C37.1516 38.2478 37.4497 39.341 38.1886 39.5592C38.492 39.6488 38.7762 39.5056 39.0313 39.4164L42.9801 38.0184C43.4697 37.8518 43.2865 37.839 43.7999 38.0077C44.3347 38.1833 48.1892 39.6184 48.5379 39.6019C49.1021 39.5751 49.579 38.9712 49.2771 38.3479C49.0637 37.9074 48.4435 37.784 47.9274 37.6009L44.7661 36.486C44.2304 36.2843 43.6813 36.0511 43.034 36.1683L43.034 36.1683Z" fill="#B1B1B1"/>
<path fill-rule="evenodd" clip-rule="evenodd" d="M24.985 49.94C24.0542 50.2362 22.5285 51.2544 21.8121 51.7902C21.6841 51.8859 21.6194 51.948 21.5004 52.0336C21.0023 52.3915 20.6913 52.74 20.3153 53.0711L19.2144 54.1955C18.6819 54.8672 18.3013 55.2489 17.7509 56.0661C17.5814 56.3178 16.9944 57.1798 16.9372 57.4779C16.7711 58.3428 17.9556 59.0862 18.6649 57.9221C19.2152 57.0189 19.8294 56.1224 20.5525 55.3638C20.9372 54.9603 21.1428 54.6653 21.6461 54.2322C22.5342 53.4679 22.5284 53.4589 23.5092 52.7599C24.3122 52.1876 24.8279 51.9776 25.6365 51.5495C26.6263 51.0255 26.036 49.6056 24.985 49.94H24.985Z" fill="#B1B1B1"/>
<path fill-rule="evenodd" clip-rule="evenodd" d="M61.3617 49.9316C61.093 50.0236 60.878 50.1921 60.7826 50.477C60.5428 51.193 61.09 51.4997 61.6259 51.7449C62.2544 52.0325 63.1527 52.6165 63.7088 52.9952C65.3152 54.0893 67.0626 55.9671 68.0531 57.5924C68.2964 57.9917 68.6222 58.6959 69.3763 58.471C69.9721 58.2932 70.1846 57.6861 69.8025 57.0796C69.3493 56.3602 68.9782 55.7501 68.4411 55.104C68.3286 54.9687 68.309 54.9317 68.1897 54.8013L67.9307 54.5051C67.8301 54.3935 67.7914 54.3008 67.679 54.1987L66.8427 53.3253C65.6548 52.1953 64.5053 51.3114 63.0139 50.4839C62.6645 50.2901 61.8269 49.7723 61.3617 49.9316H61.3617Z" fill="#B1B1B1"/>
<path fill-rule="evenodd" clip-rule="evenodd" d="M80.522 75.5693L78.0733 75.5565L75.8388 77.8489C75.6282 78.0656 75.3212 78.4363 75.0511 78.6199C75.0418 78.6127 75.027 78.5907 75.0231 78.5984L72.6593 75.9477C71.8314 74.887 70.7095 75.8169 71.0535 76.6543C71.1223 76.8218 72.0343 77.8492 72.2305 78.0405L74.2156 80.2892C74.484 80.5894 74.8371 80.9324 75.4136 80.6755C75.7327 80.5332 76.065 80.1051 76.3063 79.8551L78.8415 77.3018C79.0597 77.0755 80.4827 75.6762 80.522 75.5694L80.522 75.5693Z" fill="#B1B1B1"/>
<path fill-rule="evenodd" clip-rule="evenodd" d="M10.6055 78.5054L9.6357 77.4316C9.52923 77.2892 9.42314 77.216 9.31331 77.0699C9.2023 76.9223 9.0992 76.8573 8.98814 76.7119L8.51195 76.1594C8.41762 76.0666 8.41941 76.0874 8.34391 75.9884C8.28944 75.917 8.25603 75.8538 8.19437 75.7923C8.08469 75.6828 8.05323 75.744 8.0394 75.6122L5.73535 75.6048C5.84262 75.8155 6.15976 76.1061 6.28188 76.2512L9.90714 80.368C10.0246 80.4948 10.1929 80.6211 10.4342 80.6573C11.185 80.77 11.4472 80.1335 11.9094 79.6913L13.4646 77.9534C13.7109 77.6499 14.4496 76.9493 14.5599 76.6116C14.793 75.8971 13.9302 74.8994 12.9323 75.922L11.6038 77.4181C11.5189 77.5241 11.4892 77.5346 11.393 77.6329C11.1691 77.8618 10.9128 78.2081 10.6054 78.5054L10.6055 78.5054Z" fill="#B1B1B1"/>
<path fill-rule="evenodd" clip-rule="evenodd" d="M41.2127 85.3412C41.283 85.1109 41.5387 84.9416 41.7164 84.7381L43.0214 83.2603C43.0987 83.1683 43.1954 83.0873 43.2777 83.0004C43.3555 83.0444 43.2755 82.9673 43.3779 83.0751L44.834 84.7427C44.9818 84.9315 45.1822 85.1062 45.3133 85.3314L47.6035 85.3324C47.544 85.2066 47.624 85.3286 47.5292 85.2093C47.5246 85.2035 47.4829 85.1626 47.4679 85.1449L47.0953 84.7043C47.0061 84.5884 46.9203 84.5295 46.8313 84.4135C46.7235 84.2728 46.707 84.2621 46.5719 84.1172L44.7742 82.0664C44.0057 81.1803 43.3849 80.1052 42.2439 81.5441L40.6944 83.2885C40.5754 83.4135 40.5292 83.4521 40.4275 83.5765C40.3383 83.6858 40.2505 83.7549 40.1613 83.865C39.8404 84.2613 39.2311 84.874 38.9591 85.2321C38.8995 85.3105 38.9592 85.2188 38.8989 85.3337L41.2127 85.3413L41.2127 85.3412Z" fill="#B1B1B1"/>
<path fill-rule="evenodd" clip-rule="evenodd" d="M26.5958 37.9126C25.9075 38.032 25.4698 39.0943 25.1825 39.6805C24.3783 41.3212 24.3291 43.3195 24.7567 45.0777C24.8513 45.4664 24.9982 45.9248 25.1434 46.2736C25.5618 47.2792 26.8846 46.9131 26.8585 46.0136C26.8508 45.7497 26.585 45.1014 26.5005 44.7867C25.9998 42.9227 26.221 41.2518 27.1869 39.6294C27.3716 39.3191 27.7204 38.9881 27.5438 38.4847C27.4206 38.1335 27.0657 37.8311 26.5958 37.9126V37.9126Z" fill="#B1B1B1"/>
<path fill-rule="evenodd" clip-rule="evenodd" d="M60.0602 37.925C59.639 38.0167 59.3147 38.3271 59.3538 38.8307C59.3791 39.1572 59.738 39.5997 59.898 39.8705C60.2979 40.5469 60.5667 41.3655 60.6512 42.2949C60.864 44.6333 59.8525 45.648 60.0798 46.3185C60.1971 46.6645 60.5902 46.9633 61.0969 46.8547C61.5454 46.7585 61.7075 46.4484 61.8479 46.0245C62.7747 43.2261 62.6532 40.8925 61.0434 38.426C60.8537 38.1353 60.5481 37.8189 60.0602 37.925Z" fill="#B1B1B1"/>
<path fill-rule="evenodd" clip-rule="evenodd" d="M43.2233 54.3758C43.8094 54.2287 44.2389 54.6306 44.3565 55.074C44.5029 55.6264 44.1171 56.1005 43.6785 56.2106C42.4451 56.52 42.0268 54.6764 43.2233 54.3758ZM41.0688 55.4649C41.1544 56.7204 42.2448 57.7351 43.6219 57.6459C44.8489 57.5664 45.9128 56.4968 45.83 55.168C45.7506 53.8927 44.656 52.8733 43.277 52.9647C42.0151 53.0483 40.9756 54.099 41.0688 55.4649V55.4649Z" fill="#B1B1B1"/>
<path fill-rule="evenodd" clip-rule="evenodd" d="M35.0108 75.6753C34.5428 75.6176 33.2385 75.6416 32.7075 75.6458L32.2015 76.218L31.6454 75.61L29.3813 75.6118L30.9599 77.4467C31.0925 77.5744 31.1353 77.6607 31.2811 77.809C31.4246 77.9551 31.9781 78.7186 32.708 78.2083C32.9613 78.0312 34.1117 76.6586 34.3588 76.3941L35.0108 75.6753H35.0108Z" fill="#B1B1B1"/>
<path fill-rule="evenodd" clip-rule="evenodd" d="M53.7548 75.8913C53.4161 75.6703 53.8393 75.6729 52.8568 75.6774L51.2612 75.6834L52.9872 77.7013C53.2165 77.9105 53.3574 78.1064 53.8335 78.075C54.2971 78.0444 54.5943 77.5692 54.8642 77.2703L56.0414 75.9688C56.1229 75.8902 56.281 75.7269 56.2908 75.6376L54.0542 75.6235C53.9623 75.7011 53.8427 75.8127 53.7548 75.8913Z" fill="#B1B1B1"/>
</svg>
