<svg width="87" height="90" viewBox="0 0 87 90" fill="none" xmlns="http://www.w3.org/2000/svg">
<path fill-rule="evenodd" clip-rule="evenodd" d="M16.888 76.9518L20.4352 78.4757L20.4361 79.777L16.9642 78.2854L16.888 76.9519L16.888 76.9518ZM16.8783 64.394L24.9703 67.9329C25.013 68.5037 24.9837 69.1758 24.9831 69.758C24.9824 70.5867 24.8736 70.8157 25.2148 71.3477C25.1087 71.4537 25.0475 71.513 25.0442 71.7576C25.0387 72.1717 25.1557 72.6111 25.3603 72.9521C25.8147 73.7099 26.6475 74.3693 27.3824 74.8155L28.4892 75.4156C28.6395 75.5138 28.5539 75.4641 28.6401 75.5501L28.6259 83.3399L22.0827 80.4933C22.2295 77.1306 22.2545 77.4321 20.5468 76.7098L16.8645 75.1012L16.8783 64.3939L16.8783 64.394ZM37.1161 72.8556C39.3913 72.0309 41.6671 71.2772 43.9267 70.4294C46.1738 69.5862 48.4908 68.7858 50.7394 68.0052C54.1102 66.8349 57.5911 65.5144 60.9725 64.3553L83.9861 56.1941C84.278 56.0938 84.5341 55.9363 84.8387 55.9254C85.3413 56.4865 85.2525 56.7914 85.2525 57.6887C85.2525 58.7339 85.34 63.6044 85.1019 63.9461L84.6804 64.1249C80.3912 65.7279 75.7492 67.2491 71.388 68.8337C64.5891 71.3041 57.6629 73.6634 50.8492 76.1224C48.587 76.9388 46.2776 77.7902 43.9898 78.5584C41.6875 79.3315 39.4327 80.2106 37.1398 81.0034L30.3124 83.432L30.3081 75.2762L37.116 72.8556H37.1161ZM26.7877 70.7939C27.3261 70.6367 27.9505 70.3984 28.4605 70.2037L33.5361 68.3884C38.0416 66.7398 42.5504 65.1913 47.0624 63.5593C49.3158 62.7443 51.5673 61.9049 53.8298 61.1489C57.4928 59.9251 80.4635 51.5435 80.8624 51.5971C81.1102 53.2078 82.8291 54.068 83.2929 54.5627C82.2524 54.9902 81.0092 55.3744 79.9157 55.7629L29.199 73.8166C28.6687 73.5443 28.112 73.241 27.6561 72.8921C26.8099 72.2443 26.948 72.0699 26.6305 71.4653C26.8641 71.2475 26.7912 71.1889 26.7877 70.7938V70.7939ZM26.7782 67.6222C27.3265 67.468 27.9064 67.2229 28.4674 67.0242C29.0484 66.8185 29.5727 66.6361 30.1559 66.4189C35.6703 64.3652 41.486 62.3905 47.0646 60.3822C49.3292 59.5669 51.5598 58.7408 53.8261 57.9669C56.1071 57.188 58.3184 56.3496 60.5899 55.5538C62.8361 54.7668 65.1247 53.9713 67.3669 53.1513L74.1329 50.7402C75.2698 50.3607 76.3711 49.9183 77.5155 49.5343C78.6421 49.1563 79.7567 48.6995 80.8955 48.3466L80.8871 49.6136C78.6834 50.4738 76.3502 51.2104 74.1221 52.0242C71.8826 52.8423 69.6243 53.6674 67.3554 54.4353C65.0929 55.201 62.8442 56.0338 60.5856 56.8432L26.7631 68.893L26.7782 67.6223V67.6222ZM18.6637 63.2228C18.9886 62.9912 25.701 60.6808 26.2759 60.4739C28.8335 59.5531 31.3551 58.687 33.921 57.7646C41.5217 55.0324 49.2252 52.395 56.8297 49.6695C59.3442 48.7683 61.9148 47.8463 64.4455 46.9885L72.0959 44.286C72.6511 44.0807 72.501 44.0487 73.0021 44.2762L77.5135 46.2423C77.8648 46.3891 79.0216 46.8616 79.2437 47.0322C79.0283 47.2046 72.4956 49.4584 71.6356 49.7709C64.0445 52.5293 56.3162 55.1686 48.728 57.9261C43.6532 59.7702 38.564 61.5502 33.4703 63.3767C31.1137 64.2217 28.0818 65.2333 25.8521 66.1135C25.4301 66.28 25.3335 66.1413 24.9335 65.9602C24.6176 65.8172 24.3392 65.7072 24.0296 65.5691L18.6639 63.2228H18.6637ZM85.7275 54.6722C85.732 53.6416 83.7002 53.1222 82.8074 51.7732C82.3534 51.0874 82.5806 51.0449 82.6057 50.8028L82.6069 49.3872C82.6016 46.3723 82.8889 46.8277 80.791 45.8446C79.9141 45.4337 73.9231 42.8965 73.6949 42.7053L73.6909 1.98162C73.6914 1.24963 73.8215 0.181235 72.7814 0.208774C72.1724 0.224875 71.9486 0.663134 71.9485 1.27512L71.9462 18.0067C71.9461 26.1055 72.006 34.3582 71.9408 42.4375C71.6948 42.5862 65.5557 44.7045 65.0934 44.8698L51.3518 49.7194C49.0657 50.5386 46.8016 51.3182 44.52 52.1239C39.9452 53.7393 35.4237 55.3763 30.8329 56.9687C30.4162 57.1132 17.5234 61.7454 17.1573 61.8061C17.0932 41.4764 17.162 34.3739 17.1582 14.0297C17.158 13.1027 17.3375 11.9433 16.2596 11.9638C15.6024 11.9763 15.4272 12.4431 15.4275 13.0877L15.427 57.8064C15.4269 58.7514 15.3296 62.4748 15.5064 63.1051C15.1255 63.7158 15.0563 63.8223 15.0552 64.7536C15.0514 68.0694 14.9607 75.5234 15.2051 78.2381C15.3352 79.6828 15.5605 79.5592 16.6596 80.0721L21.2929 82.0869C22.8381 82.7692 24.3707 83.4421 25.9333 84.0984C26.6967 84.4191 27.4987 84.7564 28.2313 85.0948C29.4066 85.6374 29.5789 85.6265 30.8256 85.1627C32.4606 84.5546 34.0951 84.0062 35.7266 83.4158C37.3465 82.8295 38.9758 82.2231 40.6234 81.6653C42.2613 81.1107 43.8974 80.5172 45.525 79.9188C48.7924 78.7175 52.0104 77.6447 55.2959 76.4522L74.8813 69.5048C78.1332 68.311 81.4621 67.2187 84.6992 66.0351C85.6581 65.6845 86.6123 65.5233 86.7752 64.8067C87.0212 63.7247 86.9746 61.2989 86.9746 59.926C86.9745 58.8893 87.1115 56.2551 86.751 55.5416C86.5472 55.1379 86.2741 54.7069 85.7276 54.6723L85.7275 54.6722Z" fill="#B1B1B1"/>
<path fill-rule="evenodd" clip-rule="evenodd" d="M66.5483 36.9173C65.7087 37.1215 64.6379 37.5618 63.7956 37.8606C62.8488 38.1965 61.9417 38.5094 61.0139 38.8442C59.1802 39.5059 57.3279 40.1579 55.4882 40.7903C51.7811 42.0648 48.1117 43.4409 44.4017 44.7055C42.5458 45.3381 40.7352 45.9952 38.8871 46.6621C37.028 47.3329 35.1768 47.9598 33.3219 48.6277L22.2827 52.5423C22.3768 49.9711 22.2825 47.211 22.2829 44.6183C22.2834 41.9689 22.2813 39.3195 22.2834 36.6701L22.2834 11.9887C22.2832 11.6889 22.336 11.2788 22.2114 11.033C22.1113 10.8358 21.8412 10.7058 21.5519 10.8087C21.0787 10.9769 21.2344 11.9472 21.2341 12.5186C21.2339 13.1858 21.2356 13.8531 21.2356 14.5204L21.2353 49.2106C21.2353 50.4952 21.1688 51.9537 21.2331 53.2162C21.2733 54.0064 21.8761 53.8093 22.4184 53.6087L26.8475 52.0379C28.8208 51.3679 30.7811 50.6308 32.7544 49.9441C40.5887 47.2176 48.4511 44.3129 56.2695 41.6305L67.274 37.7512C67.5844 37.6131 67.6126 37.4453 67.6172 37.0831C67.6838 31.7828 67.6144 26.4332 67.6154 21.1271L67.6149 4.94885C67.6151 4.28159 67.617 3.61433 67.6168 2.94707C67.6166 2.30345 67.779 1.50233 67.1714 1.38687C66.3979 1.23984 66.554 2.31604 66.5543 2.71161L66.554 20.9505C66.5559 26.2474 66.6463 31.6329 66.5483 36.9173Z" fill="#B1B1B1"/>
<path fill-rule="evenodd" clip-rule="evenodd" d="M2.51224 73.708C2.35228 73.6196 2.43437 73.67 2.30052 73.5444C1.88702 73.1565 1.35377 72.4998 0.906892 72.4676C0.481522 72.4369 0.164154 72.7012 0.04696 73.0321C-0.184045 73.6842 0.483246 74.2051 1.04407 74.6861C3.019 76.38 3.05213 77.3062 4.6068 75.6401C4.71557 75.5235 4.86091 75.4164 4.98627 75.311L6.41577 73.9744C7.02561 73.3319 6.60056 72.376 5.7331 72.4679C5.19366 72.525 4.56346 73.4433 4.2039 73.6971C4.19394 72.8002 4.20645 71.8923 4.20881 70.9942C4.20977 70.6327 4.25751 70.0087 4.12628 69.7175C3.80495 69.0043 2.76961 69.1213 2.54978 69.8101C2.45524 70.1064 2.49686 73.3198 2.51212 73.708H2.51224Z" fill="#B1B1B1"/>
<path fill-rule="evenodd" clip-rule="evenodd" d="M75.3044 22.9148L82.0028 28.9121C82.2407 29.1054 82.4156 29.3054 82.6556 29.496C83.1553 29.8926 85.063 31.7813 85.4004 31.8689C85.8044 31.9737 86.0864 31.6716 85.9999 31.2686C85.9417 30.9975 85.3299 30.5109 85.0773 30.3064C84.9384 30.1938 84.8816 30.0982 84.7523 29.988L77.0437 23.0436C76.917 22.9372 76.8014 22.8579 76.6882 22.7485L75.2856 21.5195L75.3044 22.9146V22.9148Z" fill="#B1B1B1"/>
<path fill-rule="evenodd" clip-rule="evenodd" d="M75.3057 26.5583C75.441 26.6559 75.7275 26.8829 75.8459 27.0104C76.0913 27.2748 76.2046 27.3041 76.4104 27.5097L83.0127 33.491C83.8254 34.2674 84.6196 33.5076 83.6703 32.6618L83.1133 32.1585C82.921 31.9674 82.731 31.8729 82.5441 31.6671L80.0516 29.3949C79.9549 29.2995 79.8687 29.2436 79.7587 29.1552C79.5602 28.9956 79.4458 28.8422 79.2369 28.6776L78.3969 27.9275C78.0778 27.5845 78.0981 27.6666 77.8348 27.4294C77.7257 27.3312 77.689 27.2521 77.5809 27.1586C77.4745 27.0666 77.3876 27.0183 77.278 26.9268L75.4938 25.3043C75.3524 25.1937 75.4654 25.2648 75.2837 25.1663L75.3056 26.5583H75.3057Z" fill="#B1B1B1"/>
<path fill-rule="evenodd" clip-rule="evenodd" d="M75.3096 30.194L79.6093 34.076C79.8155 34.2937 79.8414 34.3029 80.0408 34.4679C80.345 34.7197 80.8753 35.2797 81.3362 35.641C81.8549 36.0476 82.7083 35.4385 81.8201 34.6862C81.7312 34.6109 81.6774 34.5818 81.5955 34.4982C81.4938 34.3943 81.4959 34.3735 81.3974 34.2871L79.2154 32.3464C79.0233 32.1591 78.9909 32.1058 78.7925 31.9474L75.5433 29.017C75.3873 28.8687 75.5191 28.9294 75.2876 28.8271L75.3096 30.1939V30.194Z" fill="#B1B1B1"/>
<path fill-rule="evenodd" clip-rule="evenodd" d="M75.306 33.8442L77.7937 36.1278C78.2113 36.4648 79.3865 37.6855 79.7252 37.7353C80.1326 37.7952 80.8086 37.3003 79.737 36.4783L79.1093 35.9281C78.9044 35.7601 78.9043 35.6886 78.4947 35.3658L77.5526 34.4877C77.44 34.3856 77.3428 34.3283 77.2214 34.2258C77.0982 34.1216 77.0513 34.0376 76.9309 33.9322L76.3118 33.374C75.9158 33.031 75.5584 32.6648 75.2915 32.515L75.306 33.8443V33.8442Z" fill="#B1B1B1"/>
<path fill-rule="evenodd" clip-rule="evenodd" d="M75.3081 37.5535L76.4549 38.5889C76.7131 38.8041 77.3808 39.4758 77.6396 39.6408C78.0184 39.8823 78.5303 39.5877 78.4132 39.0992C78.3334 38.7664 77.1457 37.8767 76.8952 37.6143C76.6806 37.3894 75.4732 36.2791 75.2876 36.1947L75.3081 37.5535Z" fill="#B1B1B1"/>
<path fill-rule="evenodd" clip-rule="evenodd" d="M55.6205 80.4733C55.9157 81.8228 58.1034 81.4549 57.7764 80.01C57.6637 79.5118 57.1109 79.0316 56.4353 79.1801C55.9367 79.2898 55.4766 79.8153 55.6205 80.4732V80.4733Z" fill="#B1B1B1"/>
<path fill-rule="evenodd" clip-rule="evenodd" d="M67.6733 76.9996C68.0366 75.6518 65.9295 75.0616 65.527 76.4489C65.1286 77.8224 67.306 78.362 67.6733 76.9996Z" fill="#B1B1B1"/>
<path fill-rule="evenodd" clip-rule="evenodd" d="M52.3316 81.6508C52.631 82.9703 54.8012 82.6306 54.4903 81.1839C54.3841 80.6899 53.815 80.197 53.1409 80.3528C52.6441 80.4676 52.1812 80.9878 52.3316 81.6508H52.3316Z" fill="#B1B1B1"/>
<path fill-rule="evenodd" clip-rule="evenodd" d="M62.2114 78.1182C62.4616 79.4498 64.6892 79.2105 64.3749 77.7086C64.0885 76.3407 61.9511 76.733 62.2114 78.1182Z" fill="#B1B1B1"/>
<path fill-rule="evenodd" clip-rule="evenodd" d="M58.9142 79.2958C59.0222 79.817 59.5549 80.2716 60.2503 80.1219C60.7688 80.0102 61.2259 79.5024 61.0694 78.8334C60.7542 77.4851 58.6215 77.883 58.9142 79.2958Z" fill="#B1B1B1"/>
<path fill-rule="evenodd" clip-rule="evenodd" d="M68.8039 75.7632C69.0637 77.0796 71.2441 76.8444 70.9781 75.3896C70.8848 74.8792 70.3263 74.3839 69.6945 74.4978C69.1558 74.595 68.673 75.0996 68.8039 75.7632Z" fill="#B1B1B1"/>
<path fill-rule="evenodd" clip-rule="evenodd" d="M81.9701 71.1709C82.0826 71.6643 82.629 72.1218 83.2839 71.967C83.7644 71.8535 84.2884 71.3775 84.1122 70.6647C83.7786 69.3156 81.6424 69.7341 81.9701 71.1709Z" fill="#B1B1B1"/>
<path fill-rule="evenodd" clip-rule="evenodd" d="M39.1555 86.1841C39.2846 87.5685 41.5268 87.4155 41.3575 85.96C41.2039 84.6395 39.0191 84.7216 39.1555 86.1841Z" fill="#B1B1B1"/>
<path fill-rule="evenodd" clip-rule="evenodd" d="M75.3973 73.4082C75.626 74.8178 77.7852 74.5141 77.5791 73.1319C77.4987 72.5924 76.9795 72.0991 76.3222 72.1846C75.7884 72.2541 75.2974 72.7928 75.3973 73.4082Z" fill="#B1B1B1"/>
<path fill-rule="evenodd" clip-rule="evenodd" d="M78.6745 72.1719C78.7858 73.5648 80.9976 73.4065 80.8686 71.9929C80.8163 71.4191 80.2907 70.952 79.6634 70.9951C79.1036 71.0335 78.6246 71.547 78.6745 72.172V72.1719Z" fill="#B1B1B1"/>
<path fill-rule="evenodd" clip-rule="evenodd" d="M38.0278 87.597C38.4346 86.2891 36.4036 85.5928 35.9343 86.9189C35.6848 87.6237 36.1704 88.1573 36.6655 88.3084C37.3133 88.5063 37.8732 88.0939 38.0278 87.597Z" fill="#B1B1B1"/>
<path fill-rule="evenodd" clip-rule="evenodd" d="M42.4483 85.0655C42.6565 86.446 44.8101 86.166 44.634 84.8008C44.5626 84.247 44.0252 83.7594 43.3749 83.8328C42.8423 83.8929 42.3563 84.4557 42.4483 85.0654V85.0655Z" fill="#B1B1B1"/>
<path fill-rule="evenodd" clip-rule="evenodd" d="M49.037 82.7694C49.2661 84.1398 51.46 83.8833 51.2021 82.4161C51.1119 81.9027 50.5597 81.4219 49.9073 81.5385C49.4089 81.6277 48.9347 82.1575 49.037 82.7694Z" fill="#B1B1B1"/>
<path fill-rule="evenodd" clip-rule="evenodd" d="M32.5753 88.5391C32.7542 89.922 34.892 89.7044 34.763 88.3188C34.7097 87.7469 34.1943 87.281 33.5483 87.3351C32.992 87.3817 32.4957 87.9234 32.5753 88.5391Z" fill="#B1B1B1"/>
<path fill-rule="evenodd" clip-rule="evenodd" d="M72.0986 74.5269C72.28 75.9254 74.4243 75.6756 74.2857 74.3091C74.2289 73.7498 73.7157 73.2688 73.0732 73.32C72.5208 73.3641 72.0192 73.9149 72.0987 74.5269H72.0986Z" fill="#B1B1B1"/>
<path fill-rule="evenodd" clip-rule="evenodd" d="M45.7386 83.8881C45.925 85.2762 48.1164 84.9956 47.9111 83.5931C47.8331 83.0609 47.2932 82.5938 46.6772 82.6695C46.1176 82.7382 45.6535 83.2545 45.7386 83.8881H45.7386Z" fill="#B1B1B1"/>
<path fill-rule="evenodd" clip-rule="evenodd" d="M4.32651 64.8714C4.61426 63.8117 2.89861 63.2491 2.57773 64.4294C2.25845 65.6036 4.01214 66.029 4.32651 64.8714Z" fill="#B1B1B1"/>
<path fill-rule="evenodd" clip-rule="evenodd" d="M4.32187 56.2166C4.63745 55.1677 2.95659 54.6061 2.58809 55.7185C2.20421 56.8774 3.96544 57.401 4.32187 56.2166Z" fill="#B1B1B1"/>
<path fill-rule="evenodd" clip-rule="evenodd" d="M3.18316 23.3949C2.05188 23.7992 2.61423 25.4723 3.754 25.0931C4.82681 24.7363 4.32395 22.9871 3.18316 23.3949Z" fill="#B1B1B1"/>
<path fill-rule="evenodd" clip-rule="evenodd" d="M3.3035 37.8156C2.1068 38.0599 2.4617 39.8071 3.6397 39.5804C4.06405 39.4988 4.43976 39.0359 4.34439 38.5265C4.26518 38.1035 3.82098 37.71 3.30356 37.8156H3.3035Z" fill="#B1B1B1"/>
<path fill-rule="evenodd" clip-rule="evenodd" d="M3.30238 40.6993C2.10912 40.949 2.45885 42.6931 3.64138 42.4664C4.0628 42.3856 4.43761 41.92 4.34084 41.4146C4.26054 40.9951 3.82483 40.5899 3.30238 40.6992V40.6993Z" fill="#B1B1B1"/>
<path fill-rule="evenodd" clip-rule="evenodd" d="M3.20064 26.2883C1.98536 26.7204 2.6718 28.3524 3.76006 27.9835C4.12198 27.8608 4.4899 27.4095 4.32624 26.8924C4.19538 26.4792 3.77167 26.0851 3.20064 26.2882V26.2883Z" fill="#B1B1B1"/>
<path fill-rule="evenodd" clip-rule="evenodd" d="M4.32812 50.4469C4.46925 49.9204 4.08474 49.4937 3.67666 49.3799C3.15038 49.2333 2.6899 49.6056 2.58043 49.9997C2.42717 50.5517 2.80096 51.0216 3.23502 51.1198C3.79175 51.2458 4.21725 50.8605 4.32819 50.4468L4.32812 50.4469Z" fill="#B1B1B1"/>
<path fill-rule="evenodd" clip-rule="evenodd" d="M2.56794 53.3317C2.65118 53.7406 3.10821 54.1133 3.66801 53.9806C4.07857 53.8833 4.47841 53.4493 4.31679 52.869C4.0314 51.8441 2.3199 52.113 2.56794 53.3317Z" fill="#B1B1B1"/>
<path fill-rule="evenodd" clip-rule="evenodd" d="M3.20219 29.1741C1.97357 29.6147 2.6863 31.2314 3.76039 30.8694C4.81584 30.5137 4.32447 28.7716 3.20219 29.1741Z" fill="#B1B1B1"/>
<path fill-rule="evenodd" clip-rule="evenodd" d="M4.3246 61.9865C4.467 61.4994 4.07968 61.0138 3.69452 60.9079C3.16727 60.763 2.69288 61.0841 2.57798 61.5497C2.27945 62.7597 4.00614 63.0757 4.3246 61.9865Z" fill="#B1B1B1"/>
<path fill-rule="evenodd" clip-rule="evenodd" d="M3.28847 46.4941C2.02653 46.7979 2.53967 48.5427 3.69278 48.2288C4.09351 48.1197 4.46737 47.657 4.32905 47.1433C4.21862 46.7331 3.78514 46.3746 3.28847 46.4942V46.4941Z" fill="#B1B1B1"/>
<path fill-rule="evenodd" clip-rule="evenodd" d="M3.21934 34.9512C1.9867 35.3344 2.6386 37.0385 3.76663 36.6464C4.14393 36.5153 4.46417 36.04 4.32062 35.5532C4.20036 35.1454 3.76197 34.7825 3.21934 34.9511V34.9512Z" fill="#B1B1B1"/>
<path fill-rule="evenodd" clip-rule="evenodd" d="M3.28048 43.6058C2.04178 43.9412 2.52076 45.6233 3.68938 45.3423C4.09516 45.2447 4.45746 44.7567 4.33025 44.2572C4.22799 43.8556 3.77824 43.4711 3.28048 43.6058Z" fill="#B1B1B1"/>
<path fill-rule="evenodd" clip-rule="evenodd" d="M3.21215 32.0626C1.98863 32.4429 2.65924 34.1456 3.76154 33.7546C4.12047 33.6272 4.47466 33.1806 4.32338 32.6645C4.20211 32.2508 3.76218 31.8917 3.21215 32.0626Z" fill="#B1B1B1"/>
<path fill-rule="evenodd" clip-rule="evenodd" d="M3.15504 20.5273C1.99995 21.0048 2.69629 22.6178 3.78186 22.184C4.13536 22.0427 4.48317 21.6061 4.31383 21.0771C4.1801 20.6593 3.69256 20.3052 3.1551 20.5273H3.15504Z" fill="#B1B1B1"/>
<path fill-rule="evenodd" clip-rule="evenodd" d="M3.29553 17.5885C2.03167 17.8794 2.551 19.6327 3.69013 19.3227C4.09278 19.2131 4.46115 18.7535 4.32723 18.2374C4.2214 17.8296 3.79239 17.4741 3.29553 17.5885Z" fill="#B1B1B1"/>
<path fill-rule="evenodd" clip-rule="evenodd" d="M2.56996 59.1016C2.66124 59.5 3.1069 59.8712 3.66772 59.7457C4.07969 59.6534 4.46332 59.2029 4.31644 58.6381C4.0615 57.6573 2.28502 57.8585 2.56989 59.1016H2.56996Z" fill="#B1B1B1"/>
<path fill-rule="evenodd" clip-rule="evenodd" d="M20.9165 57.8029C21.0389 57.92 22.2011 58.4316 22.4514 58.4984C22.7765 58.5852 23.8037 58.1087 24.1234 58.0194C23.8959 57.8479 22.8747 57.4519 22.5482 57.3358C22.252 57.2306 21.2593 57.6694 20.9165 57.803V57.8029Z" fill="#B1B1B1"/>
<path fill-rule="evenodd" clip-rule="evenodd" d="M27.0653 56.9708C26.8831 56.8361 25.7857 56.4018 25.5133 56.3135C25.2032 56.213 24.9195 56.383 24.6434 56.4843C24.3794 56.5811 24.0488 56.6533 23.854 56.7957C24.3013 56.9938 24.9545 57.3233 25.4249 57.466C25.6367 57.5302 26.7666 57.118 27.0653 56.9708Z" fill="#B1B1B1"/>
<path fill-rule="evenodd" clip-rule="evenodd" d="M49.9937 47.571C50.4791 47.7009 51.0594 48.0449 51.5556 48.2082C51.8977 48.3209 52.763 47.8705 53.199 47.736C53.0336 47.5904 51.9761 47.1828 51.6835 47.0741C51.3654 46.9561 51.1146 47.126 50.8103 47.234C50.6712 47.2834 50.5632 47.3225 50.4184 47.3714C50.2015 47.4446 50.1619 47.4318 49.9937 47.5709L49.9937 47.571Z" fill="#B1B1B1"/>
<path fill-rule="evenodd" clip-rule="evenodd" d="M55.8668 45.4564C56.1846 45.6606 56.9494 45.9645 57.3493 46.1131C57.711 46.2475 57.9047 46.0814 58.24 45.9594C58.5039 45.8634 58.7968 45.788 59.0629 45.6675C58.8773 45.521 57.8395 45.1298 57.5549 45.025C57.1772 44.8859 57.0305 45.0339 56.6782 45.1601C56.4373 45.2465 56.0803 45.34 55.8667 45.4564H55.8668Z" fill="#B1B1B1"/>
<path fill-rule="evenodd" clip-rule="evenodd" d="M29.9668 55.9222C29.7959 55.7984 28.6424 55.3354 28.3875 55.2588C28.1466 55.1863 26.9884 55.6104 26.7954 55.7392C28.5718 56.5275 28.1913 56.5607 29.2004 56.2179C29.4447 56.1349 29.7712 56.0564 29.9667 55.9222H29.9668Z" fill="#B1B1B1"/>
<path fill-rule="evenodd" clip-rule="evenodd" d="M52.9639 46.5022C53.0998 46.6043 54.2545 47.104 54.4707 47.1704C54.7554 47.2577 55.099 47.0684 55.33 46.9897C55.4709 46.9417 55.5797 46.898 55.7184 46.8493C55.9232 46.7773 55.9893 46.7943 56.1408 46.6607C54.4059 46.0556 54.8355 45.8043 53.7655 46.1889L53.1541 46.4018C53.1367 46.4085 53.0844 46.4275 53.0691 46.4349C52.9434 46.4951 52.9932 46.4805 52.9639 46.5023L52.9639 46.5022Z" fill="#B1B1B1"/>
<path fill-rule="evenodd" clip-rule="evenodd" d="M32.6641 53.685C32.8762 53.828 33.906 54.2475 34.1998 54.3458C34.4873 54.442 35.4624 53.9837 35.8058 53.8892C35.6259 53.7001 34.5678 53.3124 34.2589 53.2095C33.9868 53.1187 33.7054 53.2871 33.4285 53.3851C33.2917 53.4335 33.1741 53.4756 33.0379 53.5235C32.9671 53.5484 32.8934 53.568 32.818 53.5985L32.6641 53.685H32.6641Z" fill="#B1B1B1"/>
<path fill-rule="evenodd" clip-rule="evenodd" d="M47.1006 48.5628C47.2677 48.6775 48.4204 49.1655 48.6473 49.232C48.8921 49.3037 49.3372 49.097 49.4934 49.042C49.6246 48.9959 49.7422 48.9508 49.8857 48.8992C50.0578 48.8373 50.1358 48.8252 50.2443 48.7395C50.0791 48.6216 48.9014 48.152 48.6757 48.0801C48.4772 48.0169 47.2764 48.4344 47.1006 48.5629V48.5628Z" fill="#B1B1B1"/>
<path fill-rule="evenodd" clip-rule="evenodd" d="M41.2939 50.559C41.5009 50.7459 42.6407 51.1863 42.8615 51.2587C43.156 51.3554 44.1635 50.9191 44.4949 50.813C44.3961 50.7001 44.4718 50.7486 44.315 50.6807L42.9601 50.1527C42.5406 50.0012 41.7572 50.4683 41.2939 50.559Z" fill="#B1B1B1"/>
<path fill-rule="evenodd" clip-rule="evenodd" d="M38.4468 51.6246C38.5758 51.7169 39.7868 52.2349 40.0002 52.2953C40.2342 52.3615 41.5358 51.8655 41.612 51.7884C40.0082 51.0951 40.1009 51.0124 39.2042 51.3364C38.97 51.421 38.6297 51.4986 38.4468 51.6246V51.6246Z" fill="#B1B1B1"/>
<path fill-rule="evenodd" clip-rule="evenodd" d="M44.3771 49.6784C46.0798 50.4675 45.7958 50.3185 47.0124 49.9101C47.062 49.8934 47.2032 49.8543 47.2351 49.8407C47.3891 49.7749 47.3295 49.7863 47.3851 49.7375C46.8966 49.6154 46.3059 49.2774 45.8134 49.1181C45.5116 49.0204 45.2403 49.1958 44.9771 49.2848C44.7565 49.3593 44.428 49.4549 44.2065 49.5637L44.3771 49.6783V49.6784Z" fill="#B1B1B1"/>
<path fill-rule="evenodd" clip-rule="evenodd" d="M58.7852 44.4578C59.1864 44.6555 59.8583 44.935 60.3112 45.0935C60.6167 45.2004 61.0586 44.9593 61.5485 44.796L61.8559 44.6904C61.9354 44.6469 61.9131 44.6494 61.9588 44.6071C61.4396 44.4225 60.9472 44.1821 60.4103 43.987C60.1287 43.8846 59.8645 44.0362 59.5934 44.1339L58.7852 44.4577V44.4578Z" fill="#B1B1B1"/>
<path fill-rule="evenodd" clip-rule="evenodd" d="M29.7417 54.6859C29.7641 54.7077 29.761 54.7188 29.8318 54.7608C29.8421 54.7669 29.8593 54.7743 29.8706 54.7802L31.2904 55.3649C31.5303 55.4382 32.7056 55.023 32.902 54.8715C32.4542 54.6925 31.8562 54.4206 31.3419 54.2465C31.0339 54.1421 30.0534 54.5404 29.7417 54.6859V54.6859Z" fill="#B1B1B1"/>
<path fill-rule="evenodd" clip-rule="evenodd" d="M35.5698 52.6443C35.7736 52.7702 36.8579 53.242 37.1059 53.3091C37.3609 53.3781 38.5129 52.9611 38.7222 52.8139C37.1437 52.269 37.3791 51.8098 35.5698 52.6443Z" fill="#B1B1B1"/>
<path fill-rule="evenodd" clip-rule="evenodd" d="M61.6934 43.4065C62.1402 43.6349 62.7046 43.8661 63.1822 44.046C63.5215 44.1738 63.6936 44.0192 64.0172 43.9121C64.2913 43.8215 64.5815 43.7215 64.8489 43.6353C64.678 43.4755 63.5175 43.0352 63.315 42.9658C62.9358 42.8359 62.0799 43.2415 61.6934 43.4065V43.4065Z" fill="#B1B1B1"/>
<path fill-rule="evenodd" clip-rule="evenodd" d="M67.5244 41.3802C67.7151 41.5242 68.7176 41.9316 69.0137 42.0345C69.2897 42.1304 70.2441 41.7166 70.5976 41.5826C70.3893 41.3878 69.4256 41.0622 69.0982 40.9379C68.7859 40.8194 67.7857 41.2457 67.6497 41.3085C67.4335 41.4083 67.6165 41.3234 67.5244 41.3802Z" fill="#B1B1B1"/>
<path fill-rule="evenodd" clip-rule="evenodd" d="M64.606 42.3744C64.7921 42.5336 65.928 42.9822 66.1284 43.0463C66.4117 43.137 66.6427 42.9782 66.9275 42.8804C67.1598 42.8006 67.5419 42.7041 67.7293 42.5582C67.2215 42.3841 66.7184 42.1327 66.2079 41.9525C65.8481 41.8254 64.9505 42.2605 64.606 42.3744V42.3744Z" fill="#B1B1B1"/>
<path fill-rule="evenodd" clip-rule="evenodd" d="M18.4987 59.1105C19.7794 59.6856 19.5669 59.6847 21.1417 59.0609C21.0355 58.9421 21.1117 58.9815 20.8336 58.88L19.8248 58.4745C19.4738 58.3316 19.507 58.2958 19.1259 58.4381C18.9113 58.5182 18.6754 58.5691 18.4844 58.6897L18.4987 59.1105Z" fill="#B1B1B1"/>
</svg>
