<svg width="22" height="19" viewBox="0 0 22 19" fill="none" xmlns="http://www.w3.org/2000/svg">
<path d="M21.4274 3.99007C21.2038 3.73025 20.9262 3.5217 20.6138 3.3788C20.3013 3.2359 19.9614 3.16205 19.6175 3.16233H5.20476L4.87554 1.30683C4.81065 0.94065 4.61803 0.608915 4.33152 0.369914C4.04501 0.130914 3.68295 -6.17483e-05 3.30894 2.18388e-08H0.795227C0.58432 2.18388e-08 0.382051 0.0832934 0.232917 0.231556C0.0837826 0.379819 0 0.580907 0 0.790582C0 1.00026 0.0837826 1.20135 0.232917 1.34961C0.382051 1.49787 0.58432 1.58116 0.795227 1.58116H3.30894L5.34711 13.062C5.4461 13.6216 5.74484 14.1269 6.18846 14.485C5.78875 14.9712 5.5692 15.5791 5.56659 16.2069C5.56659 16.9408 5.85983 17.6446 6.3818 18.1635C6.90377 18.6824 7.61171 18.974 8.34989 18.974C9.08806 18.974 9.79601 18.6824 10.318 18.1635C10.8399 17.6446 11.1332 16.9408 11.1332 16.2069C11.1309 15.7958 11.0355 15.3905 10.8541 15.0211H15.3869C15.206 15.3906 15.1112 15.7959 15.1093 16.2069C15.1051 16.6519 15.2089 17.0912 15.4118 17.4878C15.6148 17.8843 15.911 18.2264 16.2752 18.4849C16.6394 18.7435 17.061 18.9109 17.5042 18.9729C17.9474 19.035 18.3991 18.9899 18.821 18.8415C19.2429 18.6931 19.6226 18.4457 19.9279 18.1203C20.2331 17.7949 20.455 17.4012 20.5746 16.9724C20.6942 16.5436 20.708 16.0925 20.6149 15.6573C20.5218 15.2221 20.3245 14.8157 20.0397 14.4724C20.4873 14.1024 20.7827 13.582 20.8699 13.0098L21.9713 5.89458C22.0246 5.55691 22.0035 5.21178 21.9096 4.88299C21.8157 4.55419 21.6512 4.24955 21.4274 3.99007ZM9.54273 16.2069C9.54273 16.4415 9.47277 16.6708 9.3417 16.8658C9.21063 17.0608 9.02433 17.2128 8.80637 17.3025C8.5884 17.3923 8.34856 17.4158 8.11718 17.37C7.88579 17.3243 7.67324 17.2113 7.50642 17.0455C7.3396 16.8796 7.22599 16.6683 7.17997 16.4383C7.13394 16.2083 7.15756 15.9698 7.24785 15.7531C7.33813 15.5364 7.49102 15.3512 7.68718 15.2209C7.88334 15.0906 8.11397 15.0211 8.34989 15.0211C8.66625 15.0211 8.96965 15.146 9.19335 15.3684C9.41705 15.5908 9.54273 15.8924 9.54273 16.2069ZM17.8926 17.3928C17.6567 17.3928 17.4261 17.3233 17.2299 17.193C17.0337 17.0626 16.8809 16.8774 16.7906 16.6608C16.7003 16.4441 16.6767 16.2056 16.7227 15.9756C16.7687 15.7455 16.8823 15.5342 17.0492 15.3684C17.216 15.2026 17.4285 15.0896 17.6599 15.0438C17.8913 14.9981 18.1311 15.0216 18.3491 15.1113C18.5671 15.2011 18.7534 15.3531 18.8844 15.5481C19.0155 15.7431 19.0855 15.9724 19.0855 16.2069C19.0855 16.5215 18.9598 16.8231 18.7361 17.0455C18.5124 17.2679 18.209 17.3928 17.8926 17.3928ZM19.3018 12.7695C19.2729 12.9561 19.1778 13.1263 19.0337 13.2492C18.8896 13.3722 18.706 13.4398 18.5161 13.4399H7.69621C7.50913 13.4401 7.32795 13.3748 7.18454 13.2553C7.04113 13.1359 6.94467 12.97 6.91212 12.7869L5.48707 4.74349H19.6175C19.7321 4.74354 19.8454 4.76822 19.9495 4.81584C20.0536 4.86346 20.1462 4.9329 20.2208 5.0194C20.2954 5.1059 20.3503 5.20742 20.3818 5.31699C20.4133 5.42657 20.4206 5.54161 20.4031 5.65424L19.3018 12.7695Z" fill="#373435"/>
</svg>
