<svg width="40" height="40" viewBox="0 0 40 40" fill="none" xmlns="http://www.w3.org/2000/svg">
<rect width="40" height="40" rx="20" fill="#CE1312"/>
<path d="M29.2547 13.8594C28.1159 12.6604 26.5532 12 24.8543 12C23.5844 12 22.4214 12.3897 21.3975 13.1583C20.8809 13.5462 20.4127 14.0209 20 14.5748C19.5874 14.021 19.1191 13.5462 18.6023 13.1583C17.5786 12.3897 16.4156 12 15.1457 12C13.4468 12 11.8839 12.6604 10.7451 13.8594C9.61986 15.0444 9 16.6633 9 18.4181C9 20.2242 9.69337 21.8775 11.182 23.6212C12.5137 25.181 14.4277 26.7644 16.6441 28.5979C17.4009 29.224 18.2588 29.9338 19.1495 30.6898C19.3848 30.8899 19.6868 31 20 31C20.313 31 20.6152 30.8899 20.8501 30.6901C21.7409 29.9339 22.5993 29.2239 23.3564 28.5974C25.5725 26.7642 27.4865 25.181 28.8182 23.6211C30.3068 21.8775 31 20.2242 31 18.418C31 16.6633 30.3801 15.0444 29.2547 13.8594Z" fill="white"/>
</svg>
