<svg width="40" height="40" viewBox="0 0 40 40" fill="none" xmlns="http://www.w3.org/2000/svg">
<g filter="url(#filter0_i_394_4164)">
<rect width="40" height="40" rx="20" fill="#F3F3F3"/>
</g>
<path d="M20 31C19.6868 31 19.3848 30.8841 19.1495 30.6734C18.2608 29.8794 17.4039 29.1331 16.6479 28.4749L16.6441 28.4714C14.4277 26.5415 12.5137 24.8747 11.182 23.2329C9.69337 21.3974 9 19.6571 9 17.7559C9 15.9088 9.61986 14.2046 10.7453 12.9573C11.8841 11.6951 13.4468 11 15.1459 11C16.4158 11 17.5788 11.4102 18.6025 12.2193C19.1191 12.6276 19.5874 13.1274 20 13.7104C20.4127 13.1274 20.8809 12.6276 21.3977 12.2193C22.4214 11.4102 23.5844 11 24.8543 11C26.5532 11 28.1161 11.6951 29.2549 12.9573C30.3803 14.2046 31 15.9088 31 17.7559C31 19.6571 30.3068 21.3974 28.8182 23.2327C27.4865 24.8747 25.5727 26.5413 23.3566 28.4711C22.5993 29.1304 21.7411 29.8778 20.8503 30.6738C20.6152 30.8841 20.313 31 20 31ZM15.1459 12.3168C13.811 12.3168 12.5847 12.8612 11.6926 13.8498C10.7872 14.8533 10.2886 16.2405 10.2886 17.7559C10.2886 19.3549 10.8701 20.7849 12.1741 22.3927C13.4345 23.9467 15.3092 25.5791 17.4798 27.4693L17.4838 27.4727C18.2426 28.1336 19.1029 28.8827 19.9982 29.6826C20.8988 28.8812 21.7604 28.1308 22.5207 27.469C24.6911 25.5788 26.5657 23.9467 27.826 22.3927C29.1299 20.7849 29.7114 19.3549 29.7114 17.7559C29.7114 16.2405 29.2128 14.8533 28.3074 13.8498C27.4155 12.8612 26.189 12.3168 24.8543 12.3168C23.8764 12.3168 22.9786 12.6345 22.1859 13.2608C21.4794 13.8193 20.9873 14.5252 20.6987 15.0191C20.5504 15.2731 20.2892 15.4248 20 15.4248C19.7108 15.4248 19.4496 15.2731 19.3013 15.0191C19.0129 14.5252 18.5208 13.8193 17.8141 13.2608C17.0214 12.6345 16.1236 12.3168 15.1459 12.3168Z" fill="#373435"/>
<defs>
<filter id="filter0_i_394_4164" x="0" y="0" width="44" height="44" filterUnits="userSpaceOnUse" color-interpolation-filters="sRGB">
<feFlood flood-opacity="0" result="BackgroundImageFix"/>
<feBlend mode="normal" in="SourceGraphic" in2="BackgroundImageFix" result="shape"/>
<feColorMatrix in="SourceAlpha" type="matrix" values="0 0 0 0 0 0 0 0 0 0 0 0 0 0 0 0 0 0 127 0" result="hardAlpha"/>
<feOffset dx="4" dy="4"/>
<feGaussianBlur stdDeviation="5"/>
<feComposite in2="hardAlpha" operator="arithmetic" k2="-1" k3="1"/>
<feColorMatrix type="matrix" values="0 0 0 0 0 0 0 0 0 0 0 0 0 0 0 0 0 0 0.1 0"/>
<feBlend mode="normal" in2="shape" result="effect1_innerShadow_394_4164"/>
</filter>
</defs>
</svg>
