<svg width="20" height="23" viewBox="0 0 20 23" fill="none" xmlns="http://www.w3.org/2000/svg">
<path d="M9.71793 12.4282C9.63735 11.9887 9.55679 11.4395 9.48953 11H9.47633C9.40926 11.4395 9.34229 11.9998 9.26835 12.4282L9 14H10L9.71793 12.4282Z" fill="#989898"/>
<path d="M18.7344 8.22699H18.1921V5.56221C18.1921 5.54547 18.1895 5.52886 18.1873 5.51187C18.1865 5.40607 18.1533 5.30213 18.0822 5.21991L13.7281 0.154161C13.7267 0.15286 13.7255 0.152399 13.7246 0.151099C13.6986 0.121567 13.6684 0.0969011 13.6363 0.075759C13.6269 0.0691731 13.6173 0.0637618 13.6074 0.0581826C13.5797 0.0428714 13.5503 0.0299932 13.5201 0.0207226C13.5118 0.0185412 13.5044 0.0151015 13.4963 0.0128362C13.4634 0.00494993 13.4292 0 13.3947 0H2.69362C2.205 0 1.80802 0.404761 1.80802 0.901977V8.22674H1.26581C0.566799 8.22674 0 8.80378 0 9.51581V16.2196C0 16.9313 0.566799 17.5089 1.26581 17.5089H1.80802V22.0981C1.80802 22.5953 2.205 23 2.69362 23H17.3064C17.7946 23 18.192 22.5953 18.192 22.0981V17.509H18.7343C19.4331 17.509 20 16.9316 20 16.2199V9.51607C20 8.80403 19.4332 8.22699 18.7344 8.22699ZM2.69362 0.902187H12.9519V5.51678C12.9519 5.76595 13.1503 5.96777 13.3947 5.96777H17.3065V8.22715H2.69362V0.902187ZM12.5641 16.1708H11.0143L10.5224 14.505H8.69866L8.24567 16.1708H6.75224L8.69866 9.68344H10.5891L12.5641 16.1708ZM1.20399 13.0236C1.20399 10.8098 2.75364 9.57794 4.68189 9.57794C5.42823 9.57794 5.99593 9.7321 6.25085 9.86629L5.95808 11.0312C5.66465 10.9056 5.25865 10.7908 4.74857 10.7908C3.60455 10.7908 2.71578 11.4927 2.71578 12.9371C2.71578 14.2359 3.47234 15.0541 4.75698 15.0541C5.19246 15.0541 5.67429 14.9581 5.95808 14.8427L6.17506 15.9883C5.91076 16.123 5.31537 16.2668 4.54028 16.2668C2.33788 16.2668 1.20399 14.8713 1.20399 13.0236ZM17.3065 21.8538H2.69362V17.509H17.3064V21.8538H17.3065ZM17.9892 15.4005C17.3181 15.9688 16.2974 16.2381 15.0504 16.2381C14.3041 16.2381 13.7747 16.1897 13.4154 16.1417V9.77052C13.9447 9.68365 14.6344 9.63566 15.3622 9.63566C16.5717 9.63566 17.3558 9.85665 17.97 10.3283C18.6318 10.8296 19.0476 11.6282 19.0476 12.7737C19.0476 14.0148 18.6035 14.8713 17.9892 15.4005Z" fill="#989898"/>
<path d="M15.7367 11C15.3739 11 15.1385 11.0268 15 11.0533V14.9731C15.139 14.9999 15.3632 14.9999 15.5659 14.9999C17.0396 15.0088 17.9999 14.3335 17.9999 12.9025C18.0107 11.6576 17.1357 11 15.7367 11Z" fill="#989898"/>
</svg>
