<svg width="23" height="23" viewBox="0 0 23 23" fill="none" xmlns="http://www.w3.org/2000/svg">
<path fill-rule="evenodd" clip-rule="evenodd" d="M12 0C12.5523 0 13 0.441758 13 0.986694L13 22.0133C13 22.5582 12.5523 23 12 23C11.4477 23 11 22.5582 11 22.0133L11 0.986694C11 0.441758 11.4477 0 12 0ZM7.73374 4.2974C8.08875 4.69394 8.08875 5.33686 7.73375 5.7334L2.57117 11.5L7.73375 17.2666C8.08875 17.6631 8.08875 18.3061 7.73375 18.7026C7.37874 19.0991 6.80316 19.0991 6.44816 18.7026L0 11.5L6.44816 4.29741C6.80316 3.90087 7.37874 3.90086 7.73374 4.2974ZM15.2663 5.7334C14.9112 5.33686 14.9113 4.69394 15.2663 4.2974C15.6213 3.90086 16.1968 3.90087 16.5518 4.29741L23 11.5L16.5518 18.7026C16.1968 19.0991 15.6213 19.0991 15.2663 18.7026C14.9112 18.3061 14.9112 17.6631 15.2663 17.2666L20.4288 11.5L15.2663 5.7334Z" fill="#989898"/>
</svg>
