<svg width="23" height="23" viewBox="0 0 23 23" fill="none" xmlns="http://www.w3.org/2000/svg">
<path fill-rule="evenodd" clip-rule="evenodd" d="M5 0H0V11V12V16V18V23L11 23H12H16H18H23V12V11V7V5V0H12H11H7H5ZM10.5117 16V12.5379L1.48834 12.5379L1.48834 16L10.5117 16ZM1.48834 18L10.5117 18V21.4621H1.48834L1.48834 18ZM18 12.4809V21.5191H21.4552V12.4809L18 12.4809ZM12.5448 12.4809L16 12.4809L16 21.5191H12.5448V12.4809ZM12.4883 7L12.4883 10.4621H21.5117V7L12.4883 7ZM21.5117 5L12.4883 5L12.4883 1.53789L21.5117 1.53789V5ZM5 10.5191V1.48086H1.54479V10.5191H5ZM10.4552 10.5191H7V1.48086H10.4552V10.5191Z" fill="#989898"/>
</svg>
