<svg width="21" height="21" viewBox="0 0 21 21" fill="none" xmlns="http://www.w3.org/2000/svg">
<path fill-rule="evenodd" clip-rule="evenodd" d="M9.45 0H4.2C1.88055 0 0 1.88055 0 4.2V16.8C0 19.1194 1.88055 21 4.2 21H16.8C19.1194 21 21 19.1194 21 16.8C21 14.4154 21 11.55 21 11.55C21 10.9704 20.5296 10.5 19.95 10.5C19.3704 10.5 18.9 10.9704 18.9 11.55V16.8C18.9 17.9592 17.9592 18.9 16.8 18.9C13.3035 18.9 7.69545 18.9 4.2 18.9C3.03975 18.9 2.1 17.9592 2.1 16.8C2.1 13.3035 2.1 7.69545 2.1 4.2C2.1 3.03975 3.03975 2.1 4.2 2.1H9.45C10.0296 2.1 10.5 1.6296 10.5 1.05C10.5 0.4704 10.0296 0 9.45 0ZM17.4153 2.1H13.65C13.0704 2.1 12.6 1.6296 12.6 1.05C12.6 0.4704 13.0704 0 13.65 0H19.95C20.5296 0 21 0.4704 21 1.05V7.35C21 7.9296 20.5296 8.4 19.95 8.4C19.3704 8.4 18.9 7.9296 18.9 7.35V3.5847L11.2424 11.2424C10.8329 11.6519 10.1671 11.6519 9.75765 11.2424C9.3471 10.8329 9.3471 10.1671 9.75765 9.75765L17.4153 2.1Z" fill="#989898"/>
</svg>
