<svg width="25" height="25" viewBox="0 0 25 25" fill="none" xmlns="http://www.w3.org/2000/svg">
<path d="M24.7139 23.3326L17.6606 16.2793C20.8742 12.3693 20.6555 6.5652 17.0038 2.91354C13.1191 -0.971179 6.79825 -0.971179 2.91354 2.91354C-0.971179 6.79825 -0.971179 13.1191 2.91354 17.0038C6.56422 20.6545 12.3676 20.8755 16.2793 17.6606L23.3326 24.7139C23.714 25.0954 24.3324 25.0954 24.7139 24.7139C25.0954 24.3324 25.0954 23.714 24.7139 23.3326ZM15.6225 15.6225C12.4995 18.7455 7.41793 18.7455 4.29488 15.6225C1.17184 12.4994 1.17184 7.41788 4.29488 4.29483C7.41783 1.17194 12.4994 1.17169 15.6225 4.29483C18.7456 7.41788 18.7456 12.4994 15.6225 15.6225Z" fill="white"/>
<path d="M14.9824 8.9824H11.0176V5.0176C11.0176 4.45559 10.562 4 10 4C9.43799 4 8.9824 4.45559 8.9824 5.0176V8.9824H5.0176C4.45559 8.9824 4 9.43799 4 10C4 10.562 4.45559 11.0176 5.0176 11.0176H8.9824V14.9824C8.9824 15.5444 9.43799 16 10 16C10.562 16 11.0176 15.5444 11.0176 14.9824V11.0176H14.9824C15.5444 11.0176 16 10.562 16 10C16 9.43799 15.5444 8.9824 14.9824 8.9824Z" fill="white"/>
</svg>
