<svg width="165" height="165" viewBox="0 0 165 165" fill="none" xmlns="http://www.w3.org/2000/svg">
<circle cx="82.5" cy="82.5" r="82.5" fill="#989898"/>
<path d="M68.0999 78.8H69.6999V92H68.0999V78.8ZM63.7399 85.4C63.7399 84.4667 63.9532 83.64 64.3799 82.92C64.8065 82.2 65.4065 81.6333 66.1799 81.22C66.9665 80.8067 67.8732 80.6 68.8999 80.6C69.9399 80.6 70.8465 80.8067 71.6199 81.22C72.3932 81.6333 72.9932 82.2 73.4199 82.92C73.8465 83.64 74.0599 84.4667 74.0599 85.4C74.0599 86.32 73.8465 87.1467 73.4199 87.88C72.9932 88.6 72.3932 89.1667 71.6199 89.58C70.8465 89.9933 69.9399 90.2 68.8999 90.2C67.8732 90.2 66.9665 89.9933 66.1799 89.58C65.4065 89.1667 64.8065 88.6 64.3799 87.88C63.9532 87.1467 63.7399 86.32 63.7399 85.4ZM65.3599 85.4C65.3599 86.04 65.4999 86.6067 65.7799 87.1C66.0732 87.5933 66.4799 87.9867 66.9999 88.28C67.5332 88.56 68.1665 88.7 68.8999 88.7C69.6332 88.7 70.2599 88.56 70.7799 88.28C71.3132 87.9867 71.7199 87.5933 71.9999 87.1C72.2932 86.6067 72.4399 86.04 72.4399 85.4C72.4399 84.76 72.2932 84.1933 71.9999 83.7C71.7199 83.1933 71.3132 82.8 70.7799 82.52C70.2599 82.24 69.6332 82.1 68.8999 82.1C68.1665 82.1 67.5332 82.24 66.9999 82.52C66.4799 82.8 66.0732 83.1933 65.7799 83.7C65.4999 84.1933 65.3599 84.76 65.3599 85.4ZM75.4586 85.4C75.4586 84.4667 75.6653 83.64 76.0786 82.92C76.5053 82.2 77.0786 81.6333 77.7986 81.22C78.5186 80.8067 79.3253 80.6 80.2186 80.6C81.1253 80.6 81.9319 80.8067 82.6386 81.22C83.3586 81.6333 83.9253 82.2 84.3386 82.92C84.7653 83.64 84.9786 84.4667 84.9786 85.4C84.9786 86.32 84.7653 87.1467 84.3386 87.88C83.9253 88.6 83.3586 89.1667 82.6386 89.58C81.9319 89.9933 81.1253 90.2 80.2186 90.2C79.3253 90.2 78.5186 89.9933 77.7986 89.58C77.0786 89.1667 76.5053 88.6 76.0786 87.88C75.6653 87.1467 75.4586 86.32 75.4586 85.4ZM77.0786 85.4C77.0786 86.04 77.2119 86.6067 77.4786 87.1C77.7586 87.5933 78.1319 87.9867 78.5986 88.28C79.0786 88.56 79.6186 88.7 80.2186 88.7C80.8186 88.7 81.3519 88.56 81.8186 88.28C82.2986 87.9867 82.6719 87.5933 82.9386 87.1C83.2186 86.6067 83.3586 86.04 83.3586 85.4C83.3586 84.76 83.2186 84.1933 82.9386 83.7C82.6719 83.1933 82.2986 82.8 81.8186 82.52C81.3519 82.24 80.8186 82.1 80.2186 82.1C79.6186 82.1 79.0786 82.24 78.5986 82.52C78.1319 82.8 77.7586 83.1933 77.4786 83.7C77.2119 84.1933 77.0786 84.76 77.0786 85.4ZM85.7766 80.8H91.1766V82.3H85.7766V80.8ZM87.6766 81.2H89.2766V90H87.6766V81.2ZM91.6891 85.4C91.6891 84.4667 91.8957 83.64 92.3091 82.92C92.7357 82.2 93.3091 81.6333 94.0291 81.22C94.7491 80.8067 95.5557 80.6 96.4491 80.6C97.3557 80.6 98.1624 80.8067 98.8691 81.22C99.5891 81.6333 100.156 82.2 100.569 82.92C100.996 83.64 101.209 84.4667 101.209 85.4C101.209 86.32 100.996 87.1467 100.569 87.88C100.156 88.6 99.5891 89.1667 98.8691 89.58C98.1624 89.9933 97.3557 90.2 96.4491 90.2C95.5557 90.2 94.7491 89.9933 94.0291 89.58C93.3091 89.1667 92.7357 88.6 92.3091 87.88C91.8957 87.1467 91.6891 86.32 91.6891 85.4ZM93.3091 85.4C93.3091 86.04 93.4424 86.6067 93.7091 87.1C93.9891 87.5933 94.3624 87.9867 94.8291 88.28C95.3091 88.56 95.8491 88.7 96.4491 88.7C97.0491 88.7 97.5824 88.56 98.0491 88.28C98.5291 87.9867 98.9024 87.5933 99.1691 87.1C99.4491 86.6067 99.5891 86.04 99.5891 85.4C99.5891 84.76 99.4491 84.1933 99.1691 83.7C98.9024 83.1933 98.5291 82.8 98.0491 82.52C97.5824 82.24 97.0491 82.1 96.4491 82.1C95.8491 82.1 95.3091 82.24 94.8291 82.52C94.3624 82.8 93.9891 83.1933 93.7091 83.7C93.4424 84.1933 93.3091 84.76 93.3091 85.4Z" fill="white"/>
</svg>
