<svg width="193" height="34" viewBox="0 0 193 34" fill="none" xmlns="http://www.w3.org/2000/svg">
<path d="M19.0195 23.7999H15.4435L17.6745 10.0179H21.2348L19.0195 23.7999ZM31.9313 10.3502C30.9224 9.95855 29.8489 9.75995 28.7666 9.76473C25.2539 9.76473 22.7696 11.6477 22.7538 14.3218C22.7538 16.2997 24.526 17.4074 25.9185 18.0719C27.3109 18.7365 27.7539 19.1796 27.7539 19.7808C27.7539 20.6986 26.6463 21.1258 25.6178 21.1258C24.4624 21.1565 23.3168 20.9068 22.2791 20.3979L21.8044 20.1764L21.2981 23.3411C22.5711 23.8269 23.9229 24.0736 25.2855 24.0689C29.0198 24.0689 31.4566 22.2176 31.4882 19.322C31.4882 17.7396 30.5388 16.5529 28.4976 15.5719C27.2476 14.9389 26.4881 14.5117 26.4881 13.8788C26.4881 13.2458 27.121 12.692 28.5293 12.692C29.4438 12.6588 30.3536 12.8375 31.1876 13.2142L31.5199 13.3566L31.9946 10.3818L31.9313 10.3502ZM36.6782 18.9106H39.6372L38.8144 14.9231L38.5612 13.7364C38.3872 14.2585 38.0865 15.0813 38.1023 15.0655C38.1182 15.0497 36.9631 18.1194 36.6782 18.9106ZM41.0771 10.0179L43.9411 23.7999H40.6499C40.6499 23.7999 40.3176 22.2176 40.2226 21.7271H35.6497C35.5073 22.091 34.8902 23.7999 34.8902 23.7999H31.1559L36.4567 11.1414C36.5926 10.7712 36.8491 10.4576 37.185 10.2509C37.5208 10.0442 37.9164 9.9566 38.308 10.0021L41.0771 10.0179ZM12.4529 10.0179L8.97177 19.4169L8.57619 17.5023C7.7166 15.029 5.96061 12.9681 3.65517 11.7268L6.81981 23.7841H10.5857L16.1872 10.0179H12.4529ZM5.72801 10.0179H0V10.2869C1.92262 10.6858 3.71707 11.553 5.22415 12.8117C6.73124 14.0703 7.90438 15.6815 8.63948 17.5023L7.40527 11.173C7.3293 10.8198 7.12606 10.5069 6.83426 10.2939C6.54246 10.0809 6.1825 9.98263 5.82295 10.0179H5.72801Z" fill="white"/>
<path d="M81.5342 31.3057C81.5342 30.6823 81.9381 30.1701 82.5981 30.1701C83.2289 30.1701 83.6546 30.6602 83.6546 31.3057C83.6546 31.9512 83.2289 32.4413 82.5981 32.4413C81.9381 32.4413 81.5342 31.9292 81.5342 31.3057ZM84.3736 31.3057V29.5315H83.611V29.9637C83.3691 29.6443 83.0022 29.444 82.5033 29.444C81.5203 29.444 80.749 30.2237 80.749 31.3066C80.749 32.3895 81.5199 33.1692 82.5033 33.1692C83.002 33.1692 83.3691 32.9686 83.611 32.6494V33.0801H84.3728V31.3057H84.3736ZM110.142 31.3057C110.142 30.6823 110.546 30.1701 111.206 30.1701C111.837 30.1701 112.262 30.6602 112.262 31.3057C112.262 31.9512 111.837 32.4413 111.206 32.4413C110.546 32.4413 110.142 31.9292 110.142 31.3057ZM112.982 31.3057V28.1074H112.219V29.9637C111.977 29.6443 111.61 29.444 111.111 29.444C110.128 29.444 109.357 30.2237 109.357 31.3066C109.357 32.3895 110.128 33.1692 111.111 33.1692C111.61 33.1692 111.977 32.9686 112.219 32.6494V33.0801H112.982V31.3057ZM93.8388 30.1336C94.3303 30.1336 94.6459 30.4452 94.7264 30.9939H92.9067C92.9881 30.4817 93.2956 30.1336 93.839 30.1336M93.8542 29.4421C92.8264 29.4421 92.1073 30.1984 92.1073 31.3046C92.1073 32.4325 92.8552 33.1672 93.9053 33.1672C94.4335 33.1672 94.9172 33.0339 95.3429 32.6702L94.9692 32.0986C94.6751 32.3363 94.3008 32.4697 93.9488 32.4697C93.4574 32.4697 93.0099 32.2395 92.8999 31.6009H95.504C95.5115 31.505 95.5192 31.4082 95.5192 31.3044C95.5115 30.1986 94.8354 29.4418 93.8538 29.4418M103.061 31.3044C103.061 30.681 103.465 30.1688 104.125 30.1688C104.756 30.1688 105.182 30.6589 105.182 31.3044C105.182 31.9499 104.756 32.44 104.125 32.44C103.465 32.44 103.061 31.9279 103.061 31.3044M105.9 31.3044V29.5315H105.138V29.9637C104.895 29.6443 104.529 29.444 104.03 29.444C103.048 29.444 102.276 30.2237 102.276 31.3066C102.276 32.3895 103.047 33.1692 104.03 33.1692C104.529 33.1692 104.895 32.9686 105.138 32.6494V33.0801H105.901V31.3057L105.9 31.3044ZM98.7545 31.3044C98.7545 32.3804 99.4951 33.167 100.625 33.167C101.154 33.167 101.506 33.0482 101.886 32.7441L101.52 32.1206C101.234 32.3288 100.933 32.44 100.601 32.44C99.9924 32.4325 99.5447 31.9873 99.5447 31.3044C99.5447 30.6216 99.9924 30.1766 100.601 30.1688C100.932 30.1688 101.233 30.2801 101.52 30.4882L101.886 29.8648C101.505 29.5607 101.153 29.4418 100.625 29.4418C99.4951 29.4418 98.7545 30.2282 98.7545 31.3044ZM108.586 29.4418C108.146 29.4418 107.859 29.65 107.661 29.9616V29.5315H106.906V33.0782H107.669V31.0901C107.669 30.5031 107.918 30.177 108.417 30.177C108.58 30.1746 108.742 30.205 108.894 30.2663L109.129 29.5393C108.96 29.4721 108.74 29.4425 108.586 29.4425M88.144 29.8135C87.7771 29.5689 87.2715 29.4425 86.7138 29.4425C85.8254 29.4425 85.2533 29.8732 85.2533 30.5779C85.2533 31.1562 85.6792 31.513 86.4634 31.6243L86.8237 31.6761C87.2418 31.7356 87.4393 31.8468 87.4393 32.0472C87.4393 32.3214 87.1615 32.4779 86.6399 32.4779C86.1117 32.4779 85.7305 32.3071 85.4734 32.1068L85.1151 32.7082C85.5333 33.0198 86.0615 33.1685 86.6335 33.1685C87.6463 33.1685 88.2333 32.6862 88.2333 32.0109C88.2333 31.3874 87.7713 31.0613 87.0081 30.95L86.6487 30.8973C86.3185 30.8541 86.054 30.7869 86.054 30.5492C86.054 30.2898 86.3034 30.1338 86.7217 30.1338C87.1694 30.1338 87.6028 30.3045 87.8151 30.4379L88.1453 29.8144L88.144 29.8135ZM97.9842 29.4431C97.5442 29.4431 97.2577 29.6513 97.0605 29.9629V29.5315H96.3047V33.0782H97.0673V31.0901C97.0673 30.5031 97.3167 30.177 97.8152 30.177C97.9784 30.1746 98.1405 30.205 98.2921 30.2663L98.5272 29.5393C98.3584 29.4721 98.1383 29.4425 97.9838 29.4425M91.4763 29.5315H90.2293V28.4556H89.4584V29.5315H88.747V30.2365H89.4584V31.8544C89.4584 32.6773 89.7742 33.1674 90.6763 33.1674C91.0073 33.1674 91.3885 33.0637 91.6304 32.8932L91.4101 32.2328C91.1825 32.3661 90.9332 32.4333 90.7349 32.4333C90.3537 32.4333 90.2293 32.1956 90.2293 31.8397V30.2371H91.4763V29.5315ZM80.0746 33.0791V30.8532C80.0746 30.015 79.5464 29.4509 78.6948 29.4434C78.2472 29.4358 77.7854 29.5767 77.4621 30.0744C77.2202 29.6811 76.839 29.4434 76.3031 29.4434C75.9285 29.4434 75.5625 29.5547 75.276 29.97V29.5315H74.5127V33.0782H75.2819V31.1117C75.2819 30.496 75.6196 30.1688 76.1409 30.1688C76.6474 30.1688 76.9036 30.5027 76.9036 31.1039V33.0778H77.6745V31.1112C77.6745 30.4956 78.0265 30.1684 78.5327 30.1684C79.0534 30.1684 79.3019 30.5023 79.3019 31.1035V33.0773L80.0746 33.0791Z" fill="white"/>
<path d="M99.3728 23.6571H87.7847V2.83203H99.373L99.3728 23.6571Z" fill="#FF5F00"/>
<path d="M88.5194 13.2443C88.5194 9.01991 90.4974 5.25683 93.5775 2.83175C91.246 0.993375 88.3623 -0.00437255 85.3932 1.4405e-05C78.0792 1.4405e-05 72.1504 5.92958 72.1504 13.2443C72.1504 20.5589 78.0792 26.4885 85.3932 26.4885C88.3624 26.4929 91.2462 25.4952 93.5777 23.6568C90.4978 21.2321 88.5194 17.4688 88.5194 13.2443Z" fill="#CE1312"/>
<path d="M115.007 13.2443C115.007 20.5589 109.078 26.4885 101.764 26.4885C98.7942 26.4929 95.9101 25.4951 93.5781 23.6568C96.6591 21.2317 98.6371 17.4688 98.6371 13.2443C98.6371 9.01969 96.6591 5.25683 93.5781 2.83175C95.9101 0.99343 98.7941 -0.00429565 101.763 1.39025e-05C109.077 1.39025e-05 115.006 5.92958 115.006 13.2443" fill="#F79E1B"/>
<path d="M179.132 16.1406V23.8691H183.425V19.2893H188.291C190.338 19.275 192.077 17.9654 192.735 16.1406H179.132Z" fill="white"/>
<path d="M178.559 9.77246C178.81 12.9283 181.801 15.4257 185.45 15.4257C185.465 15.4257 192.914 15.4257 192.914 15.4257C192.971 15.1395 193 14.8389 193 14.5312C193 11.9121 190.889 9.79393 188.277 9.77246H178.559Z" fill="white"/>
<path d="M172.204 15.347C172.255 15.2611 172.333 15.2111 172.433 15.2111C172.577 15.2111 172.684 15.3255 172.691 15.4615V23.7983H176.985V9.77246H172.691C172.147 9.79393 171.532 10.1875 171.303 10.6813L167.889 18.0091C167.882 18.0377 167.868 18.0663 167.854 18.0949C167.804 18.1665 167.718 18.2166 167.617 18.2166C167.46 18.2166 167.331 18.0878 167.331 17.9303V9.77246H163.038V23.7983H167.331C167.868 23.7697 168.469 23.3761 168.698 22.8895L172.204 15.3685C172.197 15.3613 172.204 15.3542 172.204 15.347Z" fill="white"/>
<path d="M156.175 15.5897L153.663 23.7976H150.572L148.067 15.5825C148.046 15.4537 147.931 15.3535 147.788 15.3535C147.631 15.3535 147.509 15.4823 147.509 15.6326V23.7905H143.215V9.76465H146.901H147.996C148.783 9.76465 149.613 10.3801 149.842 11.1315L151.931 17.9655C152.039 18.309 152.203 18.3018 152.311 17.9655L154.4 11.1315C154.629 10.3729 155.459 9.76465 156.246 9.76465H157.341H161.027V23.7905H156.733V15.6326C156.733 15.6326 156.733 15.6326 156.733 15.6254C156.733 15.468 156.604 15.3464 156.454 15.3464C156.311 15.3535 156.196 15.4537 156.175 15.5897Z" fill="white"/>
</svg>
