<svg width="26" height="23" viewBox="0 0 26 23" fill="none" xmlns="http://www.w3.org/2000/svg">
<path d="M25.3233 4.83008C25.0591 4.51556 24.731 4.26311 24.3617 4.09013C23.9925 3.91715 23.5907 3.82774 23.1843 3.82808H6.15108L5.762 1.58195C5.68531 1.13868 5.45767 0.737107 5.11907 0.447791C4.78047 0.158475 4.35257 -7.4748e-05 3.91057 2.64364e-08H0.939814C0.69056 2.64364e-08 0.451514 0.100829 0.275265 0.280305C0.0990158 0.459781 0 0.703203 0 0.957021C0 1.21084 0.0990158 1.45426 0.275265 1.63374C0.451514 1.81321 0.69056 1.91404 0.939814 1.91404H3.91057L6.31931 15.8119C6.4363 16.4893 6.78936 17.1009 7.31363 17.5345C6.84125 18.123 6.58179 18.8589 6.5787 19.6189C6.5787 20.5073 6.92525 21.3593 7.54213 21.9874C8.159 22.6156 8.99566 22.9685 9.86805 22.9685C10.7404 22.9685 11.5771 22.6156 12.194 21.9874C12.8108 21.3593 13.1574 20.5073 13.1574 19.6189C13.1546 19.1213 13.0419 18.6306 12.8275 18.1834H18.1845C17.9707 18.6308 17.8586 19.1214 17.8565 19.6189C17.8515 20.1575 17.9741 20.6894 18.214 21.1694C18.4539 21.6495 18.8039 22.0635 19.2343 22.3765C19.6648 22.6895 20.163 22.8921 20.6868 22.9672C21.2105 23.0424 21.7444 22.9878 22.243 22.8081C22.7416 22.6284 23.1903 22.329 23.5511 21.9351C23.9119 21.5412 24.1741 21.0646 24.3154 20.5455C24.4567 20.0265 24.4731 19.4804 24.3631 18.9536C24.253 18.4268 24.0199 17.9347 23.6833 17.5192C24.2123 17.0714 24.5614 16.4414 24.6645 15.7487L25.9661 7.13555C26.029 6.72679 26.0041 6.309 25.8931 5.91098C25.7822 5.51297 25.5877 5.14419 25.3233 4.83008ZM11.2778 19.6189C11.2778 19.9028 11.1951 20.1804 11.0402 20.4165C10.8853 20.6525 10.6651 20.8365 10.4075 20.9452C10.1499 21.0538 9.86648 21.0823 9.59303 21.0269C9.31957 20.9715 9.06838 20.8348 8.87123 20.634C8.67407 20.4332 8.53981 20.1774 8.48541 19.899C8.43102 19.6205 8.45894 19.3319 8.56564 19.0696C8.67233 18.8073 8.85302 18.5831 9.08485 18.4253C9.31668 18.2676 9.58923 18.1834 9.86805 18.1834C10.2419 18.1834 10.6005 18.3346 10.8649 18.6038C11.1292 18.8731 11.2778 19.2382 11.2778 19.6189ZM21.1458 21.0545C20.867 21.0545 20.5944 20.9703 20.3626 20.8125C20.1308 20.6548 19.9501 20.4306 19.8434 20.1683C19.7367 19.906 19.7088 19.6173 19.7632 19.3389C19.8176 19.0604 19.9518 18.8046 20.149 18.6038C20.3461 18.4031 20.5973 18.2664 20.8708 18.211C21.1443 18.1556 21.4277 18.184 21.6853 18.2927C21.9429 18.4013 22.1631 18.5853 22.318 18.8214C22.4729 19.0575 22.5555 19.335 22.5555 19.6189C22.5555 19.9996 22.407 20.3648 22.1426 20.634C21.8783 20.9032 21.5197 21.0545 21.1458 21.0545ZM22.8112 15.4578C22.7771 15.6837 22.6647 15.8897 22.4944 16.0385C22.3241 16.1874 22.1071 16.2693 21.8826 16.2694H9.09552C8.87442 16.2696 8.66031 16.1905 8.49082 16.0459C8.32134 15.9014 8.20734 15.7006 8.16887 15.4789L6.48472 5.74212H23.1843C23.3197 5.74218 23.4536 5.77205 23.5767 5.8297C23.6997 5.88735 23.8091 5.9714 23.8973 6.07612C23.9855 6.18083 24.0504 6.30371 24.0876 6.43636C24.1248 6.569 24.1334 6.70827 24.1128 6.84461L22.8112 15.4578Z" fill="#373435"/>
</svg>
