<svg width="40" height="40" viewBox="0 0 40 40" fill="none" xmlns="http://www.w3.org/2000/svg">
<rect width="40" height="40" rx="20" transform="matrix(-1 0 0 1 40 0)" fill="white"/>
<path d="M28.4274 14.9901C28.2038 14.7302 27.9262 14.5217 27.6138 14.3788C27.3013 14.2359 26.9614 14.162 26.6175 14.1623H12.2048L11.8755 12.3068C11.8106 11.9406 11.618 11.6089 11.3315 11.3699C11.045 11.1309 10.6829 10.9999 10.3089 11H7.79523C7.58432 11 7.38205 11.0833 7.23292 11.2316C7.08378 11.3798 7 11.5809 7 11.7906C7 12.0003 7.08378 12.2013 7.23292 12.3496C7.38205 12.4979 7.58432 12.5812 7.79523 12.5812H10.3089L12.3471 24.062C12.4461 24.6216 12.7448 25.1269 13.1885 25.485C12.7888 25.9712 12.5692 26.5791 12.5666 27.2069C12.5666 27.9408 12.8598 28.6446 13.3818 29.1635C13.9038 29.6824 14.6117 29.974 15.3499 29.974C16.0881 29.974 16.796 29.6824 17.318 29.1635C17.8399 28.6446 18.1332 27.9408 18.1332 27.2069C18.1309 26.7958 18.0355 26.3905 17.8541 26.0211H22.3869C22.206 26.3906 22.1112 26.7959 22.1093 27.2069C22.1051 27.6519 22.2089 28.0912 22.4118 28.4878C22.6148 28.8843 22.911 29.2264 23.2752 29.4849C23.6394 29.7435 24.061 29.9109 24.5042 29.9729C24.9474 30.035 25.3991 29.9899 25.821 29.8415C26.2429 29.6931 26.6226 29.4457 26.9279 29.1203C27.2331 28.7949 27.455 28.4012 27.5746 27.9724C27.6942 27.5436 27.708 27.0925 27.6149 26.6573C27.5218 26.2221 27.3245 25.8157 27.0397 25.4724C27.4873 25.1024 27.7827 24.582 27.8699 24.0098L28.9713 16.8946C29.0246 16.5569 29.0035 16.2118 28.9096 15.883C28.8157 15.5542 28.6512 15.2496 28.4274 14.9901ZM16.5427 27.2069C16.5427 27.4415 16.4728 27.6708 16.3417 27.8658C16.2106 28.0608 16.0243 28.2128 15.8064 28.3025C15.5884 28.3923 15.3486 28.4158 15.1172 28.37C14.8858 28.3243 14.6732 28.2113 14.5064 28.0455C14.3396 27.8796 14.226 27.6683 14.18 27.4383C14.1339 27.2083 14.1576 26.9698 14.2478 26.7531C14.3381 26.5364 14.491 26.3512 14.6872 26.2209C14.8833 26.0906 15.114 26.0211 15.3499 26.0211C15.6662 26.0211 15.9697 26.146 16.1934 26.3684C16.4171 26.5908 16.5427 26.8924 16.5427 27.2069ZM24.8926 28.3928C24.6567 28.3928 24.4261 28.3233 24.2299 28.193C24.0337 28.0626 23.8809 27.8774 23.7906 27.6608C23.7003 27.4441 23.6767 27.2056 23.7227 26.9756C23.7687 26.7455 23.8823 26.5342 24.0492 26.3684C24.216 26.2026 24.4285 26.0896 24.6599 26.0438C24.8913 25.9981 25.1311 26.0216 25.3491 26.1113C25.5671 26.2011 25.7534 26.3531 25.8844 26.5481C26.0155 26.7431 26.0855 26.9724 26.0855 27.2069C26.0855 27.5215 25.9598 27.8231 25.7361 28.0455C25.5124 28.2679 25.209 28.3928 24.8926 28.3928ZM26.3018 23.7695C26.2729 23.9561 26.1778 24.1263 26.0337 24.2492C25.8896 24.3722 25.706 24.4398 25.5161 24.4399H14.6962C14.5091 24.4401 14.328 24.3748 14.1845 24.2553C14.0411 24.1359 13.9447 23.97 13.9121 23.7869L12.4871 15.7435H26.6175C26.7321 15.7435 26.8454 15.7682 26.9495 15.8158C27.0536 15.8635 27.1462 15.9329 27.2208 16.0194C27.2954 16.1059 27.3503 16.2074 27.3818 16.317C27.4133 16.4266 27.4206 16.5416 27.4031 16.6542L26.3018 23.7695Z" fill="#373435"/>
</svg>
