<svg width="26" height="26" viewBox="0 0 26 26" fill="none" xmlns="http://www.w3.org/2000/svg">
<path d="M10.9089 0H1.09079C0.491232 0 0 0.490263 0 1.09082V10.9092C0 11.5081 0.491232 12 1.09079 12H10.9089C11.5088 12 12 11.5078 12 10.9092V1.09082C12 0.490263 11.5088 0 10.9089 0ZM9.81809 9.81836H2.18191V2.18197H9.81809V9.81836Z" fill="#373435"/>
<path d="M24.9092 0H15.0911C14.4912 0 14 0.490263 14 1.09082V10.9092C14 11.5081 14.4912 12 15.0911 12H24.9092C25.5088 12 26 11.5078 26 10.9092V1.09082C26 0.490263 25.5088 0 24.9092 0ZM23.8181 9.81836H16.1819V2.18197H23.8181V9.81836Z" fill="#373435"/>
<path d="M10.9089 14H1.09079C0.491232 14 0 14.4899 0 15.0908V24.9092C0 25.5078 0.491232 26 1.09079 26H10.9089C11.5088 26 12 25.5078 12 24.9092V15.0908C12 14.4899 11.5088 14 10.9089 14ZM9.81809 23.8184H2.18191V16.1816H9.81809V23.8184Z" fill="#373435"/>
<path d="M24.9092 14H15.0911C14.4912 14 14 14.4899 14 15.0908V24.9092C14 25.5078 14.4912 26 15.0911 26H24.9092C25.5088 26 26 25.5078 26 24.9092V15.0908C26 14.4899 25.5088 14 24.9092 14ZM23.8181 23.8184H16.1819V16.1816H23.8181V23.8184Z" fill="#373435"/>
</svg>
