<svg width="20" height="20" viewBox="0 0 20 20" fill="none" xmlns="http://www.w3.org/2000/svg">
<path fill-rule="evenodd" clip-rule="evenodd" d="M5 1.5C5 0.671574 5.67157 0 6.5 0H18.5C19.3284 0 20 0.671573 20 1.5V13.5C20 14.3284 19.3284 15 18.5 15H17V13.5H18.5V1.5L6.5 1.5V3H5V1.5ZM0 6.5C0 5.67157 0.671572 5 1.5 5H13.5C14.3284 5 15 5.67157 15 6.5V18.5C15 19.3284 14.3284 20 13.5 20H1.5C0.671574 20 0 19.3284 0 18.5V6.5ZM13.5 6.5L1.5 6.5V18.5H13.5V6.5ZM12.7745 9.22761C13.0752 9.5311 13.0752 10.0231 12.7745 10.3266L7.15358 16L4.20738 12.8176C3.91706 12.504 3.93358 12.0123 4.24427 11.7192C4.55496 11.4262 5.04217 11.4429 5.33249 11.7565L7.19112 13.7641L11.6856 9.22761C11.9863 8.92413 12.4738 8.92413 12.7745 9.22761Z" fill="#373435"/>
</svg>
