<svg width="18" height="18" viewBox="0 0 18 18" fill="none" xmlns="http://www.w3.org/2000/svg">
<path d="M17.1818 0H0.818197C0.366366 0 0 0.355543 0 0.794134V17.2059C0 17.6444 0.366317 18 0.818197 18H17.1818C17.6336 18 18 17.6445 18 17.2059V0.794086C18 0.355543 17.6337 0 17.1818 0ZM16.3637 6.35293H13.9091C13.4573 6.35293 13.0909 6.70847 13.0909 7.14706C13.0909 7.58565 13.4572 7.94119 13.9091 7.94119H16.3637V16.4118H6V14.0294C6 13.5909 5.63368 13.2353 5.1818 13.2353C4.72992 13.2353 4.36361 13.5908 4.36361 14.0294V16.4118H1.63635V1.58822H4.36361V10.3235C4.36361 10.762 4.72992 11.1176 5.1818 11.1176C5.63368 11.1176 6 10.7621 6 10.3235V7.94115H10.0909C10.5427 7.94115 10.9091 7.5856 10.9091 7.14701C10.9091 6.70842 10.5428 6.35288 10.0909 6.35288H6V1.58822H16.3636L16.3637 6.35293Z" fill="#373435"/>
</svg>
