<svg width="21" height="21" viewBox="0 0 21 21" fill="none" xmlns="http://www.w3.org/2000/svg">
<path fill-rule="evenodd" clip-rule="evenodd" d="M0 10.5C0 4.70846 4.70846 0 10.5 0C16.2915 0 21 4.70846 21 10.5C21 16.2915 16.2915 21 10.5 21C4.70846 21 0 16.2915 0 10.5ZM2.1 10.5C2.1 15.1299 5.87008 18.9 10.5 18.9C15.1299 18.9 18.9 15.1299 18.9 10.5C18.9 5.87008 15.1299 2.1 10.5 2.1C5.87008 2.1 2.1 5.87008 2.1 10.5ZM10.9989 5V9.46457L13.5565 11.1693C14.0129 11.4764 14.1388 12.0945 13.8319 12.5551C13.6391 12.8425 13.3204 13 12.9977 13C12.8049 13 12.6121 12.9449 12.4429 12.8307L9.44463 10.8307C9.16526 10.6457 9 10.3346 9 10V5C9 4.44882 9.44856 4 9.99943 4C10.5503 4 10.9989 4.44882 10.9989 5Z" fill="#373435"/>
</svg>
