<svg width="30" height="30" viewBox="0 0 30 30" fill="none" xmlns="http://www.w3.org/2000/svg">
<rect width="30" height="30" rx="15" fill="#CE1312"/>
<path d="M20.6925 10.7598C20.4821 10.7598 20.2803 10.8434 20.1315 10.9922C19.9828 11.141 19.8992 11.3427 19.8992 11.5531V20.431C19.8764 20.8321 19.6961 21.208 19.3974 21.4768C19.0988 21.7456 18.706 21.8855 18.3047 21.866H11.9741C11.5728 21.8855 11.18 21.7456 10.8813 21.4768C10.5827 21.208 10.4023 20.8321 10.3796 20.431V11.5531C10.3796 11.3427 10.296 11.141 10.1472 10.9922C9.99845 10.8434 9.79667 10.7598 9.58627 10.7598C9.37587 10.7598 9.17409 10.8434 9.02532 10.9922C8.87655 11.141 8.79297 11.3427 8.79297 11.5531V20.431C8.81561 21.253 9.16311 22.0326 9.75935 22.5989C10.3556 23.1653 11.152 23.4723 11.9741 23.4527H18.3047C19.1268 23.4723 19.9232 23.1653 20.5194 22.5989C21.1157 22.0326 21.4632 21.253 21.4858 20.431V11.5531C21.4858 11.3427 21.4022 11.141 21.2534 10.9922C21.1047 10.8434 20.9029 10.7598 20.6925 10.7598Z" fill="white"/>
<path d="M21.4861 8.3799H18.3129V6.7933C18.3129 6.5829 18.2293 6.38113 18.0806 6.23235C17.9318 6.08358 17.73 6 17.5196 6H12.7598C12.5494 6 12.3476 6.08358 12.1989 6.23235C12.0501 6.38113 11.9665 6.5829 11.9665 6.7933V8.3799H8.7933C8.5829 8.3799 8.38113 8.46348 8.23235 8.61226C8.08358 8.76103 8 8.96281 8 9.17321C8 9.3836 8.08358 9.58538 8.23235 9.73416C8.38113 9.88293 8.5829 9.96651 8.7933 9.96651H21.4861C21.6965 9.96651 21.8983 9.88293 22.0471 9.73416C22.1958 9.58538 22.2794 9.3836 22.2794 9.17321C22.2794 8.96281 22.1958 8.76103 22.0471 8.61226C21.8983 8.46348 21.6965 8.3799 21.4861 8.3799ZM13.5531 8.3799V7.5866H16.7263V8.3799H13.5531Z" fill="white"/>
<path d="M14.3464 18.6928V13.1397C14.3464 12.9293 14.2628 12.7276 14.114 12.5788C13.9652 12.43 13.7635 12.3464 13.5531 12.3464C13.3427 12.3464 13.1409 12.43 12.9921 12.5788C12.8433 12.7276 12.7598 12.9293 12.7598 13.1397V18.6928C12.7598 18.9032 12.8433 19.105 12.9921 19.2538C13.1409 19.4026 13.3427 19.4861 13.5531 19.4861C13.7635 19.4861 13.9652 19.4026 14.114 19.2538C14.2628 19.105 14.3464 18.9032 14.3464 18.6928Z" fill="white"/>
<path d="M17.5202 18.6928V13.1397C17.5202 12.9293 17.4366 12.7276 17.2878 12.5788C17.1391 12.43 16.9373 12.3464 16.7269 12.3464C16.5165 12.3464 16.3147 12.43 16.1659 12.5788C16.0172 12.7276 15.9336 12.9293 15.9336 13.1397V18.6928C15.9336 18.9032 16.0172 19.105 16.1659 19.2538C16.3147 19.4026 16.5165 19.4861 16.7269 19.4861C16.9373 19.4861 17.1391 19.4026 17.2878 19.2538C17.4366 19.105 17.5202 18.9032 17.5202 18.6928Z" fill="white"/>
</svg>
