<svg width="75" height="33" viewBox="0 0 75 33" fill="none" xmlns="http://www.w3.org/2000/svg">
<line y1="5.71521" x2="75" y2="5.71521" stroke="black"/>
<circle cx="37.5003" cy="5.53396" r="4.27273" fill="#F8C71A" stroke="black"/>
<path d="M57.9386 25.7475L50.4292 30.0386C48.4625 28.9659 44.2071 26.4985 42.9198 25.2112C41.6325 23.9238 41.3106 22.1716 41.3106 21.4565L41.847 20.3837L42.3834 18.2381L37.5559 10.1923L37.0195 8.58316L38.0923 6.974H39.7015L43.9926 13.4106L44.5289 12.8743L46.1381 11.8015L47.7473 12.8743L48.82 12.3379H50.4292L52.0384 13.4106L53.1111 12.3379H54.7203C55.2567 13.0531 56.544 15.2344 57.4022 18.2381C58.2605 21.2419 58.1174 24.496 57.9386 25.7475Z" fill="white"/>
<path d="M45.4208 22.9339C45.1498 23.0937 44.8002 23.0035 44.6404 22.7325L36.8317 9.48933C36.1983 8.41519 36.5529 7.01922 37.6218 6.37702L37.6385 6.36718C38.1599 6.05976 38.7685 5.97215 39.3557 6.12208C39.9497 6.27207 40.4482 6.64632 40.7591 7.17357L44.1088 12.8545C44.2017 12.5947 44.3416 12.3494 44.5309 12.1319C45.0212 11.5676 45.7607 11.289 46.5018 11.388C47.2429 11.4869 47.8814 11.948 48.2064 12.6204L49.4562 15.1955C49.5948 15.4777 49.4731 15.8167 49.1931 15.9567C48.9103 16.0943 48.569 15.9754 48.4319 15.6936L47.1822 13.1185C47.0201 12.7853 46.7178 12.5666 46.3517 12.5179C45.9845 12.4697 45.6322 12.5994 45.3896 12.8813C45.1043 13.2097 45.043 13.6759 45.2347 14.0683L46.5205 16.949C46.6433 17.2246 46.5652 17.5432 46.2609 17.6869C45.9916 17.8272 45.661 17.731 45.5076 17.4708L39.7772 7.75251C39.6215 7.4884 39.3725 7.30176 39.0756 7.22677C38.779 7.15021 38.4661 7.16932 38.2086 7.35424C37.6744 7.67582 37.4969 8.37332 37.8136 8.91039L45.6223 22.1535C45.7821 22.4245 45.6918 22.7742 45.4208 22.9339Z" fill="black"/>
<path d="M50.4906 30.4134C50.3453 30.4991 50.1618 30.52 49.991 30.4526C49.7373 30.3521 43.7438 27.9476 41.6422 24.3835C39.7404 21.1581 41.8354 18.1179 41.9251 17.9896C42.1107 17.732 42.4622 17.6729 42.7173 17.852C42.9746 18.0324 43.0369 18.3873 42.8581 18.645C42.7861 18.7496 41.1015 21.2223 42.6241 23.8045C44.5288 27.0348 50.3514 29.3694 50.4112 29.3924C50.7044 29.508 50.8478 29.8389 50.7307 30.1316C50.683 30.255 50.5957 30.3515 50.4906 30.4134Z" fill="black"/>
<path d="M52.7576 15.1798C52.4866 15.3396 52.137 15.2493 51.9772 14.9783L50.8193 13.0146C50.4998 12.4727 49.8005 12.2921 49.2586 12.6117C48.8697 12.841 48.6535 13.2755 48.7054 13.7225C48.7429 14.0352 48.5142 14.3183 48.206 14.3544C47.8934 14.3919 47.6101 14.1673 47.5741 13.855C47.4694 12.9614 47.904 12.0872 48.6796 11.6299C49.7626 10.9913 51.1626 11.3527 51.8012 12.4357L52.9591 14.3994C53.1194 14.6714 53.0286 15.02 52.7576 15.1798Z" fill="black"/>
<path d="M58.3471 25.7813C58.2214 25.8554 58.0674 25.8814 57.915 25.8429C57.6112 25.7653 57.4267 25.4546 57.5043 25.1509C57.5184 25.0962 58.7982 19.8162 55.0924 13.5314L54.9233 13.2447C54.6038 12.7028 53.9045 12.5222 53.3625 12.8418C52.8206 13.1614 52.6401 13.8606 52.9596 14.4026C53.1194 14.6736 53.0292 15.0232 52.7582 15.183C52.4872 15.3428 52.1376 15.2525 51.9778 14.9815C51.3392 13.8986 51.7006 12.4985 52.7836 11.86C53.8666 11.2214 55.2666 11.5828 55.9052 12.6658L56.0742 12.9525C60.0324 19.6654 58.6682 25.2016 58.6092 25.4336C58.5691 25.5856 58.4718 25.7078 58.3471 25.7813Z" fill="black"/>
</svg>
