<svg width="20" height="20" viewBox="0 0 20 20" fill="none" xmlns="http://www.w3.org/2000/svg">
<path fill-rule="evenodd" clip-rule="evenodd" d="M17.55 0.435484L19 1.88548C19.2791 2.1697 19.4355 2.55213 19.4355 2.95048C19.4355 3.34883 19.2791 3.73126 19 4.01548L17.55 5.43548L14 1.88548L15.42 0.435484C15.7042 0.156377 16.0867 0 16.485 0C16.8834 0 17.2658 0.156377 17.55 0.435484ZM15 19.4355H3C2.20435 19.4355 1.44129 19.1194 0.87868 18.5568C0.316071 17.9942 0 17.2311 0 16.4355V4.43549C0 3.63984 0.316071 2.87677 0.87868 2.31417C1.44129 1.75156 2.20435 1.43549 3 1.43549H7C7.26522 1.43549 7.51957 1.54084 7.70711 1.72838C7.89464 1.91592 8 2.17027 8 2.43549C8 2.7007 7.89464 2.95506 7.70711 3.14259C7.51957 3.33013 7.26522 3.43549 7 3.43549H3C2.73478 3.43549 2.48043 3.54084 2.29289 3.72838C2.10536 3.91592 2 4.17027 2 4.43549V16.4355C2 16.7007 2.10536 16.9551 2.29289 17.1426C2.48043 17.3301 2.73478 17.4355 3 17.4355H15C15.2652 17.4355 15.5196 17.3301 15.7071 17.1426C15.8946 16.9551 16 16.7007 16 16.4355V12.4355C16 12.1703 16.1054 11.9159 16.2929 11.7284C16.4804 11.5408 16.7348 11.4355 17 11.4355C17.2652 11.4355 17.5196 11.5408 17.7071 11.7284C17.8946 11.9159 18 12.1703 18 12.4355V16.4355C18 17.2311 17.6839 17.9942 17.1213 18.5568C16.5587 19.1194 15.7956 19.4355 15 19.4355ZM12.6007 3.30548L7.65065 8.30548C7.58313 8.3657 7.53742 8.44657 7.52065 8.53548L6.52065 12.3555C6.49642 12.4397 6.49573 12.529 6.51864 12.6136C6.54156 12.6982 6.58721 12.775 6.65065 12.8355C6.69941 12.8746 6.75548 12.9036 6.81558 12.9207C6.87568 12.9379 6.93859 12.9429 7.00065 12.9355C7.04353 12.9444 7.08777 12.9444 7.13065 12.9355L10.9507 11.9355C11.0396 11.9187 11.1204 11.873 11.1807 11.8055L16.1306 6.83548L12.6007 3.30548Z" fill="#F8C71A"/>
</svg>
