<svg width="24" height="24" viewBox="0 0 24 24" fill="none" xmlns="http://www.w3.org/2000/svg">
<path d="M20.3167 0H3.38612C1.51614 0 0 1.51614 0 3.38612V20.3167C0 22.1867 1.51614 23.7029 3.38612 23.7029H20.3167C22.1867 23.7029 23.7029 22.1867 23.7029 20.3167V3.38612C23.7029 1.51614 22.1867 0 20.3167 0ZM16.3474 3.46824C17.7077 3.46824 18.8108 4.57127 18.8108 5.93249C18.8108 7.29371 17.7077 8.39589 16.3474 8.39589C14.987 8.39589 13.8831 7.29286 13.8831 5.93249C13.8831 4.57211 14.987 3.46824 16.3474 3.46824ZM19.4338 19.6031H15.3899H4.2699C3.58929 19.6031 3.18719 18.8412 3.57067 18.2791L8.33325 11.3063C8.66932 10.8144 9.3948 10.8144 9.73087 11.3063L13.1204 16.2678L15.2401 13.161C15.5762 12.6683 16.3025 12.6683 16.6386 13.161L20.1322 18.2791C20.5165 18.8412 20.1136 19.6031 19.4338 19.6031Z" fill="#373435"/>
</svg>
