<?xml version="1.0" standalone="no"?>
<!DOCTYPE svg PUBLIC "-//W3C//DTD SVG 20010904//EN"
 "http://www.w3.org/TR/2001/REC-SVG-20010904/DTD/svg10.dtd">
<svg version="1.0" xmlns="http://www.w3.org/2000/svg"
 width="1200.000000pt" height="1200.000000pt" viewBox="0 0 1200.000000 1200.000000"
 preserveAspectRatio="xMidYMid meet">

<g transform="translate(0.000000,1200.000000) scale(0.100000,-0.100000)"
fill="#000000" stroke="none">
<path d="M2180 11100 c-230 -28 -436 -195 -518 -420 l-27 -75 -3 -4610 c-2
-4188 -1 -4617 13 -4683 23 -101 74 -198 150 -280 79 -85 165 -142 270 -179
l80 -28 3765 0 c3624 0 3767 1 3824 18 181 56 327 183 408 353 61 131 58 -45
58 2943 0 1801 -3 2755 -10 2811 -32 259 -161 592 -316 813 -44 62 -404 428
-1464 1490 -773 775 -1441 1438 -1485 1473 -199 161 -492 297 -773 356 l-107
23 -1900 1 c-1045 1 -1929 -2 -1965 -6z m3732 -2302 l3 -1453 27 -80 c58 -171
181 -310 344 -387 127 -60 82 -58 1635 -58 l1419 0 0 -2570 0 -2570 -3430 0
-3430 0 0 4285 0 4285 1715 0 1714 0 3 -1452z m1863 -118 l1000 -1000 -1003 0
-1002 0 0 1000 c0 550 1 1000 3 1000 1 0 452 -450 1002 -1000z"/>
<path d="M3449 5937 c-29 -16 -54 -40 -74 -72 l-30 -48 0 -282 0 -282 30 -48
c20 -32 45 -56 74 -72 l44 -23 2414 0 c2156 0 2418 2 2451 15 47 20 79 50 103
97 17 34 19 62 19 313 0 234 -2 281 -16 308 -23 45 -53 76 -96 98 -36 19 -98
19 -2456 19 l-2419 0 -44 -23z"/>
<path d="M3475 4235 c-51 -18 -110 -81 -124 -131 -16 -56 -14 -515 1 -568 19
-63 83 -121 149 -136 40 -8 665 -10 2445 -8 l2391 3 48 30 c32 20 56 45 72 75
24 44 24 46 21 332 l-3 286 -30 43 c-16 23 -48 52 -70 63 l-40 21 -2410 2
c-2059 2 -2416 0 -2450 -12z"/>
</g>
</svg>
