<svg width="201" height="52" viewBox="0 0 201 52" fill="none" xmlns="http://www.w3.org/2000/svg">
<path d="M199.55 39.7985L196.769 43.797H195.552L198.449 39.7985H199.55ZM200.999 35.6841V43.797H200.014V35.6841H200.999ZM200.454 36.5533H198.797C198.449 36.5533 198.14 36.6151 197.87 36.7388C197.607 36.8624 197.398 37.0401 197.244 37.2719C197.097 37.5037 197.024 37.7857 197.024 38.118C197.024 38.4502 197.097 38.7322 197.244 38.964C197.398 39.1958 197.607 39.3735 197.87 39.4972C198.14 39.6208 198.449 39.6826 198.797 39.6826H200.454V40.5518H198.797C198.279 40.5518 197.812 40.4553 197.394 40.2621C196.977 40.0612 196.645 39.7792 196.398 39.416C196.158 39.0452 196.038 38.6125 196.038 38.118C196.038 37.6157 196.158 37.183 196.398 36.8199C196.645 36.4567 196.977 36.1786 197.394 35.9854C197.812 35.7845 198.279 35.6841 198.797 35.6841H200.454V36.5533Z" fill="#373435"/>
<path d="M193.868 36.7853L186.798 44.2028L186.856 42.6961L193.926 35.2786L193.868 36.7853ZM187.783 35.6842V42.9279L186.798 44.2028V35.6842H187.783ZM193.926 35.2786V43.7972H192.94V36.5535L193.926 35.2786Z" fill="#373435"/>
<path d="M180.019 36.6113V35.6841H185.177V36.6113H183.091V43.797H182.106V36.6113H180.019Z" fill="#373435"/>
<path d="M177.415 35.6841H178.401V43.797H177.415V35.6841ZM171.389 35.6841H172.374V43.797H171.389V35.6841ZM171.933 39.8565V38.9293H173.591C174.116 38.9293 174.584 39.0297 174.993 39.2306C175.41 39.4238 175.739 39.7019 175.978 40.0651C176.226 40.4282 176.349 40.8609 176.349 41.3631C176.349 41.8576 176.226 42.2903 175.978 42.6612C175.739 43.0244 175.41 43.3064 174.993 43.5073C174.584 43.7004 174.116 43.797 173.591 43.797H171.933V42.8698H173.591C173.938 42.8698 174.244 42.8157 174.506 42.7076C174.777 42.5917 174.985 42.4217 175.132 42.1976C175.287 41.9735 175.364 41.6954 175.364 41.3631C175.364 41.0309 175.287 40.7527 175.132 40.5287C174.985 40.3046 174.777 40.1385 174.506 40.0303C174.244 39.9144 173.938 39.8565 173.591 39.8565H171.933Z" fill="#373435"/>
<path d="M164.46 35.6841H165.445V43.797H164.46V35.6841ZM165.004 36.6113V35.6841H166.662C167.187 35.6841 167.655 35.7845 168.064 35.9854C168.481 36.1786 168.81 36.4567 169.049 36.8199C169.296 37.183 169.42 37.6157 169.42 38.118C169.42 38.6125 169.296 39.0452 169.049 39.416C168.81 39.7792 168.481 40.0612 168.064 40.2621C167.655 40.4553 167.187 40.5518 166.662 40.5518H165.004V39.6247H166.662C167.187 39.6247 167.612 39.4972 167.937 39.2422C168.269 38.9872 168.435 38.6125 168.435 38.118C168.435 37.6157 168.269 37.241 167.937 36.9937C167.612 36.7388 167.187 36.6113 166.662 36.6113H165.004Z" fill="#373435"/>
<path d="M157.327 35.6841H158.312V43.797H157.327V35.6841ZM161.499 35.6841H162.716L159.204 39.4856L162.89 43.797H161.673L158.011 39.5088L161.499 35.6841Z" fill="#373435"/>
<path d="M148.17 39.7405C148.17 40.3509 148.301 40.8956 148.564 41.3747C148.834 41.8537 149.201 42.2323 149.665 42.5105C150.129 42.7886 150.654 42.9277 151.241 42.9277C151.836 42.9277 152.362 42.7886 152.817 42.5105C153.281 42.2323 153.644 41.8537 153.907 41.3747C154.177 40.8956 154.313 40.3509 154.313 39.7405C154.313 39.1301 154.177 38.5854 153.907 38.1063C153.644 37.6273 153.281 37.2487 152.817 36.9705C152.362 36.6923 151.836 36.5533 151.241 36.5533C150.654 36.5533 150.129 36.6923 149.665 36.9705C149.201 37.2487 148.834 37.6273 148.564 38.1063C148.301 38.5854 148.17 39.1301 148.17 39.7405ZM147.127 39.7405C147.127 39.1455 147.227 38.5969 147.428 38.0947C147.637 37.5848 147.927 37.1443 148.297 36.7735C148.668 36.3949 149.105 36.1013 149.607 35.8926C150.109 35.6763 150.654 35.5681 151.241 35.5681C151.836 35.5681 152.381 35.6763 152.875 35.8926C153.378 36.1013 153.814 36.3949 154.185 36.7735C154.556 37.1443 154.842 37.5848 155.043 38.0947C155.251 38.5969 155.356 39.1455 155.356 39.7405C155.356 40.3277 155.251 40.8763 155.043 41.3863C154.842 41.8962 154.556 42.3405 154.185 42.7191C153.814 43.09 153.378 43.3836 152.875 43.5999C152.381 43.8085 151.836 43.9129 151.241 43.9129C150.654 43.9129 150.109 43.8085 149.607 43.5999C149.105 43.3836 148.668 43.09 148.297 42.7191C147.927 42.3405 147.637 41.8962 147.428 41.3863C147.227 40.8763 147.127 40.3277 147.127 39.7405Z" fill="#373435"/>
<path d="M144.174 36.6113H139.712V43.797H138.726V35.6841H145.159V43.797H144.174V36.6113Z" fill="#373435"/>
<path d="M128.265 43.797V42.8698H132.356V43.797H128.265ZM128.265 36.6113V35.6841H132.356V36.6113H128.265ZM128.265 39.8565V38.9293H132.125V39.8565H128.265ZM127.72 35.6841H128.706V43.797H127.72V35.6841Z" fill="#373435"/>
<path d="M124.306 35.6841H125.291V43.797H124.306V35.6841ZM118.279 35.6841H119.264V43.797H118.279V35.6841ZM118.824 39.8565V38.9293H120.481C121.007 38.9293 121.474 39.0297 121.884 39.2306C122.301 39.4238 122.629 39.7019 122.869 40.0651C123.116 40.4282 123.24 40.8609 123.24 41.3631C123.24 41.8576 123.116 42.2903 122.869 42.6612C122.629 43.0244 122.301 43.3064 121.884 43.5073C121.474 43.7004 121.007 43.797 120.481 43.797H118.824V42.8698H120.481C120.829 42.8698 121.134 42.8157 121.397 42.7076C121.667 42.5917 121.876 42.4217 122.023 42.1976C122.177 41.9735 122.255 41.6954 122.255 41.3631C122.255 41.0309 122.177 40.7527 122.023 40.5287C121.876 40.3046 121.667 40.1385 121.397 40.0303C121.134 39.9144 120.829 39.8565 120.481 39.8565H118.824Z" fill="#373435"/>
<path d="M109.959 39.8565V38.9293H115.522V39.8565H109.959ZM114.861 35.6841H115.846V43.797H114.861V35.6841ZM109.414 35.6841H110.399V43.797H109.414V35.6841Z" fill="#373435"/>
<path d="M102.485 35.6841H103.47V43.797H102.485V35.6841ZM103.03 39.8565V38.9293H104.687C105.213 38.9293 105.68 39.0297 106.09 39.2306C106.507 39.4238 106.835 39.7019 107.075 40.0651C107.322 40.4282 107.446 40.8609 107.446 41.3631C107.446 41.8576 107.322 42.2903 107.075 42.6612C106.835 43.0244 106.507 43.3064 106.09 43.5073C105.68 43.7004 105.213 43.797 104.687 43.797H103.03V42.8698H104.687C105.035 42.8698 105.34 42.8157 105.603 42.7076C105.873 42.5917 106.082 42.4217 106.229 42.1976C106.383 41.9735 106.461 41.6954 106.461 41.3631C106.461 41.0309 106.383 40.7527 106.229 40.5287C106.082 40.3046 105.873 40.1385 105.603 40.0303C105.34 39.9144 105.035 39.8565 104.687 39.8565H103.03Z" fill="#373435"/>
<path d="M100.049 35.6841V43.797H99.0636V36.6113H95.4708V41.0154C95.4708 41.5099 95.3935 41.9697 95.239 42.3946C95.0921 42.8196 94.8681 43.1596 94.5667 43.4146C94.2731 43.6695 93.9061 43.797 93.4657 43.797V42.951C93.6434 42.951 93.7979 42.8969 93.9293 42.7887C94.0606 42.6805 94.1727 42.5299 94.2654 42.3367C94.3581 42.1358 94.4277 41.904 94.474 41.6413C94.5204 41.3786 94.5436 41.0927 94.5436 40.7836V35.6841H100.049Z" fill="#373435"/>
<path d="M85.1201 39.7405C85.1201 40.3509 85.2515 40.8956 85.5142 41.3747C85.7846 41.8537 86.1516 42.2323 86.6152 42.5105C87.0788 42.7886 87.6042 42.9277 88.1914 42.9277C88.7864 42.9277 89.3118 42.7886 89.7677 42.5105C90.2313 42.2323 90.5944 41.8537 90.8571 41.3747C91.1276 40.8956 91.2628 40.3509 91.2628 39.7405C91.2628 39.1301 91.1276 38.5854 90.8571 38.1063C90.5944 37.6273 90.2313 37.2487 89.7677 36.9705C89.3118 36.6923 88.7864 36.5533 88.1914 36.5533C87.6042 36.5533 87.0788 36.6923 86.6152 36.9705C86.1516 37.2487 85.7846 37.6273 85.5142 38.1063C85.2515 38.5854 85.1201 39.1301 85.1201 39.7405ZM84.077 39.7405C84.077 39.1455 84.1775 38.5969 84.3784 38.0947C84.587 37.5848 84.8767 37.1443 85.2476 36.7735C85.6185 36.3949 86.055 36.1013 86.5573 35.8926C87.0595 35.6763 87.6042 35.5681 88.1914 35.5681C88.7864 35.5681 89.3311 35.6763 89.8256 35.8926C90.3279 36.1013 90.7644 36.3949 91.1353 36.7735C91.5062 37.1443 91.792 37.5848 91.9929 38.0947C92.2016 38.5969 92.3059 39.1455 92.3059 39.7405C92.3059 40.3277 92.2016 40.8763 91.9929 41.3863C91.792 41.8962 91.5062 42.3405 91.1353 42.7191C90.7644 43.09 90.3279 43.3836 89.8256 43.5999C89.3311 43.8085 88.7864 43.9129 88.1914 43.9129C87.6042 43.9129 87.0595 43.8085 86.5573 43.5999C86.055 43.3836 85.6185 43.09 85.2476 42.7191C84.8767 42.3405 84.587 41.8962 84.3784 41.3863C84.1775 40.8763 84.077 40.3277 84.077 39.7405Z" fill="#373435"/>
<path d="M81.124 36.6113H76.6619V43.797H75.6768V35.6841H82.1092V43.797H81.124V36.6113Z" fill="#373435"/>
<path d="M68.2229 41.3631L68.5706 40.436H72.1635L72.5112 41.3631H68.2229ZM70.3439 37.5153L68.9763 40.7373L68.8835 40.9459L67.6782 43.797H66.5771L70.3439 35.2784L74.1106 43.797H73.0096L71.8274 41.0155L71.7347 40.7837L70.3439 37.5153Z" fill="#373435"/>
<path d="M59.1265 39.8565V38.9293H64.6897V39.8565H59.1265ZM64.029 35.6841H65.0142V43.797H64.029V35.6841ZM58.5818 35.6841H59.5669V43.797H58.5818V35.6841Z" fill="#373435"/>
<path d="M188.866 18.3137C188.866 19.6072 189.147 20.7415 189.709 21.7163C190.29 22.6725 191.042 23.413 191.967 23.9379C192.893 24.4441 193.899 24.6972 194.988 24.6972C195.895 24.6972 196.702 24.5753 197.409 24.3316C198.117 24.0879 198.752 23.7598 199.314 23.3474C199.894 22.9349 200.393 22.485 200.811 21.9975V26.5251C200.031 27.1625 199.178 27.6593 198.253 28.0155C197.346 28.3717 196.194 28.5498 194.797 28.5498C193.346 28.5498 191.995 28.3061 190.743 27.8186C189.51 27.3312 188.43 26.6282 187.505 25.7096C186.598 24.7909 185.891 23.7129 185.383 22.4756C184.893 21.2195 184.648 19.8322 184.648 18.3137C184.648 16.7951 184.893 15.4172 185.383 14.1798C185.891 12.9237 186.598 11.8364 187.505 10.9178C188.43 9.99913 189.51 9.2961 190.743 8.80867C191.995 8.32123 193.346 8.07751 194.797 8.07751C196.194 8.07751 197.346 8.25562 198.253 8.61182C199.178 8.96802 200.031 9.46483 200.811 10.1022V14.6298C200.393 14.1423 199.894 13.6924 199.314 13.2799C198.752 12.8675 198.117 12.5394 197.409 12.2957C196.702 12.052 195.895 11.9301 194.988 11.9301C193.899 11.9301 192.893 12.1926 191.967 12.7175C191.042 13.2237 190.29 13.9549 189.709 14.911C189.147 15.8671 188.866 17.0013 188.866 18.3137Z" fill="#373435"/>
<path d="M167.408 8.07751H171.497V27.4723H167.408V8.07751ZM178.424 8.07751H183.153L175.086 17.1654L183.57 27.4723H178.73L170.329 17.2762L178.424 8.07751Z" fill="#373435"/>
<path d="M149.479 23.0796L149.944 19.9576H159.122L159.587 23.0796H149.479ZM154.478 14.4044L151.61 21.0627L151.692 21.9468L149.179 27.4724H144.781L154.478 7.00012L164.176 27.4724H159.751L157.292 22.1126L157.347 21.118L154.478 14.4044Z" fill="#373435"/>
<path d="M125.528 16.5259L124.245 27.4723H119.999L122.963 7L131.313 19.5898L139.663 7L142.626 27.4723H138.38L137.098 16.5259L131.313 25.6618L125.528 16.5259Z" fill="#373435"/>
<path d="M100.471 18.2438C100.471 19.4914 100.73 20.5992 101.246 21.5674C101.762 22.5357 102.473 23.2991 103.376 23.8577C104.28 24.4162 105.331 24.6955 106.53 24.6955C107.729 24.6955 108.78 24.4162 109.684 23.8577C110.588 23.2991 111.289 22.5357 111.786 21.5674C112.303 20.5992 112.561 19.4914 112.561 18.2438C112.561 16.9963 112.312 15.8885 111.814 14.9202C111.316 13.952 110.615 13.1886 109.712 12.63C108.808 12.0714 107.747 11.7921 106.53 11.7921C105.331 11.7921 104.28 12.0714 103.376 12.63C102.473 13.1886 101.762 13.952 101.246 14.9202C100.73 15.8885 100.471 16.9963 100.471 18.2438ZM96.2939 18.2438C96.2939 16.7543 96.5522 15.395 97.0686 14.1661C97.585 12.9186 98.3043 11.8387 99.2265 10.9263C100.149 10.014 101.228 9.31572 102.463 8.83161C103.717 8.32888 105.073 8.07751 106.53 8.07751C108.006 8.07751 109.361 8.32888 110.597 8.83161C111.833 9.31572 112.912 10.014 113.834 10.9263C114.774 11.8387 115.494 12.9186 115.992 14.1661C116.508 15.395 116.766 16.7543 116.766 18.2438C116.766 19.7148 116.508 21.0833 115.992 22.3495C115.494 23.597 114.784 24.6862 113.861 25.6172C112.958 26.5482 111.879 27.2744 110.625 27.7957C109.389 28.2984 108.024 28.5498 106.53 28.5498C105.036 28.5498 103.662 28.2984 102.408 27.7957C101.172 27.2744 100.093 26.5482 99.1711 25.6172C98.249 24.6862 97.5389 23.597 97.0409 22.3495C96.5429 21.0833 96.2939 19.7148 96.2939 18.2438Z" fill="#373435"/>
<path d="M80.1318 8.07764H84.2365V27.4724H80.1318V8.07764ZM82.6291 11.4302V8.07764H86.6188C88.2071 8.07764 89.5562 8.327 90.6661 8.82572C91.7951 9.32445 92.6562 10.0356 93.2494 10.9591C93.8426 11.8827 94.1392 12.9818 94.1392 14.2563C94.1392 15.5123 93.8426 16.6113 93.2494 17.5534C92.6562 18.4769 91.7951 19.1881 90.6661 19.6868C89.5562 20.1855 88.2071 20.4349 86.6188 20.4349H82.6291V17.0824H86.6188C87.7096 17.0824 88.5707 16.8422 89.2022 16.362C89.8337 15.8817 90.1494 15.1798 90.1494 14.2563C90.1494 13.3142 89.8337 12.6123 89.2022 12.1505C88.5707 11.6703 87.7096 11.4302 86.6188 11.4302H82.6291Z" fill="#373435"/>
<path d="M70.7989 11.6517H62.5273V27.4723H58.5819V8.07751H74.7442V27.4723H70.7989V11.6517Z" fill="#373435"/>
<path fill-rule="evenodd" clip-rule="evenodd" d="M38.9436 36.8626C32.5118 46.1467 23.0271 51.9998 23.0271 51.9998C23.0271 51.9998 13.5424 46.1481 7.1106 36.8626L23.0271 29.0634L38.9436 36.8626Z" fill="#373435"/>
<path fill-rule="evenodd" clip-rule="evenodd" d="M44.5361 24.6605C43.8183 27.3712 42.7731 30.2649 41.2507 33.1093L32.8674 29.0005L23.0271 24.178L13.1869 29.0005L4.80361 33.1093C3.28119 30.2649 2.23596 27.3712 1.51819 24.6605L23.0271 14.1199L44.5361 24.6605Z" fill="#F8C71A"/>
<path fill-rule="evenodd" clip-rule="evenodd" d="M0.054429 11.257C0.054429 11.257 -0.250321 15.017 0.582395 20.2338L13.1854 14.0573L23.0256 9.23473L32.8659 14.0573L45.4689 20.2338C46.3029 15.017 45.9969 11.257 45.9969 11.257L23.0243 0L0.0517558 11.257H0.054429Z" fill="#373435"/>
</svg>
