<svg width="16" height="16" viewBox="0 0 16 16" fill="none" xmlns="http://www.w3.org/2000/svg">
<circle cx="8" cy="8" r="8" fill="#D5D5D5"/>
<path d="M7 4.02672C7 3.72668 7.09892 3.48289 7.29677 3.29536C7.49462 3.09845 7.73118 3 8.00645 3C8.28172 3 8.51398 3.09845 8.70323 3.29536C8.90108 3.48289 9 3.72668 9 4.02672C9 4.31739 8.90108 4.56118 8.70323 4.75809C8.51398 4.95499 8.28172 5.05345 8.00645 5.05345C7.73118 5.05345 7.49462 4.95499 7.29677 4.75809C7.09892 4.56118 7 4.31739 7 4.02672ZM7.18065 6.53024H8.80645V13H7.18065V6.53024Z" fill="white"/>
</svg>
