<svg width="30" height="30" viewBox="0 0 30 30" fill="none" xmlns="http://www.w3.org/2000/svg">
<path fill-rule="evenodd" clip-rule="evenodd" d="M8.93727 0H21.0614C23.4313 0.00108408 25.7039 0.943035 27.3798 2.61886C29.0556 4.29469 29.9976 6.56729 29.9986 8.93727V21.0614C29.9968 23.4312 29.0547 25.7036 27.3791 27.3795C25.7034 29.0553 23.4312 29.9978 21.0614 30H8.93727C6.56728 29.9982 4.29489 29.0558 2.61918 27.3799C0.943468 25.7039 0.00144465 23.4314 0 21.0614V8.93727C0.00180581 6.56751 0.943989 4.29533 2.61966 2.61966C4.29533 0.943989 6.56751 0.00180581 8.93727 0ZM25.2477 25.2477C26.358 24.1374 26.9819 22.6316 26.9823 21.0614L26.9809 8.93727C26.9805 7.36742 26.3568 5.86197 25.2467 4.75192C24.1367 3.64187 22.6312 3.01809 21.0614 3.01773H8.93727C8.15986 3.01755 7.39002 3.17054 6.67175 3.46796C5.95347 3.76538 5.30084 4.20141 4.75112 4.75112C4.20141 5.30084 3.76538 5.95347 3.46796 6.67175C3.17054 7.39002 3.01755 8.15986 3.01773 8.93727V21.0614C3.01755 21.8388 3.17053 22.6087 3.46793 23.3271C3.76534 24.0454 4.20134 24.6982 4.75104 25.248C5.30074 25.7978 5.95336 26.234 6.67165 26.5315C7.38993 26.8291 8.15979 26.9823 8.93727 26.9823H21.0614C22.6316 26.9819 24.1374 26.358 25.2477 25.2477ZM7.24365 15.0006C7.24365 10.7229 10.7209 7.24424 15 7.24424C19.2791 7.24424 22.7564 10.7229 22.7564 15.0006C22.7564 19.2783 19.2777 22.757 15 22.757C10.7223 22.757 7.24365 19.2783 7.24365 15.0006ZM11.6491 18.3518C12.5379 19.2403 13.7433 19.7394 15 19.7392C16.2568 19.7391 17.462 19.2396 18.3505 18.3508C19.2391 17.462 19.7382 16.2567 19.738 14.9999C19.7378 13.7432 19.2384 12.5379 18.3496 11.6494C17.4608 10.7609 16.2554 10.2618 14.9987 10.262C13.7419 10.2621 12.5367 10.7616 11.6481 11.6504C10.7596 12.5392 10.2605 13.7445 10.2607 15.0013C10.2609 16.258 10.7603 17.4633 11.6491 18.3518ZM23.8048 5.75668C23.4994 5.55234 23.1402 5.44314 22.7727 5.44287C21.6082 5.44287 20.9127 6.27742 20.9127 7.30287C20.913 7.67036 21.0222 8.02952 21.2265 8.33496C21.4309 8.6404 21.7212 8.87842 22.0607 9.01892C22.4003 9.15943 22.7739 9.19612 23.1343 9.12436C23.4947 9.0526 23.8258 8.87561 24.0856 8.61576C24.3455 8.35591 24.5225 8.02486 24.5942 7.66444C24.666 7.30403 24.6293 6.93043 24.4888 6.59087C24.3483 6.2513 24.1103 5.96101 23.8048 5.75668Z" fill="white"/>
</svg>
