<svg width="16" height="20" viewBox="0 0 16 20" fill="none" xmlns="http://www.w3.org/2000/svg">
<path fill-rule="evenodd" clip-rule="evenodd" d="M0 3C0 1.34315 1.34315 0 3 0H13C14.6569 0 16 1.34315 16 3V17C16 18.6569 14.6569 20 13 20H3C1.34315 20 0 18.6569 0 17V14C0 13.4477 0.447715 13 1 13C1.55228 13 2 13.4477 2 14V17C2 17.5523 2.44771 18 3 18H13C13.5523 18 14 17.5523 14 17V3C14 2.44771 13.5523 2 13 2H3C2.44771 2 2 2.44771 2 3V8C2 8.55231 2.44771 9 3 9H7.58579L6.29289 7.70711C5.90237 7.31658 5.90237 6.68342 6.29289 6.29289C6.68342 5.90237 7.31658 5.90237 7.70711 6.29289L10.7071 9.29289C11.0976 9.68342 11.0976 10.3166 10.7071 10.7071L7.70711 13.7071C7.31658 14.0976 6.68342 14.0976 6.29289 13.7071C5.90237 13.3166 5.90237 12.6834 6.29289 12.2929L7.58579 11H3C1.34315 11 0 9.65689 0 8V3Z" fill="#373435"/>
</svg>
