<svg width="71" height="79" viewBox="0 0 71 79" fill="none" xmlns="http://www.w3.org/2000/svg">
<path fill-rule="evenodd" clip-rule="evenodd" d="M59.3631 55.9515C49.6222 70.0123 35.2577 78.8767 35.2577 78.8767C35.2577 78.8767 20.8933 70.0143 11.1523 55.9515L35.2577 44.1396L59.3631 55.9515Z" fill="#373435"/>
<path fill-rule="evenodd" clip-rule="evenodd" d="M67.8338 37.4715C66.7467 41.5768 65.1637 45.9594 62.858 50.2671L50.1616 44.0444L35.2587 36.7407L20.3558 44.0444L7.65933 50.2671C5.35365 45.9594 3.77064 41.5768 2.68359 37.4715L35.2587 21.5078L67.8338 37.4715Z" fill="#F8C71A"/>
<path fill-rule="evenodd" clip-rule="evenodd" d="M0.465245 17.1717C0.465245 17.1717 0.00370362 22.8661 1.26484 30.7669L20.352 21.4126L35.2549 14.109L50.1578 21.4126L69.245 30.7669C70.5082 22.8661 70.0446 17.1717 70.0446 17.1717L35.2529 0.123047L0.461196 17.1717H0.465245Z" fill="#373435"/>
</svg>
