<svg width="18" height="18" viewBox="0 0 18 18" fill="none" xmlns="http://www.w3.org/2000/svg">
<path fill-rule="evenodd" clip-rule="evenodd" d="M5.47573 0.262024C4.47321 0.262024 3.61566 0.91647 3.2901 1.8141H0.817999C0.61198 1.8141 0.414399 1.89594 0.268722 2.04161C0.123045 2.18729 0.0412046 2.38487 0.0412046 2.59089C0.0412046 2.79691 0.123045 2.99449 0.268722 3.14017C0.414399 3.28584 0.61198 3.36768 0.817999 3.36768H3.28858C3.61287 4.26614 4.47152 4.91976 5.47573 4.91976C6.47983 4.91976 7.33396 4.26598 7.65682 3.36768H16.3372C16.5432 3.36768 16.7408 3.28584 16.8865 3.14017C17.0322 2.99449 17.114 2.79691 17.114 2.59089C17.114 2.38487 17.0322 2.18729 16.8865 2.04161C16.7408 1.89594 16.5432 1.8141 16.3372 1.8141H7.6553C7.33117 0.916628 6.47814 0.262024 5.47573 0.262024ZM8.58139 6.47183C7.5768 6.47183 6.71672 7.12489 6.39273 8.0239H0.817999C0.791239 8.02252 0.764426 8.02252 0.737667 8.0239C0.531648 8.03455 0.338299 8.12661 0.200155 8.27982C0.0620103 8.43303 -0.00961392 8.63484 0.00103874 8.84086C0.0116914 9.04688 0.103748 9.24023 0.256958 9.37837C0.410168 9.51652 0.61198 9.58814 0.817999 9.57749H6.39576C6.72151 10.4748 7.57912 11.1296 8.58139 11.1296C9.58367 11.1296 10.4367 10.4748 10.761 9.57749H16.3372C16.5432 9.57749 16.7408 9.49565 16.8865 9.34997C17.0322 9.2043 17.114 9.00671 17.114 8.8007C17.114 8.59468 17.0322 8.3971 16.8865 8.25142C16.7408 8.10574 16.5432 8.0239 16.3372 8.0239H10.764C10.4415 7.12489 9.58599 6.47183 8.58139 6.47183ZM11.6795 12.6816C10.6749 12.6816 9.81935 13.3347 9.49687 14.2337H0.817999C0.791239 14.2323 0.764426 14.2323 0.737667 14.2337C0.531648 14.2444 0.338299 14.3364 0.200155 14.4896C0.0620103 14.6428 -0.00961392 14.8446 0.00103874 15.0507C0.0116914 15.2567 0.103748 15.45 0.256958 15.5882C0.410168 15.7263 0.61198 15.7979 0.817999 15.7873H9.4999C9.82413 16.6846 10.6772 17.3394 11.6795 17.3394C12.6817 17.3394 13.5394 16.6846 13.8651 15.7873H16.3372C16.5432 15.7873 16.7408 15.7055 16.8865 15.5598C17.0322 15.4141 17.114 15.2165 17.114 15.0105C17.114 14.8045 17.0322 14.6069 16.8865 14.4612C16.7408 14.3155 16.5432 14.2337 16.3372 14.2337H13.8681C13.5441 13.3347 12.6841 12.6816 11.6795 12.6816Z" fill="#989898"/>
</svg>
