<svg width="14" height="14" viewBox="0 0 14 14" fill="none" xmlns="http://www.w3.org/2000/svg">
<path d="M10.4216 14C9.35532 14 8.04717 13.509 6.60598 12.5416C3.69208 10.5862 0.282049 6.57327 0.0177538 3.86171C-0.0667556 2.99448 0.150713 2.29474 0.664264 1.78119L2.44546 0L6.07235 3.62689L5.78234 3.91691C5.31972 4.37961 4.56161 5.1361 4.0196 5.67443C4.5182 6.40664 5.4807 7.48868 6.19087 8.19885C6.8631 8.87048 7.64095 9.48187 8.34197 9.95013C8.84698 9.4418 9.52673 8.76 10.0827 8.20287L10.3731 7.9126L14 11.5403L12.2404 13.2998C11.7722 13.7681 11.1541 14 10.4216 14Z" fill="#F8C71A"/>
</svg>
