<svg width="23" height="21" viewBox="0 0 23 21" fill="none" xmlns="http://www.w3.org/2000/svg">
<path fill-rule="evenodd" clip-rule="evenodd" d="M20 1C20 0.44772 19.5523 0 19 0C18.4477 0 18 0.44772 18 1V3H16C15.4477 3 15 3.44772 15 4C15 4.55228 15.4477 5 16 5H18V7C18 7.55228 18.4477 8 19 8C19.5523 8 20 7.55228 20 7V5H22C22.5523 5 23 4.55228 23 4C23 3.44772 22.5523 3 22 3H20V1ZM8.32843 3C7.53278 3 6.76972 3.31607 6.20711 3.87868L5.37868 4.70711C5.19114 4.89464 4.93679 5 4.67157 5H3C1.34315 5 0 6.34315 0 8V18C0 19.6569 1.34315 21 3 21H17C18.6569 21 20 19.6569 20 18V11C20 10.4477 19.5523 10 19 10C18.4477 10 18 10.4477 18 11V18C18 18.5523 17.5523 19 17 19H3C2.44772 19 2 18.5523 2 18V8C2 7.44772 2.44772 7 3 7H4.67157C5.46722 7 6.23028 6.68393 6.79289 6.12132L7.62132 5.29289C7.80886 5.10536 8.06321 5 8.32843 5H12C12.5523 5 13 4.55228 13 4C13 3.44772 12.5523 3 12 3H8.32843ZM10.5 8C8.01472 8 6 10.0147 6 12.5C6 14.9853 8.01472 17 10.5 17C12.9853 17 15 14.9853 15 12.5C15 10.0147 12.9853 8 10.5 8ZM7.8 12.5C7.8 11.0088 9.00883 9.8 10.5 9.8C11.9912 9.8 13.2 11.0088 13.2 12.5C13.2 13.9912 11.9912 15.2 10.5 15.2C9.00883 15.2 7.8 13.9912 7.8 12.5Z" fill="#F8C71A"/>
</svg>
