<svg width="128" height="144" viewBox="0 0 128 144" fill="none" xmlns="http://www.w3.org/2000/svg">
<path d="M20.0167 142.06L8.54802 135.387C7.10534 134.55 6.17499 132.853 6.03527 130.458L1.61523 51.9619L13.0839 58.635L17.5051 137.108C17.6675 139.526 18.5979 141.223 20.0167 142.06Z" fill="#F8C71A"/>
<path d="M20.0164 142.956C19.8636 142.956 19.7087 142.917 19.5668 142.834L8.09997 136.158C6.3471 135.143 5.29494 133.135 5.14214 130.509L0.723941 52.0118C0.706478 51.6844 0.868013 51.3722 1.14961 51.1998C1.4312 51.0273 1.78047 51.023 2.06643 51.1889L13.5332 57.862C13.793 58.0126 13.9589 58.2855 13.9764 58.5846L18.3989 137.058C18.5343 139.075 19.2699 140.581 20.4705 141.29C20.8962 141.541 21.0359 142.089 20.787 142.513C20.6211 142.797 20.3221 142.956 20.0164 142.956ZM2.60342 53.5704L6.92775 130.406C7.04563 132.413 7.77909 133.906 8.99715 134.613L16.9713 139.254C16.7836 138.614 16.6635 137.916 16.6133 137.167L12.2169 59.1652L2.60342 53.5704Z" fill="#373435"/>
<path d="M86.553 8.62152C84.9717 7.71469 82.8077 7.83092 80.3881 9.22607L21.6918 43.103L10.1992 36.4298L68.8956 2.55301C71.3152 1.15786 73.5019 1.04163 75.0604 1.94846L86.553 8.62152Z" fill="#F8C71A"/>
<path d="M21.6927 43.9982C21.5377 43.9982 21.3827 43.9567 21.243 43.876L9.75 37.2028C9.47495 37.0435 9.30469 36.7488 9.30469 36.4279C9.30687 36.1092 9.47714 35.8145 9.75218 35.6552L68.4483 1.77867C71.0743 0.26592 73.5825 0.0541781 75.51 1.17619L87.003 7.84933C87.4286 8.096 87.5749 8.64172 87.3282 9.06957C87.0794 9.49742 86.5293 9.64149 86.108 9.39701C84.7437 8.61116 82.8708 8.82945 80.8341 10.0017L22.1402 43.8782C22.0005 43.9567 21.8477 43.9982 21.6927 43.9982ZM11.9853 36.4323L21.6949 42.0707L79.9413 8.45181C80.845 7.93228 81.7335 7.56555 82.5913 7.35599L74.6106 2.72169C73.2594 1.93148 71.3887 2.14977 69.3411 3.32853L11.9853 36.4323Z" fill="#373435"/>
<path d="M13.0847 58.6341L1.607 51.9678C1.27893 46.4333 5.21631 39.3089 10.207 36.4292L21.6847 43.0955C16.694 45.9752 12.7566 53.0996 13.0847 58.6341Z" fill="#F8C71A"/>
<path d="M13.084 59.5295C12.929 59.5295 12.774 59.488 12.6343 59.4072L1.15661 52.7406C0.899029 52.59 0.730946 52.3193 0.713428 52.0203C0.368584 46.1788 4.51174 38.6849 9.75944 35.655C10.0388 35.4979 10.3772 35.4957 10.6566 35.6572L22.1343 42.3238C22.4094 42.4832 22.5796 42.7779 22.5796 43.0987C22.5775 43.4175 22.4072 43.7121 22.1321 43.8715C17.4018 46.6001 13.6668 53.3366 13.9768 58.5821C13.9965 58.9095 13.8327 59.2239 13.5533 59.3963C13.4093 59.4836 13.2477 59.5295 13.084 59.5295ZM2.48164 51.4418L12.2043 57.089C12.5579 52.0377 15.7973 46.2247 19.9842 43.1424L10.2178 37.469C5.83458 40.261 2.41396 46.4386 2.48164 51.4418Z" fill="#373435"/>
<path d="M80.3848 9.22416C85.3755 6.34444 89.3557 8.90023 89.06 14.7946L85.0853 98.1271C84.8036 103.535 81.0422 109.789 76.4673 112.429L26.1728 141.45C21.5979 144.089 17.8133 142.19 17.5164 137.116L13.0836 58.6344C12.7555 53.0999 16.6929 45.9755 21.6836 43.0958L80.3848 9.22416Z" fill="white"/>
<path d="M89.069 14.7881L85.0909 98.1201C84.8115 103.538 81.0423 109.792 76.4599 112.42L26.1855 141.46C21.6019 144.088 17.8101 142.181 17.5068 137.112L16.832 124.975C19.4618 125.417 22.137 125.649 24.8587 125.649C55.056 125.649 79.5531 97.2598 79.5531 62.2669C79.5531 45.2703 73.7847 29.8316 64.3619 18.4619L80.3914 9.23109C85.3692 6.34798 89.3485 8.90554 89.069 14.7881Z" fill="white"/>
<path d="M22.2879 143.534C21.358 143.534 20.4892 143.325 19.7077 142.906C17.8784 141.919 16.7848 139.88 16.6254 137.167L12.1919 58.6848C11.8471 52.8455 15.9902 45.3516 21.2379 42.3217L79.9384 8.4496C82.6103 6.91065 85.149 6.71855 87.0961 7.90824C89.0738 9.11756 90.1151 11.6432 89.9536 14.8411L85.9807 98.1713C85.6794 103.934 81.7808 110.396 76.9172 113.203L26.6209 142.225C25.1126 143.093 23.6369 143.534 22.2879 143.534ZM80.8334 9.99946L22.1329 43.8716C17.4025 46.6002 13.6676 53.3367 13.9776 58.5822L18.411 137.064C18.5311 139.134 19.2951 140.651 20.5568 141.332C21.9015 142.05 23.7373 141.821 25.726 140.675L76.0223 111.653C80.3357 109.164 83.9266 103.203 84.195 98.0818L88.1679 14.7516C88.2945 12.2282 87.5633 10.292 86.164 9.43409C84.7975 8.60022 82.905 8.80104 80.8334 9.99946Z" fill="#373435"/>
<path d="M79.452 28.2026L78.6767 48.3597C78.5652 50.6879 77.2768 52.7997 75.257 53.9651L28.4522 80.9686C26.3423 82.186 23.6891 80.7523 23.553 78.3212L22.6868 58.8939C22.5936 56.9873 24.5475 53.151 26.6649 51.9419L73.7983 24.738C76.3815 23.2501 79.6144 25.2263 79.452 28.2026Z" fill="white"/>
<path d="M26.8181 82.3039C26.1392 82.3039 25.4604 82.1358 24.8361 81.7996C23.5547 81.1054 22.7405 79.8241 22.6597 78.3703L21.7931 58.9337C21.6839 56.7093 23.8123 52.54 26.2222 51.1647L73.3511 23.9636C74.8551 23.0991 76.6407 23.1231 78.1273 24.0378C79.6073 24.9459 80.4368 26.5197 80.3451 28.2442L79.568 48.3946C79.4414 51.0469 77.9963 53.4153 75.7043 54.7403L28.8984 81.7429C28.2501 82.1161 27.5341 82.3039 26.8181 82.3039ZM75.6759 25.1249C75.1847 25.1249 74.6958 25.2537 74.2461 25.5134L27.1128 52.7168C25.3447 53.7253 23.5001 57.2332 23.5787 58.8507L24.4453 78.2808C24.4912 79.0994 24.9561 79.8306 25.6874 80.2257C26.423 80.623 27.2875 80.6099 28.0034 80.193L74.8093 53.1905C76.5731 52.1732 77.6842 50.3505 77.7824 48.316L78.5595 28.1678C78.5595 28.1635 78.5595 28.1591 78.5595 28.1547C78.6163 27.0917 78.1055 26.1224 77.193 25.5614C76.7193 25.2711 76.1976 25.1249 75.6759 25.1249Z" fill="#373435"/>
<path d="M35.4711 89.0738C36.6117 88.4157 37.5383 88.9432 37.542 90.2533L37.5699 98.0036C37.5736 99.3136 36.653 100.907 35.5124 101.565L26.9621 106.499C25.8209 107.157 24.8949 106.629 24.8911 105.319L24.8633 97.5692C24.8596 96.2591 25.7796 94.6659 26.9208 94.0075L35.4711 89.0738Z" fill="#F8C71A"/>
<path d="M26.0316 107.676C25.6802 107.676 25.3484 107.591 25.0515 107.42C24.3857 107.038 24.0015 106.272 23.9971 105.323L23.9688 97.5734C23.9644 95.9537 25.0646 94.0458 26.4747 93.2316L35.0252 88.2983C35.8547 87.8202 36.7147 87.7656 37.3849 88.1542C38.0507 88.5384 38.4348 89.3024 38.4371 90.252L38.4654 97.9991C38.4698 99.6188 37.3696 101.527 35.9595 102.341L27.4112 107.274C26.9484 107.541 26.4747 107.676 26.0316 107.676ZM35.9201 89.8481L27.3697 94.7815C26.5075 95.2792 25.7544 96.5802 25.7587 97.5669L25.7871 105.316C25.7871 105.659 25.881 105.836 25.9443 105.871C26.001 105.906 26.215 105.901 26.5162 105.724L35.0645 100.791C35.9267 100.293 36.6798 98.9923 36.6755 98.0056L36.6471 90.2585C36.6471 89.9158 36.5532 89.739 36.4921 89.704C36.4288 89.6582 36.2236 89.6713 35.9201 89.8481Z" fill="#373435"/>
<path d="M55.3266 77.6148C56.4671 76.9567 57.3938 77.4843 57.3975 78.7943L57.4254 86.5446C57.4291 87.8546 56.5084 89.4481 55.3679 90.1063L46.8175 95.04C45.6764 95.6984 44.7503 95.1705 44.7466 93.8604L44.7188 86.1102C44.715 84.8001 45.6351 83.207 46.7762 82.5485L55.3266 77.6148Z" fill="white"/>
<path d="M45.8851 96.2156C45.5337 96.2156 45.2019 96.1305 44.905 95.9602C44.2392 95.5782 43.855 94.812 43.8506 93.8625L43.8223 86.1153C43.8201 84.4934 44.9203 82.5878 46.3282 81.7735L54.8787 76.8402C55.7082 76.3621 56.5682 76.3119 57.2362 76.6917C57.9042 77.0759 58.2884 77.8421 58.2927 78.7917L58.3189 86.5432C58.3233 88.1629 57.2231 90.0686 55.8151 90.8806L47.2647 95.814C46.8019 96.0803 46.3282 96.2156 45.8851 96.2156ZM56.2539 78.2263C56.1513 78.2263 55.9876 78.2656 55.7737 78.39L47.2232 83.3234C46.3632 83.8189 45.6101 85.1221 45.6123 86.1088L45.6406 93.8559C45.6406 94.1986 45.7345 94.3755 45.7978 94.4104C45.8546 94.4453 46.0663 94.4388 46.3697 94.2641L54.9201 89.3308C55.7824 88.8352 56.5333 87.5342 56.529 86.5476L56.5028 78.7961C56.5028 78.4577 56.4089 78.2787 56.3456 78.2438C56.3259 78.2329 56.2954 78.2263 56.2539 78.2263Z" fill="#373435"/>
<path d="M75.1801 66.1553C76.3206 65.4972 77.2473 66.0248 77.251 67.3349L77.2789 75.0851C77.2826 76.3952 76.3619 77.9887 75.2214 78.6468L66.6711 83.5805C65.5299 84.239 64.6038 83.711 64.6001 82.401L64.5723 74.6507C64.5686 73.3406 65.4886 71.7475 66.6297 71.089L75.1801 66.1553Z" fill="white"/>
<path d="M65.7406 84.7576C65.3891 84.7576 65.0552 84.6725 64.7583 84.5C64.0925 84.1158 63.7083 83.3518 63.7061 82.4022L63.6777 74.6551C63.6734 73.0354 64.7736 71.1297 66.1815 70.3133L74.732 65.38C75.5615 64.9041 76.4259 64.8473 77.0917 65.2337C77.7575 65.6179 78.1417 66.3841 78.146 67.3336L78.1744 75.0808C78.1766 76.7027 77.0764 78.6083 75.6684 79.4226L67.118 84.3559C66.6552 84.6222 66.1837 84.7576 65.7406 84.7576ZM75.627 66.9298L67.0765 71.8632C66.2165 72.3609 65.4634 73.6619 65.4677 74.6486L65.4961 82.3957C65.4961 82.7384 65.59 82.9152 65.6511 82.9523C65.7166 82.9894 65.9196 82.9851 66.223 82.8061L74.7734 77.8727C75.6335 77.3772 76.3866 76.074 76.3844 75.0873L76.3561 67.338C76.3561 66.9975 76.2622 66.8207 76.1989 66.7836C76.1399 66.7486 75.9282 66.7574 75.627 66.9298Z" fill="#373435"/>
<path d="M35.4711 112.029C36.6117 111.371 37.5383 111.898 37.542 113.208L37.5699 120.959C37.5736 122.269 36.653 123.862 35.5124 124.52L26.9621 129.454C25.8209 130.112 24.8949 129.585 24.8911 128.274L24.8633 120.524C24.8596 119.214 25.7796 117.621 26.9208 116.963L35.4711 112.029Z" fill="white"/>
<path d="M26.0316 130.629C25.6802 130.629 25.3462 130.546 25.0515 130.376C24.3857 129.992 24.0015 129.225 23.9971 128.276L23.9688 120.529C23.9644 118.909 25.0646 117.001 26.4747 116.187L35.0252 111.254C35.8547 110.778 36.7147 110.719 37.3849 111.109C38.0507 111.494 38.4348 112.258 38.4371 113.207L38.4654 120.954C38.4698 122.574 37.3696 124.482 35.9595 125.296L27.4112 130.23C26.9484 130.496 26.4747 130.629 26.0316 130.629ZM35.9201 112.803L27.3697 117.737C26.5075 118.234 25.7544 119.535 25.7587 120.522L25.7871 128.271C25.7871 128.612 25.881 128.789 25.9443 128.826C26.0076 128.867 26.2193 128.852 26.5184 128.68L35.0645 123.746C35.9267 123.249 36.6798 121.948 36.6755 120.961L36.6471 113.214C36.6471 112.871 36.5532 112.694 36.4921 112.657C36.4288 112.62 36.2236 112.624 35.9201 112.803Z" fill="#373435"/>
<path d="M55.3266 100.569C56.4671 99.9113 57.3938 100.439 57.3975 101.749L57.4254 109.499C57.4291 110.809 56.5084 112.403 55.3679 113.061L46.8175 117.995C45.6764 118.653 44.7503 118.125 44.7466 116.815L44.7188 109.065C44.715 107.755 45.6351 106.162 46.7762 105.503L55.3266 100.569Z" fill="#F8C71A"/>
<path d="M45.8851 119.171C45.5337 119.171 45.2019 119.086 44.905 118.915C44.2392 118.533 43.855 117.767 43.8506 116.818L43.8223 109.068C43.8201 107.444 44.9225 105.538 46.3304 104.729L54.8787 99.7953C55.7082 99.3172 56.5682 99.267 57.2362 99.6468C57.9042 100.031 58.2884 100.797 58.2927 101.747L58.3189 109.496C58.3233 111.116 57.2231 113.024 55.8151 113.836L47.2647 118.769C46.8019 119.035 46.3282 119.171 45.8851 119.171ZM56.2539 101.181C56.1513 101.181 55.9876 101.221 55.7737 101.345L47.2232 106.278C46.3632 106.774 45.6101 108.075 45.6123 109.062L45.6406 116.811C45.6406 117.154 45.7345 117.331 45.7978 117.365C45.8546 117.4 46.0663 117.394 46.3697 117.219L54.9201 112.286C55.7824 111.79 56.5333 110.489 56.529 109.5L56.5028 101.751C56.5028 101.413 56.4089 101.234 56.3456 101.199C56.3259 101.188 56.2954 101.181 56.2539 101.181Z" fill="#373435"/>
<path d="M75.1801 89.1104C76.3206 88.4523 77.2473 88.9799 77.251 90.29L77.2789 98.0402C77.2826 99.3503 76.3619 100.944 75.2214 101.602L66.6711 106.536C65.5299 107.194 64.6038 106.666 64.6001 105.356L64.5723 97.6058C64.5686 96.2957 65.4886 94.7026 66.6297 94.0441L75.1801 89.1104Z" fill="white"/>
<path d="M65.7406 107.711C65.3891 107.711 65.0552 107.628 64.7583 107.455C64.0925 107.071 63.7083 106.307 63.7061 105.358L63.6777 97.6105C63.6734 95.9908 64.7736 94.0851 66.1815 93.2687L74.732 88.3353C75.5615 87.8573 76.4259 87.8049 77.0917 88.1891C77.7575 88.5733 78.1417 89.3373 78.146 90.2868L78.1744 98.0362C78.1766 99.6602 77.0742 101.566 75.6663 102.376L67.118 107.311C66.6552 107.578 66.1837 107.711 65.7406 107.711ZM75.627 89.8852L67.0765 94.8186C66.2165 95.3163 65.4634 96.6173 65.4677 97.6039L65.4961 105.351C65.4961 105.694 65.59 105.871 65.6511 105.906C65.7166 105.949 65.9196 105.936 66.223 105.761L74.7734 100.826C75.6335 100.33 76.3866 99.0294 76.3844 98.0427L76.3561 90.2934C76.3561 89.9529 76.2622 89.776 76.2011 89.7389C76.1334 89.7018 75.9282 89.7106 75.627 89.8852Z" fill="#373435"/>
<path d="M126.412 109.84L126.384 119.466C126.373 123.482 123.73 127.491 118.454 130.556C107.837 136.725 90.5815 136.731 79.884 130.557C74.5064 127.453 71.8205 123.379 71.8321 119.311L71.8594 109.686C71.8478 113.753 74.5337 117.827 79.9113 120.931C90.6088 127.106 107.864 127.099 118.481 120.931C123.757 117.866 126.4 113.856 126.412 109.84Z" fill="#F8C71A"/>
<path d="M99.1933 136.055C92.0486 136.055 84.8931 134.482 79.4358 131.332C73.9436 128.16 70.9247 123.89 70.9356 119.308L70.964 109.684C70.9661 109.19 71.3656 108.791 71.8589 108.791C72.3523 108.793 72.7539 109.195 72.7539 109.688C72.743 113.604 75.4433 117.322 80.3592 120.157C90.7804 126.178 107.685 126.173 118.032 120.157C122.847 117.361 125.506 113.696 125.517 109.839C125.519 109.345 125.919 108.946 126.412 108.946C126.905 108.948 127.307 109.35 127.307 109.843L127.279 119.468C127.265 123.986 124.29 128.199 118.903 131.33C113.478 134.482 106.34 136.055 99.1933 136.055ZM72.7365 115.604L72.7256 119.313C72.7146 123.229 75.4149 126.946 80.3308 129.782C90.7498 135.796 107.65 135.802 118.003 129.784C122.821 126.986 125.48 123.32 125.489 119.463L125.499 115.746C124.087 117.97 121.867 119.998 118.931 121.703C108.084 128.007 90.3809 128.009 79.4642 121.707C76.4409 119.961 74.1663 117.883 72.7365 115.604Z" fill="#373435"/>
<path d="M118.356 98.5955C129.053 104.77 129.099 114.762 118.481 120.931C107.864 127.099 90.6088 127.106 79.9114 120.931C69.2247 114.763 69.1683 104.764 79.7855 98.5956C90.4028 92.4272 107.669 92.4271 118.356 98.5955Z" fill="white"/>
<path d="M99.2204 126.431C92.0757 126.431 84.9223 124.857 79.4651 121.707C73.9904 118.546 70.9714 114.292 70.9648 109.725C70.9605 105.189 73.9314 100.963 79.3363 97.8241C90.1853 91.522 107.889 91.5199 118.803 97.8197C124.28 100.983 127.301 105.237 127.308 109.802C127.312 114.336 124.339 118.564 118.932 121.703C113.507 124.855 106.367 126.431 99.2204 126.431ZM99.0479 94.8597C92.2242 94.8597 85.4113 96.3615 80.2356 99.3696C75.4049 102.175 72.7483 105.851 72.7548 109.723C72.7592 113.624 75.4594 117.331 80.3601 120.157C90.7813 126.178 107.686 126.173 118.033 120.157C122.866 117.35 125.524 113.674 125.518 109.804C125.513 105.905 122.811 102.199 117.908 99.3696C112.7 96.3615 105.867 94.8597 99.0479 94.8597Z" fill="#373435"/>
<path d="M111.186 102.762C117.893 106.633 117.921 112.898 111.264 116.766C104.608 120.633 93.7887 120.637 87.0816 116.766C80.3813 112.898 80.346 106.629 87.0027 102.762C93.6595 98.8945 104.485 98.8945 111.186 102.762Z" fill="white"/>
<path d="M99.1891 120.541C94.6487 120.544 90.1039 119.542 86.6352 117.54C83.0967 115.497 81.143 112.729 81.1387 109.743C81.1343 106.774 83.0575 104.021 86.5523 101.989C93.4459 97.9832 104.697 97.9832 111.634 101.987C115.175 104.03 117.126 106.8 117.13 109.786C117.135 112.755 115.212 115.508 111.715 117.538C108.268 119.542 103.73 120.541 99.1891 120.541ZM99.0778 100.747C94.8604 100.747 90.6496 101.677 87.4516 103.534C84.5309 105.233 82.9243 107.435 82.9265 109.738C82.9308 112.061 84.5658 114.281 87.5302 115.99C93.9698 119.71 104.415 119.708 110.815 115.992C113.738 114.294 115.345 112.091 115.343 109.788C115.338 107.468 113.705 105.248 110.739 103.537C107.519 101.677 103.295 100.747 99.0778 100.747Z" fill="#373435"/>
<path d="M99.1525 113.569C99.2512 113.512 99.3689 113.47 99.496 113.44C100.659 113.183 101.699 112.81 102.622 112.321L99.2151 110.341C98.3628 110.628 97.5999 110.845 96.9294 110.99C96.262 111.137 95.5826 111.189 94.894 111.146C94.2055 111.104 93.5687 110.911 92.9866 110.573C92.4741 110.275 92.1269 109.926 91.9418 109.527C91.7632 109.128 91.7815 108.7 91.9967 108.246C92.212 107.788 92.643 107.338 93.2898 106.899L92.2521 106.296C92.1224 106.221 92.0594 106.132 92.0536 106.033C92.051 105.932 92.1118 105.846 92.2423 105.77C92.3697 105.697 92.5254 105.658 92.7031 105.658C92.881 105.658 93.0331 105.695 93.1628 105.77L94.1846 106.364C95.2001 105.826 96.2276 105.419 97.2702 105.151C97.6452 105.048 97.9815 105.081 98.2789 105.254C98.437 105.346 98.5252 105.46 98.5467 105.598C98.5618 105.735 98.485 105.857 98.3067 105.96C98.2461 105.995 98.1443 106.028 98.0077 106.063C97.0922 106.316 96.2365 106.656 95.4279 107.086L98.9553 109.136C99.8394 108.82 100.615 108.584 101.286 108.424C101.956 108.268 102.645 108.211 103.353 108.254C104.064 108.298 104.739 108.505 105.381 108.878C105.903 109.182 106.234 109.54 106.375 109.95C106.521 110.36 106.452 110.788 106.183 111.237C105.914 111.685 105.455 112.119 104.808 112.536L105.861 113.148C105.988 113.222 106.054 113.308 106.05 113.405C106.053 113.503 105.98 113.593 105.843 113.672C105.712 113.747 105.569 113.786 105.404 113.79C105.242 113.791 105.09 113.755 104.951 113.674L103.897 113.062C102.754 113.641 101.52 114.085 100.189 114.396C100.024 114.436 99.8395 114.447 99.6492 114.425C99.4524 114.407 99.294 114.359 99.1643 114.284C98.9967 114.186 98.9085 114.069 98.8997 113.931C98.891 113.793 98.9742 113.672 99.1525 113.569ZM103.533 111.795C104.836 110.93 104.973 110.198 103.945 109.601C103.562 109.378 103.087 109.305 102.521 109.386C101.956 109.467 101.234 109.652 100.347 109.944L103.533 111.795ZM94.5615 107.638C94.0451 108.027 93.7478 108.408 93.6727 108.777C93.5944 109.149 93.7863 109.467 94.2387 109.729C94.6753 109.983 95.1762 110.082 95.7477 110.027C96.3194 109.972 97.009 109.808 97.8232 109.533L94.5615 107.638Z" fill="#373435"/>
<path d="M126.412 94.3231L126.384 103.949C126.373 107.965 123.73 111.974 118.454 115.039C107.837 121.208 90.5815 121.214 79.884 115.04C74.5064 111.936 71.8205 107.862 71.8321 103.794L71.8594 94.1685C71.8478 98.2362 74.5337 102.31 79.9113 105.414C90.6088 111.589 107.864 111.582 118.481 105.414C123.757 102.349 126.4 98.3392 126.412 94.3231Z" fill="#F8C71A"/>
<path d="M99.1933 120.537C92.0486 120.537 84.8931 118.964 79.4358 115.814C73.9436 112.642 70.9247 108.374 70.9356 103.792L70.964 94.1658C70.9661 93.6724 71.3656 93.2729 71.8589 93.2729C72.3523 93.2751 72.7539 93.6768 72.7539 94.1701C72.743 98.0863 75.4433 101.804 80.3592 104.639C90.776 110.655 107.68 110.658 118.032 104.642C122.847 101.845 125.506 98.1779 125.517 94.3207C125.519 93.8274 125.919 93.4279 126.412 93.4279C126.905 93.4301 127.307 93.8318 127.307 94.3251L127.279 103.952C127.265 108.47 124.29 112.681 118.903 115.811C113.478 118.964 106.34 120.537 99.1933 120.537ZM72.7365 100.086L72.7256 103.797C72.7146 107.711 75.4149 111.428 80.3308 114.264C90.7498 120.278 107.65 120.284 118.003 114.266C122.821 111.467 125.48 107.802 125.489 103.947L125.499 100.23C124.087 102.454 121.867 104.482 118.931 106.187C108.082 112.491 90.3787 112.489 79.4642 106.189C76.4409 104.443 74.1663 102.365 72.7365 100.086Z" fill="#373435"/>
<path d="M118.356 83.0789C129.053 89.2534 129.099 99.2458 118.481 105.414C107.864 111.583 90.6088 111.589 79.9114 105.415C69.2247 99.2462 69.1683 89.2474 79.7855 83.079C90.4028 76.9106 107.669 76.9105 118.356 83.0789Z" fill="white"/>
<path d="M99.2226 110.915C92.0757 110.915 84.9223 109.339 79.4651 106.189C73.9904 103.029 70.9714 98.7741 70.9649 94.2096C70.9583 89.6735 73.9314 85.4453 79.3363 82.3062C90.1853 76.002 107.889 76.0042 118.803 82.3041C124.28 85.4649 127.299 89.7194 127.308 94.2817C127.314 98.8177 124.339 103.046 118.932 106.187C113.507 109.339 106.369 110.915 99.2226 110.915ZM99.0457 79.3419C92.2242 79.3419 85.4113 80.8437 80.2356 83.8517C75.4049 86.659 72.7483 90.335 72.7548 94.2074C72.7592 98.1061 75.4595 101.813 80.3601 104.64C90.7813 110.656 107.681 110.658 118.033 104.642C122.866 101.835 125.524 98.1563 125.518 94.286C125.513 90.3874 122.811 86.6808 117.908 83.8539C112.698 80.8459 105.867 79.3419 99.0457 79.3419Z" fill="#373435"/>
<path d="M111.186 87.2448C117.893 91.1161 117.921 97.3811 111.264 101.249C104.608 105.116 93.7887 105.12 87.0816 101.249C80.3813 97.3814 80.346 91.1123 87.0027 87.2449C93.6595 83.3774 104.485 83.3774 111.186 87.2448Z" fill="white"/>
<path d="M99.1891 105.026C94.6465 105.026 90.1039 104.024 86.6352 102.024C83.0967 99.9813 81.143 97.2112 81.1387 94.2228C81.1343 91.2562 83.0575 88.5014 86.5523 86.4713C93.4459 82.4678 104.697 82.47 111.634 86.4691C115.175 88.5145 117.126 91.2846 117.13 94.2686C117.135 97.2374 115.212 99.99 111.715 102.022C108.268 104.024 103.73 105.026 99.1891 105.026ZM99.0778 85.2314C94.8604 85.2314 90.6496 86.1591 87.4516 88.0168C84.5309 89.7151 82.9243 91.9176 82.9265 94.2206C82.9308 96.5432 84.5658 98.7632 87.5302 100.475C93.9698 104.194 104.415 104.192 110.815 100.477C113.738 98.7785 115.345 96.5738 115.343 94.273C115.338 91.9526 113.703 89.7304 110.739 88.019C107.519 86.1591 103.295 85.2314 99.0778 85.2314Z" fill="#373435"/>
<path d="M99.1525 98.0518C99.2512 97.9948 99.3689 97.9526 99.496 97.9232C100.659 97.6659 101.699 97.2928 102.622 96.8038L99.2151 94.8243C98.3628 95.1111 97.5999 95.3279 96.9294 95.4731C96.262 95.6202 95.5826 95.6716 94.894 95.6293C94.2055 95.5871 93.5687 95.3941 92.9866 95.0559C92.4741 94.7581 92.1269 94.4089 91.9418 94.0101C91.7632 93.6112 91.7815 93.183 91.9967 92.729C92.212 92.2713 92.643 91.821 93.2898 91.3818L92.2521 90.7789C92.1224 90.7036 92.0594 90.6153 92.0536 90.5161C92.051 90.415 92.1118 90.3286 92.2423 90.2533C92.3697 90.1798 92.5254 90.1412 92.7031 90.1412C92.881 90.1411 93.0331 90.1779 93.1628 90.2533L94.1846 90.8469C95.2001 90.3084 96.2276 89.9023 97.2702 89.6339C97.6452 89.531 97.9815 89.5641 98.2789 89.7368C98.437 89.8287 98.5252 89.9427 98.5467 90.0805C98.5618 90.2184 98.485 90.3397 98.3067 90.4426C98.2461 90.4775 98.1443 90.5106 98.0077 90.5455C97.0922 90.7992 96.2365 91.1392 95.4279 91.5693L98.9553 93.6186C99.8394 93.3025 100.615 93.0672 101.286 92.9073C101.956 92.7511 102.645 92.6941 103.353 92.7364C104.064 92.7806 104.739 92.9882 105.381 93.3613C105.903 93.6646 106.234 94.023 106.375 94.4329C106.521 94.8427 106.452 95.271 106.183 95.7195C105.914 96.1679 105.455 96.6017 104.808 97.0189L105.861 97.6309C105.988 97.7045 106.054 97.7909 106.05 97.8883C106.053 97.9857 105.98 98.0757 105.843 98.1548C105.712 98.2301 105.569 98.2687 105.404 98.2724C105.242 98.2742 105.09 98.2375 104.951 98.1566L103.897 97.5445C102.754 98.1235 101.52 98.5683 100.189 98.8789C100.024 98.9194 99.8395 98.9304 99.6492 98.9083C99.4524 98.89 99.294 98.8421 99.1643 98.7668C98.9967 98.6694 98.9085 98.5517 98.8997 98.4139C98.891 98.276 98.9742 98.1547 99.1525 98.0518ZM103.533 96.2782C104.836 95.4125 104.973 94.681 103.945 94.0837C103.562 93.8613 103.087 93.7878 102.521 93.8686C101.956 93.9495 101.234 94.1351 100.347 94.4273L103.533 96.2782ZM94.5615 92.1206C94.0451 92.5103 93.7478 92.8908 93.6727 93.2602C93.5944 93.6315 93.7863 93.9494 94.2387 94.2123C94.6753 94.4659 95.1762 94.5651 95.7477 94.51C96.3194 94.4549 97.009 94.2913 97.8232 94.0156L94.5615 92.1206Z" fill="#373435"/>
<path d="M37.2718 55.8715C38.038 56.6499 38.4264 58.0659 38.4322 60.1276C38.4381 62.1948 38.059 64.0536 37.2997 65.7068C36.5407 67.3598 35.4481 68.6005 34.0224 69.4232C32.5822 70.2542 31.4816 70.279 30.7203 69.5032C29.9636 68.7248 29.5801 67.306 29.5743 65.2388C29.5684 63.1771 29.9426 61.3211 30.6924 59.668C31.4468 58.0176 32.544 56.7797 33.9841 55.9487C35.4099 55.126 36.5059 55.0984 37.2718 55.8715ZM36.1928 65.2176C36.6972 64.0111 36.9493 62.6016 36.9447 60.9859C36.9402 59.3866 36.6809 58.2776 36.1713 57.6562C35.6619 57.0347 34.9359 56.996 33.9887 57.5426C33.0411 58.0893 32.3131 58.9671 31.8089 60.1734C31.3045 61.3799 31.057 62.7814 31.0615 64.3807C31.0661 65.9963 31.3207 67.1135 31.8304 67.7348C32.3397 68.3563 33.0704 68.3924 34.0179 67.8456C34.9652 67.299 35.6886 66.4239 36.1928 65.2176Z" fill="#373435"/>
<path d="M41.3525 62.8446C41.5987 62.7025 41.817 62.6801 41.9977 62.7829C42.1782 62.8858 42.2688 63.0787 42.2696 63.367L42.27 63.4813C42.2708 63.7641 42.1815 64.0663 42.0022 64.3768C41.8227 64.6874 41.605 64.9165 41.3588 65.0586L41.1931 65.1543C40.942 65.2991 40.7284 65.3188 40.5479 65.2159C40.3674 65.113 40.2765 64.9148 40.2757 64.632L40.2754 64.5177C40.2746 64.2294 40.3641 63.9326 40.5434 63.6221C40.7227 63.3115 40.9357 63.0851 41.1868 62.9402L41.3525 62.8446Z" fill="#373435"/>
<path d="M48.9009 47.5268C49.1189 47.401 49.3039 47.3869 49.4606 47.4708C49.6128 47.5574 49.6892 47.7258 49.6899 47.976L49.72 58.5783L51.3351 57.6463C51.534 57.5315 51.7 57.5175 51.838 57.5905C51.971 57.6717 52.0425 57.8212 52.0431 58.0442C52.0438 58.2727 51.9734 58.4986 51.8412 58.7274C51.7041 58.959 51.5386 59.1254 51.3397 59.2402L46.2903 62.1537C46.096 62.2658 45.9301 62.2908 45.8017 62.2123C45.6686 62.1365 45.6018 61.9898 45.6012 61.7613C45.6005 61.5383 45.6663 61.3096 45.7984 61.0754C45.926 60.8492 46.0915 60.672 46.2858 60.5599L48.2325 59.4366L48.2055 49.9223L46.5408 51.8255C46.3894 51.9837 46.2618 52.0955 46.167 52.1502C45.9585 52.2704 45.7877 52.2927 45.6595 52.2196C45.5265 52.1438 45.4597 51.9916 45.459 51.7523C45.458 51.4041 45.5994 51.061 45.8829 50.734L48.1008 48.1247C48.2522 47.9447 48.4083 47.8111 48.5599 47.7236L48.9009 47.5268Z" fill="#373435"/>
<path d="M59.1646 41.6039C59.3825 41.4782 59.5676 41.464 59.7197 41.5506C59.8718 41.6372 59.948 41.8057 59.9487 42.056L59.9787 52.6582L61.5988 51.7234C61.7931 51.6113 61.9591 51.5973 62.097 51.6702C62.2347 51.7488 62.3015 51.901 62.3022 52.124C62.3028 52.3525 62.237 52.5757 62.1002 52.8072C61.9632 53.0388 61.7976 53.2052 61.6033 53.3173L56.554 56.2308C56.3597 56.3429 56.1938 56.3679 56.0607 56.2921C55.9323 56.2136 55.8655 56.0669 55.8648 55.8384C55.8642 55.6154 55.93 55.3868 56.0575 55.1551C56.1897 54.9263 56.3552 54.7491 56.5495 54.637L58.4915 53.5164L58.4646 44.0021L56.8045 45.9026C56.6485 46.0635 56.5255 46.1726 56.426 46.23C56.2222 46.3475 56.0516 46.3697 55.9183 46.2995C55.7902 46.2209 55.7233 46.0687 55.7227 45.8294C55.7217 45.4812 55.863 45.1381 56.1468 44.8109L58.3645 42.2018C58.5158 42.0218 58.6673 41.8908 58.8189 41.8033L59.1646 41.6039Z" fill="#373435"/>
<path d="M69.4246 35.6835C69.6426 35.5578 69.8276 35.5436 69.9843 35.6275C70.1365 35.7141 70.2129 35.8825 70.2136 36.1328L70.2436 46.735L71.8588 45.803C72.0577 45.6883 72.2237 45.6742 72.3616 45.7472C72.4947 45.8284 72.5662 45.9779 72.5668 46.2009C72.5674 46.4294 72.497 46.6553 72.3649 46.8841C72.2278 47.1158 72.0623 47.2821 71.8634 47.3969L66.8138 50.3106C66.6197 50.4226 66.4584 50.4448 66.3254 50.369C66.1923 50.2932 66.1301 50.1439 66.1295 49.9154C66.1288 49.6924 66.19 49.4664 66.3221 49.2321C66.4543 49.0033 66.6152 48.8287 66.8092 48.7167L68.7562 47.5933L68.7292 38.079L67.0645 39.9822C66.9131 40.1404 66.7852 40.2523 66.6907 40.3069C66.4822 40.4272 66.3114 40.4495 66.1832 40.3763C66.05 40.3007 65.9831 40.1485 65.9824 39.9092C65.9814 39.561 66.1228 39.2179 66.4066 38.8907L68.6245 36.2814C68.7758 36.1015 68.932 35.9678 69.0836 35.8803L69.4246 35.6835Z" fill="#373435"/>
</svg>
