<svg width="160" height="157" viewBox="0 0 160 157" fill="none" xmlns="http://www.w3.org/2000/svg">
<path d="M100.651 95.6135L100.604 110.193C100.623 104.361 96.2964 98.52 87.634 94.0695C70.458 85.2451 42.6655 85.2542 25.5641 94.0981C17.0863 98.4822 12.8427 104.222 12.8243 109.97L12.8708 95.3903C12.8891 89.6423 17.1327 83.903 25.6105 79.5188C42.712 70.675 70.5045 70.6658 87.6805 79.4903C96.3428 83.9407 100.669 89.7816 100.651 95.6135Z" fill="#F8C71A"/>
<path d="M100.604 111.169C99.9966 111.167 99.5033 110.73 99.5033 110.192C99.5221 104.465 95.1107 99.0395 87.0822 94.9129C70.2309 86.2544 42.8819 86.2687 26.1193 94.9415C18.2749 98.999 13.9441 104.337 13.9253 109.972C13.924 110.511 13.4307 110.947 12.8245 110.947C12.2156 110.945 11.7223 110.506 11.7236 109.968L11.7693 95.3873C11.7895 89.0317 16.5087 83.0956 25.056 78.6757C42.4356 69.6882 70.7752 69.6739 88.2328 78.6471C96.9696 83.1361 101.772 89.1628 101.752 95.6162L101.705 110.194C101.704 110.733 101.21 111.169 100.604 111.169ZM56.6068 86.5047C68.0346 86.5047 79.465 88.7432 88.1871 93.2251C93.4722 95.9404 97.3177 99.2183 99.5275 102.813L99.5503 95.6114C99.5678 89.8851 95.1564 84.4592 87.1279 80.335C70.2792 71.6788 42.9316 71.6907 26.1663 80.3636C18.3206 84.4187 13.9898 89.7564 13.971 95.3921L13.9482 102.608C16.1324 99.1015 19.8825 95.9046 25.009 93.2537C33.7069 88.7551 45.1548 86.5047 56.6068 86.5047Z" fill="#373435"/>
<path d="M112.373 95.6431L112.327 109.941C112.304 117.234 106.917 124.517 96.1535 130.083C74.5238 141.268 39.3118 141.259 17.5047 130.055C6.5494 124.427 1.07789 117.037 1.10139 109.659L1.14691 95.3608C1.12344 102.739 6.59495 110.129 17.5503 115.757C39.3574 126.961 74.5694 126.97 96.1991 115.785C106.962 110.219 112.35 102.937 112.373 95.6431Z" fill="#F8C71A"/>
<path d="M56.932 139.414C42.4772 139.414 28.001 136.577 16.9522 130.899C5.99489 125.27 -0.0254577 117.725 8.09191e-05 109.655L0.0457813 95.3587C0.0471255 94.8199 0.540421 94.3837 1.14662 94.3837C1.75551 94.3861 2.24881 94.8247 2.24746 95.3635C2.22461 102.706 7.85517 109.648 18.1028 114.914C39.5672 125.938 74.3546 125.954 95.6442 114.941C105.7 109.741 111.25 102.885 111.272 95.64C111.274 95.1012 111.767 94.665 112.373 94.665C112.982 94.6674 113.475 95.106 113.474 95.6448L113.428 109.944C113.404 117.911 107.466 125.363 96.7088 130.927C85.7676 136.585 71.3599 139.414 56.932 139.414ZM2.22193 103.631L2.20176 109.66C2.17891 117.003 7.80947 123.945 18.0571 129.211C39.5188 140.237 74.3035 140.249 95.5985 129.24C105.654 124.04 111.204 117.184 111.227 109.939L111.246 103.903C108.607 108.683 103.679 113.045 96.7545 116.628C74.8519 127.952 39.0752 127.945 16.9979 116.602C9.90093 112.957 4.87524 108.506 2.22193 103.631Z" fill="#373435"/>
<path d="M95.9422 75.2181C117.749 86.4219 117.865 104.581 96.1993 115.785C74.5696 126.97 39.3576 126.961 17.5505 115.757C-4.22045 104.572 -4.33494 86.4318 17.2948 75.2462C38.9601 64.0423 74.1713 64.0328 95.9422 75.2181ZM25.8125 111.485C43.0263 120.329 70.8185 120.338 87.8839 111.513C104.985 102.669 104.894 88.3342 87.6806 79.4903C70.5046 70.6658 42.7121 70.675 25.6106 79.5188C8.54523 88.344 8.63649 102.66 25.8125 111.485Z" fill="white"/>
<path d="M56.9751 125.115C42.5217 125.115 28.0455 122.278 16.9981 116.602C6.07971 110.993 0.0593582 103.474 0.0459169 95.4326C0.0338198 87.4439 5.96277 79.975 16.74 74.4013C38.6708 63.0632 74.4488 63.0441 96.4952 74.3751C107.431 79.9917 113.461 87.5178 113.474 95.5685C113.488 103.567 107.549 111.045 96.7546 116.628C85.8121 122.286 71.4057 125.115 56.9751 125.115ZM56.6136 67.812C42.5607 67.812 28.5199 70.5703 17.8502 76.0891C7.77735 81.2981 2.23685 88.1663 2.24894 95.4302C2.2597 102.747 7.89025 109.667 18.1029 114.914C39.5673 125.938 74.3547 125.954 95.6444 114.941C105.735 109.722 111.285 102.844 111.273 95.5709C111.26 88.2473 105.621 81.3195 95.3904 76.0629C84.683 70.5631 70.6422 67.812 56.6136 67.812ZM56.9402 119.077C45.4882 119.077 34.0147 116.826 25.2604 112.328C16.572 107.865 11.7802 101.872 11.7694 95.4493C11.7587 89.0698 16.4779 83.1123 25.0561 78.6757C42.4357 69.6882 70.7753 69.6739 88.2329 78.6471C96.9401 83.1194 101.741 89.1223 101.752 95.5542C101.763 101.943 97.0342 107.91 88.4385 112.356C79.7743 116.836 68.368 119.077 56.9402 119.077ZM56.6552 73.8506C45.6025 73.8506 34.5605 76.0224 26.1664 80.3636C18.2938 84.4354 13.963 89.7921 13.9724 95.4469C13.9805 101.142 18.3825 106.539 26.3653 110.64C43.2408 119.308 70.5898 119.322 87.3283 110.668C95.2183 106.587 99.5585 101.221 99.5491 95.5566C99.5397 89.8517 95.1282 84.4449 87.128 80.335C78.7151 76.0129 67.6798 73.8506 56.6552 73.8506Z" fill="#373435"/>
<path d="M131.034 124.675C129.84 124.045 128.174 124.143 126.335 125.08C122.673 126.954 119.733 131.5 119.733 135.235C119.749 137.095 120.488 138.396 121.666 139.012L101.72 128.703C100.541 128.088 99.803 126.787 99.803 124.926C99.7869 121.192 102.742 116.646 106.389 114.772C108.228 113.821 109.894 113.737 111.088 114.352L131.034 124.675Z" fill="white"/>
<path d="M121.666 139.989C121.478 139.989 121.287 139.946 121.113 139.855L101.166 129.547C99.5763 128.717 98.7026 127.077 98.7026 124.927C98.6851 120.824 101.818 115.989 105.837 113.927C107.934 112.843 110.051 112.69 111.641 113.508L131.542 123.806C131.56 123.816 131.579 123.826 131.597 123.835C132.118 124.109 132.291 124.708 131.983 125.17C131.677 125.63 131.007 125.792 130.479 125.518L130.444 125.499C129.576 125.06 128.281 125.213 126.884 125.926C123.549 127.633 120.834 131.809 120.834 135.235C120.846 136.663 121.34 137.707 122.225 138.17C122.749 138.444 122.924 139.04 122.617 139.505C122.413 139.815 122.045 139.989 121.666 139.989ZM109.364 114.938C108.645 114.938 107.812 115.167 106.945 115.615C103.654 117.305 100.889 121.566 100.904 124.922C100.904 126.357 101.392 127.399 102.278 127.862L118.726 136.36C118.667 136.008 118.635 135.633 118.632 135.242C118.632 131.118 121.773 126.286 125.785 124.233C126.193 124.026 126.596 123.852 126.994 123.714L110.534 115.196C110.199 115.022 109.802 114.938 109.364 114.938Z" fill="#373435"/>
<path d="M155.242 130.454C153.233 129.395 150.43 129.56 147.337 131.136C141.176 134.289 136.231 141.936 136.231 148.219C136.258 151.348 137.5 153.536 139.483 154.572L109.165 138.905C107.182 137.87 105.94 135.682 105.94 132.552C105.913 126.27 110.884 118.623 117.019 115.47C120.112 113.87 122.915 113.729 124.924 114.764L155.242 130.454Z" fill="#F8C71A"/>
<path d="M139.471 154.581L109.166 138.916C107.183 137.881 105.939 135.693 105.939 132.563C105.914 126.916 109.933 120.163 115.221 116.587C113.026 119.222 111.757 122.258 111.757 125.457C111.757 135.763 116.784 140.016 132.727 140.016C134.816 140.016 136.852 139.875 138.81 139.593C137.197 142.416 136.218 145.452 136.218 148.229C136.271 151.358 137.487 153.546 139.471 154.581Z" fill="#F8C71A"/>
<path d="M139.482 155.549C139.294 155.549 139.103 155.506 138.929 155.415L108.611 139.748C106.177 138.477 104.84 135.924 104.84 132.553C104.81 125.981 110.025 117.935 116.466 114.626C119.804 112.897 123.007 112.642 125.477 113.92L155.72 129.571C155.748 129.585 155.777 129.6 155.804 129.614C156.325 129.888 156.499 130.484 156.191 130.949C155.883 131.409 155.214 131.571 154.687 131.297L154.622 131.264C152.899 130.389 150.513 130.646 147.887 131.983C142.067 134.961 137.331 142.244 137.331 148.218C137.354 150.869 138.316 152.831 140.041 153.73C140.565 154.002 140.74 154.6 140.433 155.065C140.229 155.375 139.861 155.549 139.482 155.549ZM122.012 115.074C120.676 115.074 119.164 115.491 117.574 116.314C111.738 119.313 107.014 126.596 107.041 132.548C107.041 135.204 107.994 137.159 109.723 138.063L135.636 151.453C135.312 150.493 135.139 149.41 135.13 148.225C135.13 141.622 140.358 133.578 146.787 130.291C147.985 129.681 149.16 129.256 150.287 129.02L124.368 115.608C123.676 115.25 122.882 115.074 122.012 115.074Z" fill="#373435"/>
<path d="M147.33 131.137C153.475 127.98 158.471 130.514 158.491 136.797C158.511 143.081 153.547 150.732 147.402 153.889C141.257 157.046 136.261 154.512 136.241 148.229C136.221 141.946 141.184 134.295 147.33 131.137Z" fill="white"/>
<path d="M142.407 156.228C141.161 156.228 139.999 155.969 138.966 155.442C136.509 154.19 135.15 151.627 135.139 148.23C135.118 141.646 140.338 133.6 146.777 130.293C150.109 128.582 153.3 128.329 155.765 129.585C158.222 130.837 159.581 133.397 159.591 136.794C159.613 143.376 154.392 151.425 147.954 154.734C146.02 155.728 144.133 156.228 142.407 156.228ZM152.317 130.753C150.982 130.753 149.47 131.166 147.881 131.981C142.051 134.978 137.322 142.263 137.341 148.225C137.35 150.895 138.317 152.857 140.064 153.747C141.817 154.641 144.227 154.393 146.849 153.046C152.68 150.047 157.409 142.759 157.39 136.799C157.38 134.129 156.414 132.169 154.668 131.28C153.977 130.927 153.184 130.753 152.317 130.753Z" fill="#373435"/>
<path d="M64.4458 90.0096C62.9041 89.23 61.02 89.4201 58.8567 90.5231C56.7582 91.607 54.9383 93.3184 53.4181 95.6764C51.8764 98.0153 51.1267 100.259 51.1267 102.389C51.1267 104.633 51.9192 106.135 53.4395 106.915L44.3817 102.237C42.8609 101.457 42.0903 99.955 42.0688 97.73C42.0688 95.5812 42.8185 93.3374 44.3597 90.9985C45.8805 88.6405 47.7003 86.9291 49.7988 85.8451C51.983 84.7423 53.8462 84.5521 55.3879 85.3318L64.4458 90.0096Z" fill="#F8C71A"/>
<path d="M53.4384 107.891C53.2515 107.891 53.062 107.848 52.8886 107.76C52.8873 107.758 52.8859 107.758 52.8859 107.758L52.8819 107.755C52.8765 107.753 52.8698 107.751 52.8644 107.746L43.8278 103.08C41.9568 102.122 40.9931 100.322 40.9689 97.7403C40.9689 95.3945 41.7901 92.9628 43.4098 90.505C45.0053 88.0304 46.9704 86.1757 49.246 85.0004C51.8106 83.7059 54.0553 83.5366 55.9344 84.4831L65.0005 89.1652C65.5248 89.4346 65.7035 90.0305 65.4011 90.4954C65.0973 90.9627 64.4306 91.1224 63.901 90.8578C62.7343 90.2642 61.2249 90.4406 59.4049 91.3703C57.4748 92.3668 55.7812 93.9784 54.3739 96.1597C52.9477 98.3243 52.2273 100.417 52.2273 102.389C52.2273 104.248 52.7985 105.448 53.9747 106.06L53.9935 106.07C54.519 106.342 54.6965 106.938 54.3927 107.405C54.1884 107.717 53.8187 107.891 53.4384 107.891ZM53.3402 85.8348C52.4746 85.8348 51.4826 86.1185 50.3442 86.693C48.418 87.6895 46.7217 89.3011 45.3158 91.4824C43.891 93.6446 43.1706 95.7449 43.1706 97.7307C43.1894 99.5926 43.7647 100.792 44.9327 101.39L50.1896 104.105C50.0794 103.579 50.0256 103.006 50.0256 102.389C50.0256 100.065 50.8469 97.6401 52.4679 95.1823C54.0634 92.7077 56.0285 90.853 58.3028 89.6801C58.9372 89.3559 59.5514 89.1032 60.1469 88.9196L54.8349 86.1757C54.3846 85.9492 53.8886 85.8348 53.3402 85.8348Z" fill="#373435"/>
<path d="M58.8565 90.5271C61.0306 89.4125 62.9059 89.2335 64.4423 90.0108C65.9786 90.7882 66.75 92.2512 66.7568 94.3857C66.7639 96.6179 66.0045 98.9077 64.4782 101.255C62.9518 103.603 61.0815 105.344 58.9074 106.459C56.802 107.538 54.9811 107.69 53.4452 106.912C51.9089 106.135 51.1369 104.63 51.1298 102.398C51.123 100.263 51.8829 98.0151 53.4093 95.6675C54.9352 93.3201 56.7511 91.6066 58.8565 90.5271Z" fill="white"/>
<path d="M55.5204 108.38C54.5916 108.38 53.7166 108.173 52.8993 107.76C51.0028 106.799 50.0377 104.997 50.0296 102.401C50.0202 100.098 50.8361 97.6688 52.4544 95.1799C54.0728 92.6934 56.0406 90.8435 58.3054 89.6801C60.8431 88.3809 63.0892 88.2044 64.9884 89.1628C66.885 90.1235 67.8501 91.8781 67.8581 94.3837C67.8662 96.7819 67.049 99.2565 65.4306 101.743C63.815 104.229 61.8055 106.101 59.4587 107.305C58.0608 108.02 56.7435 108.38 55.5204 108.38ZM59.4076 91.3727C57.4815 92.3597 55.7852 93.9689 54.3631 96.1573C52.941 98.341 52.2246 100.441 52.2313 102.396C52.2367 104.268 52.812 105.467 53.9908 106.063C55.1736 106.666 56.6011 106.513 58.3565 105.612C60.3646 104.585 62.1026 102.954 63.5233 100.768C64.9454 98.5842 65.6618 96.4363 65.6565 94.3884C65.6511 92.61 65.0758 91.4562 63.897 90.8602C62.7169 90.2618 61.2464 90.4287 59.4076 91.3727Z" fill="#373435"/>
<path d="M54.7394 81.3748L45.6842 76.7017C44.7196 76.2038 44.235 75.2879 44.2308 73.9537C44.2179 69.9359 44.9176 66.0418 46.3024 62.2855C47.6872 58.5432 49.3199 55.1769 51.2001 52.2007C53.0806 49.2243 55.5889 45.6327 58.7248 41.4257C62.0385 37.0439 64.4922 33.4662 66.0581 30.6931C67.6239 27.9199 68.3964 25.2881 68.3884 22.7909C68.375 18.607 67.2078 15.915 64.8856 14.7166L73.9408 19.3897C76.263 20.5881 77.4303 23.2801 77.4436 27.464C77.4516 29.9612 76.6792 32.5931 75.1133 35.3662C73.5475 38.1393 71.0938 41.717 67.7801 46.0989C64.6442 50.3058 62.1359 53.8974 60.2553 56.8738C58.3751 59.85 56.7425 63.2164 55.3576 66.9587C53.9729 70.7149 53.2732 74.609 53.286 78.6268C53.2903 79.961 53.7749 80.877 54.7394 81.3748Z" fill="#F8C71A"/>
<path d="M54.7381 82.3518C54.5499 82.3518 54.3604 82.3089 54.1856 82.2183L45.1303 77.5458C44.2203 77.0761 43.1369 76.0725 43.1302 73.9555C43.1167 69.8742 43.8318 65.8453 45.2553 61.9833C46.6599 58.1856 48.336 54.736 50.2393 51.7251C52.1278 48.7356 54.6736 45.0881 57.8067 40.8876C61.1657 36.4439 63.5421 32.9681 65.0744 30.2575C66.5503 27.6399 67.2949 25.1296 67.2882 22.7933C67.2761 19.0028 66.2828 16.5712 64.3365 15.5628L64.3325 15.5604C63.8069 15.2886 63.6282 14.6903 63.9346 14.2254C64.2397 13.7581 64.9131 13.5984 65.44 13.8726C65.4414 13.8726 65.4427 13.8726 65.4427 13.8749L74.4941 18.5451C77.1689 19.9254 78.5305 22.9245 78.5439 27.4611C78.5534 30.1073 77.7294 32.9156 76.0976 35.8026C74.5237 38.5895 72.1029 42.1368 68.6942 46.6425C65.5852 50.8144 63.069 54.419 61.2168 57.3512C59.382 60.2525 57.7637 63.5877 56.4035 67.2638C55.0526 70.9279 54.3752 74.7518 54.3873 78.6233C54.3913 79.9107 54.9021 80.3279 55.2892 80.5281L55.2932 80.5305C55.8188 80.8023 55.9975 81.4006 55.6911 81.8655C55.4868 82.1778 55.1171 82.3518 54.7381 82.3518ZM68.7412 17.8347C69.2332 19.2031 69.4845 20.8576 69.4899 22.7886C69.4993 25.4324 68.6754 28.2383 67.0436 31.1301C65.4683 33.9169 63.0475 37.4642 59.6388 41.9699C56.5406 46.1252 54.023 49.7321 52.1614 52.6787C50.3267 55.58 48.7083 58.9151 47.3481 62.5912C45.9972 66.2529 45.3198 70.0768 45.3319 73.9508C45.3359 75.3931 46.016 75.7435 46.2392 75.8579L52.1936 78.9309C52.1883 78.8331 52.1856 78.733 52.1856 78.6281C52.1721 74.5491 52.8872 70.5202 54.3107 66.6558C55.7153 62.8582 57.3914 59.4086 59.2947 56.3977C61.1738 53.4225 63.7196 49.7774 66.8621 45.5602C70.2211 41.1165 72.5975 37.6406 74.1298 34.9301C75.6057 32.3149 76.349 29.8046 76.3423 27.4659C76.3315 23.673 75.3369 21.239 73.3865 20.233L68.7412 17.8347Z" fill="#373435"/>
<path d="M73.8048 2.44168L82.8601 7.11481C82.3174 6.83475 81.7402 6.59283 81.1286 6.38901L72.0734 1.71588C72.685 1.9197 73.2621 2.16162 73.8048 2.44168Z" fill="white"/>
<path d="M82.8588 8.09144C82.6719 8.09144 82.4824 8.04853 82.3077 7.95794C81.8171 7.70762 81.2969 7.4883 80.7431 7.30473L71.5197 2.56065C71.0251 2.30556 70.8328 1.75725 71.0788 1.29953C71.3235 0.839428 71.9202 0.627256 72.4592 0.801285C73.1286 1.02299 73.7617 1.29 74.3572 1.59753L83.4139 6.27009C83.9394 6.54186 84.1169 7.13785 83.8118 7.60511C83.6074 7.91741 83.2392 8.09144 82.8588 8.09144Z" fill="#373435"/>
<path d="M81.1273 6.39714C75.731 4.60965 68.5788 5.99777 59.6495 10.5806C55.1954 12.8625 51.1056 15.4297 47.444 18.3011C43.7824 21.1724 40.1422 24.6713 36.5658 28.8358C34.3816 31.2888 33.2895 33.5517 33.3109 35.6054C33.3109 37.0316 33.8248 38.0205 34.8955 38.5528L25.8376 33.875C24.7884 33.3425 24.2531 32.3727 24.2531 30.9275C24.2531 28.8739 25.3237 26.611 27.5079 24.1579C31.0838 20.0124 34.724 16.4945 38.3861 13.6231C42.0477 10.7517 46.1375 8.18464 50.5917 5.90271C59.5209 1.31984 66.6732 -0.0682818 72.0694 1.71921L81.1273 6.39714Z" fill="#F8C71A"/>
<path d="M34.8949 39.5311C34.7121 39.5311 34.5266 39.4906 34.3572 39.4048C34.3196 39.3857 34.2833 39.369 34.2484 39.3499L25.2844 34.7179C23.8717 34.0027 23.1526 32.7273 23.1526 30.9274C23.1526 28.634 24.3274 26.1523 26.6433 23.5514C30.2214 19.4057 33.9298 15.8131 37.6571 12.8903C41.2983 10.0367 45.4638 7.40247 50.0405 5.05665C59.2169 0.350711 66.7548 -1.07967 72.4552 0.803664L81.6813 5.55251C82.176 5.8076 82.3682 6.35591 82.1222 6.81363C81.8776 7.27373 81.2754 7.48114 80.7418 7.31188C75.6959 5.6288 68.7804 7.02103 60.2008 11.4266C55.749 13.7057 51.7032 16.266 48.1735 19.0338C44.5094 21.9065 40.8991 25.4038 37.442 29.4279C35.4083 31.7117 34.3935 33.781 34.4123 35.5952C34.4123 36.9564 34.9406 37.4356 35.3694 37.6692L35.45 37.7098C35.9729 37.9792 36.1517 38.5728 35.8519 39.0376C35.6489 39.3547 35.278 39.5311 34.8949 39.5311ZM67.1634 1.91936C62.8124 1.91936 57.4252 3.52376 51.1427 6.74926C46.6923 9.02833 42.6465 11.5863 39.1168 14.3541C35.4957 17.1934 31.884 20.6907 28.3826 24.7506C26.3691 27.0106 25.3543 29.0846 25.3543 30.9274C25.3543 32.3411 25.9417 32.8012 26.3839 33.0253L32.2255 36.0434C32.2147 35.9003 32.2107 35.7549 32.2107 35.6047C32.1865 33.3447 33.3612 30.8607 35.7014 28.2311C39.2337 24.1188 42.9422 20.5262 46.7138 17.5701C50.3537 14.7165 54.5205 12.0798 59.0986 9.73398C65.4012 6.50133 70.931 4.81349 75.6233 4.68475L71.5157 2.56303C70.2078 2.13391 68.7548 1.91936 67.1634 1.91936Z" fill="#373435"/>
<path d="M81.1281 6.38899C86.5296 8.18901 89.2425 12.9605 89.2673 20.7311C89.2784 24.2189 88.6729 27.5896 87.4508 30.8572C86.229 34.1246 84.7593 37.1139 83.0154 39.8386C81.2711 42.5634 78.9535 45.8337 76.0763 49.6286C72.3261 54.5976 69.5051 58.7967 67.6397 62.2126C65.7609 65.6352 64.827 69.1323 64.8384 72.7037C64.843 74.1268 64.2865 75.6417 63.1412 77.2629C62.01 78.863 60.658 80.0733 59.0858 80.8793C57.4177 81.7346 56.0353 81.9263 54.9383 81.4686C53.8413 80.997 53.2904 80.0498 53.2859 78.6268C53.273 74.609 53.9727 70.7149 55.3575 66.9586C56.7423 63.2163 58.3749 59.8499 60.2551 56.8738C62.1357 53.8974 64.644 50.3058 67.7799 46.0988C71.0936 41.717 73.5473 38.1393 75.1132 35.3662C76.679 32.593 77.4514 29.9612 77.4435 27.464C77.4124 17.7402 71.1488 16.0748 58.639 22.4887C55.563 24.0657 52.5702 25.9775 49.6468 28.2309C46.7097 30.5053 44.1157 32.9252 41.8505 35.5119C40.8003 36.777 39.7077 37.6865 38.5728 38.2684C37.1646 38.9904 35.9461 39.0841 34.8901 38.5495C33.8338 38.0151 33.3103 37.0399 33.3057 35.603C33.2991 33.5522 34.3874 31.2894 36.5709 28.8284C40.1454 24.6762 43.7768 21.1654 47.4375 18.2963C51.1123 15.4342 55.1848 12.8571 59.6419 10.5719C68.5694 5.99474 75.7271 4.60265 81.1281 6.38899Z" fill="white"/>
<path d="M56.191 82.688C55.5781 82.688 55.0041 82.5759 54.4691 82.3542C53.4248 81.9036 52.1922 80.8976 52.1855 78.6281C52.172 74.5491 52.8871 70.5202 54.3105 66.6558C55.7152 62.8582 57.3913 59.4086 59.2946 56.3976C61.1737 53.4225 63.7194 49.7774 66.862 45.5602C70.221 41.1164 72.5974 37.6406 74.1297 34.9301C75.6056 32.3149 76.3489 29.8045 76.3422 27.4659C76.3301 23.6611 75.3287 21.2247 73.3676 20.2234C70.6646 18.8455 65.8969 19.892 59.1897 23.3345C56.1923 24.8721 53.2245 26.7674 50.3682 28.9678C47.4958 31.1944 44.9218 33.5974 42.7201 36.1101C41.6179 37.4404 40.4015 38.4583 39.1246 39.1139C37.3597 40.0127 35.7522 40.1128 34.3435 39.3952C32.9295 38.6824 32.2104 37.407 32.205 35.6047C32.1969 33.3352 33.3757 30.8511 35.7051 28.2264C39.2832 24.0711 42.9889 20.4785 46.7095 17.5653C50.4233 14.6712 54.5888 12.0345 59.0916 9.72682C68.272 5.02327 75.8153 3.59289 81.513 5.47384C81.5144 5.47384 81.5157 5.47384 81.5157 5.47622C87.364 7.42392 90.3426 12.5566 90.3681 20.7288C90.3789 24.3024 89.7498 27.8139 88.4971 31.1658C87.2498 34.4986 85.7282 37.5786 83.9741 40.3202C82.216 43.0665 79.8665 46.3802 76.99 50.1755C73.2654 55.1079 70.4535 59.3013 68.6309 62.6388C66.8338 65.912 65.9292 69.2972 65.9399 72.7015C65.9453 74.3131 65.3176 76.0224 64.0743 77.7794C62.8484 79.5149 61.3551 80.8428 59.6373 81.7248C58.3859 82.3661 57.234 82.688 56.191 82.688ZM70.5879 17.6869C72.0759 17.6869 73.3649 17.9682 74.4658 18.5308C77.158 19.904 78.5291 22.9077 78.5438 27.4611C78.5532 30.1073 77.7293 32.9156 76.0975 35.8026C74.5235 38.5894 72.1028 42.1368 68.6941 46.6425C65.5851 50.8144 63.0689 54.4189 61.2167 57.3512C59.3819 60.2525 57.7636 63.5877 56.4033 67.2637C55.0525 70.9279 54.3751 74.7517 54.3872 78.6233C54.3912 79.9917 54.9786 80.4017 55.4194 80.5925C56.1574 80.9 57.2085 80.714 58.5351 80.0322C59.9397 79.3123 61.175 78.2061 62.2086 76.7447C63.2275 75.3024 63.7409 73.9436 63.7383 72.7063C63.7248 69.004 64.7047 65.328 66.6496 61.7854C68.5153 58.3692 71.3783 54.0971 75.1607 49.086C78.0075 45.3313 80.3275 42.0581 82.0587 39.3571C83.7416 36.7252 85.2053 33.7619 86.4056 30.5507C87.5844 27.3991 88.1772 24.0973 88.1665 20.7336C88.1436 13.3552 85.7148 8.96157 80.7428 7.30472C75.6822 5.63118 68.7747 7.01864 60.1938 11.4194C55.816 13.6627 51.7688 16.2231 48.1652 19.0314C44.5535 21.8588 40.9472 25.3561 37.4458 29.4231C35.4202 31.7046 34.4013 33.781 34.4067 35.6C34.4107 37.0184 34.9954 37.4785 35.4363 37.7002C35.8785 37.9291 36.6258 38.1413 38.0224 37.4213C39.0345 36.904 40.0238 36.0648 40.9633 34.9324C43.2685 32.3006 45.9406 29.8045 48.9219 27.4945C51.8857 25.213 54.9678 23.2439 58.0875 21.6419C63.2423 19.0004 67.3768 17.6869 70.5879 17.6869Z" fill="#373435"/>
</svg>
