<svg width="76" height="107" viewBox="0 0 76 107" fill="none" xmlns="http://www.w3.org/2000/svg">
<path d="M74.3963 48.1722L65.322 73.2026C65.0167 74.0111 64.4416 74.7299 63.8485 75.0713C63.7046 75.1611 63.5431 75.2331 63.3992 75.2689C63.0939 75.3588 62.8421 75.2869 62.6267 75.1611C62.6267 75.1791 62.6267 75.1971 62.6447 75.1971L57.4339 72.1784C57.1282 71.9986 56.9308 71.5854 56.9488 71.0283L57.2721 61.4869L56.4815 61.7385L56.4456 46.2675L51.2344 43.2486L68.1432 42.2065C68.3946 42.1886 68.6104 42.2424 68.8079 42.3502L74.019 45.3691C74.0011 45.3691 74.0011 45.3511 73.9831 45.3691C74.6657 45.7463 74.8815 46.8784 74.3963 48.1722Z" fill="white"/>
<path d="M63.1336 75.9725C62.9297 75.9725 62.7242 75.9306 62.5203 75.8452C62.4478 75.8307 62.3793 75.8025 62.3164 75.7646L62.3132 75.7695L57.1025 72.7507C56.5666 72.4356 56.2644 71.7845 56.2886 71.0084L56.5803 62.3921C56.4103 62.4179 56.2346 62.376 56.0919 62.2729C55.9219 62.1488 55.8212 61.9513 55.8212 61.741L55.7865 46.6496L50.903 43.821C50.6516 43.6752 50.5251 43.381 50.5919 43.0982C50.6588 42.8145 50.903 42.609 51.1939 42.5905L68.1033 41.5485C68.4507 41.5276 68.8044 41.5977 69.1244 41.7717L74.3504 44.7986C74.41 44.8332 74.4624 44.8767 74.5075 44.9259C75.3472 45.5617 75.5608 46.9446 75.016 48.4008L65.9428 73.4284C65.5842 74.3769 64.9097 75.2231 64.178 75.6446C63.9918 75.7606 63.7646 75.8597 63.5583 75.9105C63.4188 75.9524 63.2762 75.9725 63.1336 75.9725ZM62.7983 74.5244C62.8539 74.5397 62.9087 74.5623 62.9595 74.5921C63.0747 74.659 63.1376 74.6598 63.2125 74.6364C63.298 74.6147 63.3955 74.5768 63.4994 74.5123C63.9838 74.2327 64.46 73.6178 64.705 72.9699L73.7758 47.9479C73.7766 47.9455 73.7774 47.943 73.7782 47.9406C74.1489 46.9534 74.0071 46.1379 73.6638 45.9477C73.6138 45.9203 73.5687 45.8865 73.5276 45.8486L68.4764 42.9225C68.3942 42.8774 68.3088 42.8564 68.192 42.8661L53.4568 43.7743L56.7769 45.6971C56.98 45.8148 57.1057 46.0323 57.1057 46.2668L57.1396 60.8409C57.3233 60.8022 57.5175 60.8465 57.6706 60.9617C57.8415 61.0915 57.939 61.2962 57.9317 61.5105L57.6086 71.0519C57.5981 71.3832 57.7013 71.5709 57.7681 71.6104L62.7983 74.5244Z" fill="#373435"/>
<path d="M62.6482 75.1973L57.4386 72.172C57.1284 71.9949 56.9367 71.5816 56.9515 71.0208L57.35 58.993C57.3795 58.2404 57.1284 57.6943 56.7007 57.4434L61.8952 60.4688C62.3232 60.7197 62.5744 61.2657 62.5448 62.0184L62.1611 74.0462C62.1463 74.607 62.3232 75.0203 62.6482 75.1973Z" fill="#F8C71A"/>
<path d="M62.6472 75.8571C62.5409 75.8571 62.4329 75.8313 62.3329 75.7773C62.3128 75.766 62.2926 75.7547 62.2725 75.7426L57.1077 72.7424C56.5694 72.4354 56.2704 71.8012 56.2914 71.0042L56.6903 58.971C56.7088 58.4996 56.5871 58.1426 56.3663 58.0121C56.052 57.8275 55.9473 57.4238 56.131 57.1095C56.314 56.7952 56.7201 56.6904 57.0328 56.8726L62.2274 59.8986C62.8874 60.2854 63.2436 61.0671 63.2049 62.0446L62.8213 74.0673C62.8124 74.3928 62.8962 74.5709 62.9567 74.6128L62.9792 74.6265C63.2919 74.8078 63.4007 75.2059 63.2234 75.5202C63.1025 75.7362 62.8785 75.8571 62.6472 75.8571ZM58.0111 58.971C58.0111 58.9863 58.0103 59.0025 58.0103 59.0186L57.6114 71.0428C57.6025 71.3773 57.7016 71.5618 57.7661 71.5989L61.5093 73.7723L61.8849 61.9978C61.9034 61.5248 61.7825 61.1686 61.5617 61.0389L58.0111 58.971Z" fill="#373435"/>
<path d="M74.0113 45.3709C73.8193 45.2676 73.5981 45.2086 73.3322 45.2234L56.449 46.2711L51.2397 43.2457L68.1377 42.2127C68.3884 42.1832 68.6096 42.2422 68.8017 42.3455L74.0113 45.3709Z" fill="#F8C71A"/>
<path d="M56.4487 46.9315C56.3327 46.9315 56.2183 46.9009 56.1175 46.8421L50.9084 43.8169C50.6562 43.671 50.5305 43.3777 50.5974 43.094C50.6643 42.8111 50.9092 42.6048 51.1994 42.5871L68.0975 41.554C68.4239 41.5137 68.7784 41.5838 69.1145 41.7651L74.3429 44.8008C74.6548 44.9813 74.7636 45.3786 74.5879 45.6929C74.4138 46.0088 74.0206 46.1265 73.6998 45.9532C73.5967 45.8984 73.4879 45.8774 73.3686 45.8831L56.4898 46.9307C56.4761 46.9315 56.4624 46.9315 56.4487 46.9315ZM53.459 43.7717L56.6075 45.6002L71.4998 44.6759L68.4706 42.9167C68.3948 42.8764 68.3054 42.8579 68.2159 42.8684L53.459 43.7717Z" fill="#373435"/>
<path d="M56.4862 61.7316L51.2855 58.7093L51.2417 43.248L56.4424 46.2704L56.4862 61.7316Z" fill="white"/>
<path d="M56.4861 62.3919C56.3717 62.3919 56.2572 62.362 56.1541 62.3024L50.9539 59.2804C50.7516 59.1628 50.6267 58.946 50.6259 58.7115L50.5815 43.2502C50.5807 43.0141 50.7065 42.7949 50.9111 42.6772C51.1158 42.5572 51.3673 42.5588 51.5736 42.678L56.7746 45.7C56.9769 45.8177 57.1018 46.0345 57.1026 46.269L57.1461 61.7302C57.1469 61.9664 57.0212 62.1856 56.8165 62.3032C56.7142 62.3628 56.5997 62.3919 56.4861 62.3919ZM51.9451 58.3295L55.8229 60.5827L55.7834 46.651L51.9048 44.3978L51.9451 58.3295Z" fill="#373435"/>
<path d="M56.4438 46.2711L73.3349 45.2275C74.5144 45.1538 74.9996 46.5113 74.4004 48.1695L65.3163 73.2061C65.0219 74.0144 64.4512 74.7284 63.8457 75.078C63.7 75.1621 63.5524 75.2251 63.4063 75.2632C62.6425 75.4765 62.1313 74.9583 62.1571 74.0432L62.5477 62.0184C62.5913 60.757 61.8628 60.0822 60.8255 60.3991L56.4877 61.7323L56.4438 46.2711Z" fill="white"/>
<path d="M63.08 75.9716C62.7359 75.9716 62.4151 75.866 62.15 75.6589C61.7084 75.3132 61.4763 74.733 61.4965 74.0246L61.8873 61.9963C61.9026 61.5628 61.7978 61.2171 61.6077 61.0712C61.4376 60.9415 61.1943 60.9785 61.0178 61.0301L56.6814 62.363C56.4816 62.4258 56.2656 62.3888 56.0956 62.2639C55.9271 62.1398 55.828 61.9431 55.8272 61.7336L55.7837 46.2723C55.7829 45.9234 56.0545 45.6333 56.4026 45.6115L73.2935 44.5679C73.9341 44.5317 74.491 44.7791 74.8617 45.2723C75.4056 45.9983 75.4653 47.1652 75.0204 48.3942L65.9368 73.4307C65.5943 74.3703 64.9198 75.2197 64.1759 75.6492C63.9729 75.7661 63.7706 75.8507 63.5724 75.9023C63.4055 75.949 63.2403 75.9716 63.08 75.9716ZM61.3135 59.6617C61.7221 59.6617 62.0992 59.7842 62.4119 60.0236C62.9551 60.441 63.2379 61.1574 63.2073 62.0406L62.8165 74.0649C62.8076 74.3808 62.8898 74.5613 62.9631 74.6185C63.0308 74.6725 63.1589 74.6459 63.2291 74.6274C63.325 74.6024 63.4176 74.5621 63.5167 74.5057C63.9954 74.2285 64.4588 73.6298 64.6957 72.9794L73.7794 47.9445C74.1017 47.0524 74.0244 46.357 73.8052 46.0644C73.7367 45.9734 73.6376 45.867 73.3757 45.8863L57.1053 46.8912L57.1448 60.8391L60.631 59.7681C60.8647 59.6972 61.0935 59.6617 61.3135 59.6617Z" fill="#373435"/>
<path d="M48.8199 91.5265C48.8199 97.9528 42.7384 103.456 39.8039 105.738C38.8714 106.463 37.64 106.463 36.7068 105.74C33.7667 103.459 27.6685 97.9545 27.6685 91.5265C27.6685 83.0834 32.4137 76.2168 38.2558 76.2168C44.0985 76.2168 48.8199 83.0834 48.8199 91.5265Z" fill="white"/>
<path d="M48.8252 91.5255C48.8252 97.9468 42.735 103.458 39.8056 105.742C38.8787 106.47 37.6375 106.47 36.711 105.742C35.9659 105.163 35.0063 104.368 33.9966 103.392C39.7394 102.465 44.2247 95.2658 44.2247 86.5108C44.2247 83.1844 43.579 80.0895 42.4372 77.4746C46.1941 79.8247 48.8252 85.2365 48.8252 91.5255Z" fill="#E9EDF4"/>
<path d="M38.2554 106.941C37.5712 106.941 36.887 106.715 36.3028 106.261C33.5081 104.095 27.0088 98.3223 27.0088 91.5264C27.0088 82.7208 32.0543 75.5566 38.2562 75.5566C44.4452 75.5566 49.4803 82.7208 49.4803 91.5264C49.4803 98.3174 42.9971 104.091 40.2096 106.259C39.6254 106.714 38.9404 106.941 38.2554 106.941ZM38.2562 76.8766C32.782 76.8766 28.3288 83.4485 28.3288 91.5264C28.3288 97.738 34.4711 103.17 37.1119 105.218C37.8065 105.756 38.7043 105.758 39.3989 105.216C42.0333 103.169 48.1603 97.7348 48.1603 91.5264C48.1603 83.4485 43.7175 76.8766 38.2562 76.8766Z" fill="#373435"/>
<path d="M54.5258 77.6412L54.5054 84.82C54.4988 87.1497 52.968 89.4739 49.9126 91.2495C43.7456 94.8334 33.725 94.8335 27.5063 91.2432C24.3855 89.4414 22.8283 87.08 22.835 84.7217L22.8553 77.543C22.8486 79.9013 24.4058 82.2626 27.5266 84.0644C33.7453 87.6548 43.7659 87.6547 49.9329 84.0708C52.9883 82.2952 54.5192 79.971 54.5258 77.6412Z" fill="#F8C71A"/>
<path d="M38.7345 94.5804C34.5545 94.5804 30.3696 93.6584 27.176 91.8146C23.9437 89.9483 22.1676 87.4291 22.1748 84.7198L22.195 77.5412C22.1958 77.177 22.4915 76.8828 22.855 76.8828C23.22 76.8836 23.5158 77.1802 23.515 77.5444C23.5093 79.7605 25.0509 81.8735 27.857 83.4933C33.8727 86.9666 43.6285 86.969 49.6007 83.5006C52.3447 81.9049 53.8589 79.8234 53.8654 77.6395C53.8662 77.2753 54.1619 76.9811 54.5254 76.9811C54.8904 76.9819 55.1862 77.2785 55.1854 77.6427L55.1652 84.8214C55.158 87.4944 53.41 89.9797 50.2446 91.8203C47.0776 93.6609 42.9089 94.5804 38.7345 94.5804ZM23.5045 81.4384L23.4948 84.723C23.4892 86.9392 25.0308 89.0521 27.8368 90.6719C33.855 94.1468 43.6108 94.1484 49.5806 90.6792C52.3246 89.0836 53.8388 87.002 53.8452 84.8181L53.8541 81.5318C53.0224 82.6874 51.8128 83.7415 50.2648 84.6417C43.9299 88.3244 33.581 88.322 27.1962 84.636C25.5949 83.7117 24.3507 82.627 23.5045 81.4384Z" fill="#373435"/>
<path d="M49.8377 71.0995C56.0564 74.6898 56.089 80.4941 49.9331 84.0715C43.7661 87.6554 33.7455 87.6555 27.5268 84.0651C21.3194 80.4813 21.2981 74.6835 27.4651 71.0996C33.621 67.5222 43.6302 67.5156 49.8377 71.0995Z" fill="white"/>
<path d="M38.755 87.4019C34.5758 87.4019 30.3901 86.48 27.1965 84.6362C23.9755 82.7763 22.1993 80.2652 22.1953 77.5664C22.1913 74.8805 23.9457 72.3815 27.1328 70.5288C33.4629 66.8508 43.7965 66.8492 50.1684 70.5272C53.3999 72.3936 55.1825 74.9119 55.1857 77.618C55.1897 80.3007 53.4418 82.7956 50.2651 84.6419C47.0989 86.4817 42.9294 87.4019 38.755 87.4019ZM38.6365 69.0694C34.7055 69.0694 30.7794 69.9365 27.7969 71.6699C25.0328 73.276 23.5129 75.3696 23.5161 77.5648C23.5185 79.7729 25.061 81.8786 27.8573 83.4935C33.8731 86.9668 43.6288 86.9692 49.6011 83.5008C52.3547 81.9003 53.8689 79.8115 53.8657 77.6196C53.8625 75.4043 52.3152 73.2913 49.5076 71.6699C46.505 69.9365 42.5683 69.0694 38.6365 69.0694Z" fill="#373435"/>
<path d="M49.7733 78.4738C57.0636 67.7181 62.0182 47.9275 62.0182 31.758C62.0182 11.8376 45.2302 3.13924 40.1423 0.960479C39.2139 0.562891 38.1824 0.562671 37.2537 0.95971C32.1604 3.13719 15.3438 11.8352 15.3438 31.758C15.3438 47.9275 20.3069 67.7181 27.6075 78.4738C30.7637 84.4188 46.6888 83.6849 49.7733 78.4738Z" fill="white"/>
<path d="M51.9202 74.8924C51.2414 76.1667 50.5133 77.3584 49.7686 78.4672C46.6902 83.6804 30.7694 84.4252 27.6085 78.4672C20.3097 67.7097 15.3447 47.9326 15.3447 31.7634C15.3447 11.8372 32.1597 3.13202 37.2568 0.963978C38.1837 0.566695 39.2096 0.566695 40.1365 0.963978C40.3021 1.03014 40.4678 1.11287 40.6496 1.17903C30.3059 6.16058 22.8585 20.4101 22.8585 37.2248C22.8585 58.1935 34.4434 75.1903 48.7428 75.1903C49.8183 75.1903 50.8774 75.091 51.9202 74.8924Z" fill="#E9EDF4"/>
<path d="M38.2114 83.3213C38.0317 83.3213 37.8544 83.3189 37.6779 83.3149C32.4487 83.194 28.4661 81.5001 27.0228 78.7827C19.8877 68.2775 14.6826 48.4742 14.6826 31.7574C14.6826 11.4682 31.7588 2.59004 36.9929 0.352968C38.0921 -0.117656 39.3033 -0.117656 40.4009 0.352968C45.6269 2.59085 62.6774 11.4698 62.6774 31.7574C62.6774 48.4678 57.4852 68.259 50.3299 78.8278C48.466 81.9465 42.8572 83.3213 38.2114 83.3213ZM38.6973 1.32161C38.296 1.32161 37.8947 1.40301 37.5119 1.5666C32.4664 3.72389 16.0026 12.2765 16.0026 31.7574C16.0026 48.2389 21.1126 67.7303 28.1526 78.1026C29.3864 80.4186 33.0345 81.8869 37.7085 81.9949C42.949 82.1021 47.8084 80.4944 49.2041 78.1372C49.2114 78.1251 49.2187 78.1138 49.2259 78.1026C56.2554 67.7327 61.3574 48.2413 61.3574 31.7574C61.3574 12.2773 44.9194 3.72389 39.8811 1.5666C39.5 1.40301 39.0986 1.32161 38.6973 1.32161Z" fill="#373435"/>
<path d="M57.5561 15.5814C52.212 6.83728 43.5543 2.42167 40.1418 0.960519C39.2134 0.562873 38.1818 0.562658 37.2534 0.959767C33.8375 2.42017 25.1647 6.83578 19.812 15.5814C19.812 29.0847 57.5561 29.0847 57.5561 15.5814Z" fill="#F8C71A"/>
<path d="M57.564 15.5783C57.564 29.083 19.814 29.083 19.814 15.5783C20.5089 14.4529 21.2536 13.3937 22.048 12.4173C25.027 16.5878 30.6704 19.4013 37.1744 19.4013C44.7047 19.4013 51.1097 15.5948 53.5259 10.2988C54.9825 11.8545 56.3559 13.6088 57.564 15.5783Z" fill="#DCAF20"/>
<path d="M38.6839 26.3686C33.6432 26.3686 28.9345 25.4467 25.425 23.7729C21.3207 21.8147 19.1514 18.9821 19.1514 15.5813C19.1514 15.4597 19.1844 15.3404 19.2481 15.2364C24.7094 6.31554 33.4772 1.8559 36.994 0.352968C38.0916 -0.117656 39.3036 -0.117656 40.4012 0.352968C43.9131 1.85751 52.6696 6.31957 58.1188 15.2372C58.1825 15.3404 58.2155 15.4597 58.2155 15.5813C58.2155 22.9929 48.0907 26.3686 38.6839 26.3686ZM20.4738 15.7643C20.6519 21.8606 29.7219 25.0486 38.6839 25.0486C47.645 25.0486 56.715 21.8606 56.8931 15.7635C51.6349 7.27774 43.2555 3.01231 39.8814 1.5666C39.119 1.23942 38.2769 1.23942 37.5129 1.5666C34.134 3.0107 25.7433 7.27452 20.4738 15.7643Z" fill="#373435"/>
<path d="M15.6042 93.1859L15.4555 93.1034C15.4555 93.1034 15.4555 93.1034 15.439 93.0868C15.439 93.0868 15.4225 93.0868 15.439 93.0703C15.4885 93.1199 15.5381 93.1528 15.6042 93.1859Z" fill="#F8C71A"/>
<path d="M15.603 93.8462C15.5039 93.8462 15.4032 93.8236 15.3089 93.7769C15.271 93.7576 15.2356 93.7382 15.2009 93.7173L15.1332 93.6794C15.0913 93.656 15.0518 93.6278 15.0156 93.5956C14.9342 93.5287 14.8673 93.4433 14.8254 93.3442C14.7206 93.1008 14.7786 92.8058 14.9608 92.6149C15.0832 92.4859 15.2525 92.4126 15.4306 92.4102C15.6143 92.4094 15.7803 92.4779 15.9052 92.6036L15.902 92.6092L15.9262 92.61C16.2389 92.7857 16.3549 93.1782 16.1873 93.4949C16.0688 93.7181 15.84 93.8462 15.603 93.8462Z" fill="#373435"/>
<path d="M19.7133 74.9658C18.6733 75.8405 17.9638 77.3588 18.0133 78.5801L18.459 90.1C18.492 90.9912 17.9803 92.0805 17.2212 92.7571C17.0725 92.8892 16.9407 93.0047 16.7921 93.0707C16.2803 93.3843 15.7851 93.3843 15.4551 93.1038C15.4551 93.1038 15.4551 93.1038 15.4386 93.0872C15.4386 93.0872 15.4221 93.0872 15.4386 93.0707C15.3725 93.0212 15.3395 92.9717 15.3065 92.9221V92.9057L6.11398 78.4316C5.8827 78.0685 5.8005 77.5569 5.86618 76.9958L0.684082 73.959C0.783203 73.0678 1.24496 72.0446 1.97145 71.2524L18.8055 52.8008L24.0041 55.8376L24.0537 71.3019L19.7133 74.9658Z" fill="#F8C71A"/>
<path d="M16.0494 93.9737C15.6771 93.9737 15.3177 93.8528 15.0267 93.6046C14.9752 93.5651 14.9292 93.5159 14.8914 93.4619C14.8261 93.391 14.7834 93.3274 14.756 93.2855C14.7334 93.2524 14.7149 93.217 14.6996 93.1807L5.55625 78.7848C5.31288 78.402 5.18555 77.9072 5.18474 77.3608L0.350377 74.5282C0.125541 74.396 -0.000979038 74.1446 0.028032 73.8851C0.146494 72.8222 0.691257 71.6706 1.48503 70.8051L18.3179 52.3549C18.5298 52.1236 18.8707 52.0712 19.1382 52.23L24.3369 55.2673C24.5391 55.3849 24.6632 55.6009 24.664 55.8346L24.714 71.2983C24.7148 71.4941 24.6294 71.6795 24.4795 71.8052L20.1391 75.4694C19.2624 76.206 18.6322 77.5325 18.6733 78.5527L19.1189 90.0733C19.1592 91.1604 18.5725 92.4361 17.6603 93.2492C17.4943 93.3967 17.3057 93.5651 17.0583 93.6739C16.74 93.8729 16.3895 93.9737 16.0494 93.9737ZM15.9462 92.6375C16.0582 92.6762 16.2452 92.6303 16.4467 92.507C16.5829 92.4401 16.6981 92.3378 16.7819 92.2628C17.3968 91.7156 17.8247 90.8155 17.7989 90.1232L17.3533 78.6051C17.296 77.1714 18.0914 75.467 19.2881 74.4605L23.3932 70.9953L23.3449 56.2166L18.9336 53.6394L2.45932 71.6964C1.95888 72.242 1.57932 72.9495 1.41412 73.6208L6.20013 76.4252C6.42658 76.5582 6.5531 76.812 6.52248 77.0723C6.47332 77.4857 6.52731 77.8516 6.67076 78.0764L15.864 92.5513C15.8681 92.5578 15.8721 92.565 15.8761 92.5723C15.9019 92.5924 15.9253 92.6142 15.9462 92.6375Z" fill="#373435"/>
<path d="M23.9988 55.834L24.0427 71.2952L19.7117 74.9669C18.6761 75.8468 17.9535 77.3593 18.0043 78.5663L18.4617 90.1015C18.4924 90.9839 17.9858 92.0898 17.2232 92.7578C17.0774 92.8882 16.93 92.9955 16.7845 93.0795C16.179 93.4291 15.6059 93.3755 15.3078 92.9093L6.112 78.4265C5.50532 77.4646 5.98121 75.5522 7.16677 74.2604L23.9988 55.834Z" fill="white"/>
<path d="M16.0337 93.9665C15.5098 93.9665 15.0473 93.7264 14.7523 93.2646L5.55422 78.78C4.78301 77.5575 5.28909 75.3301 6.68001 73.8135L23.5112 55.3883C23.6934 55.1884 23.9835 55.1199 24.2365 55.2182C24.4904 55.3166 24.658 55.5599 24.6588 55.8323L24.7031 71.2936C24.7039 71.4878 24.6185 71.6731 24.4702 71.7989L20.1387 75.4704C19.2563 76.2198 18.6221 77.539 18.664 78.5391L19.1217 90.0758C19.1588 91.1613 18.5576 92.4676 17.6583 93.2541C17.4866 93.4072 17.3021 93.5426 17.1151 93.6506C16.7485 93.8626 16.3778 93.9665 16.0337 93.9665ZM23.3436 57.5303L7.6543 74.7056C6.61635 75.8362 6.27305 77.4447 6.67034 78.0741L15.866 92.5555C15.9934 92.7521 16.3471 92.57 16.4543 92.5079C16.5631 92.445 16.6735 92.3637 16.7831 92.2661C17.3899 91.7343 17.8259 90.8156 17.8017 90.1242L17.3448 78.5923C17.286 77.1828 18.083 75.4841 19.2845 74.4638L23.3823 70.9898L23.3436 57.5303Z" fill="#373435"/>
<path d="M7.17425 74.2539L23.9989 55.8359L18.8038 52.8105L1.9648 71.2433C1.23818 72.0337 0.782853 73.0634 0.679199 73.9629L5.87428 76.9886C5.9793 76.0875 6.43806 75.0537 7.17425 74.2539Z" fill="#F8C71A"/>
<path d="M5.87424 77.6493C5.759 77.6493 5.64456 77.6195 5.54222 77.5599L0.346826 74.5347C0.119573 74.4025 -0.00694767 74.1486 0.0228692 73.8883C0.147778 72.8093 0.691735 71.6537 1.47906 70.7979L18.3159 52.3654C18.5255 52.1373 18.8663 52.0825 19.1355 52.2405L24.3309 55.2665C24.5034 55.3672 24.621 55.5405 24.6516 55.7371C24.6814 55.9345 24.621 56.1352 24.4864 56.2827L7.66164 74.7007C7.66083 74.7007 7.66003 74.7015 7.65922 74.7023C7.05643 75.3574 6.62369 76.2624 6.53021 77.0659C6.50442 77.2867 6.36903 77.4801 6.16999 77.58C6.07651 77.6259 5.97497 77.6493 5.87424 77.6493ZM1.40976 73.6256L5.42859 75.9659C5.68163 75.1858 6.12325 74.4218 6.68896 73.8078L22.9601 55.9958L18.9316 53.6499L2.45254 71.69C1.95613 72.2291 1.57738 72.9415 1.40976 73.6256Z" fill="#373435"/>
<path d="M15.44 93.0707C15.4234 93.0872 15.44 93.0872 15.44 93.0872L10.4061 90.166C10.2909 90.1 10.1918 90.0175 10.1092 89.8854L0.932824 75.4113C0.801066 75.1968 0.718465 74.9328 0.685425 74.6522C0.652384 74.4377 0.652384 74.2066 0.685425 73.959L5.86752 76.9958C5.80184 77.5569 5.88404 78.0685 6.11532 78.4316L15.3078 92.9057V92.9221C15.3408 92.9717 15.3739 93.0212 15.44 93.0707Z" fill="#F8C71A"/>
<path d="M15.4396 93.7469C15.3139 93.7469 15.193 93.7107 15.0891 93.647L10.075 90.737C9.85418 90.6097 9.68173 90.4461 9.54957 90.2366L0.374828 75.7649C0.191897 75.4667 0.0742409 75.1114 0.0291126 74.7294C-0.00956882 74.4771 -0.0103748 74.1806 0.0307243 73.8719C0.0597353 73.6527 0.196732 73.4626 0.39578 73.3659C0.594022 73.2692 0.828528 73.2772 1.01871 73.3892L6.20121 76.4257C6.42766 76.5587 6.55418 76.8125 6.52356 77.0728C6.4744 77.4862 6.52839 77.8521 6.67184 78.0769L15.8651 92.5518C15.8691 92.5583 15.8732 92.5655 15.8772 92.5728C16.0166 92.6848 16.094 92.8419 16.1093 93.0225C16.1182 93.1264 16.0988 93.2271 16.0577 93.319C15.9618 93.5745 15.7168 93.7469 15.4396 93.7469ZM1.62956 75.2774L10.6665 89.5315L13.396 91.1279L5.55733 78.7853C5.31396 78.4025 5.18663 77.9077 5.18583 77.3613L1.62956 75.2774Z" fill="#373435"/>
<path d="M10.1098 89.8856L0.916915 75.4115C0.785156 75.1969 0.702555 74.9494 0.686035 74.6523C0.719075 74.9329 0.801677 75.1969 0.933435 75.4115L10.1098 89.8856Z" fill="#F8C71A"/>
<path d="M10.1107 90.5449C9.89231 90.5449 9.67876 90.4369 9.55224 90.2387L0.35977 75.7646C0.159916 75.4398 0.0495129 75.0804 0.0269487 74.6896C0.00680223 74.3334 0.273543 74.0247 0.628928 73.9941C0.993178 73.9675 1.30021 74.2206 1.34212 74.5743C1.36387 74.7653 1.41948 74.9402 1.49604 75.0659L10.6676 89.5311C10.8626 89.839 10.7715 90.2467 10.4637 90.4426C10.3541 90.5119 10.2316 90.5449 10.1107 90.5449Z" fill="#373435"/>
<path d="M45.7696 33.8335C50.8696 30.0008 55.5965 32.0844 56.3709 38.3126C57.1545 44.6147 53.7004 52.7678 48.6004 56.6005C43.5295 60.4114 38.7541 58.4428 37.9705 52.1407C37.1961 45.9125 40.6986 37.6444 45.7696 33.8335Z" fill="#F8C71A"/>
<path d="M48.5976 56.5955C44.4385 59.7147 40.4942 58.9721 38.7612 55.1101C46.2207 55.0605 52.2284 47.8318 52.2284 38.9196C52.2284 36.4109 51.7497 34.0343 50.8915 31.9219C53.7136 31.9879 55.8757 34.2985 56.3709 38.3089C57.1631 44.6135 53.6975 52.7665 48.5976 56.5955Z" fill="#DCAF20"/>
<path d="M43.6238 59.2058C42.8454 59.2058 42.0967 59.0583 41.3932 58.7602C39.1706 57.8165 37.7217 55.4948 37.3147 52.2222C36.5081 45.7374 40.1232 37.2517 45.3725 33.3062C48.0206 31.3157 50.7057 30.7403 52.9364 31.6872C55.1662 32.6333 56.6192 34.9574 57.0261 38.2316C57.8457 44.8284 54.3192 53.1288 48.9965 57.1283C47.1696 58.5015 45.325 59.2058 43.6238 59.2058ZM46.1655 34.3619C41.3368 37.9915 37.8837 46.096 38.6251 52.0594C38.9716 54.8453 40.1377 56.793 41.909 57.5441C43.698 58.304 45.9318 57.781 48.2035 56.0726C53.1 52.393 56.4701 44.4625 55.7158 38.3944C55.3693 35.6077 54.1992 33.6567 52.4206 32.9024C50.6421 32.1449 48.4227 32.6671 46.1655 34.3619Z" fill="#373435"/>
</svg>
