<svg width="46" height="46" viewBox="0 0 46 46" fill="none" xmlns="http://www.w3.org/2000/svg">
<rect width="46" height="46" rx="23" fill="#F8C71A"/>
<path fill-rule="evenodd" clip-rule="evenodd" d="M15.9791 15.9669C17.896 14.053 20.4455 13 23.1491 13C25.8527 13 28.4022 14.053 30.3191 15.9669C32.2366 17.8814 33.2982 20.4353 33.2982 23.1512C33.2982 25.3436 32.6001 27.4246 31.3254 29.1521L35.5476 33.3677C36.1508 33.9699 36.1508 34.9536 35.5476 35.5558C35.2494 35.8536 34.8603 36 34.4775 36C34.0947 36 33.7056 35.8536 33.4073 35.5558L29.1633 31.3185C27.4305 32.6023 25.3437 33.3024 23.1491 33.3024C20.4455 33.3024 17.896 32.2494 15.9791 30.3355C14.0616 28.421 13 25.8671 13 23.1512C13 20.4353 14.0616 17.8814 15.9791 15.9669ZM23.1491 16.0765C21.2443 16.0765 19.4612 16.8156 18.1193 18.1551C16.7784 19.4942 16.045 21.266 16.045 23.1512C16.045 25.0365 16.7784 26.8082 18.1193 28.1473C19.4612 29.4868 21.2443 30.226 23.1491 30.226C25.0539 30.226 26.837 29.4868 28.1788 28.1473C29.5197 26.8082 30.2531 25.0365 30.2531 23.1512C30.2531 21.266 29.5197 19.4942 28.1788 18.1551C26.837 16.8156 25.0539 16.0765 23.1491 16.0765Z" fill="#373435"/>
</svg>
