<svg width="17" height="17" viewBox="0 0 17 17" fill="none" xmlns="http://www.w3.org/2000/svg">
<path d="M13.7587 0H3.24133C2.38214 0.00149816 1.55856 0.343476 0.951019 0.951019C0.343476 1.55856 0.00149816 2.38214 0 3.24133V13.7587C0.00149816 14.6179 0.343476 15.4414 0.951019 16.049C1.55856 16.6565 2.38214 16.9985 3.24133 17H13.7587C14.6179 16.9985 15.4414 16.6565 16.049 16.049C16.6565 15.4414 16.9985 14.6179 17 13.7587V3.24133C16.9985 2.38214 16.6565 1.55856 16.049 0.951019C15.4414 0.343476 14.6179 0.00149816 13.7587 0ZM15.8667 13.7587C15.8652 14.3173 15.6426 14.8526 15.2476 15.2476C14.8526 15.6426 14.3173 15.8652 13.7587 15.8667H3.24133C2.68272 15.8652 2.14741 15.6426 1.7524 15.2476C1.3574 14.8526 1.13483 14.3173 1.13333 13.7587V3.24133C1.13483 2.68272 1.3574 2.14741 1.7524 1.7524C2.14741 1.3574 2.68272 1.13483 3.24133 1.13333H13.7587C14.3173 1.13483 14.8526 1.3574 15.2476 1.7524C15.6426 2.14741 15.8652 2.68272 15.8667 3.24133V13.7587Z" fill="#989898"/>
<path d="M13.45 9.512C13.3041 9.512 13.1642 9.56995 13.0611 9.67309C12.9579 9.77624 12.9 9.91613 12.9 10.062V12.1245L4.8755 4.1H6.938C7.08387 4.1 7.22376 4.04205 7.32691 3.93891C7.43005 3.83576 7.488 3.69587 7.488 3.55C7.488 3.40413 7.43005 3.26424 7.32691 3.16109C7.22376 3.05795 7.08387 3 6.938 3H3.3795C3.27885 3 3.18232 3.03998 3.11115 3.11115C3.03998 3.18232 3 3.27885 3 3.3795V6.938C3 7.08387 3.05795 7.22376 3.16109 7.32691C3.26424 7.43005 3.40413 7.488 3.55 7.488C3.69587 7.488 3.83576 7.43005 3.93891 7.32691C4.04205 7.22376 4.1 7.08387 4.1 6.938V4.8755L12.1245 12.9H10.062C9.91613 12.9 9.77624 12.9579 9.67309 13.0611C9.56995 13.1642 9.512 13.3041 9.512 13.45C9.512 13.5959 9.56995 13.7358 9.67309 13.8389C9.77624 13.9421 9.91613 14 10.062 14H13.6205C13.7211 14 13.8177 13.96 13.8888 13.8888C13.96 13.8177 14 13.7211 14 13.6205V10.062C14 9.91613 13.9421 9.77624 13.8389 9.67309C13.7358 9.56995 13.5959 9.512 13.45 9.512Z" fill="#989898"/>
</svg>
