<svg width="43" height="43" viewBox="0 0 43 43" fill="none" xmlns="http://www.w3.org/2000/svg">
<circle cx="21.4066" cy="21.4066" r="21.4066" fill="white"/>
<path d="M10.9182 8.80762H13.1506L14.5886 13.2325H14.7276L16.099 8.80762H18.3505L15.7709 15.2843V19.8788H13.5551V15.4904L10.9182 8.80762ZM18.585 13.5755C18.585 12.9258 18.8519 12.4095 19.3861 12.0241C19.9196 11.6387 20.6368 11.446 21.5379 11.446C22.3585 11.446 23.0305 11.6497 23.554 12.0556C24.0789 12.4616 24.3406 12.984 24.3406 13.6239V17.9567C24.3406 18.6742 24.0831 19.2377 23.5698 19.6462C23.0559 20.0546 22.3481 20.2594 21.4479 20.2594C20.5804 20.2594 19.8866 20.0485 19.3658 19.6268C18.8456 19.205 18.585 18.6378 18.585 17.924V13.5755ZM20.6257 18.0815C20.6257 18.313 20.6956 18.4899 20.8372 18.6172C20.9784 18.7432 21.1798 18.805 21.4419 18.805C21.7107 18.805 21.9243 18.742 22.0821 18.6136C22.2403 18.4839 22.3197 18.3069 22.3197 18.0815V13.5124C22.3197 13.3294 22.2385 13.1815 22.0773 13.0688C21.9162 12.9561 21.7043 12.8991 21.4419 12.8991C21.2004 12.8991 21.0035 12.9561 20.8526 13.0688C20.7011 13.1815 20.6257 13.3294 20.6257 13.5124V18.0815ZM31.5929 11.5806V19.9698H29.6071V19.0438C29.2405 19.3856 28.86 19.6449 28.4636 19.8243C28.068 20.0013 27.6832 20.091 27.311 20.091C26.8518 20.091 26.5051 19.9661 26.2724 19.7165C26.0397 19.4667 25.9233 19.0923 25.9233 18.593V11.5806H27.9098V18.0112C27.9098 18.2112 27.9516 18.3542 28.0346 18.4439C28.1183 18.5324 28.2528 18.5772 28.4388 18.5772C28.5854 18.5772 28.7703 18.5178 28.9926 18.4003C29.2162 18.2827 29.421 18.1324 29.607 17.9494V11.5806H31.5929ZM29.732 26.4283C29.6345 26.3204 29.4793 26.2647 29.266 26.2647C29.043 26.2647 28.8831 26.3204 28.7861 26.4283C28.6892 26.5373 28.6407 26.7179 28.6407 26.97V27.4924H29.878V26.97C29.878 26.7179 29.8295 26.5373 29.732 26.4283ZM23.8631 30.3611C23.9697 30.4047 24.0825 30.4253 24.2012 30.4253C24.3733 30.4253 24.4981 30.384 24.5794 30.2992C24.6605 30.2156 24.7005 30.0762 24.7005 29.8848V26.8646C24.7005 26.661 24.6508 26.5071 24.5515 26.4016C24.4515 26.2961 24.3055 26.244 24.1164 26.244C24.0164 26.244 23.9176 26.2634 23.82 26.3022C23.7225 26.3422 23.6262 26.404 23.531 26.4864V30.149C23.6449 30.2483 23.7558 30.3186 23.8631 30.3611ZM33.0746 23.9668C33.0746 22.5125 31.5808 21.3332 29.7399 21.3332C27.1136 21.2447 24.4261 21.2059 21.6843 21.2107C18.9435 21.2059 16.2559 21.2446 13.6287 21.3332C11.7887 21.3332 10.295 22.5124 10.295 23.9668C10.1844 25.1169 10.1365 26.2683 10.1408 27.4197C10.1365 28.571 10.1844 29.7223 10.295 30.8737C10.295 32.3268 11.7887 33.506 13.6287 33.506C16.2559 33.5933 18.9435 33.6321 21.6843 33.6285C24.4261 33.6321 27.1136 33.5933 29.7399 33.506C31.5808 33.506 33.0746 32.3268 33.0746 30.8737C33.1849 29.7223 33.2327 28.571 33.2278 27.4197C33.2327 26.2683 33.1849 25.1169 33.0746 23.9668ZM15.1391 31.2955V31.3828H13.5618V31.2955V24.4067H11.9299V24.3207V23.2227V23.1367H16.7713V23.2227V24.3207V24.4067H15.1391V31.2955ZM20.7502 25.3629V31.2955V31.3828H19.3497V31.2955V30.7174C19.091 30.9634 18.8228 31.1488 18.5438 31.2773C18.2642 31.4045 17.9933 31.4688 17.7303 31.4688C17.4067 31.4688 17.1628 31.3791 16.9985 31.2009C16.834 31.0216 16.7519 30.7525 16.7519 30.3938V30.3065V25.3629V25.2769H18.1529V25.3629V29.8908C18.1529 30.0326 18.182 30.1368 18.2405 30.1999C18.2996 30.2641 18.3947 30.2956 18.5259 30.2956C18.6292 30.2956 18.7592 30.2532 18.9167 30.1695C19.0737 30.0847 19.2179 29.9769 19.3497 29.8459V25.3629V25.2769H20.7502V25.3629ZM26.1422 26.7967V30.0484V30.1356C26.1422 30.5635 26.0325 30.8907 25.8132 31.1185C25.5937 31.344 25.2762 31.4579 24.8617 31.4579C24.5878 31.4579 24.3443 31.4142 24.1297 31.327C23.9146 31.2385 23.7153 31.1027 23.531 30.9197V31.2954V31.3827H22.1173V31.2954V23.2227V23.1366H23.531V23.2227V25.7629C23.7201 25.5787 23.9201 25.4393 24.1322 25.3448C24.3449 25.249 24.5601 25.2006 24.7769 25.2006C25.2193 25.2006 25.5587 25.329 25.7919 25.586C26.0252 25.8429 26.1422 26.2174 26.1422 26.7095V26.7967ZM31.3196 26.9809V28.4268V28.5141H28.6407V29.5624C28.6407 29.8787 28.6867 30.0981 28.7788 30.2205C28.8715 30.343 29.0291 30.4047 29.252 30.4047C29.4842 30.4047 29.6472 30.3526 29.7399 30.2484C29.832 30.1454 29.878 29.9163 29.878 29.5624V29.2315V29.1443H31.3197V29.2315V29.5963V29.6836C31.3197 30.3005 31.1446 30.7647 30.7931 31.0773C30.4422 31.3901 29.918 31.5452 29.2206 31.5452C28.5934 31.5452 28.1002 31.3791 27.7396 31.0483C27.3796 30.7174 27.1991 30.2617 27.1991 29.6836V29.5963V26.9809V26.8949C27.1991 26.3726 27.3972 25.9471 27.7923 25.6175C28.188 25.289 28.7001 25.1242 29.3266 25.1242C29.9678 25.1242 30.4598 25.2769 30.8041 25.5811C31.147 25.8854 31.3197 26.3241 31.3197 26.8949V26.9809H31.3196Z" fill="#373435"/>
</svg>
