<svg width="43" height="43" viewBox="0 0 43 43" fill="none" xmlns="http://www.w3.org/2000/svg">
<circle cx="21.4066" cy="21.4066" r="21.4066" fill="white"/>
<path fill-rule="evenodd" clip-rule="evenodd" d="M7.78736 20.4709C14.7667 17.3661 19.4206 15.3193 21.7493 14.3304C28.3979 11.5069 29.7795 11.0164 30.68 11.0002C30.878 10.9966 31.3208 11.0467 31.6077 11.2844C31.8499 11.485 31.9165 11.7561 31.9484 11.9464C31.9803 12.1366 32.02 12.57 31.9884 12.9087C31.6281 16.7739 30.0692 26.1538 29.276 30.483C28.9404 32.3148 28.2796 32.929 27.6399 32.9891C26.2496 33.1197 25.1938 32.051 23.8473 31.1497C21.7401 29.7394 20.5498 28.8615 18.5044 27.4853C16.1407 25.8949 17.673 25.0208 19.0201 23.5922C19.3726 23.2184 25.4983 17.5294 25.6169 17.0134C25.6317 16.9488 25.6455 16.7082 25.5055 16.5812C25.3655 16.4541 25.1589 16.4976 25.0098 16.5321C24.7985 16.5811 21.4323 18.8528 14.9113 23.3472C13.9558 24.0171 13.0904 24.3435 12.315 24.3264C11.4602 24.3075 9.81586 23.8329 8.59347 23.4272C7.09416 22.9296 5.90254 22.6665 6.0063 21.8214C6.06035 21.3812 6.65403 20.931 7.78736 20.4709Z" fill="#373435"/>
</svg>
