<svg width="47" height="43" viewBox="0 0 47 43" fill="none" xmlns="http://www.w3.org/2000/svg">
<path d="M46.1535 1.605L46.3635 2.28L43.6635 3.045L43.4985 2.565L46.1535 1.605ZM45.5235 4.86L44.9535 5.28L43.3935 2.955L43.7835 2.655L45.5235 4.86ZM42.2235 5.28L41.6535 4.86L43.3935 2.655L43.7835 2.955L42.2235 5.28ZM40.8135 2.28L41.0235 1.605L43.6785 2.565L43.5135 3.045L40.8135 2.28ZM43.2435 0H43.9335L43.8285 2.805H43.3485L43.2435 0Z" fill="white"/>
<circle cx="21.4066" cy="21.4066" r="21.4066" fill="white"/>
<path fill-rule="evenodd" clip-rule="evenodd" d="M16.4433 9.58496H25.7473C27.566 9.58579 29.3099 10.3086 30.596 11.5947C31.882 12.8807 32.6048 14.6246 32.6056 16.4433V25.7473C32.6043 27.5659 31.8813 29.3096 30.5954 30.5957C29.3095 31.8818 27.5659 32.605 25.7473 32.6067H16.4433C14.6246 32.6053 12.8808 31.8821 11.5949 30.596C10.309 29.3099 9.58607 27.566 9.58496 25.7473V16.4433C9.58635 14.6248 10.3094 12.8812 11.5953 11.5953C12.8812 10.3094 14.6248 9.58635 16.4433 9.58496ZM28.9598 28.9598C29.8118 28.1078 30.2906 26.9522 30.2909 25.7473L30.2899 16.4433C30.2896 15.2387 29.8109 14.0834 28.9591 13.2315C28.1072 12.3797 26.9519 11.901 25.7473 11.9007H16.4433C15.8468 11.9006 15.256 12.018 14.7048 12.2462C14.1536 12.4745 13.6528 12.8091 13.2309 13.2309C12.8091 13.6528 12.4745 14.1536 12.2462 14.7048C12.018 15.256 11.9006 15.8468 11.9007 16.4433V25.7473C11.9006 26.3439 12.018 26.9347 12.2462 27.486C12.4744 28.0372 12.809 28.5381 13.2309 28.96C13.6527 29.382 14.1535 29.7167 14.7047 29.945C15.2559 30.1734 15.8467 30.2909 16.4433 30.2909H25.7473C26.9522 30.2906 28.1078 29.8118 28.9598 28.9598ZM15.1437 21.0961C15.1437 17.8134 17.8121 15.1439 21.0958 15.1439C24.3796 15.1439 27.048 17.8134 27.048 21.0961C27.048 24.3788 24.3785 27.0483 21.0958 27.0483C17.8131 27.0483 15.1437 24.3788 15.1437 21.0961ZM18.5244 23.6678C19.2064 24.3496 20.1314 24.7326 21.0958 24.7325C22.0603 24.7323 22.9851 24.3491 23.667 23.667C24.3488 22.985 24.7318 22.06 24.7317 21.0956C24.7315 20.1311 24.3483 19.2063 23.6662 18.5244C22.9842 17.8425 22.0592 17.4596 21.0948 17.4597C20.1303 17.4598 19.2055 17.8431 18.5236 18.5251C17.8418 19.2072 17.4588 20.1322 17.4589 21.0966C17.4591 22.061 17.8423 22.9859 18.5244 23.6678ZM27.8526 14.0024C27.6182 13.8456 27.3426 13.7618 27.0605 13.7616C26.1669 13.7616 25.6332 14.402 25.6332 15.1889C25.6334 15.4709 25.7172 15.7465 25.874 15.9809C26.0308 16.2153 26.2536 16.398 26.5142 16.5058C26.7747 16.6136 27.0614 16.6418 27.338 16.5867C27.6146 16.5317 27.8686 16.3958 28.068 16.1964C28.2675 15.997 28.4033 15.743 28.4583 15.4664C28.5134 15.1898 28.4852 14.9031 28.3774 14.6425C28.2696 14.382 28.087 14.1592 27.8526 14.0024Z" fill="#373435"/>
</svg>
