<svg width="38" height="32" viewBox="0 0 38 32" fill="none" xmlns="http://www.w3.org/2000/svg">
<path fill-rule="evenodd" clip-rule="evenodd" d="M2.6123 13.7758C12.8128 9.25985 19.6148 6.28267 23.0181 4.84424C32.7355 0.737239 34.7546 0.0238091 36.0707 0.00025118C36.3602 -0.00493012 37.0074 0.0679637 37.4266 0.413632C37.7806 0.705508 37.878 1.09979 37.9246 1.37652C37.9712 1.65325 38.0292 2.28365 37.9831 2.77623C37.4565 8.3984 35.178 22.0419 34.0188 28.3389C33.5283 31.0033 32.5625 31.8967 31.6275 31.9841C29.5955 32.1741 28.0525 30.6196 26.0845 29.3087C23.0048 27.2573 21.265 25.9804 18.2757 23.9787C14.821 21.6653 17.0605 20.3939 19.0294 18.316C19.5446 17.7722 28.4976 9.49735 28.6708 8.74669C28.6925 8.65281 28.7126 8.30286 28.508 8.11807C28.3034 7.93329 28.0015 7.99648 27.7836 8.04673C27.4747 8.11797 22.5549 11.4222 13.0242 17.9596C11.6278 18.9339 10.3629 19.4087 9.22963 19.3838C7.98028 19.3564 5.57702 18.666 3.79045 18.0759C1.59915 17.3521 -0.142449 16.9694 0.00920586 15.7402C0.0881969 15.0999 0.955895 14.4451 2.6123 13.7758Z" fill="white"/>
</svg>
