<svg width="40" height="40" viewBox="0 0 40 40" fill="none" xmlns="http://www.w3.org/2000/svg">
<rect width="40" height="40" rx="20" transform="matrix(-1 0 0 1 40 0)" fill="white"/>
<path d="M29.1036 20.3536C29.2988 20.1583 29.2988 19.8417 29.1036 19.6464L25.9216 16.4645C25.7263 16.2692 25.4097 16.2692 25.2145 16.4645C25.0192 16.6597 25.0192 16.9763 25.2145 17.1716L28.0429 20L25.2145 22.8284C25.0192 23.0237 25.0192 23.3403 25.2145 23.5355C25.4097 23.7308 25.7263 23.7308 25.9216 23.5355L29.1036 20.3536ZM28.75 19.5L12.5 19.5L12.5 20.5L28.75 20.5L28.75 19.5Z" fill="#373435"/>
</svg>
