<svg width="91" height="122" viewBox="0 0 91 122" fill="none" xmlns="http://www.w3.org/2000/svg">
<path fill-rule="evenodd" clip-rule="evenodd" d="M79.4434 9.09014C79.4524 9.09612 79.4614 9.10211 79.4704 9.11109C79.5182 9.14699 79.5661 9.1859 79.617 9.2248L86.8167 14.9164C88.1544 15.9727 89.1568 17.3313 89.8181 18.9831C90.4555 20.5721 90.7787 22.4214 90.7787 24.5161V72.7628C90.7787 74.8126 90.4735 76.8505 89.866 78.8584V78.8644C89.2675 80.8454 88.3698 82.8054 87.1698 84.7355L79.9701 96.3431C78.7701 98.2792 77.4355 99.913 75.9782 101.239C74.491 102.591 72.8631 103.633 71.1095 104.354L30.9513 120.857C29.1289 121.605 27.4172 121.91 25.8163 121.773C24.2542 121.638 22.8179 121.084 21.5132 120.118C21.5072 120.115 21.5012 120.109 21.4952 120.103C21.4713 120.085 21.4503 120.07 21.4264 120.052C21.4174 120.046 21.4084 120.037 21.3965 120.031C21.3875 120.025 21.3785 120.016 21.3695 120.01L11.734 112.694C11.6831 112.655 11.6322 112.616 11.5843 112.577L4.38457 106.885C3.04696 105.829 2.0445 104.47 1.38317 102.822C0.745789 101.233 0.422607 99.3834 0.422607 97.2887V49.0419C0.422607 46.9891 0.727834 44.9543 1.3353 42.9464V42.9404C1.93378 40.9624 2.8315 38.9994 4.03146 37.0693L11.2312 25.4617C12.4312 23.5256 13.7658 21.8887 15.2231 20.5661C16.7103 19.2135 18.3382 18.1721 20.0918 17.451L60.25 0.947768C62.0724 0.199663 63.7841 -0.105564 65.385 0.0320876C66.98 0.169739 68.4463 0.744283 69.7749 1.75273C69.7839 1.75871 69.7929 1.76769 69.8048 1.77368L79.4464 9.09612L79.4434 9.09014Z" fill="#373435"/>
<path fill-rule="evenodd" clip-rule="evenodd" d="M3.07687 43.1947L3.00206 43.4401C2.45146 45.2595 2.16418 47.1328 2.16418 49.0329V97.2797C2.16418 98.9285 2.37964 100.625 2.99907 102.163C3.53471 103.495 4.33967 104.623 5.46482 105.512L12.6646 111.203C12.7065 111.236 12.7484 111.266 12.7873 111.299L22.4079 118.604C22.4109 118.607 22.4288 118.622 22.4468 118.634C22.4558 118.64 22.4677 118.649 22.4797 118.658C22.4947 118.67 22.5126 118.681 22.5485 118.708C23.569 119.466 24.6971 119.917 25.9659 120.028C27.4441 120.157 28.9284 119.798 30.2899 119.238L70.4482 102.735C72.0641 102.071 73.5184 101.116 74.8081 99.943C76.2535 98.6323 77.4654 97.0703 78.4918 95.4154L85.6916 83.8078C86.706 82.171 87.5469 80.4264 88.1244 78.5891L88.1992 78.3437C88.7498 76.5243 89.0371 74.651 89.0371 72.7509V24.5041C89.0371 22.8553 88.8216 21.1586 88.2022 19.6205C87.6666 18.2888 86.8616 17.1607 85.7365 16.2719L78.5367 10.5804C78.5008 10.5504 78.4619 10.5205 78.3931 10.4696L68.7515 3.14719C68.7425 3.1412 68.7305 3.13223 68.7216 3.12624C67.6832 2.33924 66.5341 1.86643 65.2354 1.75272C63.7571 1.62405 62.2729 1.98314 60.9114 2.54272L20.7531 19.0459C19.1372 19.7102 17.6829 20.6648 16.3931 21.8378C14.9478 23.1485 13.7359 24.7106 12.7095 26.3654L5.50971 37.973C4.49528 39.6098 3.65441 41.3544 3.07687 43.1917V43.1947Z" fill="#F8C71A"/>
<path fill-rule="evenodd" clip-rule="evenodd" d="M30.3678 26.2222L70.526 9.71903C73.698 8.41733 76.4271 8.65373 78.6684 10.4252L85.8682 16.1168C88.1095 17.8883 89.2406 20.7042 89.2406 24.5135V72.7603C89.2406 76.5697 88.1095 80.3132 85.8682 83.928L78.6684 95.5356C76.4271 99.1505 73.698 101.631 70.526 102.933L30.3678 119.436C27.1958 120.741 24.4667 120.501 22.2254 118.73L15.0257 113.038C12.7843 111.267 11.6532 108.451 11.6532 104.642V56.3948C11.6532 52.5854 12.7843 48.8419 15.0257 45.2271L22.2254 33.6195C24.4667 30.0046 27.1958 27.5239 30.3678 26.2222Z" fill="white"/>
<path fill-rule="evenodd" clip-rule="evenodd" d="M29.7095 24.621L69.8677 8.11778C71.72 7.35771 73.4646 7.0465 75.0955 7.18714C76.7892 7.33377 78.3423 7.96218 79.7397 9.06638L86.9395 14.758C88.304 15.8382 89.3274 17.2207 90.0037 18.9055C90.6531 20.5214 90.9792 22.3916 90.9792 24.5103V72.757C90.9792 74.8278 90.671 76.8806 90.0606 78.9094V78.9154C89.4591 80.9114 88.5524 82.8864 87.3435 84.8344L80.1437 96.442C78.9318 98.3961 77.5882 100.045 76.1159 101.382C74.6107 102.75 72.9649 103.803 71.1874 104.534L31.0291 121.037C29.1768 121.797 27.4322 122.108 25.8014 121.967C24.1077 121.821 22.5546 121.192 21.1571 120.088L13.9574 114.397C12.5928 113.319 11.5694 111.934 10.8931 110.252C10.2438 108.636 9.9176 106.766 9.9176 104.644V56.3975C9.9176 54.3267 10.2258 52.2739 10.8363 50.245V50.2391C11.4378 48.2461 12.3445 46.2681 13.5534 44.3201L20.7532 32.7125C21.9651 30.7584 23.3087 29.1096 24.7809 27.772C26.2861 26.4045 27.932 25.3511 29.7095 24.621ZM30.3678 26.2219L70.5261 9.71873C73.698 8.41702 76.4271 8.65343 78.6684 10.4249L85.8682 16.1165C88.1095 17.888 89.2406 20.7039 89.2406 24.5132V72.76C89.2406 76.5694 88.1095 80.3129 85.8682 83.9277L78.6684 95.5353C76.4271 99.1502 73.698 101.631 70.5261 102.933L30.3678 119.436C27.1958 120.74 24.4667 120.501 22.2254 118.73L15.0257 113.038C12.7843 111.266 11.6532 108.451 11.6532 104.641V56.3945C11.6532 52.5851 12.7843 48.8416 15.0257 45.2268L22.2254 33.6192C24.4667 30.0043 27.1958 27.5236 30.3678 26.2219Z" fill="#373435"/>
<path fill-rule="evenodd" clip-rule="evenodd" d="M42.412 79.5972L46.4518 82.6166C46.9784 83.0116 47.6547 83.3707 48.5016 83.6908C50.5125 84.4569 52.1224 85.1122 53.7263 85.7646C55.4649 86.4708 57.1975 87.177 59.5586 88.0687C60.1181 88.2782 60.6388 88.5116 61.1475 88.7391C63.5564 89.8103 65.7169 90.7769 68.6525 89.2448C69.652 88.7241 70.6365 87.7127 71.4235 85.9681C72.007 84.6753 72.5067 82.9338 72.8479 80.6176C73.7935 74.163 75.2538 63.486 76.4657 53.7517C77.3754 46.4502 78.1504 39.6275 78.4706 35.4231C78.5006 35.0221 78.5006 34.5643 78.4856 34.1304C78.4646 33.5499 78.4168 33.0471 78.3749 32.7718C78.327 32.4606 78.2492 32.0776 78.0727 31.6676C77.8901 31.2457 77.6148 30.8477 77.1929 30.5335L73.1531 27.5142C73.0633 27.4453 72.9646 27.3825 72.8629 27.3256C72.3332 27.0264 71.7497 26.9396 71.205 26.9665C70.5707 26.9995 69.9452 27.194 69.5861 27.3496C68.5119 27.8134 67.2191 28.6692 64.4242 31.0392C61.737 33.3165 57.5716 37.048 50.686 43.3201C48.3101 45.4836 44.6922 48.8232 39.8355 53.3298C35.0297 57.7915 29.0209 63.3933 21.8152 70.1232C20.5763 71.2244 19.6157 72.2179 18.9365 73.1007C18.1465 74.1271 17.7096 75.0697 17.6258 75.9195C17.4911 77.2512 17.8293 78.092 18.5235 78.6097L22.5633 81.6291C23.1139 82.042 23.8889 82.2515 24.8345 82.3443C25.6155 82.4221 26.5133 82.3921 27.5068 82.3592L28.5721 82.3293C30.0353 82.2994 31.7919 82.2066 33.3779 82.0061C34.6826 81.8415 35.8945 81.5991 36.7922 81.252C37.7648 80.878 38.7612 80.2526 39.7846 79.3788C40.2305 78.9957 40.6854 78.5678 41.1432 78.092C41.3886 78.6366 41.7985 79.1394 42.406 79.5942L42.412 79.5972Z" fill="#373435"/>
<path fill-rule="evenodd" clip-rule="evenodd" d="M26.8816 74.2921C41.32 60.8022 50.9467 51.8609 55.7644 47.474C69.5176 34.9477 72.3754 32.5807 74.2396 31.7758C74.6496 31.5992 75.5653 31.3449 76.1578 31.68C76.6575 31.9613 76.7952 32.5658 76.864 33.0027C76.9298 33.4396 77.0106 34.46 76.9478 35.3098C76.2027 45.0262 72.9768 69.184 71.337 80.3936C70.6428 85.1366 69.2752 87.1954 67.9526 87.8836C65.0769 89.3828 62.8924 87.6801 60.1064 86.6298C55.7465 84.987 53.2837 83.8648 49.0554 82.2519C44.1658 80.3906 47.3348 76.9583 50.1237 72.338C50.8539 71.1291 63.5238 52.0734 63.7692 50.7148C63.7991 50.5442 63.829 49.9487 63.5388 49.7572C63.2485 49.5657 62.8206 49.847 62.5124 50.0595C62.0755 50.3587 55.1121 58.7494 41.6223 75.2347C39.6443 77.6765 37.8548 79.2086 36.2509 79.8251C34.4824 80.5073 31.08 80.7497 28.5514 80.8006C25.4512 80.8634 22.9855 81.2375 23.198 79.0919C23.3087 77.9757 24.5386 76.3748 26.8816 74.2891V74.2921Z" fill="#F8C71A"/>
<path d="M24.5085 29.1395L15.4265 22.1163L16.417 20.8325L25.499 27.8557L24.5085 29.1395Z" fill="#373435"/>
<path d="M10.9019 51.2024L1.69727 44.2899L2.6698 42.9912L11.8745 49.9037L10.9019 51.2024Z" fill="#373435"/>
</svg>
