<svg width="30" height="29" viewBox="0 0 30 29" fill="none" xmlns="http://www.w3.org/2000/svg">
<path d="M28.1661 25.2012H1.48243C1.08926 25.2012 0.712201 25.3574 0.434192 25.6354C0.156184 25.9134 0 26.2904 0 26.6836C0 27.0768 0.156184 27.4538 0.434192 27.7318C0.712201 28.0098 1.08926 28.166 1.48243 28.166H28.1661C28.5592 28.166 28.9363 28.0098 29.2143 27.7318C29.4923 27.4538 29.6485 27.0768 29.6485 26.6836C29.6485 26.2904 29.4923 25.9134 29.2143 25.6354C28.9363 25.3574 28.5592 25.2012 28.1661 25.2012Z" fill="#373435"/>
<path d="M14.8244 0C14.4313 0 14.0542 0.156184 13.7762 0.434192C13.4982 0.712201 13.342 1.08926 13.342 1.48243V17.1813L8.46484 12.2893C8.18569 12.0102 7.80709 11.8533 7.41232 11.8533C7.01755 11.8533 6.63894 12.0102 6.3598 12.2893C6.08065 12.5684 5.92383 12.9471 5.92383 13.3418C5.92383 13.7366 6.08065 14.1152 6.3598 14.3943L13.7719 21.8065C13.9097 21.9454 14.0737 22.0557 14.2543 22.131C14.435 22.2062 14.6287 22.245 14.8244 22.245C15.0201 22.245 15.2139 22.2062 15.3946 22.131C15.5752 22.0557 15.7392 21.9454 15.877 21.8065L23.2891 14.3943C23.4273 14.2561 23.537 14.092 23.6118 13.9114C23.6866 13.7309 23.7251 13.5373 23.7251 13.3418C23.7251 13.1464 23.6866 12.9528 23.6118 12.7722C23.537 12.5916 23.4273 12.4275 23.2891 12.2893C23.1509 12.1511 22.9868 12.0414 22.8062 11.9666C22.6256 11.8918 22.432 11.8533 22.2366 11.8533C22.0411 11.8533 21.8475 11.8918 21.6669 11.9666C21.4864 12.0414 21.3223 12.1511 21.184 12.2893L16.3069 17.1813V1.48243C16.3069 1.08926 16.1507 0.712201 15.8727 0.434192C15.5947 0.156184 15.2176 0 14.8244 0Z" fill="#373435"/>
</svg>
