<svg width="43" height="43" viewBox="0 0 43 43" fill="none" xmlns="http://www.w3.org/2000/svg">
<path d="M5.14152 14.7589C4.09587 11.5841 6.00452 6.8274 6.0924 6.6123C6.16047 6.44516 6.29286 6.31305 6.45972 6.24499C6.67482 6.15711 11.4309 4.24876 14.6064 5.29412C16.1127 2.30853 20.826 0.295075 21.0402 0.204899C21.2062 0.134825 21.3935 0.134825 21.5595 0.204899C21.7737 0.295075 26.4873 2.30882 27.9933 5.29441C31.0461 4.2904 35.5685 6.01783 36.1093 6.23264C36.2962 6.30702 36.4458 6.45665 36.5199 6.64389C36.7345 7.18409 38.4616 11.7064 37.4579 14.7592C40.4435 16.2652 42.4573 20.9788 42.5474 21.1927C42.6175 21.359 42.6175 21.546 42.5474 21.712C42.4573 21.9262 40.4435 26.6395 37.4582 28.1455C38.5038 31.3206 36.5952 36.0773 36.5073 36.2927C36.4395 36.4595 36.3071 36.5919 36.14 36.66C35.9711 36.7286 32.9956 37.923 30.1877 37.9233C29.4235 37.9233 28.672 37.8349 27.9928 37.6111C26.4865 40.5961 21.7737 42.6096 21.5595 42.6998C21.4765 42.7348 21.3883 42.7523 21.2999 42.7523C21.2114 42.7523 21.1232 42.7348 21.0402 42.6998C20.826 42.6096 16.1132 40.5961 14.6069 37.6111C13.9277 37.8349 13.1759 37.9233 12.4123 37.9233C9.60442 37.9233 6.62887 36.7286 6.46001 36.6597C6.29315 36.5916 6.16076 36.4592 6.09269 36.2924C6.00481 36.0773 4.09645 31.3212 5.14181 28.1458C2.1565 26.6398 0.142732 21.9262 0.0525553 21.7122C-0.0175184 21.5463 -0.0175184 21.359 0.0525553 21.1927C0.142732 20.9788 2.15621 16.2649 5.14152 14.7589Z" fill="#F8C71A"/>
</svg>
