<svg width="49" height="43" viewBox="0 0 49 43" fill="none" xmlns="http://www.w3.org/2000/svg">
<path d="M25.0324 7.21191C25.0274 7.19115 23.2052 -0.0419401 31.5342 0.954021C31.714 0.975066 31.85 1.11215 31.8713 1.27767C31.9686 1.75517 33.1501 8.22294 25.3725 7.4983C25.2027 7.48294 25.0691 7.36349 25.0324 7.21191ZM25.4313 15.493C17.319 16.4398 18.7429 9.48169 18.8172 9.14126C18.8449 8.98143 18.9801 8.85231 19.1557 8.83354C27.4362 7.9394 25.7985 15.0545 25.7648 15.1987C25.732 15.3514 25.601 15.4737 25.4313 15.493ZM4.5614 19.1046C3.91684 18.1661 3.25779 16.5586 3.64364 14.133C3.66847 13.9735 3.79562 13.8529 3.95114 13.8233C4.25214 13.7457 6.972 13.0964 8.80545 14.5411C9.40862 15.0163 9.78945 15.6838 10.0284 16.3789C10.6933 14.6597 12.3142 13.0079 16.183 13.5725C16.3386 13.5949 16.4586 13.7039 16.4982 13.8409C16.5878 14.1014 17.5097 16.9599 15.547 19.1046H26.7769C26.4789 18.5304 26.2104 17.6578 26.6001 16.733C27.1539 15.4191 28.4397 15.4401 29.003 15.5197C29.5719 14.7991 31.7184 12.5082 35.3463 13.54C35.8093 13.0182 37.1475 11.7165 38.8527 11.8854C40.3712 12.0359 41.1489 12.7537 41.4664 13.1462C42.1053 12.998 43.6741 12.7545 44.5449 13.662C45.3539 14.505 45.2146 15.8175 45.0884 16.4403C45.811 16.7079 47.3969 17.4804 47.3937 19.1046H47.611C48.0382 19.1046 48.3848 19.4379 48.3848 19.8488V23.9345C48.3848 24.3454 48.0382 24.6788 47.611 24.6788H46.5076V30.0684C46.5076 33.5727 43.8829 36.5154 40.4309 37.1689C40.4871 37.2164 40.5418 37.2654 40.5945 37.3163C41.2157 37.9138 41.5997 38.7391 41.5997 39.6506C41.5997 40.5621 41.2154 41.3874 40.5942 41.9849C39.9733 42.5825 39.1149 42.9522 38.1676 42.9522C37.22 42.9522 36.3619 42.5825 35.7407 41.9849C35.1195 41.3877 34.7352 40.5621 34.7352 39.6506C34.7352 38.7394 35.1195 37.9138 35.7407 37.3165L35.7529 37.3049H13.1329L13.145 37.3165C13.7662 37.9138 14.1506 38.7394 14.1506 39.6506C14.1506 40.5618 13.7662 41.3874 13.145 41.9849C12.5241 42.5822 11.6658 42.9522 10.7184 42.9522C9.77082 42.9522 8.91278 42.5825 8.29158 41.9849C7.67067 41.3877 7.28601 40.5621 7.28601 39.6506C7.28601 38.7394 7.67038 37.9138 8.29158 37.3163C8.34421 37.2656 8.39861 37.2167 8.45449 37.1695C6.96254 36.8871 5.62553 36.1775 4.58802 35.1796C3.22468 33.8685 2.37846 32.0592 2.37846 30.0684V24.6788H1.15853C0.731289 24.6788 0.384766 24.3454 0.384766 23.9345V19.8488C0.384766 19.4379 0.731289 19.1046 1.15853 19.1046H4.56022H4.5614Z" fill="#F8C71A"/>
</svg>
