<svg width="47" height="45" viewBox="0 0 47 45" fill="none" xmlns="http://www.w3.org/2000/svg">
<path d="M24.3796 34.1609V44.381C24.3796 44.6964 24.1203 44.9522 23.8005 44.9522H12.6439C12.3241 44.9522 12.0648 44.6964 12.0648 44.381V34.1609H1.48725C1.16749 34.1609 0.908203 33.9051 0.908203 33.5897V12.0071C0.908203 11.6916 1.16749 11.4358 1.48725 11.4358H12.0648V1.21576C12.0648 0.900317 12.3241 0.644531 12.6439 0.644531H23.8005C24.1203 0.644531 24.3796 0.900317 24.3796 1.21576V11.4358H34.3781V1.21576C34.3781 0.900317 34.6374 0.644531 34.9571 0.644531H46.1138C46.4335 0.644531 46.6928 0.900317 46.6928 1.21576V22.7984C46.6928 23.1138 46.4335 23.3696 46.1138 23.3696H35.5362V33.5897C35.5362 33.9051 35.2769 34.1609 34.9571 34.1609H24.3796Z" fill="#F8C71A"/>
</svg>
