<svg width="75" height="73" viewBox="0 0 75 73" fill="none" xmlns="http://www.w3.org/2000/svg">
<path d="M22.1284 52.6354C21.8815 52.3905 21.8815 51.993 22.1284 51.7485C22.3754 51.5035 22.7759 51.5035 23.0224 51.7485L24.1294 52.8469L25.236 51.749C25.4829 51.504 25.8835 51.504 26.1299 51.749C26.3769 51.994 26.3769 52.3914 26.1299 52.6359L25.0233 53.7338L26.1299 54.8317C26.3769 55.0767 26.3769 55.4742 26.1299 55.7187C25.883 55.9637 25.4824 55.9637 25.236 55.7187L24.1294 54.6208L23.0224 55.7192C22.7755 55.9642 22.3749 55.9642 22.1284 55.7192C21.8815 55.4742 21.8815 55.0767 22.1284 54.8322L23.2354 53.7338L22.1284 52.6354ZM61.0974 1.88179V25.0544C61.0974 25.401 60.8142 25.682 60.4649 25.682C60.1155 25.682 59.8323 25.401 59.8323 25.0544V1.88179H56.7238V18.7201V35.5584H68.2964V27.8438C68.2964 27.4971 68.5795 27.2162 68.9289 27.2162C69.2783 27.2162 69.5614 27.4971 69.5614 27.8438V35.5584H73.1029V1.88179H61.0974ZM28.9944 1.88179V25.0544C28.9944 25.401 28.7113 25.682 28.3619 25.682C28.0126 25.682 27.7294 25.401 27.7294 25.0544V1.88179H20.1723V18.7201V35.5584H36.551V18.7201V1.88179H28.994H28.9944ZM32.0633 12.2084C32.0633 11.8617 32.3465 11.5808 32.6959 11.5808C33.0452 11.5808 33.3284 11.8617 33.3284 12.2084V25.0544C33.3284 25.401 33.0452 25.682 32.6959 25.682C32.3465 25.682 32.0633 25.401 32.0633 25.0544V12.2084ZM23.4969 59.2124C23.4969 58.8657 23.78 58.5848 24.1294 58.5848C24.4788 58.5848 24.762 58.8657 24.762 59.2124V71.1173H36.5515V54.279V37.4407H33.5695V54.2473C33.5695 54.5939 33.2864 54.8749 32.937 54.8749C32.5876 54.8749 32.3045 54.5939 32.3045 54.2473V37.4407H20.1723V54.279V71.1173H23.4969V59.2124ZM47.3146 36.8438C47.3146 37.1904 47.0315 37.4713 46.6821 37.4713C46.3327 37.4713 46.0496 37.1904 46.0496 36.8438V28.188C46.0496 27.8414 46.3327 27.5604 46.6821 27.5604C47.0315 27.5604 47.3146 27.8414 47.3146 28.188V36.8438ZM50.412 36.5312C50.412 36.1845 50.6952 35.9036 51.0445 35.9036C51.3939 35.9036 51.6771 36.1845 51.6771 36.5312V53.3378H54.8272V36.4995V19.6612H38.4485V36.4995V53.3378H50.412V36.5312ZM9.31881 46.8827C9.31881 47.2293 9.03565 47.5103 8.68629 47.5103C8.33692 47.5103 8.05376 47.2293 8.05376 46.8827V29.1349C8.05376 28.7883 8.33692 28.5073 8.68629 28.5073C9.03565 28.5073 9.31881 28.7883 9.31881 29.1349V46.8827ZM6.30258 19.6612V36.4679C6.30258 36.8145 6.01942 37.0955 5.67005 37.0955C5.32069 37.0955 5.03753 36.8145 5.03753 36.4679V19.6612H1.89662V53.3378H18.2753V36.4995V19.6612H6.3021H6.30258ZM38.4485 55.2206V72.0589C38.4485 72.5786 38.0238 73 37.5 73H19.2243C18.7005 73 18.2757 72.5786 18.2757 72.0589V55.2206H0.948548C0.424742 55.2206 0 54.7991 0 54.2794V18.7206C0 18.2009 0.424742 17.7794 0.948548 17.7794H18.2757V0.941134C18.2757 0.421425 18.7005 0 19.2243 0H37.5C38.0238 0 38.4485 0.421425 38.4485 0.941134V17.7794H54.8272V0.941134C54.8272 0.421425 55.2519 0 55.7757 0H74.0515C74.5753 0 75 0.421425 75 0.941134V36.5C75 37.0197 74.5753 37.4411 74.0515 37.4411H56.7243V54.2794C56.7243 54.7991 56.2995 55.2206 55.7757 55.2206H38.4485Z" fill="#000000"/>
</svg>
