<svg width="71" height="71" viewBox="0 0 71 71" fill="none" xmlns="http://www.w3.org/2000/svg">
<path d="M35.4998 60.331C33.0161 60.331 30.6166 59.9644 28.3517 59.2838C27.9678 59.8227 27.5365 60.3325 27.0631 60.8054C26.8396 61.0289 26.5965 61.2366 26.3356 61.4267C27.9874 64.7125 33.0721 67.5662 35.4945 68.6633C37.1147 67.9151 42.8656 65.0572 44.6654 61.4286C44.404 61.2381 44.1599 61.0299 43.9359 60.8059C43.4625 60.3325 43.0313 59.8227 42.6474 59.2838C40.3824 59.9634 37.983 60.331 35.4998 60.331ZM31.0048 51.5518C30.7712 51.5518 30.5352 51.5173 30.2974 51.4402C28.993 51.0171 28.4833 49.6339 28.0334 48.4133C27.8132 47.816 27.5116 46.9975 27.2388 46.7988C26.9569 46.5935 26.0762 46.5581 25.4329 46.5318C24.1424 46.4796 22.6797 46.4198 21.8818 45.3237C21.0906 44.2362 21.4821 42.8342 21.8272 41.5974C22.0019 40.9718 22.2413 40.1151 22.1293 39.7719C22.0297 39.4665 21.3562 38.9362 20.8642 38.5485C19.8341 37.7381 18.6667 36.8191 18.6667 35.4282C18.6667 34.0373 19.8341 33.1178 20.8642 32.3074C21.3562 31.9202 22.0302 31.3899 22.1293 31.0836C22.2408 30.7404 22.0015 29.8836 21.8272 29.258C21.4816 28.0212 21.0906 26.6193 21.8818 25.5318C22.6797 24.4357 24.1424 24.3759 25.4329 24.3237C26.0762 24.2978 26.9569 24.2619 27.2383 24.0566C27.5112 23.858 27.8127 23.04 28.0329 22.4426C28.4828 21.2221 28.993 19.8383 30.2969 19.4152C31.5586 19.006 32.7595 19.8043 33.8188 20.5084C34.3989 20.8937 35.1207 21.3743 35.4993 21.3743C35.8784 21.3743 36.6002 20.8942 37.1798 20.5089C38.2391 19.8043 39.44 19.0064 40.7017 19.4157C42.006 19.8393 42.5158 21.2226 42.9657 22.4431C43.1859 23.0404 43.4874 23.8584 43.7602 24.0571C44.0422 24.2624 44.9229 24.2983 45.5657 24.3246C46.8561 24.3768 48.3189 24.4362 49.1168 25.5327C49.9084 26.6202 49.5164 28.0222 49.1713 29.259C48.9966 29.8846 48.7573 30.7413 48.8688 31.0845C48.9684 31.3899 49.6423 31.9207 50.1339 32.3079C51.1639 33.1183 52.3314 34.0373 52.3314 35.4287C52.3314 36.8196 51.1639 37.7386 50.1339 38.549C49.6418 38.9367 48.9684 39.467 48.8688 39.7728C48.7573 40.116 48.9962 40.9728 49.1713 41.5979C49.5164 42.8352 49.908 44.2371 49.1168 45.3241C48.3189 46.4202 46.8561 46.4801 45.5657 46.5322C44.9229 46.5586 44.0422 46.594 43.7602 46.7993C43.4874 46.998 43.1859 47.8164 42.9657 48.4138C42.5158 49.6343 42.0055 51.0176 40.7022 51.4407C39.44 51.85 38.2395 51.0521 37.1803 50.3475C36.6002 49.9622 35.8784 49.4821 35.4998 49.4821C35.1207 49.4821 34.3989 49.9617 33.8188 50.3475C32.9596 50.919 32.0076 51.5522 31.0048 51.5522V51.5518ZM31.0268 21.5332C31.0115 21.5332 30.9981 21.5346 30.9857 21.5375C30.7123 21.6265 30.3318 22.659 30.127 23.2142C29.7555 24.2222 29.3712 25.2642 28.5517 25.8606C27.7232 26.4637 26.6046 26.5092 25.5238 26.5532C24.9801 26.5752 23.849 26.6212 23.6863 26.8447C23.5303 27.0591 23.8318 28.1389 23.9768 28.6583C24.2693 29.7055 24.5718 30.7887 24.252 31.7728C23.9438 32.7234 23.0798 33.4031 22.2446 34.0607C21.7741 34.4312 20.8987 35.12 20.8987 35.4282C20.8987 35.736 21.7741 36.4252 22.2446 36.7952C23.0798 37.4524 23.9433 38.1325 24.252 39.0826C24.5713 40.0667 24.2693 41.1499 23.9763 42.1977C23.8318 42.7165 23.5303 43.7963 23.6858 44.0107C23.8486 44.2343 24.9796 44.2797 25.5233 44.3022C26.6041 44.3463 27.7222 44.3918 28.5513 44.9948C29.3707 45.5912 29.755 46.6332 30.1265 47.6413C30.3309 48.1965 30.7119 49.2289 30.9857 49.3184C31.2446 49.3773 32.1488 48.778 32.5829 48.4894C33.499 47.8806 34.4458 47.2507 35.4988 47.2507C36.5518 47.2507 37.4986 47.8806 38.4147 48.4894C38.8489 48.778 39.754 49.3802 40.0129 49.3179C40.2862 49.2294 40.6667 48.1965 40.8716 47.6417C41.243 46.6337 41.6274 45.5917 42.4473 44.9953C43.2759 44.3922 44.394 44.3468 45.4752 44.3027C46.0185 44.2807 47.15 44.2348 47.3127 44.0112C47.4688 43.7973 47.1677 42.717 47.0222 42.1981C46.7298 41.1504 46.4272 40.0672 46.7465 39.0831C47.0552 38.1325 47.9187 37.4529 48.754 36.7952C49.2245 36.4252 50.1004 35.736 50.1004 35.4282C50.1004 35.12 49.2245 34.4312 48.754 34.0607C47.9187 33.4031 47.0552 32.7234 46.7465 31.7728C46.4272 30.7892 46.7298 29.7055 47.0222 28.6583C47.1672 28.1389 47.4688 27.0591 47.3127 26.8447C47.15 26.6212 46.019 26.5752 45.4752 26.5532C44.394 26.5092 43.2759 26.4637 42.4468 25.8611C41.6274 25.2647 41.2435 24.2222 40.8716 23.2147C40.6672 22.6599 40.2862 21.627 40.0124 21.5375C39.754 21.4772 38.8493 22.0774 38.4152 22.3665C37.4995 22.9753 36.5523 23.6048 35.4993 23.6048C34.4463 23.6048 33.499 22.9749 32.5834 22.3656C32.1698 22.0908 31.3307 21.5332 31.0263 21.5332H31.0268ZM35.4998 40.8685C32.4996 40.8685 30.059 38.4279 30.059 35.4277C30.059 32.4276 32.4996 29.987 35.4998 29.987C38.4999 29.987 40.9405 32.4276 40.9405 35.4277C40.9405 38.4279 38.4999 40.8685 35.4998 40.8685ZM35.4998 32.2184C33.7302 32.2184 32.2904 33.6582 32.2904 35.4277C32.2904 37.1973 33.7302 38.637 35.4998 38.637C37.2693 38.637 38.7091 37.1973 38.7091 35.4277C38.7091 33.6582 37.2693 32.2184 35.4998 32.2184ZM11.6383 28.2964C11.1276 27.9264 10.6437 27.5138 10.1937 27.0634C9.9702 26.8399 9.76247 26.5968 9.57245 26.3359C6.28654 27.9882 3.43286 33.0728 2.3358 35.4952C3.08392 37.1154 5.94192 42.8663 9.57101 44.6665C9.76199 44.4047 9.96972 44.161 10.1942 43.9366C10.6551 43.4756 11.1505 43.0544 11.6742 42.6777C10.9744 40.3826 10.5968 37.9492 10.5968 35.4282C10.5968 32.9507 10.962 30.5571 11.6392 28.2969L11.6383 28.2964ZM8.56921 24.3443C6.82646 19.0529 10.0075 11.1251 10.154 10.7666C10.2674 10.488 10.4881 10.2679 10.7662 10.1544C11.1247 10.0079 19.0516 6.82736 24.344 8.56962C26.8545 3.59365 34.71 0.237886 35.0671 0.0875917C35.3437 -0.0291972 35.6558 -0.0291972 35.9325 0.0875917C36.2895 0.237886 44.1455 3.59413 46.6556 8.5701C51.7436 6.89677 59.2808 9.77581 60.1821 10.1338C60.4937 10.2578 60.7431 10.5072 60.8666 10.8192C61.2241 11.7196 64.1027 19.2568 62.4298 24.3447C67.4058 26.8547 70.7621 34.7107 70.9124 35.0673C71.0292 35.3444 71.0292 35.656 70.9124 35.9327C70.7621 36.2898 67.4058 44.1452 62.4303 46.6553C64.1731 51.9471 60.992 59.8749 60.8455 60.2339C60.7326 60.512 60.5119 60.7326 60.2333 60.8461C59.9519 60.9605 54.9926 62.9511 50.3129 62.9516C49.0392 62.9516 47.7866 62.8042 46.6546 62.4313C44.1441 67.4063 36.2895 70.7621 35.9325 70.9124C35.7941 70.9708 35.6472 71 35.4998 71C35.3523 71 35.2054 70.9708 35.0671 70.9124C34.71 70.7621 26.8554 67.4063 24.3449 62.4313C23.2129 62.8042 21.9598 62.9516 20.6871 62.9516C16.0074 62.9516 11.0481 60.9605 10.7667 60.8456C10.4886 60.7321 10.2679 60.5115 10.1545 60.2334C10.008 59.8749 6.82741 51.9481 8.56969 46.6557C3.59416 44.1457 0.237887 36.2898 0.0875923 35.9332C-0.0291974 35.6565 -0.0291974 35.3444 0.0875923 35.0673C0.237887 34.7107 3.59416 26.8547 8.56969 24.3447L8.56921 24.3443ZM26.3413 9.55515L29.2898 11.3079C31.2752 10.7963 33.3564 10.5244 35.4998 10.5244C37.8332 10.5244 40.0924 10.8475 42.2357 11.4506L43.9967 10.1343C44.2035 9.93328 44.4265 9.74565 44.6639 9.57238C43.0121 6.2865 37.9275 3.43235 35.5045 2.3353C33.8862 3.08246 28.1497 5.93374 26.3413 9.55467V9.55515ZM26.4615 12.2226L24.4066 11.0007C20.6732 9.10331 13.8506 11.3898 12.0509 12.0518C11.3884 13.8524 9.09763 20.6913 11.0079 24.4213L11.0223 24.4496L11.0242 24.4539V24.4544C11.23 24.8492 11.4808 25.1958 11.7704 25.4858C11.9781 25.6936 12.1945 25.8912 12.4185 26.0784C14.9907 19.7512 20.0921 14.7121 26.461 12.2226H26.4615ZM46.545 59.9745L46.5503 59.9773L46.5642 59.9845L46.5752 59.9902C50.3053 61.9034 57.1465 59.6116 58.9486 58.9487C59.6116 57.1476 61.9043 50.304 59.9897 46.5744L59.9753 46.5461L59.9734 46.5418C59.7681 46.1484 59.5177 45.8028 59.2291 45.5142C59.0075 45.2926 58.7763 45.0824 58.537 44.8848C55.9944 51.0549 51.0428 55.9878 44.8587 58.5045C45.0641 58.7553 45.2833 58.9971 45.5145 59.2283C45.8045 59.5178 46.1511 59.7691 46.5455 59.974L46.545 59.9745ZM61.4276 44.6641C64.7135 43.0118 67.5671 37.9272 68.6642 35.5053C67.9161 33.8846 65.0581 28.1337 61.4295 26.334C61.239 26.5958 61.0303 26.8399 60.8063 27.0639C60.3563 27.5138 59.8724 27.9264 59.3617 28.2969C60.039 30.5571 60.4037 32.9503 60.4037 35.4277C60.4037 37.9483 60.0265 40.3822 59.3263 42.6768C59.8499 43.0535 60.3453 43.4752 60.8063 43.9361C61.0298 44.1596 61.2375 44.4028 61.4276 44.6636V44.6641ZM26.1413 58.5045C19.9581 55.9874 15.0056 51.0554 12.463 44.8848C12.2237 45.0824 11.9925 45.2926 11.7709 45.5142C11.477 45.8085 11.2228 46.1608 11.016 46.5619L11.0151 46.5638C9.27617 49.933 11.0342 56.2607 12.0461 58.9463C13.8405 59.6069 20.7038 61.9096 24.4349 59.984C24.8379 59.7768 25.1907 59.5226 25.4855 59.2278C25.7167 58.9966 25.9354 58.7549 26.1413 58.5041V58.5045ZM44.7936 12.3246C51.0433 14.848 56.0428 19.8359 58.5806 26.0784C58.8046 25.8912 59.0209 25.6936 59.2286 25.4858C59.5201 25.1943 59.7719 24.8454 59.9777 24.4496L59.9844 24.4366C61.91 20.7056 59.5982 13.8189 58.9486 12.0518C57.182 11.4022 50.2952 9.08991 46.5646 11.0155C46.1616 11.2227 45.8088 11.4769 45.514 11.7713C45.4762 11.8091 45.4355 11.844 45.3929 11.8761L44.7932 12.3246H44.7936ZM35.5002 12.7554C22.999 12.7554 12.8277 22.926 12.8277 35.4277C12.8277 47.9294 22.9985 58.1001 35.5002 58.1001C48.002 58.1001 58.1723 47.9294 58.1723 35.4277C58.1723 22.926 48.0015 12.7554 35.5002 12.7554Z" fill="#000000"/>
</svg>
