<svg width="72" height="71" viewBox="0 0 72 71" fill="none" xmlns="http://www.w3.org/2000/svg">
<path d="M0 0H72V71H0V0ZM30.6913 36.4396C30.1573 36.4396 29.7243 36.0188 29.7243 35.5C29.7243 34.9811 30.1573 34.5604 30.6913 34.5604H33.6652L17.2496 18.6106C16.8718 18.2435 16.8718 17.649 17.2496 17.2824C17.627 16.9152 18.2388 16.9152 18.6166 17.2824L36.3998 34.5609H58.1115V14.0161H36.9668V27.9729C36.9668 28.4917 36.5337 28.9124 35.9997 28.9124C35.4657 28.9124 35.0327 28.4917 35.0327 27.9729V14.0161H13.888V34.5609H19.5881C20.1221 34.5609 20.5551 34.9816 20.5551 35.5005C20.5551 36.0193 20.1221 36.4401 19.5881 36.4401H13.888V56.2195L26.1621 44.2936C26.3799 44.0826 26.7321 44.0826 26.9493 44.2936C27.1666 44.5047 27.1666 44.8474 26.9493 45.0585L14.6752 56.9844H35.0323V43.0276C35.0323 42.5088 35.4653 42.088 35.9993 42.088C36.5333 42.088 36.9663 42.5088 36.9663 43.0276V56.9844H56.7435L35.5988 36.4396H30.6908H30.6913ZM58.1115 36.4396H38.3343L58.1115 55.6557V36.4396ZM60.2303 57.7143L69.5256 66.7458V4.25418L64.7728 8.87213C64.3954 9.23877 63.7831 9.23877 63.4057 8.87213C63.0284 8.50549 63.0284 7.91053 63.4057 7.54389L68.6955 2.40422H2.79512L6.36171 5.8696C6.59817 6.09935 6.59817 6.47269 6.36171 6.70244C6.12526 6.93219 5.74099 6.93219 5.50453 6.70244L2.47492 3.75878V67.3092L11.7702 58.2777V11.957H60.2313V57.7143H60.2303ZM68.695 68.5958L58.8633 59.043H12.5569L2.72517 68.5958H68.695Z" fill="#000000"/>
</svg>
