<svg width="71" height="71" viewBox="0 0 71 71" fill="none" xmlns="http://www.w3.org/2000/svg">
<path fill-rule="evenodd" clip-rule="evenodd" d="M0 0H71V71H0V0ZM63.4865 45.3529C63.7347 45.5975 63.7347 45.9942 63.4865 46.2384C63.2382 46.4829 62.8355 46.4829 62.5878 46.2384L36.72 20.7506V31.3798L36.756 31.4133L68.5599 62.7501V39.6427L47.2201 18.6163C46.9719 18.3718 46.9719 17.975 47.2201 17.7309C47.4684 17.4863 47.8711 17.4863 48.1188 17.7309L68.5599 37.8717V27.0697L43.5258 2.40327H36.7196V18.9787L63.486 45.3519L63.4865 45.3529ZM54.9673 61.3587C55.3395 61.7253 55.3395 62.3203 54.9673 62.6869C54.5952 63.0536 53.9914 63.0536 53.6193 62.6869L36.72 46.0359V56.6053L48.8893 68.5958H68.5604V65.4075L36.7205 34.0354V43.3794L54.9683 61.3592L54.9673 61.3587ZM47.0909 68.5958L36.7196 58.3767V68.5958H47.0909ZM22.239 68.5958L34.28 56.7316V46.964L18.2633 62.7453C17.8912 63.112 17.2874 63.112 16.9153 62.7453C16.5432 62.3787 16.5432 61.7837 16.9153 61.4171L34.28 44.3075V33.7328L2.44007 65.105V68.5958H22.2395H22.239ZM34.28 59.3886L24.9355 68.5958H34.28V59.3886ZM68.5599 15.1553L55.6183 2.40375H45.3237L68.5599 25.2987V15.1553ZM58.3149 2.40375L68.5599 12.4983V2.40375H58.3149ZM2.44007 63.3331L34.28 31.9609V9.1373L2.44007 40.5095V51.0348L20.2798 33.4571C20.528 33.2126 20.9308 33.2126 21.1785 33.4571C21.4267 33.7017 21.4267 34.0985 21.1785 34.3426L2.44007 52.8058V63.3331ZM2.44007 37.8525L34.1192 6.63878C34.1692 6.58948 34.2231 6.54736 34.28 6.51146V2.40375H15.917L2.44007 15.6827V25.8118L21.982 6.55693C22.2302 6.31234 22.6329 6.31234 22.8807 6.55693C23.1289 6.80152 23.1289 7.19831 22.8807 7.44242L2.43958 27.5832V37.853L2.44007 37.8525ZM2.44007 13.0258L13.2205 2.40375H2.44007V13.0258Z" fill="#000000"/>
</svg>
