<svg width="80" height="71" viewBox="0 0 80 71" fill="none" xmlns="http://www.w3.org/2000/svg">
<path d="M30.562 40.177C29.8499 40.177 29.2724 39.6148 29.2724 38.9216C29.2724 38.2284 29.8499 37.6662 30.562 37.6662H45.651C45.6727 37.6662 45.6939 37.6666 45.7151 37.6676V33.2859H2.5812V37.6662H4.61441H18.2374C18.9495 37.6662 19.527 38.2284 19.527 38.9216C19.527 39.6148 18.9495 40.177 18.2374 40.177H5.90402V49.268C5.90402 51.9328 7.02514 54.3568 8.8307 56.114C10.6363 57.8717 13.1258 58.9626 15.8637 58.9626H64.3334C69.8112 58.9626 74.2926 54.6 74.2926 49.2675V40.1765H64.2861C64.2644 40.1765 64.2432 40.176 64.2221 40.1751V50.8746C64.2221 51.5116 63.9545 52.0902 63.5243 52.5095L63.4844 52.5454C63.0571 52.9431 62.4786 53.1887 61.8449 53.1887H48.0922C47.4378 53.1887 46.8435 52.9282 46.4128 52.5095C45.9826 52.0907 45.7151 51.5116 45.7151 50.8746V40.1751C45.6939 40.176 45.6727 40.1765 45.651 40.1765H30.562V40.177ZM24.5505 37.9578C25.1009 37.9578 25.5469 38.3924 25.5469 38.9278C25.5469 39.4636 25.1005 39.8978 24.5505 39.8978C24.0001 39.8978 23.5541 39.4632 23.5541 38.9278C23.5541 38.392 24.0006 37.9578 24.5505 37.9578ZM41.0795 10.7144C41.0711 10.6794 38.0341 -1.52113 51.9158 0.158822C52.2154 0.194321 52.4421 0.425542 52.4775 0.704736C52.6397 1.51017 54.6088 12.4198 41.6462 11.1975C41.3633 11.1716 41.1406 10.9701 41.0795 10.7144ZM51.284 1.35331C41.2273 0.368456 41.9128 8.04003 42.2449 9.99055C51.9754 10.6746 51.5531 3.26976 51.284 1.35331ZM31.9043 14.6495C31.6062 16.6288 31.0508 24.4409 41.1219 23.4863C41.4333 21.5315 42.0433 13.776 31.9043 14.6495ZM41.7442 24.6827C28.2237 26.2797 30.597 14.543 30.7206 13.9688C30.767 13.6992 30.9922 13.4814 31.2849 13.4498C45.0858 11.9415 42.3562 23.943 42.3001 24.1862C42.2454 24.4438 42.0276 24.6501 41.7447 24.6827H41.7442ZM6.96105 30.7746C5.88679 29.1915 4.78837 26.4802 5.43145 22.3887C5.47284 22.1196 5.68476 21.9162 5.94396 21.8663C6.44562 21.7354 10.9787 20.6402 14.0345 23.0771C15.0398 23.8787 15.6745 25.0046 16.0726 26.177C17.1809 23.2772 19.8824 20.491 26.3304 21.4432C26.5896 21.4811 26.7897 21.6648 26.8558 21.8961C27.0051 22.3355 28.5415 27.1571 25.2704 30.7746H43.9869C43.4902 29.8061 43.0427 28.3343 43.6922 26.7743C44.6152 24.558 46.7583 24.5935 47.6971 24.7278C48.6452 23.5122 52.2228 19.6481 58.2692 21.3885C59.0409 20.5083 61.2713 18.3126 64.1132 18.5976C66.6441 18.8513 67.9401 20.0621 68.4694 20.7241C69.5343 20.4742 72.149 20.0636 73.6002 21.5943C74.9485 23.0162 74.7164 25.2301 74.506 26.2806C75.7104 26.7321 78.3536 28.035 78.3482 30.7746H78.7104C79.4225 30.7746 80 31.3368 80 32.03V38.9216C80 39.6148 79.4225 40.177 78.7104 40.177H76.8714V49.268C76.8714 55.1791 72.4969 60.1427 66.7436 61.245C66.8373 61.3251 66.9284 61.4076 67.0162 61.4935C68.0515 62.5014 68.6916 63.8935 68.6916 65.431C68.6916 66.9685 68.051 68.3606 67.0157 69.3685C65.9808 70.3764 64.5503 71 62.9714 71C61.392 71 59.9619 70.3764 58.9266 69.3685C57.8913 68.3611 57.2507 66.9685 57.2507 65.431C57.2507 63.894 57.8913 62.5014 58.9266 61.494L58.9468 61.4743H21.2469L21.2671 61.494C22.3024 62.5014 22.943 63.894 22.943 65.431C22.943 66.968 22.3024 68.3606 21.2671 69.3685C20.2322 70.3759 18.8017 71 17.2228 71C15.6434 71 14.2134 70.3764 13.178 69.3685C12.1432 68.3611 11.5021 66.9685 11.5021 65.431C11.5021 63.894 12.1427 62.5014 13.178 61.4935C13.2657 61.4081 13.3564 61.3256 13.4495 61.246C10.9629 60.7696 8.7346 59.5727 7.00542 57.8894C4.7332 55.678 3.32283 52.626 3.32283 49.268V40.177H1.28961C0.577539 40.177 0 39.6148 0 38.9216V32.03C0 31.3368 0.577539 30.7746 1.28961 30.7746H6.95908H6.96105ZM23.4136 30.7746C26.871 28.0143 26.0762 23.8739 25.7371 22.631C18.5144 21.7416 16.9592 26.4548 16.6763 29.3618C16.7143 29.9092 16.7196 30.3947 16.7123 30.7751H23.4136V30.7746ZM15.3354 30.7746C15.3276 30.3774 15.3349 29.866 15.3857 29.2865C15.2556 27.5682 14.7722 25.2876 13.2184 24.0485C11.0093 22.2866 7.77664 22.7543 6.64767 22.9898C6.09921 27.2103 7.57312 29.655 8.55327 30.7746H15.3354ZM77.0517 30.7746C77.0053 28.1832 73.585 27.2976 73.5741 27.2948L73.5613 27.29C73.2218 27.1897 73.0301 26.8405 73.1331 26.51C73.1355 26.5023 73.9723 23.8332 72.6536 22.4425C71.4256 21.1477 68.6601 21.9594 68.4107 22.0361C68.1121 22.1398 67.7731 22.0146 67.6242 21.733C67.6218 21.7286 66.8003 20.1264 63.9831 19.8439C61.1855 19.5632 59.0217 22.476 59.0153 22.4842C58.8542 22.6977 58.5639 22.796 58.2924 22.7073C52.0503 20.6723 48.7407 25.4301 48.5298 25.7453C48.3845 25.9789 48.0922 26.1003 47.8089 26.024C47.803 26.0226 45.6485 25.4167 44.8867 27.2458C44.2682 28.731 45.0311 30.1457 45.4648 30.7756H77.0517V30.7746ZM64.2216 33.2859V37.6676C64.2428 37.6666 64.2639 37.6662 64.2856 37.6662H75.5822H77.4213V33.2859H64.2216ZM47.0047 33.2859V50.8755C47.0047 51.1658 47.1274 51.4306 47.3245 51.6225C47.5216 51.8143 47.7936 51.9338 48.0918 51.9338H61.8444C62.1307 51.9338 62.3924 51.8249 62.5875 51.6479L62.6121 51.6225C62.8093 51.4306 62.932 51.1658 62.932 50.8755V33.2859H47.0047ZM65.6496 62.8252C64.9647 62.1584 64.0181 61.7463 62.9729 61.7463C61.9272 61.7463 60.9805 62.1589 60.2961 62.8257C59.6111 63.4925 59.1873 64.4135 59.1873 65.4315C59.1873 66.449 59.6111 67.371 60.2961 68.0373C60.981 68.7041 61.9277 69.1166 62.9729 69.1166C64.0181 69.1166 64.9647 68.7041 65.6496 68.0373C66.3346 67.3705 66.7584 66.4494 66.7584 65.4315C66.7584 64.4135 66.3346 63.492 65.6502 62.8257L65.6496 62.8252ZM19.9006 62.8252C19.2156 62.1584 18.2695 61.7458 17.2238 61.7458C16.1781 61.7458 15.2315 62.1584 14.5465 62.8247C13.8615 63.4915 13.4377 64.4131 13.4377 65.4305C13.4377 66.448 13.8615 67.37 14.5465 68.0363C15.2315 68.7031 16.1781 69.1157 17.2238 69.1157C18.269 69.1157 19.2156 68.7031 19.9006 68.0363C20.5855 67.3695 21.0093 66.448 21.0093 65.4305C21.0093 64.4131 20.5855 63.4915 19.9006 62.8247V62.8252Z" fill="#000000"/>
</svg>
