<svg width="45" height="71" viewBox="0 0 45 71" fill="none" xmlns="http://www.w3.org/2000/svg">
<path fill-rule="evenodd" clip-rule="evenodd" d="M0 0H45V71H0V0ZM8.16082 49.6248C7.91334 49.8693 7.51186 49.8693 7.26488 49.6248C7.0174 49.3802 7.0174 48.9834 7.26488 48.7393L9.09405 46.9314L7.26488 45.1236C7.0174 44.879 7.0174 44.4822 7.26488 44.2381C7.51235 43.9935 7.91383 43.9935 8.16082 44.2381L9.98999 46.0459L11.8192 44.2381C12.0666 43.9935 12.4681 43.9935 12.7151 44.2381C12.9626 44.4827 12.9626 44.8795 12.7151 45.1236L10.8859 46.9314L12.7151 48.7393C12.9626 48.9839 12.9626 49.3806 12.7151 49.6248C12.4676 49.8693 12.0662 49.8693 11.8192 49.6248L9.98999 47.8169L8.16082 49.6248ZM33.5039 26.1746C33.5039 25.8285 33.7877 25.5481 34.1378 25.5481C34.4879 25.5481 34.7717 25.8285 34.7717 26.1746V52.0601C34.7717 52.4062 34.4879 52.6866 34.1378 52.6866C33.7877 52.6866 33.5039 52.4062 33.5039 52.0601V26.1746ZM29.2585 43.0999C29.2585 42.581 29.6842 42.1603 30.2092 42.1603C30.7342 42.1603 31.1599 42.581 31.1599 43.0999V68.5958H42.5674V2.40422H14.5385V27.868C14.5385 28.3869 14.1128 28.8076 13.5878 28.8076C13.0628 28.8076 12.6371 28.3869 12.6371 27.868V2.40422H2.43212V68.5958H29.2581V43.0999H29.2585ZM9.63016 12.8343C9.63016 12.4883 9.91396 12.2078 10.2641 12.2078C10.6142 12.2078 10.898 12.4883 10.898 12.8343V38.7198C10.898 39.0659 10.6142 39.3464 10.2641 39.3464C9.91396 39.3464 9.63016 39.0659 9.63016 38.7198V12.8343Z" fill="black"/>
</svg>
